<svg width="28" height="28" viewBox="0 0 28 28" fill="none" xmlns="http://www.w3.org/2000/svg">
<g clip-path="url(#clip0_1_8005)">
<path d="M24.856 3.14401C23.13 1.52161 20.7739 0.601214 18.1738 0.256914C15.6907 -0.072186 14 0.00881404 14 0.00881404C14 0.00881404 12.309 -0.072186 9.82581 0.256914C7.22581 0.601214 4.86981 1.52161 3.14431 3.14401C1.52151 4.86981 0.601206 7.22591 0.256706 9.82591C-0.0723941 12.3089 0.00890586 13.9999 0.00890586 13.9999C0.00890586 13.9999 -0.0723941 15.6907 0.256706 18.1739C0.601206 20.7737 1.52151 23.13 3.14411 24.8558C4.86981 26.4784 7.22581 27.3986 9.82581 27.7433C12.309 28.0722 14 27.9912 14 27.9912C14 27.9912 15.6907 28.0722 18.1738 27.7433C20.7739 27.3986 23.13 26.4784 24.8556 24.8558C26.4786 23.13 27.3988 20.7737 27.7433 18.1739C28.0722 15.6907 27.9912 13.9999 27.9912 13.9999C27.9912 13.9999 28.0722 12.3089 27.7433 9.82591C27.3988 7.22591 26.4786 4.86981 24.856 3.14401Z" fill="black"/>
<path d="M20.3456 10.4269C20.935 10.4269 21.4126 10.9063 21.4126 11.4985C21.4126 12.0915 20.935 12.571 20.3456 12.571L16.6405 12.8441C16.5378 12.8515 16.4489 12.9239 16.4241 13.0238C16.2848 13.5655 16.2142 13.9249 16.2151 14.4859C16.2151 14.7224 16.2472 14.9589 16.3095 15.1871L18.098 21.5011C18.251 22.0731 17.9128 22.6607 17.3445 22.8156C16.7743 22.9687 16.1895 22.6295 16.0373 22.0575L14.06 17.0764H13.7117L11.7345 22.0575C11.5823 22.6295 10.9975 22.9687 10.4273 22.8156C9.859 22.6607 9.5207 22.0731 9.6729 21.5011L11.4622 15.1871C11.5245 14.9589 11.5566 14.7224 11.5566 14.4859C11.5566 13.9249 11.487 13.5655 11.3485 13.0238C11.322 12.9239 11.234 12.8515 11.1304 12.8441L7.6544 12.571C7.0659 12.571 6.5874 12.0915 6.5874 11.4985C6.5874 10.9063 7.0659 10.4269 7.6544 10.4269H20.3456ZM13.886 5.14844C14.898 5.14844 15.7193 5.96984 15.7193 6.98184C15.7193 7.99384 14.898 8.81514 13.886 8.81514C12.874 8.81514 12.0526 7.99384 12.0526 6.98184C12.0526 5.96984 12.874 5.14844 13.886 5.14844Z" fill="white"/>
</g>
<defs>
<clipPath id="clip0_1_8005">
<rect width="28" height="28" fill="white"/>
</clipPath>
</defs>
</svg>
