<svg width="60" height="60" viewBox="0 0 60 60" fill="none" xmlns="http://www.w3.org/2000/svg">
<path d="M12.5 24.1C12.5 25.5 13.6 26.6 15 26.6L23.2 27.2C23.4 27.2 23.7 27.4 23.7 27.6C24 28.9 24.2 29.7 24.2 31C24.2 31.6 24.1 32.1 24 32.7L19.8 47.6C19.4 48.9 20.2 50.3 21.6 50.7C22.9 51.1 24.3 50.3 24.7 48.9L29.4 37.2H29.8H30.2L34.8 49C35.2 50.3 36.5 51.1 37.9 50.8C39.2 50.4 40 49.1 39.7 47.7L35.5 32.8C35.4 32.3 35.3 31.7 35.3 31.1C35.3 29.8 35.5 28.9 35.8 27.7C35.9 27.5 36.1 27.3 36.3 27.3L45 26.7C46.4 26.7 47.5 25.6 47.5 24.2C47.5 22.8 46.4 21.7 45 21.7H15C13.7 21.6 12.5 22.7 12.5 24.1Z" fill="black"/>
<path d="M25.4 13.5C25.4 15.9 27.3 17.8 29.7 17.8C32.1 17.8 34 15.9 34 13.5C34 11.1 32.1 9.20001 29.7 9.20001C27.3 9.10001 25.4 11.1 25.4 13.5Z" fill="black"/>
</svg>
