<svg id="vector" xmlns="http://www.w3.org/2000/svg" width="28.0d" height="28.0d" viewBox="0 0 28.0 28.0"><path fill="@color/sec_dashboard_privacy_color" d="M24.856,3.144C23.13,1.5216 20.7739,0.6012 18.1738,0.2569C15.6907,-0.0722 14,0.0088 14,0.0088C14,0.0088 12.309,-0.0722 9.8258,0.2569C7.2258,0.6012 4.8698,1.5216 3.1443,3.144C1.5215,4.8698 0.6012,7.2259 0.2567,9.8259C-0.0724,12.3089 0.0089,13.9999 0.0089,13.9999C0.0089,13.9999 -0.0724,15.6907 0.2567,18.1739C0.6012,20.7737 1.5215,23.13 3.1441,24.8558C4.8698,26.4784 7.2258,27.3986 9.8258,27.7433C12.309,28.0722 14,27.9912 14,27.9912C14,27.9912 15.6907,28.0722 18.1738,27.7433C20.7739,27.3986 23.13,26.4784 24.8556,24.8558C26.4786,23.13 27.3988,20.7737 27.7433,18.1739C28.0722,15.6907 27.9912,13.9999 27.9912,13.9999C27.9912,13.9999 28.0722,12.3089 27.7433,9.8259C27.3988,7.2259 26.4786,4.8698 24.856,3.144Z" stroke="#00000000" stroke-width="1.0" fill-rule="evenodd" id="path_0"/><path fill="#ffffffff" d="M16.7566,16.6015C15.9641,17.1209 15.0173,17.4247 14.0005,17.4247C12.9827,17.4247 12.0369,17.1209 11.2434,16.6015L11.2434,16.0332C11.2434,14.7989 12.4777,13.6508 14.0005,13.6508C15.5223,13.6508 16.7576,14.7989 16.7566,16.0332L16.7566,16.6015ZM14.0005,9.5396C14.8764,9.5396 15.5865,10.2497 15.5865,11.1256C15.5865,12.0015 14.8764,12.7116 14.0005,12.7116C13.1236,12.7116 12.4144,12.0015 12.4144,11.1256C12.4144,10.2497 13.1236,9.5396 14.0005,9.5396L14.0005,9.5396ZM19.6173,7.3335C17.7629,7.0508 16.219,6.5103 14.5985,5.7484C14.2199,5.5701 13.7801,5.5701 13.4015,5.7484C11.7819,6.5103 10.2371,7.0508 8.3827,7.3335C7.687,7.4398 7.1685,8.0311 7.1685,8.7346L7.1685,13.8904C7.1685,16.3552 8.2361,18.5105 10.3396,20.2988C11.5701,21.3433 12.8831,22.0065 13.6392,22.3141C13.8711,22.409 14.1289,22.409 14.3608,22.3141C15.1179,22.0065 16.4308,21.3433 17.6613,20.2988C19.7649,18.5105 20.8315,16.3552 20.8315,13.8904L20.8315,8.7346C20.8315,8.0311 20.313,7.4398 19.6173,7.3335L19.6173,7.3335Z" stroke="#00000000" stroke-width="1.0" fill-rule="nonzero" id="path_1"/></svg>