<svg width="32" height="32" viewBox="0 0 32 32" fill="none" xmlns="http://www.w3.org/2000/svg">
<path d="M24.1315 15.1066C24.5756 15.1621 24.9185 15.5407 24.9185 15.9996C24.9185 16.4585 24.5756 16.8371 24.1315 16.8926L24.0185 16.8996H9.77501L14.9314 21.8504C15.2595 22.1653 15.2965 22.6714 15.0356 23.0294L14.957 23.1232C14.7865 23.3019 14.5513 23.3996 14.3075 23.3996C14.1151 23.3996 13.9277 23.3385 13.7738 23.2239L13.6856 23.1488L7.66581 17.37C7.28901 17.0095 7.08151 16.5217 7.08151 15.9996C7.08151 15.5351 7.24521 15.098 7.54561 14.7532L7.66461 14.6284L13.6853 8.85072C14.0419 8.50622 14.6131 8.51772 14.9567 8.87572C15.2722 9.20442 15.2888 9.71063 15.0136 10.0582L14.9314 10.1488L9.77401 15.0996H24.0185L24.1315 15.1066Z" fill="#252525"/>
</svg>
