<?xml version="1.0" encoding="UTF-8" standalone="no"?>
<svg
   width="14.800659"
   height="17.838051"
   viewBox="0 0 14.800659 17.838051"
   fill="none"
   version="1.1"
   id="svg54"
   sodipodi:docname="arrow-down.svg"
   xmlns:inkscape="http://www.inkscape.org/namespaces/inkscape"
   xmlns:sodipodi="http://sodipodi.sourceforge.net/DTD/sodipodi-0.dtd"
   xmlns="http://www.w3.org/2000/svg"
   xmlns:svg="http://www.w3.org/2000/svg">
  <defs
     id="defs58" />
  <sodipodi:namedview
     id="namedview56"
     pagecolor="#ffffff"
     bordercolor="#666666"
     borderopacity="1.0"
     inkscape:showpageshadow="2"
     inkscape:pageopacity="0.0"
     inkscape:pagecheckerboard="0"
     inkscape:deskcolor="#d1d1d1" />
  <path
     d="m 7.3999315,0 c 0.4592,0 0.8375,0.34331 0.893,0.78711 l 0.007,0.11289 -6e-4,14.24505 4.9515005,-5.1571 c 0.3164,-0.3284 0.8215,-0.3654 1.1793,-0.1046 l 0.0936,0.0785 c 0.3291,0.3159 0.3662,0.8213 0.1042,1.1793 l -0.0788,0.0938 -5.7779005,6.0188 c -0.3606,0.3769 -0.8484,0.5843 -1.3713,0.5843 -0.4641,0 -0.9011,-0.164 -1.2455,-0.4649 l -0.1247,-0.1192 -5.77900999,-6.019 c -0.3444,-0.3588 -0.3325,-0.9287 0.0265,-1.2733 0.3291,-0.3148 0.83449999,-0.3314 1.18140999,-0.0559 l 0.0905,0.0824 4.9502,5.1569 6e-4,-14.24505 c 0,-0.4586 0.3435,-0.8374 0.7871,-0.893 z"
     fill="#252525"
     id="path52" />
</svg>
