<svg width="32" height="32" viewBox="0 0 32 32" fill="none" xmlns="http://www.w3.org/2000/svg">
<path d="M16 7.08105C16.4633 7.08105 16.9005 7.24555 17.2461 7.54615L17.3712 7.66515L23.1492 13.6852C23.4933 14.0437 23.4818 14.6124 23.1234 14.9587C22.9528 15.1212 22.7301 15.2091 22.5 15.2091C22.2976 15.2091 22.1011 15.1409 21.9417 15.0146L21.8508 14.932L16.899 9.77305L16.9 24.0191C16.9 24.4784 16.5567 24.8566 16.1129 24.9121L16 24.9191C15.5411 24.9191 15.1625 24.5762 15.107 24.1321L15.1 24.0191L15.099 9.77406L10.1492 14.932C9.8338 15.2606 9.3288 15.2976 8.9698 15.0366L8.8758 14.958C8.548 14.6412 8.511 14.1369 8.7722 13.779L8.8508 13.6852L14.6289 7.66505C14.9906 7.28925 15.4788 7.08105 16 7.08105Z" fill="#252525"/>
</svg>
