<svg width="24" height="24" viewBox="0 0 24 24" fill="none" xmlns="http://www.w3.org/2000/svg">
<path d="M20.2305 10.7378L14.2105 4.95976C13.9135 4.67276 13.4385 4.68076 13.1515 4.98076C12.8645 5.27976 12.8745 5.75476 13.1725 6.04176L18.5985 11.2508H3.9815C3.5665 11.2508 3.2315 11.5868 3.2315 12.0008C3.2315 12.4148 3.5665 12.7508 3.9815 12.7508H18.5985L13.1725 17.9598C12.8745 18.2458 12.8645 18.7208 13.1515 19.0198C13.2975 19.1738 13.4955 19.2508 13.6925 19.2508C13.8785 19.2508 14.0665 19.1808 14.2105 19.0418L20.2315 13.2618C20.5785 12.9288 20.7685 12.4808 20.7685 12.0008C20.7685 11.5188 20.5785 11.0708 20.2305 10.7378Z" fill="#252525"/>
</svg>
