<svg width="32" height="32" viewBox="0 0 32 32" fill="none" xmlns="http://www.w3.org/2000/svg">
<path d="M15.9996 7.08105C16.4588 7.08105 16.8371 7.42436 16.8926 7.86816L16.8996 7.98105L16.899 22.2261L21.8505 17.069C22.1669 16.7406 22.672 16.7036 23.0298 16.9644L23.1234 17.0429C23.4525 17.3588 23.4896 17.8642 23.2276 18.2222L23.1488 18.316L17.3709 24.3348C17.0103 24.7117 16.5225 24.9191 15.9996 24.9191C15.5355 24.9191 15.0985 24.7551 14.7541 24.4542L14.6294 24.335L8.85039 18.316C8.50599 17.9572 8.51789 17.3873 8.87689 17.0427C9.20599 16.7279 9.71139 16.7113 10.0583 16.9868L10.1488 17.0692L15.099 22.2261L15.0996 7.98105C15.0996 7.52245 15.4431 7.14365 15.8867 7.08805L15.9996 7.08105Z" fill="#252525"/>
</svg>
