<?xml version="1.0" encoding="UTF-8" standalone="no"?>
<svg
   width="17.83699"
   height="14.799995"
   viewBox="0 0 17.83699 14.799995"
   fill="none"
   version="1.1"
   id="svg66"
   sodipodi:docname="arrow-left.svg"
   xmlns:inkscape="http://www.inkscape.org/namespaces/inkscape"
   xmlns:sodipodi="http://sodipodi.sourceforge.net/DTD/sodipodi-0.dtd"
   xmlns="http://www.w3.org/2000/svg"
   xmlns:svg="http://www.w3.org/2000/svg">
  <defs
     id="defs70" />
  <sodipodi:namedview
     id="namedview68"
     pagecolor="#ffffff"
     bordercolor="#666666"
     borderopacity="1.0"
     inkscape:showpageshadow="2"
     inkscape:pageopacity="0.0"
     inkscape:pagecheckerboard="0"
     inkscape:deskcolor="#d1d1d1" />
  <path
     d="m 17.04999,6.5069953 c 0.4441,0.0555 0.787,0.4341 0.787,0.893 0,0.4589 -0.3429,0.8375 -0.787,0.893 l -0.113,0.007 H 2.6935 l 5.15639,4.9507997 c 0.3281,0.3149 0.3651,0.821 0.1042,1.179 l -0.0786,0.0938 c -0.1705,0.1787 -0.4057,0.2764 -0.6495,0.2764 -0.1924,0 -0.3798,-0.0611 -0.5337,-0.1757 L 6.60409,14.549195 0.5843,8.7703953 C 0.2075,8.4098953 0,7.9220953 0,7.3999953 c 0,-0.4645 0.1637,-0.9016 0.4641,-1.2464 l 0.119,-0.1248 6.02069,-5.77768003 c 0.3566,-0.3445 0.9278,-0.333 1.2714,0.025 0.3155,0.3287 0.3321,0.83491003 0.0569,1.18248003 l -0.0822,0.0906 -5.15739,4.9508 h 14.24449 z"
     fill="#252525"
     id="path64" />
</svg>
