<svg width="32" height="32" viewBox="0 0 32 32" fill="none" xmlns="http://www.w3.org/2000/svg">
<path d="M12.0744 25.887C11.1984 25.8874 10.3217 25.554 9.6544 24.887C9.0077 24.2424 8.651 23.3844 8.651 22.4714C8.6507 21.5584 9.0074 20.6994 9.655 20.054L18.6254 11.1117L20.1464 12.6374L11.1764 21.5797C10.9374 21.818 10.8054 22.1347 10.8057 22.471C10.8057 22.8074 10.9374 23.124 11.1764 23.362C11.6717 23.857 12.4764 23.857 12.9714 23.3627L21.9464 14.4204C22.585 13.7827 22.938 12.935 22.938 12.0334C22.9387 11.1307 22.5857 10.282 21.9454 9.64297C20.622 8.32397 18.4684 8.32497 17.146 9.64367L7.5404 19.2167L6.0197 17.6907L15.6244 8.11837C17.785 5.96367 21.3034 5.96297 23.466 8.11737C24.515 9.16467 25.0924 10.5554 25.0917 12.0344C25.0917 13.5124 24.514 14.902 23.466 15.9464L14.4927 24.8877C13.8267 25.554 12.9504 25.887 12.0744 25.887Z" fill="black"/>
</svg>
