<?xml version="1.0" encoding="UTF-8" standalone="no"?>
<svg
   id="vector"
   width="28.000011"
   height="28.000034"
   viewBox="0 0 28.000011 28.000034"
   version="1.1"
   sodipodi:docname="audio-squircle.svg"
   xmlns:inkscape="http://www.inkscape.org/namespaces/inkscape"
   xmlns:sodipodi="http://sodipodi.sourceforge.net/DTD/sodipodi-0.dtd"
   xmlns="http://www.w3.org/2000/svg"
   xmlns:svg="http://www.w3.org/2000/svg">
  <defs
     id="defs105" />
  <sodipodi:namedview
     id="namedview103"
     pagecolor="#ffffff"
     bordercolor="#666666"
     borderopacity="1.0"
     inkscape:showpageshadow="2"
     inkscape:pageopacity="0.0"
     inkscape:pagecheckerboard="0"
     inkscape:deskcolor="#d1d1d1" />
  <path
     fill="@color/sec_dashboard_sounds_color"
     d="m 24.855991,3.144014 c -1.726,-1.6224 -4.0821,-2.54279996 -6.6822,-2.88709996 -2.4831,-0.3291 -4.1738,-0.2481 -4.1738,-0.2481 0,0 -1.691,-0.081 -4.1742004,0.2481 -2.6,0.3443 -4.956,1.26469996 -6.6815,2.88709996 -1.6228,1.7258 -2.5431,4.0819 -2.8876,6.6819 -0.3291,2.483 -0.2478,4.174 -0.2478,4.174 0,0 -0.0813,1.6908 0.2478,4.174 0.3445,2.5998 1.2648,4.9561 2.8874,6.6819 1.7257,1.6226 4.0817,2.5428 6.6817,2.8875 2.4832004,0.3289 4.1742004,0.2479 4.1742004,0.2479 0,0 1.6907,0.081 4.1738,-0.2479 2.6001,-0.3447 4.9562,-1.2649 6.6818,-2.8875 1.623,-1.7258 2.5432,-4.0821 2.8877,-6.6819 0.3289,-2.4832 0.2479,-4.174 0.2479,-4.174 0,0 0.081,-1.691 -0.2479,-4.174 -0.3445,-2.6 -1.2647,-4.9561 -2.8873,-6.6819 z"
     stroke="#00000000"
     stroke-width="1"
     fill-rule="evenodd"
     id="path_0" />
  <path
     fill="#ffffffff"
     d="m 13.689391,7.700414 c 0.5629,-0.506 1.023,-0.2997 1.023,0.4556 v 0 11.6875 c 0,0.7563 -0.4601,0.9616 -1.023,0.4565 v 0 l -4.1974004,-3.542 v -0.0348 c -0.0889,0.0147 -0.1787,0.0247 -0.2713,0.0247 v 0 h -1.9195 c -0.8828,0 -1.6042,-0.7223 -1.6042,-1.6041 v 0 -2.2917 c 0,-0.8828 0.7214,-1.6042 1.6042,-1.6042 v 0 h 1.9195 c 0.0926,0 0.1824,0.0101 0.2713,0.0248 v 0 -0.0312 z m 4.9662,0.332 c 0.2585,-0.2786 0.6939,-0.2942 0.9716,-0.0366 1.7261,1.6014 2.6758,3.7336 2.6758,6.0051 0,2.2706 -0.9506,4.4027 -2.6758,6.0032 -0.1329,0.1228 -0.2997,0.1834 -0.4675,0.1834 -0.1842,0 -0.3685,-0.0734 -0.5041,-0.2191 -0.2585,-0.2787 -0.2411,-0.7141 0.0366,-0.9726 1.4419,-1.3365 2.2358,-3.1112 2.2358,-4.9949 0,-1.8847 -0.7939,-3.6584 -2.2358,-4.9968 -0.2777,-0.2585 -0.2951,-0.693 -0.0366,-0.9717 z m -1.9534,2.6299 c 0.2613,-0.2741 0.6958,-0.2869 0.9726,-0.0257 0.946,0.8965 1.4676,2.09 1.4685,3.3633 0,1.2732 -0.5225,2.4676 -1.4685,3.3641 -0.1338,0.1265 -0.3034,0.1879 -0.473,0.1879 -0.1824,0 -0.3639,-0.0715 -0.4996,-0.2135 -0.2612,-0.276 -0.2484,-0.7123 0.0275,-0.9726 0.6692,-0.6344 1.0386,-1.474 1.0386,-2.3659 -9e-4,-0.891 -0.3694,-1.7316 -1.0386,-2.365 -0.2759,-0.2613 -0.2887,-0.6967 -0.0275,-0.9726 z"
     stroke="#00000000"
     stroke-width="1"
     fill-rule="nonzero"
     id="path_1" />
</svg>
