<svg width="24" height="24" viewBox="0 0 24 24" fill="none" xmlns="http://www.w3.org/2000/svg">
<path d="M13.3816 18.0618C13.7226 17.7199 14.2766 17.7199 14.6186 18.0618C14.9606 18.4028 14.9606 18.9569 14.6186 19.2988C13.9186 19.9989 12.9896 20.3839 11.9996 20.3839C11.0106 20.3839 10.0806 19.9989 9.3816 19.2988C9.0396 18.9569 9.0396 18.4028 9.3816 18.0618C9.7226 17.7199 10.2766 17.7199 10.6186 18.0618C10.9876 18.4298 11.4776 18.6339 11.9996 18.6339C12.5216 18.6339 13.0126 18.4298 13.3816 18.0618ZM12 3.61719C14.962 3.61719 17.376 5.95819 17.494 8.89109H17.5V11.2762L19.379 15.2241C19.57 16.1542 18.86 16.5262 17.91 16.5262H6.09C5.14 16.5262 4.43 16.1542 4.621 15.2241L6.5 11.2762V8.89109C6.624 5.95819 9.038 3.61719 12 3.61719Z" fill="#252525"/>
</svg>
