<?xml version="1.0" encoding="UTF-8" standalone="no"?>
<svg
   width="16.150982"
   height="16.839321"
   viewBox="0 0 16.150982 16.839321"
   fill="none"
   version="1.1"
   id="svg114"
   sodipodi:docname="bell-silenced.svg"
   xmlns:inkscape="http://www.inkscape.org/namespaces/inkscape"
   xmlns:sodipodi="http://sodipodi.sourceforge.net/DTD/sodipodi-0.dtd"
   xmlns="http://www.w3.org/2000/svg"
   xmlns:svg="http://www.w3.org/2000/svg">
  <defs
     id="defs118" />
  <sodipodi:namedview
     id="namedview116"
     pagecolor="#ffffff"
     bordercolor="#666666"
     borderopacity="1.0"
     inkscape:showpageshadow="2"
     inkscape:pageopacity="0.0"
     inkscape:pagecheckerboard="0"
     inkscape:deskcolor="#d1d1d1" />
  <path
     d="m 9.92835,14.517322 c 0.342,-0.342 0.896,-0.342 1.238,0 0.341,0.342 0.341,0.895 0,1.237 -0.7,0.7 -1.63,1.085 -2.619,1.085 -0.989,0 -1.919,-0.385 -2.619,-1.085 -0.341,-0.342 -0.341,-0.895 0,-1.237 0.342,-0.342 0.896,-0.342 1.238,0 0.369,0.368 0.86,0.572 1.381,0.572 0.522,0 1.013,-0.204 1.381,-0.572 z M 0.21975,0.21823206 c 0.277,-0.278 0.716,-0.289 1.011,-0.041 l 14.743,14.74398994 c 0.248,0.294 0.237,0.733 -0.041,1.01 -0.146,0.147 -0.338,0.22 -0.53,0.22 -0.192,0 -0.384,-0.073 -0.53,-0.22 l -2.95,-2.949 h -9.285 c -0.95,0 -1.661,-0.372 -1.469,-1.303 l 1.879,-3.9469999 v -2.38599 c 0.021,-0.371 0.072,-0.733 0.157,-1.082 l -2.985,-2.985 c -0.293,-0.29300004 -0.293,-0.76900004 0,-1.06100004 z m 8.3275,-0.1463 c 2.962,0 5.376,2.34200004 5.495,5.27500004 h 0.005 v 2.38499 l 1.879,3.9469999 c 0.08,0.389 0.001,0.68 -0.186,0.887 L 4.76025,1.5859321 c 0.986,-0.93700004 2.319,-1.51400004 3.787,-1.51400004 z"
     fill="#252525"
     id="path112" />
</svg>
