<?xml version="1.0" encoding="UTF-8" standalone="no"?>
<svg
   width="14.820408"
   height="16.76671"
   viewBox="0 0 14.820408 16.76671"
   fill="none"
   version="1.1"
   id="svg126"
   sodipodi:docname="bell.svg"
   xmlns:inkscape="http://www.inkscape.org/namespaces/inkscape"
   xmlns:sodipodi="http://sodipodi.sourceforge.net/DTD/sodipodi-0.dtd"
   xmlns="http://www.w3.org/2000/svg"
   xmlns:svg="http://www.w3.org/2000/svg">
  <defs
     id="defs130" />
  <sodipodi:namedview
     id="namedview128"
     pagecolor="#ffffff"
     bordercolor="#666666"
     borderopacity="1.0"
     inkscape:showpageshadow="2"
     inkscape:pageopacity="0.0"
     inkscape:pagecheckerboard="0"
     inkscape:deskcolor="#d1d1d1" />
  <path
     d="m 8.791804,14.44461 c 0.341,-0.3419 0.895,-0.3419 1.237,0 0.342,0.341 0.342,0.8951 0,1.237 -0.7,0.7001 -1.629,1.0851 -2.619,1.0851 -0.989,0 -1.919,-0.385 -2.618,-1.0851 -0.342,-0.3419 -0.342,-0.896 0,-1.237 0.341,-0.3419 0.895,-0.3419 1.237,0 0.369,0.368 0.859,0.5721 1.381,0.5721 0.522,0 1.013,-0.2041 1.382,-0.5721 z M 7.410204,0 c 2.962,0 5.376,2.341 5.494,5.2739 h 0.006 v 2.38511 l 1.879,3.9479 c 0.191,0.9301 -0.519,1.3021 -1.469,1.3021 h -11.82 c -0.94999996,0 -1.65999996,-0.372 -1.46899996,-1.3021 L 1.910204,7.65901 V 5.2739 C 2.034204,2.341 4.448204,0 7.410204,0 Z"
     fill="#252525"
     id="path124" />
</svg>
