<svg width="24" height="24" viewBox="0 0 24 24" fill="none" xmlns="http://www.w3.org/2000/svg">
<path d="M13.8529 18.0974C14.1949 17.7554 14.7489 17.7554 15.0909 18.0974C15.4319 18.4394 15.4319 18.9924 15.0909 19.3344C14.3909 20.0344 13.4609 20.4194 12.4719 20.4194C11.4829 20.4194 10.5529 20.0344 9.8529 19.3344C9.5119 18.9924 9.5119 18.4394 9.8529 18.0974C10.1949 17.7554 10.7489 17.7554 11.0909 18.0974C11.4599 18.4654 11.9509 18.6694 12.4719 18.6694C12.9939 18.6694 13.4849 18.4654 13.8529 18.0974ZM4.1443 3.79831C4.4213 3.52031 4.8603 3.50931 5.1553 3.75731L19.8983 18.5013C20.1463 18.7953 20.1353 19.2343 19.8573 19.5113C19.7113 19.6583 19.5193 19.7313 19.3273 19.7313C19.1353 19.7313 18.9433 19.6583 18.7973 19.5113L15.8473 16.5623H6.5623C5.6123 16.5623 4.9013 16.1903 5.0933 15.2593L6.9723 11.3123V8.92631C6.9933 8.55531 7.0443 8.19331 7.1293 7.84431L4.1443 4.85931C3.8513 4.56631 3.8513 4.09031 4.1443 3.79831ZM12.4718 3.65201C15.4338 3.65201 17.8478 5.99401 17.9668 8.92701H17.9718V11.312L19.8508 15.259C19.9308 15.648 19.8518 15.939 19.6648 16.146L8.6848 5.16601C9.6708 4.22901 11.0038 3.65201 12.4718 3.65201Z" fill="#252525"/>
</svg>
