<svg width="18" height="18" viewBox="0 0 18 18" fill="none" xmlns="http://www.w3.org/2000/svg">
<path d="M10.442 3.5C11.473 3.5 12.311 4.339 12.311 5.369C12.311 6.4 11.473 7.238 10.442 7.238H6.902V3.5H10.442ZM10.919 14.401H6.902V9.738H10.442C10.549 9.738 10.654 9.729 10.759 9.723C10.812 9.729 10.864 9.738 10.919 9.738C12.204 9.738 13.25 10.784 13.25 12.069C13.25 13.355 12.204 14.401 10.919 14.401ZM4.402 14.401H4.25C3.56 14.401 3 14.961 3 15.651C3 16.342 3.56 16.901 4.25 16.901H10.919C13.583 16.901 15.75 14.733 15.75 12.069C15.75 10.477 14.971 9.065 13.778 8.185C14.421 7.424 14.811 6.441 14.811 5.369C14.811 2.96 12.851 1 10.442 1H4.25C3.56 1 3 1.56 3 2.25C3 2.94 3.56 3.5 4.25 3.5H4.402V8.488V14.401Z" fill="#252525"/>
</svg>
