<svg width="24" height="24" viewBox="0 0 24 24" fill="none" xmlns="http://www.w3.org/2000/svg">
<path d="M13.5179 14.3055H19.0769M13.5179 16.687H17.3377M13.5179 19.0763H16.3769M11.0151 17.3759L8.35401 18.9499C7.84685 19.3202 7.16354 18.8211 7.35744 18.2216L7.90279 14.7481C7.98882 14.4797 7.89392 14.1861 7.66745 14.0206L5.1915 11.5225C4.68347 11.1514 4.94479 10.3448 5.57205 10.3448L9.00162 9.69395C9.28165 9.69395 9.53074 9.51213 9.61763 9.24375L11.2423 5.98799C11.4371 5.3886 12.2811 5.3886 12.475 5.98799L14.0997 9.24375C14.1857 9.51213 14.4349 9.69395 14.7157 9.69395L18.1444 10.3448C18.7725 10.3448 19.0331 11.1514 18.5258 11.5225L17.9659 12.0877" stroke="black" stroke-opacity="0.996078" stroke-width="1.125" stroke-linecap="round" stroke-linejoin="round"/>
</svg>
