<svg width="16" height="16" viewBox="0 0 16 16" fill="none" xmlns="http://www.w3.org/2000/svg">
<path d="M10.1675 9.6727C10.4562 9.6727 10.6907 9.9064 10.6907 10.1942C10.6907 10.4824 10.4562 10.7158 10.1675 10.7158H5.8328C5.5438 10.7158 5.3096 10.4826 5.3096 10.1942C5.3096 9.9064 5.5438 9.6727 5.8328 9.6727H10.1675ZM10.3388 6.8535C10.7511 6.8535 11.0862 7.1876 11.0862 7.5982C11.0862 8.0094 10.7511 8.3434 10.3388 8.3434C9.9264 8.3434 9.5915 8.0092 9.5915 7.5982C9.5915 7.1876 9.9264 6.8535 10.3388 6.8535ZM5.6615 6.8535C6.0737 6.8535 6.4088 7.1876 6.4088 7.5982C6.4088 8.0094 6.0737 8.3434 5.6615 8.3434C5.2492 8.3434 4.9138 8.0094 4.9138 7.5982C4.9138 7.1876 5.2492 6.8535 5.6615 6.8535ZM8.5666 4.6466V3.7628C8.9476 3.543 9.196 3.1632 9.196 2.6919C9.196 2.0336 8.6599 1.5 8.0001 1.5C7.3392 1.5 6.8043 2.0336 6.8043 2.6919C6.8043 3.1635 7.0603 3.5525 7.4531 3.763V4.6466H4.4873C3.5008 4.6466 2.6936 5.4512 2.6936 6.4347V7.0308V10.309V10.874C2.6936 11.8575 3.5006 12.6619 4.4873 12.6619H5.0852H5.1091C5.1208 12.6619 5.1317 12.6651 5.1431 12.6657H5.7109L5.7147 13.8381L5.7109 14.0888C5.7109 14.3128 5.9779 14.4768 6.3495 14.2708L8.7865 12.6619H11.5127C12.4992 12.6619 13.3064 11.8575 13.3064 10.874V6.4347C13.3064 5.4514 12.4992 4.6466 11.5127 4.6466H8.5666Z" fill="black"/>
</svg>
