<?xml version="1.0" encoding="UTF-8" standalone="no"?>
<svg
   width="10.6128"
   height="12.865057"
   viewBox="0 0 10.6128 12.865057"
   fill="none"
   version="1.1"
   id="svg200"
   sodipodi:docname="bot.svg"
   xmlns:inkscape="http://www.inkscape.org/namespaces/inkscape"
   xmlns:sodipodi="http://sodipodi.sourceforge.net/DTD/sodipodi-0.dtd"
   xmlns="http://www.w3.org/2000/svg"
   xmlns:svg="http://www.w3.org/2000/svg">
  <defs
     id="defs204" />
  <sodipodi:namedview
     id="namedview202"
     pagecolor="#ffffff"
     bordercolor="#666666"
     borderopacity="1.0"
     inkscape:showpageshadow="2"
     inkscape:pageopacity="0.0"
     inkscape:pagecheckerboard="0"
     inkscape:deskcolor="#d1d1d1" />
  <path
     d="m 7.4739,8.1727 c 0.2887,0 0.5232,0.2337 0.5232,0.5215 0,0.2882 -0.2345,0.5216 -0.5232,0.5216 H 3.1392 C 2.8502,9.2158 2.616,8.9826 2.616,8.6942 2.616,8.4064 2.8502,8.1727 3.1392,8.1727 Z M 7.6452,5.3535 c 0.4123,0 0.7474,0.3341 0.7474,0.7447 0,0.4112 -0.3351,0.7452 -0.7474,0.7452 -0.4124,0 -0.7473,-0.3342 -0.7473,-0.7452 0,-0.4106 0.3349,-0.7447 0.7473,-0.7447 z m -4.6773,0 c 0.4122,0 0.7473,0.3341 0.7473,0.7447 0,0.4112 -0.3351,0.7452 -0.7473,0.7452 -0.4123,0 -0.7477,-0.334 -0.7477,-0.7452 0,-0.4106 0.3354,-0.7447 0.7477,-0.7447 z M 5.873,3.1466 V 2.2628 C 6.254,2.043 6.5024,1.6632 6.5024,1.1919 6.5024,0.5336 5.9663,0 5.3065,0 4.6456,0 4.1107,0.5336 4.1107,1.1919 c 0,0.4716 0.256,0.8606 0.6488,1.0711 V 3.1466 H 1.7937 C 0.8072,3.1466 0,3.9512 0,4.9347 V 5.5308 8.809 9.374 c 0,0.9835 0.807,1.7879 1.7937,1.7879 h 0.5979 0.0239 c 0.0117,0 0.0226,0.0032 0.034,0.0038 h 0.5678 l 0.0038,1.1724 -0.0038,0.2507 c 0,0.224 0.267,0.388 0.6386,0.182 l 2.437,-1.6089 h 2.7262 c 0.9865,0 1.7937,-0.8044 1.7937,-1.7879 V 4.9347 c 0,-0.9833 -0.8072,-1.7881 -1.7937,-1.7881 z"
     fill="#000000"
     id="path198" />
</svg>
