<svg width="24" height="24" viewBox="0 0 24 24" fill="none" xmlns="http://www.w3.org/2000/svg">
<path d="M4.79998 7.76183C4.79998 6.79482 5.18135 5.91699 5.79531 5.27436C6.42807 4.61336 7.30882 4.20068 8.28362 4.20068H9.16607L8.52219 5.29184H8.28362C6.9112 5.29184 5.8697 6.3594 5.8697 7.76183V15.6395C5.8697 17.042 6.9112 18.1095 8.28362 18.1095H16.3163C17.6879 18.1095 18.7303 17.042 18.7303 15.6395V7.76183C18.7303 6.3594 17.6879 5.29184 16.3163 5.29184H16.0778L15.4339 4.20068H16.3163C17.2911 4.20068 18.1719 4.61336 18.8047 5.27436C19.4186 5.91699 19.8 6.79482 19.8 7.76183V15.6395C19.8 17.6033 18.2369 19.2007 16.3163 19.2007H8.28362C6.36309 19.2007 4.79998 17.6033 4.79998 15.6395V7.76183ZM9.93309 7.5686C9.93309 7.41821 9.9767 7.27307 10.0631 7.13843L10.7967 5.97819L11.3243 5.14408L11.6664 4.60287C11.8109 4.37467 12.0477 4.2374 12.3 4.2374C12.5522 4.2374 12.7891 4.3738 12.9327 4.60287L13.2756 5.14408L13.8032 5.97819L14.5378 7.13843C14.6233 7.27395 14.6669 7.41821 14.6669 7.5686C14.6669 7.92358 14.389 8.2908 13.9247 8.2908H10.6753C10.211 8.2908 9.93309 7.92358 9.93309 7.5686Z" fill="black"/>
</svg>
