<?xml version="1.0" encoding="UTF-8" standalone="no"?>
<svg
   width="15.00002"
   height="15.00002"
   viewBox="0 0 15.00002 15.00002"
   fill="none"
   version="1.1"
   id="svg212"
   sodipodi:docname="box-up-out.svg"
   xmlns:inkscape="http://www.inkscape.org/namespaces/inkscape"
   xmlns:sodipodi="http://sodipodi.sourceforge.net/DTD/sodipodi-0.dtd"
   xmlns="http://www.w3.org/2000/svg"
   xmlns:svg="http://www.w3.org/2000/svg">
  <defs
     id="defs216" />
  <sodipodi:namedview
     id="namedview214"
     pagecolor="#ffffff"
     bordercolor="#666666"
     borderopacity="1.0"
     inkscape:showpageshadow="2"
     inkscape:pageopacity="0.0"
     inkscape:pagecheckerboard="0"
     inkscape:deskcolor="#d1d1d1" />
  <path
     d="M 0,3.56115 C 0,2.59414 0.38137,1.71631 0.99533,1.07368 1.62809,0.41268 2.50884,0 3.48364,0 H 4.36609 L 3.72221,1.09116 H 3.48364 c -1.37242,0 -2.41392,1.06756 -2.41392,2.46999 v 7.87767 c 0,1.4025 1.0415,2.47 2.41392,2.47 h 8.03268 c 1.3716,0 2.414,-1.0675 2.414,-2.47 V 3.56115 c 0,-1.40243 -1.0424,-2.46999 -2.414,-2.46999 h -0.2385 L 10.63392,0 h 0.8824 c 0.9748,0 1.8556,0.41268 2.4884,1.07368 0.6139,0.64263 0.9953,1.52046 0.9953,2.48747 v 7.87767 c 0,1.9638 -1.5631,3.5612 -3.4837,3.5612 H 3.48364 C 1.56311,15.00002 0,13.40262 0,11.43882 Z M 5.13311,3.36792 c 0,-0.15039 0.04361,-0.29553 0.13001,-0.43017 L 5.99672,1.77751 6.52432,0.9434 6.86642,0.40219 c 0.1445,-0.2282 0.3813,-0.36547 0.6336,-0.36547 0.2522,0 0.4891,0.1364 0.6327,0.36547 l 0.3429,0.54121 0.5276,0.83411 0.7346,1.16024 c 0.0855,0.13552 0.1291,0.27978 0.1291,0.43017 0,0.35498 -0.2779,0.7222 -0.7422,0.7222 h -3.2494 c -0.4643,0 -0.74221,-0.36722 -0.74221,-0.7222 z"
     fill="#000000"
     id="path210" />
</svg>
