<?xml version="1.0" encoding="UTF-8" standalone="no"?>
<!-- Created with Vectornator (http://vectornator.io/) -->

<svg
   height="21.646749"
   stroke-miterlimit="10"
   style="clip-rule:evenodd;fill-rule:nonzero;stroke-linecap:round;stroke-linejoin:round"
   version="1.1"
   viewBox="0 0 25.886391 21.646749"
   width="25.886391"
   xml:space="preserve"
   id="svg227"
   sodipodi:docname="braces-code.svg"
   xmlns:inkscape="http://www.inkscape.org/namespaces/inkscape"
   xmlns:sodipodi="http://sodipodi.sourceforge.net/DTD/sodipodi-0.dtd"
   xmlns="http://www.w3.org/2000/svg"
   xmlns:svg="http://www.w3.org/2000/svg"
   xmlns:vectornator="http://vectornator.io"><sodipodi:namedview
   id="namedview229"
   pagecolor="#ffffff"
   bordercolor="#666666"
   borderopacity="1.0"
   inkscape:showpageshadow="2"
   inkscape:pageopacity="0.0"
   inkscape:pagecheckerboard="0"
   inkscape:deskcolor="#d1d1d1" />
<defs
   id="defs222" />
<g
   id="Untitled"
   vectornator:layerName="Untitled"
   transform="translate(-1.05681,-3.17665)">
<path
   d="m 21.005,3.17695 c 0.7232,0 1.3825,0.27826 1.8765,0.73333 0.4983,0.45897 0.8282,1.09761 0.8868,1.8236 v 0 l 0.0087,3.00976 c 0,0.55322 0.2727,1.2377 0.6403,1.67086 v 0 l 1.6484,1.5628 c 0.5577,0.5228 0.8775,1.2594 0.8775,2.0228 0,0.6787 -0.2526,1.3373 -0.7085,1.8508 v 0 l -1.6643,1.5745 c -0.4076,0.3826 -0.715,1.0318 -0.7805,1.6138 v 0 l -0.0129,3.012 c 0,0.7232 -0.2781,1.3827 -0.7333,1.8767 -0.4589,0.4981 -1.0975,0.828 -1.8236,0.8868 v 0 l -3.5341,0.0087 c -0.3523,0 -0.6705,-0.1426 -0.9007,-0.3729 -0.2306,-0.2306 -0.3731,-0.5491 -0.3731,-0.9008 0,-0.3204 0.1182,-0.6132 0.3135,-0.837 0.1997,-0.2292 0.4802,-0.3859 0.7974,-0.4263 v 0 l 3.3486,-0.0099 0.3581,-3.0272 c 0.0025,-1.2257 0.5354,-2.55 1.3862,-3.4683 v 0 l 1.6102,-1.524 -1.4057,-1.8298 C 21.942,11.5991 21.3302,10.2767 21.2406,9.04033 v 0 L 21.2303,6.08451 17.6781,5.72429 C 17.3291,5.72219 17.0138,5.58014 16.7853,5.35148 16.5547,5.12087 16.4122,4.8023 16.4122,4.45062 c 0,-0.32037 0.1182,-0.61316 0.3135,-0.83703 0.1997,-0.22911 0.4802,-0.38585 0.7974,-0.4263 v 0 z m -10.6879,-3e-4 c 0.3516,0 0.67,0.14265 0.9005,0.37311 0.2306,0.23061 0.3731,0.54903 0.3731,0.90056 0,0.32021 -0.1183,0.61286 -0.3137,0.83673 -0.1998,0.22926 -0.4805,0.38614 -0.7974,0.4266 v 0 L 7.12832,5.72354 6.7702,8.75368 C 6.76795,10.0362 6.27092,11.2776 5.39104,12.2151 v 0 l -1.61726,1.5281 1.40568,1.8326 c 0.89127,0.8394 1.49244,2.1343 1.5801,3.3818 v 0 l 0.01019,2.9579 3.55515,0.3602 c 0.3484,0.0021 0.6638,0.1443 0.8927,0.3731 0.2306,0.2306 0.3731,0.549 0.3731,0.9006 0,0.3202 -0.1183,0.6128 -0.3137,0.8367 -0.1998,0.2293 -0.4805,0.3862 -0.7974,0.4266 v 0 L 6.99496,24.8231 C 6.27137,24.8231 5.61206,24.5449 5.11817,24.09 4.61994,23.631 4.29029,22.9924 4.2317,22.2661 v 0 L 4.22301,19.2579 c 0,-0.5618 -0.26672,-1.2337 -0.63834,-1.6684 v 0 L 1.93295,16.0214 C 1.37523,15.5001 1.05681,14.7635 1.05681,13.9998 c 0,-0.6772 0.25264,-1.3357 0.70846,-1.849 v 0 L 3.42824,10.5759 C 3.87702,10.1561 4.15588,9.58201 4.21162,8.98728 v 0 L 4.22301,5.94875 c 0,-0.72329 0.27796,-1.3829 0.73303,-1.87694 C 5.41471,3.57388 6.0532,3.24393 6.77964,3.18534 v 0 z"
   fill="#000000"
   fill-rule="nonzero"
   opacity="1"
   stroke="none"
   id="path224" />
</g>
</svg>
