<?xml version="1.0" encoding="UTF-8" standalone="no"?>
<!DOCTYPE svg PUBLIC "-//W3C//DTD SVG 1.1//EN" "http://www.w3.org/Graphics/SVG/1.1/DTD/svg11.dtd">
<!-- Created with Vectornator (http://vectornator.io/) -->
<svg height="100%" stroke-miterlimit="10" style="fill-rule:nonzero;clip-rule:evenodd;stroke-linecap:round;stroke-linejoin:round;" version="1.1" viewBox="0 0 28 28" width="100%" xml:space="preserve" xmlns="http://www.w3.org/2000/svg" xmlns:xlink="http://www.w3.org/1999/xlink">
<defs/>
<g id="Untitled">
<path d="M18.6749 6.7771C19.1575 6.7771 19.5975 6.9628 19.9272 7.2665C20.2597 7.5728 20.4799 7.999 20.519 8.4835L20.519 8.4835L20.5248 10.4921C20.5248 10.8613 20.7068 11.3181 20.9521 11.6072L20.9521 11.6072L22.0522 12.6501C22.4244 12.999 22.6378 13.4906 22.6378 14.0001C22.6378 14.453 22.4692 14.8925 22.165 15.2352L22.165 15.2352L21.0543 16.286C20.7823 16.5413 20.5771 16.9746 20.5334 17.363L20.5334 17.363L20.5248 19.3731C20.5248 19.8557 20.3392 20.2958 20.0354 20.6255C19.7292 20.9579 19.303 21.1781 18.8184 21.2173L18.8184 21.2173L16.4599 21.2231C16.2248 21.2231 16.0124 21.128 15.8588 20.9743C15.7049 20.8204 15.6098 20.6078 15.6098 20.3731C15.6098 20.1593 15.6887 19.9639 15.819 19.8145C15.9523 19.6616 16.1395 19.557 16.3512 19.53L16.3512 19.53L18.5859 19.5234L18.8249 17.5032C18.8266 16.6852 19.1822 15.8014 19.75 15.1886L19.75 15.1886L20.8246 14.1715L19.8865 12.9504C19.3002 12.3977 18.8919 11.5152 18.8321 10.6901L18.8321 10.6901L18.8252 8.7175L16.4546 8.4771C16.2217 8.4757 16.0113 8.3809 15.8588 8.2283C15.7049 8.0744 15.6098 7.8618 15.6098 7.6271C15.6098 7.4133 15.6887 7.2179 15.819 7.0685C15.9523 6.9156 16.1395 6.811 16.3512 6.784L16.3512 6.784L18.6749 6.7771ZM11.5422 6.7769C11.7768 6.7769 11.9893 6.8721 12.1431 7.0259C12.297 7.1798 12.3921 7.3923 12.3921 7.6269C12.3921 7.8406 12.3132 8.0359 12.1828 8.1853C12.0494 8.3383 11.8621 8.443 11.6506 8.47L11.6506 8.47L9.4141 8.4766L9.1751 10.4988C9.1736 11.3547 8.8419 12.1832 8.2547 12.8088L8.2547 12.8088L7.1754 13.8286L8.1135 15.0516C8.7083 15.6118 9.1095 16.476 9.168 17.3085L9.168 17.3085L9.1748 19.2825L11.5474 19.5229C11.7799 19.5243 11.9904 19.6192 12.1431 19.7719C12.297 19.9258 12.3921 20.1383 12.3921 20.3729C12.3921 20.5866 12.3132 20.7819 12.1828 20.9313C12.0494 21.0843 11.8621 21.189 11.6506 21.216L11.6506 21.216L9.3251 21.2229C8.8422 21.2229 8.4022 21.0373 8.0726 20.7337C7.7401 20.4274 7.5201 20.0012 7.481 19.5165L7.481 19.5165L7.4752 17.5089C7.4752 17.134 7.2972 16.6856 7.0492 16.3955L7.0492 16.3955L5.9469 15.349C5.5747 15.0011 5.3622 14.5095 5.3622 13.9999C5.3622 13.5479 5.5308 13.1085 5.835 12.7659L5.835 12.7659L6.9448 11.7149C7.2443 11.4347 7.4304 11.0516 7.4676 10.6547L7.4676 10.6547L7.4752 8.6269C7.4752 8.1442 7.6607 7.704 7.9644 7.3743C8.2705 7.042 8.6966 6.8218 9.1814 6.7827L9.1814 6.7827L11.5422 6.7769Z" fill="#000000" fill-rule="nonzero" opacity="1" stroke="none"/>
</g>
</svg>
