<svg width="28" height="28" viewBox="0 0 28 28" fill="none" xmlns="http://www.w3.org/2000/svg">
<path d="M14 7.3501C10.333 7.3501 7.35001 10.3336 7.35001 14.0004C7.35001 17.6669 10.333 20.6501 14 20.6501C17.667 20.6501 20.65 17.6669 20.65 14.0004C20.65 10.3336 17.667 7.3501 14 7.3501ZM8.72292 14.6651H11.2587C11.33 16.3886 11.6755 17.919 12.1874 19.0017C10.3443 18.3319 8.97436 16.6701 8.72292 14.6651ZM11.2587 13.3351H8.72292C8.97436 11.3301 10.3443 9.66829 12.1874 8.99832C11.6755 10.0809 11.33 11.6113 11.2587 13.3351ZM14 19.3053C13.5997 19.0691 12.7156 17.4568 12.591 14.6654H15.409C15.2844 17.4566 14.4005 19.0689 14 19.3053ZM12.591 13.3351C12.7156 10.5436 13.5997 8.93105 14 8.69466C14.4005 8.93077 15.2844 10.5434 15.409 13.3351H12.591ZM19.2768 13.3351H16.7413C16.67 11.6113 16.3245 10.0809 15.8128 8.99853C17.6555 9.66857 19.0257 11.3301 19.2768 13.3351ZM15.8128 19.0019C16.3248 17.9193 16.67 16.3888 16.7413 14.6654H19.2768C19.0257 16.6701 17.656 18.3316 15.8128 19.0019Z" fill="black" fill-opacity="0.980392"/>
</svg>
