<?xml version="1.0" encoding="UTF-8" standalone="no"?>
<svg
   width="13.29999"
   height="13.3"
   viewBox="0 0 13.29999 13.3"
   fill="none"
   version="1.1"
   id="svg238"
   sodipodi:docname="browser.svg"
   xmlns:inkscape="http://www.inkscape.org/namespaces/inkscape"
   xmlns:sodipodi="http://sodipodi.sourceforge.net/DTD/sodipodi-0.dtd"
   xmlns="http://www.w3.org/2000/svg"
   xmlns:svg="http://www.w3.org/2000/svg">
  <defs
     id="defs242" />
  <sodipodi:namedview
     id="namedview240"
     pagecolor="#ffffff"
     bordercolor="#666666"
     borderopacity="1.0"
     inkscape:showpageshadow="2"
     inkscape:pageopacity="0.0"
     inkscape:pagecheckerboard="0"
     inkscape:deskcolor="#d1d1d1" />
  <path
     d="M 6.64999,0 C 2.98299,0 0,2.9835 0,6.6503 0,10.3168 2.98299,13.3 6.64999,13.3 c 3.667,0 6.65,-2.9832 6.65,-6.6497 C 13.29999,2.9835 10.31699,0 6.64999,0 Z M 1.37291,7.315 h 2.53578 c 0.0713,1.7235 0.4168,3.2539 0.9287,4.3366 C 2.99429,10.9818 1.62435,9.32 1.37291,7.315 Z M 3.90869,5.985 H 1.37291 C 1.62435,3.98 2.99429,2.31819 4.83739,1.64822 4.32549,2.7308 3.97999,4.2612 3.90869,5.985 Z m 2.7413,5.9702 C 6.24969,11.719 5.36559,10.1067 5.24099,7.3153 h 2.818 c -0.1246,2.7912 -1.0085,4.4035 -1.409,4.6399 z M 5.24099,5.985 c 0.1246,-2.7915 1.0087,-4.40405 1.409,-4.64044 0.4005,0.23611 1.2844,1.84874 1.409,4.64044 z m 6.6858,0 H 9.39129 C 9.31999,4.2612 8.97449,2.7308 8.46279,1.64843 c 1.8427,0.67004 3.2129,2.33157 3.464,4.33657 z m -3.464,5.6668 c 0.512,-1.0826 0.8572,-2.6131 0.9285,-4.3365 h 2.5355 c -0.2511,2.0047 -1.6208,3.6662 -3.464,4.3365 z"
     fill="#000000"
     fill-opacity="0.980392"
     id="path236" />
</svg>
