<?xml version="1.0" encoding="UTF-8" standalone="no"?>
<svg
   width="19.000504"
   height="11.583291"
   viewBox="0 0 19.000504 11.583291"
   fill="none"
   version="1.1"
   id="svg262"
   sodipodi:docname="checkmark.svg"
   xmlns:inkscape="http://www.inkscape.org/namespaces/inkscape"
   xmlns:sodipodi="http://sodipodi.sourceforge.net/DTD/sodipodi-0.dtd"
   xmlns="http://www.w3.org/2000/svg"
   xmlns:svg="http://www.w3.org/2000/svg">
  <defs
     id="defs266" />
  <sodipodi:namedview
     id="namedview264"
     pagecolor="#ffffff"
     bordercolor="#666666"
     borderopacity="1.0"
     inkscape:showpageshadow="2"
     inkscape:pageopacity="0.0"
     inkscape:pagecheckerboard="0"
     inkscape:deskcolor="#d1d1d1" />
  <path
     d="m 18.780126,0.21925064 c -0.293,-0.293 -0.769,-0.292 -1.061,0.001 L 7.9601264,10.010291 c -0.065,0.063 -0.139,0.073 -0.178,0.073 -0.038,0 -0.113,-0.01 -0.177,-0.073 l -6.323,-6.3430404 c -0.29299996,-0.294 -0.76799996,-0.294 -1.06099996,-0.002 -0.294,0.29304 -0.295,0.76804 -0.002,1.06104 L 6.5431264,11.069291 c 0.331,0.332 0.771,0.514 1.239,0.514 0.469,0 0.909,-0.182 1.239,-0.514 L 18.782126,1.2802506 c 0.292,-0.29399996 0.291,-0.76899996 -0.002,-1.06099996 z"
     fill="#252525"
     id="path260" />
</svg>
