<svg width="24" height="24" viewBox="0 0 24 24" fill="none" xmlns="http://www.w3.org/2000/svg">
<path d="M21.2799 6.42726C20.9869 6.13426 20.5109 6.13526 20.2189 6.42826L10.4599 16.2183C10.3949 16.2813 10.3209 16.2913 10.2819 16.2913C10.2439 16.2913 10.1689 16.2813 10.1049 16.2183L3.7819 9.87526C3.4889 9.58126 3.0139 9.58126 2.7209 9.87326C2.4269 10.1663 2.4259 10.6413 2.7189 10.9343L9.0429 17.2773C9.3739 17.6093 9.8139 17.7913 10.2819 17.7913C10.7509 17.7913 11.1909 17.6093 11.5209 17.2773L21.2819 7.48826C21.5739 7.19426 21.5729 6.71926 21.2799 6.42726Z" fill="#252525"/>
</svg>
