<svg width="24" height="24" viewBox="0 0 24 24" fill="none" xmlns="http://www.w3.org/2000/svg">
<path d="M17.2666 10.7544L9.4896 3.08443C9.1946 2.79343 8.7196 2.79643 8.4286 3.09143C8.1376 3.38643 8.1406 3.86043 8.4356 4.15143L16.2136 11.8224C16.2786 11.8864 16.2876 11.9614 16.2876 12.0004C16.2876 12.0394 16.2786 12.1144 16.2136 12.1784L8.4356 19.8474C8.1406 20.1384 8.1376 20.6124 8.4286 20.9074C8.5756 21.0574 8.7686 21.1314 8.9626 21.1314C9.1526 21.1314 9.3426 21.0594 9.4896 20.9154L17.2666 13.2464C17.6036 12.9154 17.7876 12.4724 17.7876 12.0004C17.7876 11.5274 17.6036 11.0854 17.2666 10.7544Z" fill="black"/>
</svg>
