<svg width="24" height="24" viewBox="0 0 24 24" fill="none" xmlns="http://www.w3.org/2000/svg">
<path d="M12.0007 8.71289C12.0397 8.71289 12.1147 8.72289 12.1787 8.78689L19.8477 16.5649C19.9937 16.7139 20.1887 16.7879 20.3817 16.7879C20.5717 16.7879 20.7627 16.7169 20.9077 16.5719C21.2027 16.2809 21.2067 15.8069 20.9157 15.5119L13.2467 7.73389C12.9157 7.39789 12.4737 7.21289 12.0007 7.21289C11.5287 7.21289 11.0867 7.39789 10.7547 7.73389L3.0847 15.5119C2.7937 15.8069 2.7967 16.2809 3.0917 16.5719C3.3867 16.8629 3.8617 16.8589 4.1517 16.5649L11.8227 8.78689C11.8867 8.72289 11.9617 8.71289 12.0007 8.71289Z" fill="#252525"/>
</svg>
