<svg width="24" height="24" viewBox="0 0 24 24" fill="none" xmlns="http://www.w3.org/2000/svg">
<path d="M19.8477 7.43518L12.1787 15.2132C12.1157 15.2782 12.0397 15.2882 12.0007 15.2882C11.9617 15.2882 11.8867 15.2782 11.8237 15.2132L4.1527 7.43518C3.8617 7.14018 3.3867 7.13718 3.0917 7.42818C2.7967 7.71918 2.7937 8.19418 3.0847 8.48918L10.7547 16.2662C11.0857 16.6032 11.5297 16.7882 12.0007 16.7882C12.4737 16.7882 12.9157 16.6032 13.2467 16.2662L20.9157 8.48918C21.2067 8.19418 21.2027 7.71818 20.9087 7.42818C20.6137 7.13718 20.1387 7.14018 19.8477 7.43518Z" fill="#252525"/>
</svg>
