<?xml version="1.0" encoding="UTF-8" standalone="no"?>
<svg
   width="18.263161"
   height="9.5762863"
   viewBox="0 0 18.263161 9.5762863"
   fill="none"
   version="1.1"
   id="svg274"
   sodipodi:docname="chevron-down.svg"
   xmlns:inkscape="http://www.inkscape.org/namespaces/inkscape"
   xmlns:sodipodi="http://sodipodi.sourceforge.net/DTD/sodipodi-0.dtd"
   xmlns="http://www.w3.org/2000/svg"
   xmlns:svg="http://www.w3.org/2000/svg">
  <defs
     id="defs278" />
  <sodipodi:namedview
     id="namedview276"
     pagecolor="#ffffff"
     bordercolor="#666666"
     borderopacity="1.0"
     inkscape:showpageshadow="2"
     inkscape:pageopacity="0.0"
     inkscape:pagecheckerboard="0"
     inkscape:deskcolor="#d1d1d1" />
  <path
     d="m 16.979266,0.223266 -7.669,7.77802 c -0.063,0.065 -0.139,0.075 -0.178,0.075 -0.039,0 -0.114,-0.01 -0.177,-0.075 l -7.671,-7.77802 c -0.291,-0.295 -0.766,-0.298 -1.061,-0.007 -0.295,0.291 -0.298,0.766 -0.007,1.061 l 7.67,7.77702 c 0.331,0.337 0.775,0.522 1.246,0.522 0.473,0 0.915,-0.185 1.246,-0.522 l 7.669,-7.77702 c 0.291,-0.295 0.287,-0.771 -0.007,-1.061 -0.295,-0.291 -0.77,-0.288 -1.061,0.007 z"
     fill="#252525"
     id="path272" />
</svg>
