<svg width="32" height="32" viewBox="0 0 32 32" fill="none" xmlns="http://www.w3.org/2000/svg">
<path d="M17.8167 4.88647C18.1591 4.88647 18.509 5.15787 18.5949 5.48907L19.1763 7.75377C19.2622 8.08497 19.9358 8.67007 20.1524 8.80827C20.369 8.94777 20.816 8.98637 21.1459 8.89547L23.3883 8.27047C23.7182 8.17837 24.1278 8.34518 24.2984 8.64278L26.1174 11.8052C26.288 12.1027 26.2269 12.5422 25.9842 12.7825L24.322 14.421C24.078 14.6613 23.8937 15.0684 23.9124 15.3249V15.798C23.8937 16.0545 24.078 16.4628 24.322 16.7031L25.9842 18.3404C26.2269 18.5819 26.288 19.0214 26.1174 19.3177L24.2984 22.4801C24.1278 22.7764 23.7182 22.9445 23.3883 22.8524L21.1459 22.2274C20.816 22.1352 19.9769 22.4278 19.7478 22.5473C19.5199 22.6681 19.2622 23.0366 19.1775 23.3691L18.5949 25.6338C18.509 25.965 18.1591 26.2364 17.8167 26.2364H14.1837C13.8413 26.2364 13.4915 25.965 13.4068 25.6338L12.8229 23.3691C12.737 23.0366 12.0634 22.4527 11.8468 22.3133C11.6301 22.1751 11.1832 22.1352 10.8532 22.2274L8.6121 22.8524C8.2822 22.9445 7.8726 22.7764 7.702 22.4801L5.8843 19.3177C5.7125 19.0214 5.7722 18.5819 6.0162 18.3404L7.6771 16.7031C7.9212 16.4628 8.1054 16.0545 8.088 15.798V15.3249C8.1054 15.0684 7.9212 14.66 7.6771 14.4197L6.015 12.7825C5.7722 12.5422 5.7125 12.1027 5.883 11.8052L7.702 8.64278C7.8726 8.34518 8.2822 8.17837 8.6121 8.27047L10.8532 8.89547C11.1832 8.98637 12.0223 8.69377 12.2514 8.57427C12.4805 8.45477 12.737 8.08497 12.8229 7.75377L13.4055 5.48907C13.4902 5.15787 13.8413 4.88647 14.1837 4.88647H17.8167ZM15.9996 12.1575C14.1208 12.1575 12.5969 13.6814 12.5969 15.5614C12.5969 17.4402 14.1208 18.9654 15.9996 18.9654C17.8796 18.9654 19.4035 17.4402 19.4035 15.5614C19.4035 13.6814 17.8796 12.1575 15.9996 12.1575Z" stroke="black" stroke-width="1.55216" stroke-linecap="round" stroke-linejoin="round"/>
</svg>
