<?xml version="1.0" encoding="UTF-8" standalone="no"?>
<svg
   width="22.028297"
   height="22.90209"
   viewBox="0 0 22.028297 22.90209"
   fill="none"
   version="1.1"
   id="svg332"
   sodipodi:docname="cog.svg"
   xmlns:inkscape="http://www.inkscape.org/namespaces/inkscape"
   xmlns:sodipodi="http://sodipodi.sourceforge.net/DTD/sodipodi-0.dtd"
   xmlns="http://www.w3.org/2000/svg"
   xmlns:svg="http://www.w3.org/2000/svg">
  <defs
     id="defs336" />
  <sodipodi:namedview
     id="namedview334"
     pagecolor="#ffffff"
     bordercolor="#666666"
     borderopacity="1.0"
     inkscape:showpageshadow="2"
     inkscape:pageopacity="0.0"
     inkscape:pagecheckerboard="0"
     inkscape:deskcolor="#d1d1d1" />
  <path
     d="m 12.830756,0.77608001 c 0.3424,0 0.6923,0.27139999 0.7782,0.60259999 l 0.5814,2.2647 c 0.0859,0.3312 0.7595,0.9163 0.9761,1.0545 0.2166,0.1395 0.6636,0.1781 0.9935,0.0872 l 2.2424,-0.625 c 0.3299,-0.0921 0.7395,0.07471 0.9101,0.37231 l 1.819,3.16242 c 0.1706,0.2975 0.1095,0.737 -0.1332,0.9773 l -1.6622,1.6385 c -0.244,0.2403 -0.4283,0.6474 -0.4096,0.9039 v 0.4731 c -0.0187,0.2565 0.1656,0.6648 0.4096,0.9051 l 1.6622,1.6373 c 0.2427,0.2415 0.3038,0.681 0.1332,0.9773 l -1.819,3.1624 c -0.1706,0.2963 -0.5802,0.4644 -0.9101,0.3723 l -2.2424,-0.625 c -0.3299,-0.0922 -1.169,0.2004 -1.3981,0.3199 -0.2279,0.1208 -0.4856,0.4893 -0.5703,0.8218 l -0.5826,2.2647 c -0.0859,0.3312 -0.4358,0.6026 -0.7782,0.6026 H 9.1977559 c -0.3424,0 -0.6922,-0.2714 -0.7769,-0.6026 l -0.5839,-2.2647 c -0.0859,-0.3325 -0.7595,-0.9164 -0.9761,-1.0558 -0.2167,-0.1382 -0.6636,-0.1781 -0.9936,-0.0859 l -2.2411,0.625 c -0.3299,0.0921 -0.7395,-0.076 -0.9101,-0.3723 l -1.81769997,-3.1624 c -0.1718,-0.2963 -0.1121,-0.7358 0.13189997,-0.9773 l 1.6609,-1.6373 c 0.2441,-0.2403 0.4283,-0.6486 0.4109,-0.9051 v -0.4731 c 0.0174,-0.2565 -0.1668,-0.6649 -0.4109,-0.9052 l -1.6621,-1.6372 C 0.78625593,8.43181 0.72655593,7.99231 0.89705593,7.69481 L 2.7160559,4.53239 c 0.1706,-0.2976 0.5802,-0.46441 0.9101,-0.37231 l 2.2411,0.625 c 0.33,0.0909 1.1691,-0.2017 1.3982,-0.3212 0.2291,-0.1195 0.4856,-0.4893 0.5715,-0.8205 l 0.5826,-2.2647 c 0.0847,-0.3312 0.4358,-0.60259999 0.7782,-0.60259999 z M 11.013656,8.04711 c -1.8788001,0 -3.4027001,1.5239 -3.4027001,3.4039 0,1.8788 1.5239,3.404 3.4027001,3.404 1.88,0 3.4039,-1.5252 3.4039,-3.404 0,-1.88 -1.5239,-3.4039 -3.4039,-3.4039 z"
     stroke="#000000"
     stroke-width="1.55216"
     stroke-linecap="round"
     stroke-linejoin="round"
     id="path330" />
</svg>
