<svg width="18" height="18" viewBox="0 0 18 18" fill="none" xmlns="http://www.w3.org/2000/svg">
<path d="M7.15251 9.27984C7.97151 9.27984 8.63751 9.94584 8.63751 10.7648V15.8838C8.63751 16.2998 8.30251 16.6338 7.88751 16.6338C7.47351 16.6338 7.13751 16.2998 7.13751 15.8838V12.0718L1.74751 17.7658C1.59951 17.9218 1.40151 18.0008 1.20251 18.0008C1.01651 18.0008 0.832506 17.9318 0.686506 17.7948C0.385506 17.5098 0.373506 17.0358 0.657506 16.7348L6.30651 10.7678L1.96051 10.7798C1.54651 10.7798 1.21051 10.4438 1.21051 10.0298C1.21051 9.61584 1.54651 9.27984 1.96051 9.27984H7.15251ZM16.2537 0.233644C16.5387 -0.0663556 17.0127 -0.0793557 17.3137 0.205644C17.6147 0.490644 17.6267 0.965644 17.3417 1.26664L11.6857 7.22964L15.3027 7.22064C15.7167 7.22064 16.0527 7.55664 16.0527 7.97064C16.0527 8.38464 15.7167 8.72064 15.3027 8.72064H10.1107C9.29171 8.72064 8.62571 8.05364 8.62571 7.23464V2.11464C8.62571 1.70064 8.96071 1.36464 9.37571 1.36464C9.78971 1.36464 10.1257 1.70064 10.1257 2.11464V6.73664C10.1557 6.68064 10.1917 6.62564 10.2377 6.57664L16.2537 0.233644Z" fill="#252525"/>
</svg>
