<?xml version="1.0" encoding="UTF-8" standalone="no"?>
<svg
   width="21.577999"
   height="16.06295"
   viewBox="0 0 21.577999 16.06295"
   fill="none"
   version="1.1"
   id="svg391"
   sodipodi:docname="crown-outline.svg"
   xmlns:inkscape="http://www.inkscape.org/namespaces/inkscape"
   xmlns:sodipodi="http://sodipodi.sourceforge.net/DTD/sodipodi-0.dtd"
   xmlns="http://www.w3.org/2000/svg"
   xmlns:svg="http://www.w3.org/2000/svg">
  <defs
     id="defs395" />
  <sodipodi:namedview
     id="namedview393"
     pagecolor="#ffffff"
     bordercolor="#666666"
     borderopacity="1.0"
     inkscape:showpageshadow="2"
     inkscape:pageopacity="0.0"
     inkscape:pagecheckerboard="0"
     inkscape:deskcolor="#d1d1d1" />
  <path
     d="m 15.1634,7.78225 c -0.3322,0.1525 -0.7297,0.0432 -0.9354,-0.2638 L 12.1677,4.0186 C 12.6907,3.6041 13.021,2.9612 13.021,2.25 13.021,1.0095 12.024,0 10.789,0 9.5555,0 8.559,1.01 8.559,2.25 c 0,0.7115 0.3297,1.3545 0.8525,1.7689 L 7.3286,7.55565 C 7.1448,7.82705 6.7485,7.93475 6.4154,7.78215 L 4.3427,6.25335 C 4.4208,6.023 4.462,5.7785 4.462,5.528 4.462,4.2876 3.465,3.278 2.232,3.278 0.9967,3.278 0,4.2868 0,5.528 0,6.76635 0.9938,7.77465 2.226,7.77795 l 1.69,6.2528 c 0.3246,1.1994 1.4125,2.0322 2.655,2.0322 h 8.437 c 1.2425,0 2.3304,-0.8329 2.655,-2.0321 l 1.69,-6.2529 c 1.2312,-0.0026 2.225,-1.0117 2.225,-2.24995 0,-1.2407 -0.9963,-2.25 -2.23,-2.25 -1.2337,0 -2.23,1.0093 -2.23,2.25 0,0.2505 0.0412,0.4949 0.1193,0.72525 z m 3.2112,-0.5134 c -0.0444,0.0238 -0.0927,0.0342 -0.133,0.0327 0.0362,0.0013 0.0715,2e-4 0.1058,-0.0032 l 0.1177,-0.0867 -0.4368,-0.5925 z m -0.3657,-0.1737 8e-4,-0.0031 c -0.0064,-0.0354 -0.0052,-0.0738 0.0046,-0.1098 l -0.0177,0.0652 c 0.0036,0.0159 0.0076,0.0318 0.0123,0.0477 z m -1.7939,6.5441 c -0.1475,0.5451 -0.6421,0.9237 -1.207,0.9237 H 6.571 c -0.5649,0 -1.0595,-0.3786 -1.207,-0.9239 l -1.6098,-5.9559 1.8226,1.3445 0.0928,0.0583 c 1.0196,0.5428 2.2836,0.2273 2.9279,-0.7317 L 10.7897,4.632 12.9588,8.31665 c 0.6664,0.9964 1.932,1.3124 2.951,0.7692 l 0.0923,-0.0582 1.8225,-1.3438 z M 3.565,6.98335 c 0.0129,0.0492 0.011,0.1004 -0.0051,0.1476 0.0093,-0.0272 0.0169,-0.0544 0.0231,-0.0814 z m -0.4502,0.2283 0.1177,0.0867 c 0.0258,0.0025 0.0521,0.0038 0.079,0.0037 C 3.276,7.29755 3.2406,7.28755 3.2087,7.27065 l 0.344,-0.6489 z M 2.5334,6.20905 C 2.4355,6.25465 2.334,6.27795 2.232,6.27795 1.8297,6.27795 1.5,5.9442 1.5,5.528 c 0,-0.4168 0.3292,-0.75 0.732,-0.75 0.4003,0 0.73,0.3338 0.73,0.75 0,0.194 -0.0726,0.3753 -0.2015,0.51455 -0.0347,0.0375 -0.0646,0.0768 -0.0899,0.1173 -0.0457,0.0117 -0.0916,0.0279 -0.1372,0.0492 z M 11.0204,4.2404 C 10.9725,4.314 10.9465,4.3384 10.9249,4.3524 10.9424,4.341 10.9592,4.3292 10.9753,4.317 Z M 10.6552,2.9858 C 10.3137,2.9218 10.059,2.6147 10.059,2.25 c 0,-0.416 0.3295,-0.75 0.73,-0.75 0.4023,0 0.732,0.3338 0.732,0.75 0,0.3638 -0.2559,0.6718 -0.5974,0.7359 -0.0472,0.0088 -0.0919,0.0215 -0.1341,0.0374 -0.0422,-0.0159 -0.087,-0.0286 -0.1343,-0.0375 z m 8.1643,3.05675 C 18.6906,5.9033 18.618,5.722 18.618,5.528 c 0,-0.4166 0.3291,-0.75 0.73,-0.75 0.4009,0 0.73,0.3334 0.73,0.75 0,0.416 -0.3295,0.74995 -0.73,0.74995 -0.1028,0 -0.2038,-0.0232 -0.3,-0.0683 -0.0461,-0.0215 -0.0924,-0.038 -0.1386,-0.0498 -0.0253,-0.0405 -0.0552,-0.0798 -0.0899,-0.1173 z"
     fill="#252525"
     id="path389" />
</svg>
