<?xml version="1.0" encoding="UTF-8" standalone="no"?>
<svg
   width="14.41599"
   height="10.45558"
   viewBox="0 0 14.41599 10.45558"
   fill="none"
   version="1.1"
   id="svg379"
   sodipodi:docname="crown-filled.svg"
   xmlns:inkscape="http://www.inkscape.org/namespaces/inkscape"
   xmlns:sodipodi="http://sodipodi.sourceforge.net/DTD/sodipodi-0.dtd"
   xmlns="http://www.w3.org/2000/svg"
   xmlns:svg="http://www.w3.org/2000/svg">
  <defs
     id="defs383" />
  <sodipodi:namedview
     id="namedview381"
     pagecolor="#ffffff"
     bordercolor="#666666"
     borderopacity="1.0"
     inkscape:showpageshadow="2"
     inkscape:pageopacity="0.0"
     inkscape:pagecheckerboard="0"
     inkscape:deskcolor="#d1d1d1" />
  <path
     d="M 1.0626,4.5076 C 1.2213,4.5076 1.3714,4.471 1.5063,4.4078 1.4855,4.471 1.4805,4.5421 1.5006,4.6153 l 1.291,4.77978 c 0.1701,0.6261 0.7381,1.0605 1.3872,1.0605 h 6.05769 c 0.6491,0 1.217,-0.4344 1.3865,-1.0605 l 1.2917,-4.77978 c 0.0194,-0.0732 0.0151,-0.1443 -0.0065,-0.2075 0.1357,0.0632 0.2858,0.0998 0.4445,0.0998 0.5866,0 1.0633,-0.4825 1.0633,-1.077 0,-0.5952 -0.4767,-1.077 -1.0633,-1.077 -0.5874,0 -1.0627,0.4818 -1.0627,1.077 0,0.2844 0.1092,0.5429 0.2872,0.7346 -0.0589,-0.0015 -0.1199,0.0086 -0.1788,0.0402 L 10.62999,5.51 C 10.14249,5.7699 9.53719,5.6191 9.22849,5.1596 L 7.506,2.233 C 7.478,2.1907 7.4421,2.1598 7.4026,2.1346 7.8973,2.0413 8.27139,1.604 8.27139,1.077 8.27139,0.4825 7.7946,0 7.208,0 6.62,0 6.1439,0.4825 6.1439,1.077 6.1439,1.604 6.5187,2.0413 7.012,2.1346 6.9732,2.1598 6.9373,2.1907 6.9093,2.233 L 5.1861,5.1596 C 4.8774,5.6191 4.2721,5.7699 3.7846,5.51 L 2.0161,4.2054 C 1.9573,4.1738 1.8962,4.1637 1.8381,4.1652 2.0161,3.9735 2.126,3.715 2.126,3.4306 2.126,2.8354 1.6492,2.3536 1.0626,2.3536 0.4753,2.3536 0,2.8354 0,3.4306 c 0,0.5945 0.4753,1.077 1.0626,1.077 z"
     fill="#000000"
     id="path377" />
</svg>
