<svg width="24" height="24" viewBox="0 0 24 24" fill="none" xmlns="http://www.w3.org/2000/svg">
<path d="M16.3744 11.751C16.0422 11.9035 15.6447 11.7942 15.439 11.4872L13.3787 7.98735C13.9017 7.57285 14.232 6.92995 14.232 6.21875C14.232 4.97825 13.235 3.96875 12 3.96875C10.7665 3.96875 9.77 4.97875 9.77 6.21875C9.77 6.93025 10.0997 7.57325 10.6225 7.98765L8.5396 11.5244C8.3558 11.7958 7.9595 11.9035 7.6264 11.7509L5.5537 10.2221C5.6318 9.99175 5.673 9.74725 5.673 9.49675C5.673 8.25635 4.676 7.24675 3.443 7.24675C2.2077 7.24675 1.211 8.25555 1.211 9.49675C1.211 10.7351 2.2048 11.7434 3.437 11.7467L5.127 17.9995C5.4516 19.1989 6.5395 20.0317 7.782 20.0317H16.219C17.4615 20.0317 18.5494 19.1988 18.874 17.9996L20.564 11.7467C21.7952 11.7441 22.789 10.735 22.789 9.49675C22.789 8.25605 21.7927 7.24675 20.559 7.24675C19.3253 7.24675 18.329 8.25605 18.329 9.49675C18.329 9.74725 18.3702 9.99165 18.4483 10.222L16.3744 11.751ZM19.5856 11.2376C19.5412 11.2614 19.4929 11.2718 19.4526 11.2703C19.4888 11.2716 19.5241 11.2705 19.5584 11.2671L19.6761 11.1804L19.2393 10.5879L19.5856 11.2376ZM19.2199 11.0639L19.2207 11.0608C19.2143 11.0254 19.2155 10.987 19.2253 10.951L19.2076 11.0162C19.2112 11.0321 19.2152 11.048 19.2199 11.0639ZM17.426 17.608C17.2785 18.1531 16.7839 18.5317 16.219 18.5317H7.782C7.2171 18.5317 6.7225 18.1531 6.575 17.6078L4.9652 11.6519L6.7878 12.9964L6.8806 13.0547C7.9002 13.5975 9.1642 13.282 9.8085 12.323L12.0007 8.60075L14.1698 12.2854C14.8362 13.2818 16.1018 13.5978 17.1208 13.0546L17.2131 12.9964L19.0356 11.6526L17.426 17.608ZM4.776 10.9521C4.7889 11.0013 4.787 11.0525 4.7709 11.0997C4.7802 11.0725 4.7878 11.0453 4.794 11.0183L4.776 10.9521ZM4.3258 11.1804L4.4435 11.2671C4.4693 11.2696 4.4956 11.2709 4.5225 11.2708C4.487 11.2663 4.4516 11.2563 4.4197 11.2394L4.7637 10.5905L4.3258 11.1804ZM3.7444 10.1778C3.6465 10.2234 3.545 10.2467 3.443 10.2467C3.0407 10.2467 2.711 9.91295 2.711 9.49675C2.711 9.07995 3.0402 8.74675 3.443 8.74675C3.8433 8.74675 4.173 9.08055 4.173 9.49675C4.173 9.69075 4.1004 9.87205 3.9715 10.0113C3.9368 10.0488 3.9069 10.0881 3.8816 10.1286C3.8359 10.1403 3.79 10.1565 3.7444 10.1778ZM12.2314 8.20915C12.1835 8.28275 12.1575 8.30715 12.1359 8.32115C12.1534 8.30975 12.1702 8.29795 12.1863 8.28575L12.2314 8.20915ZM11.8662 6.95455C11.5247 6.89055 11.27 6.58345 11.27 6.21875C11.27 5.80275 11.5995 5.46875 12 5.46875C12.4023 5.46875 12.732 5.80255 12.732 6.21875C12.732 6.58255 12.4761 6.89055 12.1346 6.95465C12.0874 6.96345 12.0427 6.97615 12.0005 6.99205C11.9583 6.97615 11.9135 6.96345 11.8662 6.95455ZM20.0305 10.0113C19.9016 9.87205 19.829 9.69075 19.829 9.49675C19.829 9.08015 20.1581 8.74675 20.559 8.74675C20.9599 8.74675 21.289 9.08015 21.289 9.49675C21.289 9.91275 20.9595 10.2467 20.559 10.2467C20.4562 10.2467 20.3552 10.2235 20.259 10.1784C20.2129 10.1569 20.1666 10.1404 20.1204 10.1286C20.0951 10.0881 20.0652 10.0488 20.0305 10.0113Z" fill="#252525"/>
</svg>
