<svg width="18" height="18" viewBox="0 0 18 18" fill="none" xmlns="http://www.w3.org/2000/svg">
<path d="M2.85461 8.27982C3.01331 8.27982 3.16341 8.24322 3.29831 8.18002C3.27751 8.24322 3.27251 8.31432 3.29261 8.38752L4.58361 13.1673C4.75371 13.7934 5.32171 14.2278 5.97081 14.2278H12.0285C12.6776 14.2278 13.2455 13.7934 13.415 13.1673L14.7067 8.38752C14.7261 8.31432 14.7218 8.24322 14.7002 8.18002C14.8359 8.24322 14.986 8.27982 15.1447 8.27982C15.7313 8.27982 16.208 7.79732 16.208 7.20282C16.208 6.60762 15.7313 6.12582 15.1447 6.12582C14.5573 6.12582 14.082 6.60762 14.082 7.20282C14.082 7.48722 14.1912 7.74572 14.3692 7.93742C14.3103 7.93592 14.2493 7.94602 14.1904 7.97762L12.422 9.28222C11.9345 9.54212 11.3292 9.39132 11.0205 8.93182L9.29801 6.00522C9.27001 5.96292 9.23411 5.93202 9.19461 5.90682C9.68931 5.81352 10.0634 5.37622 10.0634 4.84922C10.0634 4.25472 9.58661 3.77222 9.00001 3.77222C8.41201 3.77222 7.93591 4.25472 7.93591 4.84922C7.93591 5.37622 8.31071 5.81352 8.80401 5.90682C8.76521 5.93202 8.72931 5.96292 8.70131 6.00522L6.97811 8.93182C6.66941 9.39132 6.06411 9.54212 5.57661 9.28222L3.80811 7.97762C3.74931 7.94602 3.68821 7.93592 3.63011 7.93742C3.80811 7.74572 3.91801 7.48722 3.91801 7.20282C3.91801 6.60762 3.44121 6.12582 2.85461 6.12582C2.26731 6.12582 1.79201 6.60762 1.79201 7.20282C1.79201 7.79732 2.26731 8.27982 2.85461 8.27982Z" fill="black"/>
</svg>
