<svg width="24" height="24" viewBox="0 0 24 24" fill="none" xmlns="http://www.w3.org/2000/svg">
<path d="M17.626 16.566L7.434 6.374C8.682 5.359 10.271 4.75 12 4.75C15.998 4.75 19.25 8.002 19.25 12C19.25 13.729 18.641 15.319 17.626 16.566ZM12 19.25C8.002 19.25 4.75 15.998 4.75 12C4.75 10.27 5.359 8.681 6.373 7.434L16.565 17.627C15.317 18.64 13.729 19.25 12 19.25ZM12 3.25C7.176 3.25 3.25 7.174 3.25 12C3.25 16.824 7.176 20.75 12 20.75C16.825 20.75 20.75 16.824 20.75 12C20.75 7.174 16.825 3.25 12 3.25Z" fill="#252525"/>
</svg>
