<svg width="32" height="32" viewBox="0 0 32 32" fill="none" xmlns="http://www.w3.org/2000/svg">
<path d="M6.7815 16.2568C6.7815 21.3803 10.9365 25.5363 16.0623 25.5363C21.1865 25.5363 25.3414 21.3803 25.3414 16.2568C25.3414 11.1307 21.1865 6.97644 16.0623 6.97644C10.9365 6.97644 6.7815 11.1307 6.7815 16.2568Z" stroke="black" stroke-width="1.39286"/>
<path d="M19.4511 12.2292C19.2785 12.286 17.8144 12.8355 15.0589 13.8776C14.5833 14.0951 14.0178 14.6617 13.7996 15.1368L12.2094 19.5318C11.9965 20.0883 12.0826 20.4804 12.5712 20.4804C12.7302 20.4804 12.93 20.4397 13.1766 20.3497L17.4911 18.7119C17.9667 18.4944 18.534 17.9282 18.7515 17.4515C18.8964 17.1338 19.4282 15.681 20.3469 13.0933C20.5812 12.4267 20.5136 12.1 20.0772 12.1C19.9182 12.1 19.71 12.1438 19.4511 12.2292Z" stroke="black" stroke-width="1.39286" stroke-linecap="square"/>
<path d="M14.8886 14.889L17.6463 17.6467" stroke="black" stroke-width="1.39286" stroke-linecap="square"/>
</svg>
