<?xml version="1.0" encoding="UTF-8" standalone="no"?>
<svg
   width="13.807003"
   height="18.47698"
   viewBox="0 0 13.807003 18.47698"
   fill="none"
   version="1.1"
   id="svg433"
   sodipodi:docname="download.svg"
   xmlns:inkscape="http://www.inkscape.org/namespaces/inkscape"
   xmlns:sodipodi="http://sodipodi.sourceforge.net/DTD/sodipodi-0.dtd"
   xmlns="http://www.w3.org/2000/svg"
   xmlns:svg="http://www.w3.org/2000/svg">
  <defs
     id="defs437" />
  <sodipodi:namedview
     id="namedview435"
     pagecolor="#ffffff"
     bordercolor="#666666"
     borderopacity="1.0"
     inkscape:showpageshadow="2"
     inkscape:pageopacity="0.0"
     inkscape:pagecheckerboard="0"
     inkscape:deskcolor="#d1d1d1" />
  <path
     d="m 13.057003,16.976981 c 0.414,0 0.75,0.336 0.75,0.75 0,0.414 -0.336,0.75 -0.75,0.75 H 0.7500004 c -0.414,0 -0.7500004,-0.336 -0.7500004,-0.75 0,-0.414 0.3360004,-0.75 0.7500004,-0.75 z M 6.9126034,0 c 0.414,0 0.75,0.336001 0.75,0.750001 v 12.06098 l 3.8579996,-4.02398 c 0.286,-0.3 0.761,-0.31 1.061,-0.023 0.299,0.286 0.308,0.76098 0.022,1.06098 l -4.5389996,4.735 c -0.301,0.314 -0.725,0.495 -1.161,0.495 -0.436,0 -0.859,-0.181 -1.161,-0.495 l -4.539,-4.735 c -0.286,-0.3 -0.276,-0.77498 0.022,-1.06098 0.3,-0.287 0.774,-0.277 1.061,0.023 l 3.876,4.04298 V 0.750001 c 0,-0.414 0.336,-0.750001 0.75,-0.750001 z"
     fill="#000000"
     id="path431" />
</svg>
