<svg width="14" height="20" viewBox="0 0 14 20" fill="none" xmlns="http://www.w3.org/2000/svg">
<path d="M13.1535 17.7387C13.5675 17.7387 13.9035 18.0747 13.9035 18.4887C13.9035 18.9027 13.5675 19.2387 13.1535 19.2387H0.846497C0.432497 19.2387 0.0964966 18.9027 0.0964966 18.4887C0.0964966 18.0747 0.432497 17.7387 0.846497 17.7387H13.1535ZM7.0091 0.761719C7.4231 0.761719 7.7591 1.09772 7.7591 1.51172V13.5727L11.6171 9.54872C11.9031 9.24872 12.3781 9.23872 12.6781 9.52572C12.9771 9.81172 12.9861 10.2867 12.7001 10.5867L8.1611 15.3217C7.8601 15.6357 7.4361 15.8167 7.0001 15.8167C6.5641 15.8167 6.1411 15.6357 5.8391 15.3217L1.3001 10.5867C1.0141 10.2867 1.0241 9.81172 1.3221 9.52572C1.6221 9.23872 2.0961 9.24872 2.3831 9.54872L6.2591 13.5917V1.51172C6.2591 1.09772 6.5951 0.761719 7.0091 0.761719Z" fill="black"/>
</svg>
