<svg width="24" height="24" viewBox="0 0 24 24" fill="none" xmlns="http://www.w3.org/2000/svg">
<path d="M11.6294 17.85C10.0206 19.4585 7.4834 19.5372 5.9724 18.0267C4.4616 16.5157 4.5409 13.9782 6.1491 12.3697C6.1669 12.3517 6.1804 12.3315 6.1961 12.3122L6.2014 12.3175L6.8736 11.6455L12.3531 17.1247L11.6806 17.797L11.6866 17.8032C11.6676 17.8187 11.6471 17.832 11.6294 17.85ZM20.6096 9.85165C20.6096 9.11695 20.3234 8.42645 19.8039 7.90695L16.0921 4.19545C15.0201 3.12365 13.2754 3.12365 12.2034 4.19545L5.1409 11.2567L5.1461 11.262C5.1269 11.2777 5.1064 11.2912 5.0886 11.3092C2.8951 13.5022 2.8161 16.9915 4.9119 19.0872C5.9284 20.104 7.2726 20.6087 8.6381 20.6087C10.0876 20.6087 11.5609 20.0397 12.6899 18.9105C12.7076 18.8927 12.7209 18.8722 12.7366 18.8532L12.7411 18.8577L13.9414 17.6577C13.9421 17.657 13.9434 17.6565 13.9444 17.6555C13.9454 17.6545 13.9459 17.6532 13.9469 17.6522L19.8039 11.7962C20.3234 11.277 20.6096 10.5862 20.6096 9.85165Z" fill="#252525"/>
</svg>
