<svg width="24" height="24" viewBox="0 0 24 24" fill="none" xmlns="http://www.w3.org/2000/svg">
<path d="M13.5175 4.16602C13.1035 4.16602 12.7675 4.50202 12.7675 4.91602C12.7675 5.33002 13.1035 5.66602 13.5175 5.66602H17.0745L5.66449 17.306V13.584C5.66449 13.17 5.32849 12.834 4.91449 12.834C4.49949 12.834 4.16449 13.17 4.16449 13.584V18.394C4.16449 19.187 4.81049 19.834 5.60449 19.834H10.4825C10.8965 19.834 11.2325 19.498 11.2325 19.084C11.2325 18.67 10.8965 18.334 10.4825 18.334H6.75549L18.3355 6.52002V10.416C18.3355 10.83 18.6715 11.166 19.0855 11.166C19.5005 11.166 19.8355 10.83 19.8355 10.416V5.60602C19.8355 4.81202 19.1895 4.16602 18.3955 4.16602H13.5175Z" fill="#252525"/>
</svg>
