<svg width="24" height="24" viewBox="0 0 24 24" fill="none" xmlns="http://www.w3.org/2000/svg">
<path d="M19.5477 4.03591L19.6841 4.16541C21.128 5.60791 21.0945 7.67771 19.812 9.14661L19.6698 9.30161C19.6373 9.33561 19.6164 9.35651 19.5607 9.41071C19.1991 9.75371 18.7613 10.0478 18.2642 10.3C17.7911 10.5401 17.2894 10.7303 16.7883 10.8774L16.509 10.955C16.4237 10.9773 16.3466 10.9961 16.2788 11.0115L16.1781 11.0324L16.0517 11.0881C15.7319 11.2428 15.4911 11.4533 15.3131 11.7115L15.2292 11.8445C15.104 12.0621 15.0228 12.2993 14.9787 12.5392C14.965 12.6139 14.956 12.6808 14.9507 12.7375L14.947 12.8076L15.6927 13.5541C15.9366 13.7983 15.9364 14.194 15.6921 14.4379C15.475 14.6547 15.1382 14.6786 14.8948 14.5097L14.8082 14.4373L13.883 13.5106L8.0569 19.3289L8.0071 19.3684L7.9561 19.4164L7.9498 19.431C7.9444 19.4401 7.9377 19.4472 7.928 19.4523L7.9131 19.4564L7.876 19.4923C7.4761 19.8535 7.0566 20.1033 6.0613 20.5761L5.5978 20.7933C5.4386 20.8672 5.2658 20.9052 5.092 20.9052C4.821 20.9052 4.558 20.8136 4.3461 20.6458L4.2446 20.5556L3.4555 19.7721C3.1041 19.4234 3.0025 18.8957 3.1989 18.4412L3.5816 17.576C4.0003 16.6625 4.2288 16.3206 4.6465 15.8896L4.953 15.5765L5.1276 15.3872L10.445 10.0686L9.438 9.05971C9.1941 8.81541 9.1943 8.41971 9.4386 8.17581C9.6557 7.95901 9.9925 7.93511 10.2359 8.10401L10.3225 8.17641L11.064 8.92061C11.1301 8.91691 11.2204 8.90711 11.3263 8.88761C11.5665 8.84351 11.8041 8.76231 12.022 8.63711C12.3414 8.45341 12.598 8.18821 12.7786 7.81591L12.8321 7.69241L12.8805 7.48251C12.8996 7.40471 12.9219 7.31921 12.9477 7.22611L12.9892 7.08081C13.1363 6.58011 13.3264 6.07881 13.5665 5.60611C13.7686 5.20821 13.9976 4.84821 14.2627 4.52921L14.4848 4.28121L14.5643 4.20101C15.9919 2.82921 18.0611 2.69881 19.5477 4.03591ZM11.328 10.9536L6.0134 16.2687L5.8663 16.4299L5.4889 16.8176C5.1863 17.1406 5.0148 17.4253 4.6158 18.3212L4.3591 18.9074L5.1011 19.6444L5.7037 19.3621C6.5093 18.975 6.8012 18.7899 7.106 18.5016L7.2792 18.331L7.3051 18.3184L7.3221 18.3014L7.3307 18.2904L7.3431 18.2804L7.6948 17.933L13 12.6266L11.328 10.9536Z" fill="black"/>
</svg>
