<?xml version="1.0" encoding="UTF-8" standalone="no"?>
<svg
   width="17.670734"
   height="17.805595"
   viewBox="0 0 17.670734 17.805595"
   fill="none"
   version="1.1"
   id="svg508"
   sodipodi:docname="eyedropper.svg"
   xmlns:inkscape="http://www.inkscape.org/namespaces/inkscape"
   xmlns:sodipodi="http://sodipodi.sourceforge.net/DTD/sodipodi-0.dtd"
   xmlns="http://www.w3.org/2000/svg"
   xmlns:svg="http://www.w3.org/2000/svg">
  <defs
     id="defs512" />
  <sodipodi:namedview
     id="namedview510"
     pagecolor="#ffffff"
     bordercolor="#666666"
     borderopacity="1.0"
     inkscape:showpageshadow="2"
     inkscape:pageopacity="0.0"
     inkscape:pagecheckerboard="0"
     inkscape:deskcolor="#d1d1d1" />
  <path
     d="m 16.447677,0.93630492 0.1364,0.12949998 c 1.4439,1.4425 1.4104,3.5123 0.1279,4.9812 l -0.1422,0.155 c -0.0325,0.034 -0.0534,0.0549 -0.1091,0.1091 -0.3616,0.343 -0.7994,0.63709 -1.2965,0.88929 -0.4731,0.2401 -0.9748,0.4303 -1.4759,0.5774 l -0.2793,0.0776 c -0.0853,0.0223 -0.1624,0.0411 -0.2302,0.0565 l -0.1007,0.0209 -0.1264,0.0557 c -0.3198,0.1547 -0.5606,0.3652 -0.7386,0.6234 l -0.0839,0.133 c -0.1252,0.2176 -0.2064,0.4548 -0.2505,0.6947 -0.0137,0.0747 -0.0227,0.1416 -0.028,0.1983 l -0.0037,0.0701 0.7457,0.7465001 c 0.2439,0.2442 0.2437,0.6399 -6e-4,0.8838 -0.2171,0.2168 -0.5539,0.2407 -0.7973,0.0718 l -0.0866,-0.0724 -0.9252,-0.9267 -5.8260998,5.8183 -0.0498,0.0395 -0.051,0.048 -0.0063,0.0146 c -0.0054,0.0091 -0.0121,0.0162 -0.0218,0.0213 l -0.0149,0.0041 -0.0371,0.0359 c -0.3999,0.3612 -0.8194,0.611 -1.8147,1.0838 l -0.4635,0.2172 c -0.1592,0.0739 -0.332,0.1119 -0.5058,0.1119 -0.271,0 -0.534,-0.0916 -0.7459,-0.2594 l -0.1015,-0.0902 -0.78909996,-0.7835 c -0.3514,-0.3487 -0.453,-0.8764 -0.2566,-1.3309 l 0.3827,-0.8652 c 0.4187,-0.9135 0.64719996,-1.2554 1.06489996,-1.6864 l 0.3065,-0.3131 0.1746,-0.1893 5.3174,-5.3186001 -1.007,-1.00889 c -0.2439,-0.2443 -0.2437,-0.64 6e-4,-0.8839 0.2171,-0.2168 0.5539,-0.2407 0.7973,-0.0718 l 0.0866,0.0724 0.7415,0.7442 c 0.0661,-0.0037 0.1564,-0.0135 0.2623,-0.033 0.2402,-0.0441 0.4778,-0.1253 0.6957,-0.2505 0.3194,-0.1837 0.576,-0.4489 0.7566,-0.8212 l 0.0535,-0.1235 0.0484,-0.2099 c 0.0191,-0.0778 0.0414,-0.1633 0.0672,-0.2564 l 0.0415,-0.1453 c 0.1470998,-0.5007 0.3371998,-1.002 0.5772998,-1.4747 0.2021,-0.3979 0.4311,-0.7579 0.6962,-1.0769 l 0.2221,-0.248 0.0795,-0.0802 c 1.4276,-1.37179998 3.4968,-1.50219998 4.9834,-0.16509998 z m -8.2196998,6.91768998 -5.3146,5.3151001 -0.1471,0.1612 -0.3774,0.3877 c -0.3026,0.323 -0.4741,0.6077 -0.8731,1.5036 l -0.2567,0.5862 0.742,0.737 0.6026,-0.2823 c 0.8056,-0.3871 1.0975,-0.5722 1.4023,-0.8605 l 0.1732,-0.1706 0.0259,-0.0126 0.017,-0.017 0.0086,-0.011 0.0124,-0.01 0.3517,-0.3474 5.3052,-5.3064001 z"
     fill="#000000"
     id="path506" />
</svg>
