<svg width="20" height="20" viewBox="0 0 20 20" fill="none" xmlns="http://www.w3.org/2000/svg">
<path d="M15.2309 10.5802C16.3242 10.5802 17.21 11.5202 17.21 12.6802C17.21 13.0827 17.1025 13.4594 16.9175 13.7785C16.9175 13.7785 16.7959 13.9619 16.7525 14.0227C16.2817 14.681 14.9434 15.8635 14.1742 16.5185C13.85 16.7944 13.3734 16.7944 13.0492 16.5185C12.28 15.8635 10.9417 14.681 10.4709 14.0227C10.4275 13.9619 10.3059 13.7785 10.3059 13.7785C10.1209 13.4594 10.0134 13.0827 10.0134 12.6802C10.0134 11.5202 10.8992 10.5802 11.9917 10.5802C12.6617 10.5802 13.2534 10.9335 13.6117 11.4727C13.97 10.9335 14.5617 10.5802 15.2309 10.5802ZM8.5191 10.6976C8.6412 10.6976 8.8003 10.7046 8.9965 10.7186C9.0257 10.7207 9.0544 10.7279 9.0811 10.7399C9.1862 10.787 9.2428 10.8977 9.226 11.0063L9.2069 11.0706L9.1028 11.3118C8.8765 11.8614 8.7633 12.3175 8.7633 12.6801C8.7633 13.2884 8.9225 13.8851 9.2241 14.4051C9.2375 14.4276 9.2508 14.4501 9.265 14.4718C9.265 14.4718 9.4033 14.6776 9.4541 14.7493C9.6678 15.0484 10.1666 15.5721 10.9507 16.3203C10.9837 16.3517 11.0024 16.3953 11.0024 16.4409C11.0024 16.5146 10.9546 16.5772 10.8883 16.5992L10.8356 16.6076H3.7083C3.2406 16.6076 2.8539 16.2938 2.7971 15.8876L2.79 15.7843V15.1393C2.79 12.8351 5.3558 10.6976 8.5191 10.6976ZM9.3483 3.2667C11.0367 3.2667 12.4058 4.635 12.4058 6.3242C12.4058 8.0125 11.0367 9.3808 9.3483 9.3808C7.6608 9.3808 6.2917 8.0125 6.2917 6.3242C6.2917 4.635 7.6608 3.2667 9.3483 3.2667Z" fill="black"/>
</svg>
