<?xml version="1.0" encoding="UTF-8" standalone="no"?>
<svg
   width="14.42"
   height="13.458725"
   viewBox="0 0 14.42 13.458725"
   fill="none"
   version="1.1"
   id="svg520"
   sodipodi:docname="favorite.svg"
   xmlns:inkscape="http://www.inkscape.org/namespaces/inkscape"
   xmlns:sodipodi="http://sodipodi.sourceforge.net/DTD/sodipodi-0.dtd"
   xmlns="http://www.w3.org/2000/svg"
   xmlns:svg="http://www.w3.org/2000/svg">
  <defs
     id="defs524" />
  <sodipodi:namedview
     id="namedview522"
     pagecolor="#ffffff"
     bordercolor="#666666"
     borderopacity="1.0"
     inkscape:showpageshadow="2"
     inkscape:pageopacity="0.0"
     inkscape:pagecheckerboard="0"
     inkscape:deskcolor="#d1d1d1" />
  <path
     d="m 12.4409,7.3135 c 1.0933,0 1.9791,0.94 1.9791,2.1 0,0.4025 -0.1075,0.7792 -0.2925,1.0983 0,0 -0.1216,0.1834 -0.165,0.2442 -0.4708,0.6583 -1.8091,1.8408 -2.5783,2.4958 -0.3242,0.2759 -0.8008,0.2759 -1.125,0 C 9.49,12.5968 8.1517,11.4143 7.6809,10.756 7.6375,10.6952 7.5159,10.5118 7.5159,10.5118 7.3309,10.1927 7.2234,9.816 7.2234,9.4135 c 0,-1.16 0.8858,-2.1 1.9783,-2.1 0.67,0 1.2617,0.3533 1.62,0.8925 0.3583,-0.5392 0.95,-0.8925 1.6192,-0.8925 z M 5.7291,7.4309 c 0.1221,0 0.2812,0.007 0.4774,0.021 C 6.2357,7.454 6.2644,7.4612 6.2911,7.4732 6.3962,7.5203 6.4528,7.631 6.436,7.7396 L 6.4169,7.8039 6.3128,8.0451 C 6.0865,8.5947 5.9733,9.0508 5.9733,9.4134 c 0,0.6083 0.1592,1.205 0.4608,1.725 0.0134,0.0225 0.0267,0.045 0.0409,0.0667 0,0 0.1383,0.2058 0.1891,0.2775 0.2137,0.2991 0.7125,0.8228 1.4966,1.571 0.033,0.0314 0.0517,0.075 0.0517,0.1206 0,0.0737 -0.0478,0.1363 -0.1141,0.1583 L 8.0456,13.3409 H 0.9183 c -0.4677,0 -0.8544,-0.3138 -0.9112,-0.72 L 0,12.5176 v -0.645 C 0,9.5684 2.5658,7.4309 5.7291,7.4309 Z M 6.5583,0 c 1.6884,0 3.0575,1.3683 3.0575,3.0575 0,1.6883 -1.3691,3.0566 -3.0575,3.0566 C 4.8708,6.1141 3.5017,4.7458 3.5017,3.0575 3.5017,1.3683 4.8708,0 6.5583,0 Z"
     fill="#000000"
     id="path518" />
</svg>
