<svg width="24" height="24" viewBox="0 0 24 24" fill="none" xmlns="http://www.w3.org/2000/svg">
<path d="M18.75 5C19.164 5 19.5 5.336 19.5 5.75C19.5 6.165 19.164 6.5 18.75 6.5H4.75C4.336 6.5 4 6.165 4 5.75C4 5.336 4.336 5 4.75 5H18.75ZM10.993 11.496C11.406 11.496 11.743 11.832 11.743 12.246C11.743 12.661 11.406 12.996 10.993 12.996L4.75 13C4.336 13 4 12.665 4 12.25C4 11.836 4.336 11.5 4.75 11.5L10.993 11.496ZM10.993 17.998C11.406 17.998 11.743 18.334 11.743 18.748C11.743 19.163 11.406 19.498 10.993 19.498L4.75 19.5C4.336 19.5 4 19.165 4 18.75C4 18.336 4.336 18 4.75 18L10.993 17.998ZM18.854 11.12C19.256 11.12 19.406 11.35 19.452 11.449C19.498 11.548 19.577 11.811 19.316 12.117L17.014 14.744V19.193C17.014 19.606 16.678 19.942 16.265 19.942C15.852 19.942 15.516 19.606 15.516 19.193V14.734L13.212 12.117C12.952 11.811 13.03 11.548 13.076 11.449C13.122 11.35 13.272 11.12 13.675 11.12H18.854Z" fill="black"/>
</svg>
