<?xml version="1.0" encoding="UTF-8" standalone="no"?>
<svg
   width="15.500158"
   height="14.942"
   viewBox="0 0 15.500158 14.942"
   fill="none"
   version="1.1"
   id="svg555"
   sodipodi:docname="filter-funnel.svg"
   xmlns:inkscape="http://www.inkscape.org/namespaces/inkscape"
   xmlns:sodipodi="http://sodipodi.sourceforge.net/DTD/sodipodi-0.dtd"
   xmlns="http://www.w3.org/2000/svg"
   xmlns:svg="http://www.w3.org/2000/svg">
  <defs
     id="defs559" />
  <sodipodi:namedview
     id="namedview557"
     pagecolor="#ffffff"
     bordercolor="#666666"
     borderopacity="1.0"
     inkscape:showpageshadow="2"
     inkscape:pageopacity="0.0"
     inkscape:pagecheckerboard="0"
     inkscape:deskcolor="#d1d1d1" />
  <path
     d="m 14.75,0 c 0.414,0 0.75,0.336 0.75,0.75 0,0.415 -0.336,0.75 -0.75,0.75 h -14 C 0.336,1.5 0,1.165 0,0.75 0,0.336 0.336,0 0.75,0 Z M 6.993,6.496 c 0.413,0 0.75,0.336 0.75,0.75 0,0.415 -0.337,0.75 -0.75,0.75 L 0.75,8 C 0.336,8 0,7.665 0,7.25 0,6.836 0.336,6.5 0.75,6.5 Z m 0,6.502 c 0.413,0 0.75,0.336 0.75,0.75 0,0.415 -0.337,0.75 -0.75,0.75 L 0.75,14.5 C 0.336,14.5 0,14.165 0,13.75 0,13.336 0.336,13 0.75,13 Z M 14.854,6.12 c 0.402,0 0.552,0.23 0.598,0.329 0.046,0.099 0.125,0.362 -0.136,0.668 l -2.302,2.627 v 4.449 c 0,0.413 -0.336,0.749 -0.749,0.749 -0.413,0 -0.749,-0.336 -0.749,-0.749 V 9.734 L 9.212,7.117 C 8.952,6.811 9.03,6.548 9.076,6.449 9.122,6.35 9.272,6.12 9.675,6.12 Z"
     fill="#000000"
     id="path553" />
</svg>
