<?xml version="1.0" encoding="UTF-8" standalone="no"?>
<svg
   width="36"
   height="36"
   viewBox="0 0 36 36"
   fill="none"
   version="1.1"
   id="svg649"
   sodipodi:docname="gallery-squircle.svg"
   xmlns:inkscape="http://www.inkscape.org/namespaces/inkscape"
   xmlns:sodipodi="http://sodipodi.sourceforge.net/DTD/sodipodi-0.dtd"
   xmlns="http://www.w3.org/2000/svg"
   xmlns:svg="http://www.w3.org/2000/svg">
  <sodipodi:namedview
     id="namedview651"
     pagecolor="#ffffff"
     bordercolor="#666666"
     borderopacity="1.0"
     inkscape:showpageshadow="2"
     inkscape:pageopacity="0.0"
     inkscape:pagecheckerboard="0"
     inkscape:deskcolor="#d1d1d1" />
  <g
     clip-path="url(#clip0_1_2)"
     id="g642">
    <path
       d="M 0,18 C 0,13.2261 1.89642,8.64773 5.27208,5.27208 8.64773,1.89642 13.2261,0 18,0 22.7739,0 27.3523,1.89642 30.7279,5.27208 34.1036,8.64773 36,13.2261 36,18 36,22.7739 34.1036,27.3523 30.7279,30.7279 27.3523,34.1036 22.7739,36 18,36 13.2261,36 8.64773,34.1036 5.27208,30.7279 1.89642,27.3523 0,22.7739 0,18"
       fill="#d8d8d8"
       id="path634" />
    <path
       d="M 35.6701,12.6333 C 35.2269,9.29062 34.0441,6.26172 31.9574,4.04272 h -5e-4 C 29.7386,1.95622 26.7091,0.773217 23.3664,0.330717 20.1736,-0.0924827 17.9999,0.0112173 17.9999,0.0112173 c 0,0 -2.1742,-0.1037 -5.3665,0.3194997 C 9.29022,0.773217 6.26142,1.95622 4.04292,4.04272 h -5e-4 c -2.086,2.219 -3.269503,5.2479 -3.712203,8.59058 -0.4232997,3.1928 -0.3187997,5.367 -0.3187997,5.367 0,0 -0.1045,2.1735 0.3187997,5.3664 0.4427,3.3425 1.626203,6.3717 3.712203,8.5905 l 5e-4,5e-4 c 2.2185,2.0859 5.2473,3.2694 8.59048,3.7122 3.1923,0.423 5.3665,0.3187 5.3665,0.3187 0,0 2.1737,0.1043 5.3665,-0.3187 3.3427,-0.4428 6.3722,-1.6263 8.5905,-3.7122 l 5e-4,-5e-4 c 2.0867,-2.2188 3.2695,-5.248 3.7127,-8.5905 0.4228,-3.1929 0.3185,-5.3664 0.3185,-5.3664 0,0 0.1043,-2.1742 -0.3185,-5.367 z"
       fill="#d10559"
       id="path636" />
    <path
       d="m 25.2952,19.0734 -4.095,-1.0605 4.097,-1.0527 c 0.6205,-0.1268 1.2062,-0.4545 1.648,-0.974 0.8262,-0.972 0.9087,-2.3265 0.303,-3.3705 -0.6058,-1.0437 -1.8223,-1.645 -3.0765,-1.4105 -0.6703,0.1258 -1.2455,0.4718 -1.6633,0.9473 l -2.9112,2.9964 1.131,-4.0219 c 0.2022,-0.6 0.2125,-1.271 -0.0153,-1.914 -0.4262,-1.2025 -1.5567,-1.9532 -2.7635,-1.9532 -1.2072,0 -2.3374,0.7507 -2.7637,1.9532 -0.2277,0.643 -0.2175,1.314 -0.0155,1.914 l 1.1275,4.0087 -2.8962,-2.9922 C 12.9847,11.667 12.41,11.32 11.74,11.1932 c -1.2535,-0.237 -2.4718,0.362 -3.0793,1.4048 -0.6075,1.0427 -0.5277,2.3974 0.2965,3.3712 0.441,0.5202 1.0263,0.8492 1.6463,0.9765 l 4.0955,1.0607 -4.098,1.053 c -0.62,0.1258 -1.2058,0.4543 -1.6475,0.9732 -0.8263,0.9723 -0.9088,2.327 -0.303,3.3708 0.6057,1.0442 1.8222,1.645 3.0762,1.4107 0.6705,-0.1257 1.2458,-0.4715 1.6635,-0.947 l 2.911,-2.9962 -1.131,4.0215 c -0.202,0.5999 -0.2122,1.2712 0.0155,1.9142 0.4263,1.202 1.5565,1.953 2.7637,1.953 1.2068,0 2.3373,-0.751 2.7635,-1.953 0.2278,-0.643 0.2175,-1.3143 0.0153,-1.9142 l -1.1275,-4.009 2.8965,2.9922 c 0.4167,0.4768 0.9915,0.8235 1.6615,0.9505 1.2535,0.2368 2.4717,-0.362 3.079,-1.405 0.6075,-1.0422 0.528,-2.3972 -0.2963,-3.3707 -0.441,-0.5207 -1.0262,-0.8495 -1.6462,-0.977 z"
       fill="#ffffff"
       id="path638" />
    <path
       d="m 17.9493,15.7096 c -1.2712,0 -2.3022,1.031 -2.3022,2.3023 0,1.2712 1.031,2.3022 2.3022,2.3022 1.2713,0 2.3023,-1.031 2.3023,-2.3022 0,-1.2713 -1.031,-2.3023 -2.3023,-2.3023 z"
       fill="#b70656"
       id="path640" />
  </g>
  <defs
     id="defs647">
    <clipPath
       id="clip0_1_2">
      <rect
         width="36"
         height="36"
         fill="#ffffff"
         id="rect644"
         x="0"
         y="0" />
    </clipPath>
  </defs>
</svg>
