<?xml version="1.0" encoding="UTF-8" standalone="no"?>
<svg
   width="25.836802"
   height="25.836777"
   viewBox="0 0 25.836802 25.836777"
   fill="none"
   version="1.1"
   id="svg674"
   sodipodi:docname="gif.svg"
   xmlns:inkscape="http://www.inkscape.org/namespaces/inkscape"
   xmlns:sodipodi="http://sodipodi.sourceforge.net/DTD/sodipodi-0.dtd"
   xmlns="http://www.w3.org/2000/svg"
   xmlns:svg="http://www.w3.org/2000/svg">
  <sodipodi:namedview
     id="namedview676"
     pagecolor="#ffffff"
     bordercolor="#666666"
     borderopacity="1.0"
     inkscape:showpageshadow="2"
     inkscape:pageopacity="0.0"
     inkscape:pagecheckerboard="0"
     inkscape:deskcolor="#d1d1d1" />
  <g
     clip-path="url(#clip0_1_834)"
     id="g667"
     transform="translate(-0.093399,-0.124023)">
    <path
       d="m 4.8434,0.874023 h 16.3368 c 1.0609,0 2.0783,0.421427 2.8284,1.171577 0.7502,0.75014 1.1716,1.76756 1.1716,2.82842 V 21.2108 c 0,1.0609 -0.4214,2.0783 -1.1716,2.8285 -0.7501,0.7501 -1.7675,1.1715 -2.8284,1.1715 H 4.8434 c -1.06087,0 -2.07828,-0.4214 -2.82843,-1.1715 C 1.26483,23.2891 0.843399,22.2717 0.843399,21.2108 V 4.87402 C 0.843399,3.81316 1.26483,2.79574 2.01497,2.0456 2.76512,1.29545 3.78253,0.874023 4.8434,0.874023 Z"
       stroke="#000000"
       stroke-width="1.5"
       stroke-linejoin="round"
       id="path663" />
    <path
       d="m 7.97939,15.3658 c 0.2799,0.3694 0.6828,0.5596 1.1866,0.5596 0.5261,0 0.91791,-0.1119 1.14171,-0.3246 V 14.4814 H 8.87489 v -1.276 h 3.00001 v 2.9103 l -0.0224,0.0336 c -0.2799,0.3694 -0.6605,0.6381 -1.1418,0.8172 -0.4701,0.1791 -0.99621,0.2686 -1.58951,0.2686 -0.6157,0 -1.1642,-0.1455 -1.6455,-0.4253 -0.4813,-0.2799 -0.8507,-0.6941 -1.1082,-1.209 -0.2574,-0.5149 -0.3918,-1.1194 -0.403,-1.8022 v -0.5485 c 0,-1.097 0.2687,-1.9589 0.7948,-2.5857 0.5373,-0.6269 1.2985,-0.95151 2.25,-0.95151 0.8171,0 1.47751,0.2127 1.95891,0.61561 0.4925,0.4142 0.7835,1.0075 0.8843,1.7687 l 0.0224,0.2015 H 10.3301 L 10.3189,12.1755 C 10.1958,11.392 9.78159,11.0338 9.03159,11.0338 c -0.4813,0 -0.8507,0.1679 -1.097,0.5149 -0.2574,0.3582 -0.3917,0.9067 -0.4029,1.6231 v 0.5373 c 0,0.7164 0.1567,1.2649 0.4477,1.6567 z M 14.483,17.1456 H 12.9271 V 9.81359 h 1.5559 z m 5.9215,-5.9999 h -3.2238 v 1.7238 h 2.8097 v 1.3209 h -2.8097 v 2.9552 H 15.6136 V 9.81359 h 4.7797 v 1.33211 z"
       fill="#000000"
       id="path665" />
  </g>
  <defs
     id="defs672">
    <clipPath
       id="clip0_1_834">
      <rect
         width="26"
         height="26"
         fill="#ffffff"
         id="rect669"
         x="0"
         y="0" />
    </clipPath>
  </defs>
</svg>
