<?xml version="1.0" encoding="UTF-8" standalone="no"?>
<svg
   width="56.043392"
   height="51.777802"
   viewBox="0 0 56.043392 51.777802"
   fill="none"
   version="1.1"
   id="svg700"
   sodipodi:docname="group-call.svg"
   xmlns:inkscape="http://www.inkscape.org/namespaces/inkscape"
   xmlns:sodipodi="http://sodipodi.sourceforge.net/DTD/sodipodi-0.dtd"
   xmlns="http://www.w3.org/2000/svg"
   xmlns:svg="http://www.w3.org/2000/svg">
  <defs
     id="defs704" />
  <sodipodi:namedview
     id="namedview702"
     pagecolor="#ffffff"
     bordercolor="#666666"
     borderopacity="1.0"
     inkscape:showpageshadow="2"
     inkscape:pageopacity="0.0"
     inkscape:pagecheckerboard="0"
     inkscape:deskcolor="#d1d1d1" />
  <path
     d="m 8.5446245,3.03303 0.328,0.004 c 1.092,0.047 2.2520005,0.482 3.7910005,2.025 l 3.889,3.885 c 1.541,1.545 1.978,2.707 2.027,3.795 0.047,1.08 -0.275,2.209 -1.664,3.603 l -1.566,1.565 c -1.405,1.405 -1.737,2.533 -1.68,3.621 0.047,0.893 0.492,1.783 0.545,1.885 0.807,1.56 4.932,8.859 13.695,13.879 0.268,0.173 1.446,0.803 2.34,0.816 1.092,0.019 2.215,-0.275 3.617,-1.682 l 1.567,-1.564 c 1.396,-1.389 2.521,-1.717 3.604,-1.664 1.09,0.054 2.256,0.486 3.797,2.027 l 3.881,3.891 c 1.545,1.535 1.979,2.698 2.031,3.791 0.053,1.084 -0.272,2.209 -1.664,3.599 l -0.013,0.012 c -4.444,4.438 -8.666,5.44 -13.049,5.231 -2.735,-0.129 -5.585,-0.854 -8.853,-2.895 -0.006,0.006 -0.516,-0.328 -0.765,-0.501 -0.159,-0.108 -0.325,-0.22 -0.489,-0.337 -13.848,-9.714 -21.0110005,-21.439 -21.0110005,-21.439 -2.02601995,-3.252 -2.74801995,-6.092 -2.87701995,-8.819 -0.208,-4.38 0.791,-8.61 5.22601995,-13.047 l 0.006,-0.003 c 1.404,-1.403 2.527,-1.729 3.611,-1.674 z m 44.6630005,5.253 c 0.738,-0.017 1.488,0.28 2.021,0.813 0.533,0.533 0.832,1.271 0.814,2.023 l -0.152,7.572 c -0.021,1.024 -0.855,1.836 -1.875,1.836 h -0.035 c -1.037,-0.021 -1.859,-0.88 -1.84,-1.914 l 0.082,-3.854 -11.717,11.713 c -0.365,0.369 -0.846,0.551 -1.326,0.551 -0.48,0 -0.961,-0.182 -1.324,-0.551 -0.732,-0.731 -0.732,-1.917 0,-2.649 l 11.713,-11.715 -3.855,0.078 c -1.03,0.016 -1.893,-0.801 -1.916,-1.835 -0.018,-1.036 0.804,-1.891 1.84,-1.915 z m -12.516,-7.737 c 0.732,-0.73204 1.916,-0.73204 2.648,0 0.731,0.731 0.731,1.919 0,2.651 l -11.712,11.713 3.855,-0.08 h 0.041 c 1.02,0 1.854,0.815 1.875,1.84 0.021,1.033 -0.803,1.89 -1.834,1.91 l -7.575,0.156 h -0.054 c -0.734,0 -1.449,-0.297 -1.971,-0.815 -0.531,-0.534 -0.828,-1.272 -0.813,-2.025 l 0.155,-7.569 c 0.022,-1.035 0.903,-1.853 1.911,-1.834 1.037,0.021 1.857,0.875 1.836,1.91 l -0.078,3.857 z"
     fill="#000000"
     id="path698" />
</svg>
