<svg width="72" height="72" viewBox="0 0 72 72" fill="none" xmlns="http://www.w3.org/2000/svg">
<path d="M16.521 13.1451L16.849 13.1491C17.941 13.1961 19.101 13.6311 20.64 15.1741L24.529 19.0591C26.07 20.6041 26.507 21.7661 26.556 22.8541C26.603 23.9341 26.281 25.0631 24.892 26.4571L23.326 28.0221C21.921 29.4271 21.589 30.5551 21.646 31.6431C21.693 32.5361 22.138 33.4261 22.191 33.5281C22.998 35.0881 27.123 42.3871 35.886 47.4071C36.154 47.5801 37.332 48.2101 38.226 48.2231C39.318 48.2421 40.441 47.9481 41.843 46.5411L43.41 44.9771C44.806 43.5881 45.931 43.2601 47.014 43.3131C48.104 43.3671 49.27 43.7991 50.811 45.3401L54.692 49.2311C56.237 50.7661 56.671 51.9291 56.723 53.0221C56.776 54.1061 56.451 55.2311 55.059 56.6211L55.046 56.6331C50.602 61.0711 46.38 62.0731 41.997 61.8641C39.262 61.7351 36.412 61.0101 33.144 58.9691C33.138 58.9751 32.628 58.6411 32.379 58.4681C32.22 58.3601 32.054 58.2481 31.89 58.1311C18.042 48.4171 10.879 36.6921 10.879 36.6921C8.85298 33.4401 8.13098 30.6001 8.00198 27.8731C7.79398 23.4931 8.79298 19.2631 13.228 14.8261L13.234 14.8231C14.638 13.4201 15.761 13.0941 16.845 13.1491L16.521 13.1451ZM61.184 18.3981C61.922 18.3811 62.672 18.6781 63.205 19.2111C63.738 19.7441 64.037 20.4821 64.019 21.2341L63.867 28.8061C63.846 29.8301 63.012 30.6421 61.992 30.6421H61.957C60.92 30.6211 60.098 29.7621 60.117 28.7281L60.199 24.8741L48.482 36.5871C48.117 36.9561 47.636 37.1381 47.156 37.1381C46.676 37.1381 46.195 36.9561 45.832 36.5871C45.1 35.8561 45.1 34.6701 45.832 33.9381L57.545 22.2231L53.69 22.3011C52.66 22.3171 51.797 21.5001 51.774 20.4661C51.756 19.4301 52.578 18.5751 53.614 18.5511L61.184 18.3981ZM48.668 10.6611C49.4 9.92906 50.584 9.92906 51.316 10.6611C52.047 11.3921 52.047 12.5801 51.316 13.3121L39.604 25.0251L43.459 24.9451H43.5C44.52 24.9451 45.354 25.7601 45.375 26.7851C45.396 27.8181 44.572 28.6751 43.541 28.6951L35.966 28.8511H35.912C35.178 28.8511 34.463 28.5541 33.941 28.0361C33.41 27.5021 33.113 26.7641 33.128 26.0111L33.283 18.4421C33.305 17.4071 34.186 16.5891 35.194 16.6081C36.231 16.6291 37.051 17.4831 37.03 18.5181L36.952 22.3751L48.668 10.6611Z" fill="black"/>
</svg>
