<svg width="18" height="18" viewBox="0 0 18 18" fill="none" xmlns="http://www.w3.org/2000/svg">
<path d="M7.9308 7.52138H10.8031L10.0692 10.4796H7.1969L7.9308 7.52138ZM4.1809 12.8458L3.6393 15.0295C3.4816 15.6636 3.8664 16.3059 4.4971 16.4636C5.1287 16.6221 5.7677 16.2366 5.9254 15.6025L6.609 12.8458H9.4813L8.9397 15.0295C8.7829 15.6636 9.1668 16.3059 9.7975 16.4636C10.4291 16.6221 11.0682 16.2366 11.2258 15.6025L11.9095 12.8458H13.7019C14.3582 12.8458 14.8891 12.3166 14.8891 11.6635C14.8891 11.0105 14.3582 10.4796 13.7019 10.4796H12.4973L13.2313 7.52138H15.1747C15.8303 7.52138 16.362 6.99058 16.362 6.33748C16.362 5.68358 15.8303 5.15438 15.1747 5.15438H13.8183L14.3607 2.97068C14.5176 2.33658 14.1336 1.69428 13.5021 1.53658C12.8713 1.37808 12.2314 1.76358 12.0746 2.39848L11.391 5.15438H8.5178L9.0603 2.97068C9.2171 2.33658 8.8332 1.69428 8.2016 1.53658C7.57 1.37808 6.931 1.76358 6.7742 2.39848L6.0905 5.15438H4.2973C3.6418 5.15438 3.1109 5.68358 3.1109 6.33748C3.1109 6.99058 3.6418 7.52138 4.2973 7.52138H5.5027L4.7679 10.4796H2.8244C2.1689 10.4796 1.638 11.0105 1.638 11.6635C1.638 12.3166 2.1689 12.8458 2.8244 12.8458H4.1809Z" fill="black"/>
</svg>
