<?xml version="1.0" encoding="UTF-8" standalone="no"?>
<svg
   width="17.013798"
   height="19.088388"
   viewBox="0 0 17.013798 19.088388"
   fill="none"
   version="1.1"
   id="svg750"
   sodipodi:docname="headphone-with-mic.svg"
   xmlns:inkscape="http://www.inkscape.org/namespaces/inkscape"
   xmlns:sodipodi="http://sodipodi.sourceforge.net/DTD/sodipodi-0.dtd"
   xmlns="http://www.w3.org/2000/svg"
   xmlns:svg="http://www.w3.org/2000/svg">
  <defs
     id="defs754" />
  <sodipodi:namedview
     id="namedview752"
     pagecolor="#ffffff"
     bordercolor="#666666"
     borderopacity="1.0"
     inkscape:showpageshadow="2"
     inkscape:pageopacity="0.0"
     inkscape:pagecheckerboard="0"
     inkscape:deskcolor="#d1d1d1" />
  <path
     d="m 13.580697,19.088389 c 1.0454,0 1.8958,-0.8504 1.8958,-1.8959 v -0.2546 c 0.8938,-0.3087 1.5373,-1.1548 1.5373,-2.1514 v -1.7063 -1.9413 -2.63149 C 17.013797,3.816599 13.198297,0 8.507397,0 3.815497,0 0,3.816599 0,8.507399 v 2.63149 1.9413 1.7063 c 0,1.2544 1.020497,2.276 2.274997,2.276 h 0.1495 c 1.2545,0 2.2761,-1.0216 2.2761,-2.276 v -3.6476 c 0,-1.2556 -1.0216,-2.27609 -2.2761,-2.27609 h -0.1495 c -0.2264,0 -0.4441,0.0346 -0.65,0.0964 v -0.4518 c 0,-3.7949 3.0864,-6.8824 6.8824,-6.8824 3.795,0 6.8814,3.0875 6.8814,6.8824 v 0.4518 c -0.2059,-0.0618 -0.4236,-0.0964 -0.65,-0.0964 h -0.1495 c -1.2545,0 -2.275,1.02049 -2.275,2.27609 v 3.6476 c 0,0.9966 0.6446,1.8427 1.5372,2.1514 v 0.2546 c 0,0.1495 -0.1213,0.2709 -0.2708,0.2709 h -3.9769 c -0.0715,0 -0.1419,-0.0282 -0.1918,-0.0791 l -0.7421,-0.7421 c -0.3174,-0.3174 -0.832,-0.3174 -1.1483,0 -0.3174,0.3174 -0.3174,0.832 0,1.1494 l 0.741,0.741 c 0.3586,0.3586 0.8342,0.5558 1.3412,0.5558 z"
     fill="#000000"
     id="path748" />
</svg>
