<svg width="18" height="20" viewBox="0 0 18 20" fill="none" xmlns="http://www.w3.org/2000/svg">
<path d="M14.0738 19.5442C15.1192 19.5442 15.9696 18.6938 15.9696 17.6483V17.3937C16.8634 17.085 17.5069 16.2389 17.5069 15.2423V13.536V11.5947V8.96321C17.5069 4.27241 13.6914 0.455811 9.0005 0.455811C4.3086 0.455811 0.493103 4.27241 0.493103 8.96321V11.5947V13.536V15.2423C0.493103 16.4967 1.5136 17.5183 2.7681 17.5183H2.9176C4.1721 17.5183 5.1937 16.4967 5.1937 15.2423V11.5947C5.1937 10.3391 4.1721 9.31861 2.9176 9.31861H2.7681C2.5417 9.31861 2.324 9.35321 2.1181 9.41501V8.96321C2.1181 5.16831 5.2045 2.08081 9.0005 2.08081C12.7955 2.08081 15.8819 5.16831 15.8819 8.96321V9.41501C15.676 9.35321 15.4583 9.31861 15.2319 9.31861H15.0824C13.8279 9.31861 12.8074 10.3391 12.8074 11.5947V15.2423C12.8074 16.2389 13.452 17.085 14.3446 17.3937V17.6483C14.3446 17.7978 14.2233 17.9192 14.0738 17.9192H10.0969C10.0254 17.9192 9.955 17.891 9.9051 17.8401L9.163 17.098C8.8456 16.7806 8.331 16.7806 8.0147 17.098C7.6973 17.4154 7.6973 17.93 8.0147 18.2474L8.7557 18.9884C9.1143 19.347 9.5899 19.5442 10.0969 19.5442H14.0738Z" fill="black"/>
</svg>
