<?xml version="1.0" encoding="UTF-8" standalone="no"?>
<svg
   width="24"
   height="24"
   viewBox="0 0 24 24"
   fill="none"
   version="1.1"
   id="svg762"
   sodipodi:docname="help.svg"
   xmlns:inkscape="http://www.inkscape.org/namespaces/inkscape"
   xmlns:sodipodi="http://sodipodi.sourceforge.net/DTD/sodipodi-0.dtd"
   xmlns="http://www.w3.org/2000/svg"
   xmlns:svg="http://www.w3.org/2000/svg">
  <defs
     id="defs766" />
  <sodipodi:namedview
     id="namedview764"
     pagecolor="#ffffff"
     bordercolor="#666666"
     borderopacity="1.0"
     inkscape:showpageshadow="2"
     inkscape:pageopacity="0.0"
     inkscape:pagecheckerboard="0"
     inkscape:deskcolor="#d1d1d1" />
  <path
     d="m 8.0969,7.4264 c 0.3626,-1.92724 2.0504,-3.32426 4.0134,-3.32426 2.2511,0 4.0822,1.83117 4.0822,4.08226 0.0143,0.7636 -0.4141,2.4029 -2.112,3.5749 -0.8855,0.6104 -0.9944,1.1664 -0.9829,1.6306 0.0129,0.5932 -0.4556,1.086 -1.0503,1.0989 -0.0086,0.0015 -0.0172,0.0015 -0.0258,0.0015 -0.5803,0 -1.0589,-0.4672 -1.0732,-1.0518 -0.0315,-1.3912 0.6118,-2.5518 1.9114,-3.4487 1.1462,-0.791 1.1821,-1.7654 1.1836,-1.8069 0,-1.0645 -0.867,-1.9315 -1.933,-1.9315 -0.9313,0 -1.7294,0.6606 -1.9,1.5719 C 10.0986,8.4079 9.5384,8.7905 8.9552,8.6815 8.3706,8.5726 7.988,8.0095 8.0969,7.4264 Z m 3.9461,11.4785 c -0.7909,0 -1.4329,-0.6434 -1.4329,-1.4314 0,-0.7909 0.642,-1.4344 1.4329,-1.4344 0.7909,0 1.4329,0.6435 1.4329,1.4344 0,0.788 -0.642,1.4314 -1.4329,1.4314 z M 12,24 C 18.6283,24 24,18.6283 24,12.0015 24,5.37315 18.6283,0 12,0 5.37315,0 0,5.37315 0,12.0015 0,18.6283 5.37315,24 12,24 Z"
     fill="#000000"
     id="path760" />
</svg>
