<svg id="vector" xmlns="http://www.w3.org/2000/svg" width="32.0d" height="32.0d" viewBox="0 0 32.0 32.0"><path fill="#ff0074d4" d="M15.76,4C9.2668,4 4,9.2656 4,15.76C4,22.2556 9.2668,27.52 15.76,27.52C22.2556,27.52 27.5212,22.2544 27.5212,15.76C27.52,9.2656 22.2556,4 15.76,4Z" stroke="#00000000" stroke-width="1.0" fill-rule="nonzero" id="path_0"/><path fill="#ffffffff" d="M15.76,23.1316C14.8336,23.1316 14.0812,22.3792 14.0812,21.4516C14.0812,20.524 14.8336,19.7716 15.76,19.7716C16.6888,19.7716 17.44,20.524 17.44,21.4516C17.44,22.3792 16.6888,23.1316 15.76,23.1316Z" stroke="#00000000" stroke-width="1.0" fill-rule="nonzero" id="path_1"/><path fill="#ffffffff" d="M18.6316,14.9992C18.55,15.0772 18.4492,15.166 18.3328,15.2656C17.7436,15.7756 16.936,16.4728 16.936,17.7472L16.936,18.1324L14.584,18.1324L14.584,17.7472C14.584,15.3976 16.0768,14.1064 16.7956,13.486C16.876,13.4152 16.9492,13.354 17.0068,13.2988C17.3236,12.9976 17.4964,12.5992 17.4964,12.1804C17.4964,11.2948 16.7176,10.5736 15.76,10.5736C15.2872,10.5736 14.8444,10.7476 14.5144,11.0632C14.1988,11.3656 14.0248,11.7628 14.0248,12.1816L11.6728,12.1816C11.6728,11.1148 12.1048,10.1128 12.8908,9.3628C13.6612,8.6272 14.68,8.2216 15.7612,8.2216C18.016,8.2216 19.8496,9.9976 19.8496,12.1804C19.8484,13.2484 19.4152,14.2492 18.6316,14.9992Z" stroke="#00000000" stroke-width="1.0" fill-rule="nonzero" id="path_2"/></svg>