<svg width="24" height="24" viewBox="0 0 24 24" fill="none" xmlns="http://www.w3.org/2000/svg">
<path d="M3.4034 4.40689C3.6066 4.20459 3.9051 4.15739 4.1537 4.26439C4.1764 4.29709 4.2009 4.32889 4.2299 4.35879L18.7422 18.8702C18.8338 19.1124 18.783 19.3964 18.5879 19.5924C18.4546 19.7248 18.2804 19.7911 18.1062 19.7911C17.9329 19.7911 17.7587 19.7248 17.6253 19.5924L15.9432 17.9093C14.6984 18.441 13.3637 18.7241 12 18.7241C8.8054 18.7241 5.7723 17.1826 3.6774 14.4951C2.3818 12.833 2.3818 10.3261 3.6774 8.66479C4.1238 8.09049 4.6164 7.57249 5.1409 7.10789L3.4034 5.36949C3.1375 5.10369 3.1375 4.67269 3.4034 4.40689ZM6.1053 8.07149C5.619 8.49609 5.1635 8.97149 4.7507 9.50049C3.8271 10.6863 3.8271 12.4728 4.7507 13.6586C6.5862 16.0131 9.2282 17.3631 12 17.3631C12.9908 17.3631 13.9653 17.188 14.8916 16.8578L13.6087 15.5757C13.1115 15.7753 12.5689 15.8888 12 15.8888C9.6184 15.8888 7.6904 13.9598 7.6904 11.5791C7.6904 11.0102 7.8038 10.4676 8.0043 9.97039L6.1053 8.07149ZM12 4.43369C15.1937 4.43369 18.2268 5.97609 20.3226 8.66449C21.6182 10.3267 21.6182 12.8326 20.3226 14.4948C19.722 15.2651 19.0424 15.9374 18.3066 16.5099L17.3376 15.5409C18.038 15.0156 18.6822 14.385 19.2493 13.6583C20.1729 12.4733 20.1729 10.6859 19.2493 9.50099C17.4129 7.14569 14.7708 5.79469 12 5.79469C10.7488 5.79469 9.5248 6.07319 8.388 6.59129L7.3691 5.57239C8.8044 4.83199 10.3813 4.43369 12 4.43369ZM11.9997 7.26989C14.3804 7.26989 16.3103 9.19879 16.3103 11.5795C16.3103 12.417 16.0671 13.1964 15.6543 13.8578L9.7224 7.92579C10.3838 7.51209 11.1622 7.26989 11.9997 7.26989Z" fill="#FCFCFC"/>
</svg>
