<svg width="18" height="18" viewBox="0 0 18 18" fill="none" xmlns="http://www.w3.org/2000/svg">
<path d="M10.2673 1.65612L15.8743 6.33212C16.6143 6.94912 17.0423 7.86412 17.0423 8.82712V14.4711C17.0423 15.8521 15.9233 16.9711 14.5423 16.9711L12.0183 16.9704L12.0188 10.8904C12.0188 10.1111 11.4235 9.47002 10.6632 9.39732L10.5188 9.39042H7.77281C6.94481 9.39042 6.27281 10.0624 6.27281 10.8904V16.7704L11.9893 16.9704L3.75031 16.9711C2.36931 16.9711 1.25031 15.8521 1.25031 14.4711V8.82712C1.25031 7.86412 1.6783 6.94912 2.4183 6.33212L8.0253 1.65612C8.6743 1.11512 9.6173 1.11512 10.2673 1.65612Z" stroke="black" stroke-width="1.5" stroke-linecap="round" stroke-linejoin="round"/>
</svg>
