<svg width="20" height="20" viewBox="0 0 20 20" fill="none" xmlns="http://www.w3.org/2000/svg">
<path d="M10.6883 19H3.8125C2.2592 19 0.999901 17.7407 0.999901 16.1876V3.8123C0.999901 2.2593 2.2592 1 3.8125 1H16.1875C17.7409 1 18.9999 2.2593 18.9999 3.8123V10.6884" fill="#4EACF9"/>
<path d="M14.3231 11.9059C14.3231 13.635 12.7175 15.2917 10.0206 15.2917C8.1111 15.2917 5.7174 14.4224 5.7174 11.9059H14.3231Z" fill="black"/>
<path d="M6.4901 8.73354C7.1612 8.73354 7.7056 8.18904 7.7056 7.51914C7.7056 6.84654 7.1612 6.30444 6.4901 6.30444C5.8198 6.30444 5.2783 6.84654 5.2783 7.51914C5.2783 8.18904 5.8198 8.73354 6.4901 8.73354Z" fill="black"/>
<path d="M13.495 8.73354C14.1661 8.73354 14.7106 8.18904 14.7106 7.51914C14.7106 6.84654 14.1661 6.30444 13.495 6.30444C12.8248 6.30444 12.2833 6.84654 12.2833 7.51914C12.2833 8.18904 12.8248 8.73354 13.495 8.73354Z" fill="black"/>
<path d="M19 10.7734C19 10.7734 18.1136 11.263 15.8076 11.3392C14.2664 11.3896 13.3159 11.6654 12.4913 12.4904C11.666 13.3156 11.3905 14.2673 11.3386 15.8073C11.2633 18.1139 10.7746 19 10.7746 19L19 10.7734Z" fill="#258FD6"/>
</svg>
