<svg width="20" height="20" viewBox="0 0 20 20" fill="none" xmlns="http://www.w3.org/2000/svg">
<g clip-path="url(#clip0_1_1294)">
<path d="M20 10C20 4.4764 15.523 0 10 0C4.477 0 0 4.4764 0 10C0 15.523 4.477 20 10 20C15.523 20 20 15.523 20 10Z" fill="#FFBB22"/>
<path d="M14.3502 12.097C14.3502 13.8451 12.727 15.52 10.0004 15.52C8.0699 15.52 5.6499 14.6412 5.6499 12.097H14.3502Z" fill="black"/>
<path d="M6.431 8.88988C7.1096 8.88988 7.66 8.33948 7.66 7.66208C7.66 6.98208 7.1096 6.43408 6.431 6.43408C5.7534 6.43408 5.206 6.98208 5.206 7.66208C5.206 8.33948 5.7534 8.88988 6.431 8.88988Z" fill="black"/>
<path d="M13.513 8.88988C14.1915 8.88988 14.742 8.33948 14.742 7.66208C14.742 6.98208 14.1915 6.43408 13.513 6.43408C12.8354 6.43408 12.2879 6.98208 12.2879 7.66208C12.2879 8.33948 12.8354 8.88988 13.513 8.88988Z" fill="black"/>
</g>
<defs>
<clipPath id="clip0_1_1294">
<rect width="20" height="20" fill="white"/>
</clipPath>
</defs>
</svg>
