<?xml version="1.0" encoding="UTF-8" standalone="no"?>
<svg
   width="28.000021"
   height="28.000021"
   viewBox="0 0 28.000021 28.000021"
   fill="none"
   version="1.1"
   id="svg906"
   sodipodi:docname="ic_settings_applications.svg"
   xmlns:inkscape="http://www.inkscape.org/namespaces/inkscape"
   xmlns:sodipodi="http://sodipodi.sourceforge.net/DTD/sodipodi-0.dtd"
   xmlns="http://www.w3.org/2000/svg"
   xmlns:svg="http://www.w3.org/2000/svg">
  <sodipodi:namedview
     id="namedview908"
     pagecolor="#ffffff"
     bordercolor="#666666"
     borderopacity="1.0"
     inkscape:showpageshadow="2"
     inkscape:pageopacity="0.0"
     inkscape:pagecheckerboard="0"
     inkscape:deskcolor="#d1d1d1" />
  <g
     clip-path="url(#clip0_1_2180)"
     id="g899">
    <path
       d="M 24.856,3.14401 C 23.13,1.52161 20.7739,0.601214 18.1738,0.256914 15.6907,-0.072186 14,0.00881404 14,0.00881404 c 0,0 -1.691,-0.08100004 -4.17421,0.24809996 -2.6,0.3443 -4.956,1.264696 -6.6815,2.887096 -1.6228,1.7258 -2.543099,4.0819 -2.887599,6.6819 -0.3291004,2.48299 -0.2478004,4.17399 -0.2478004,4.17399 0,0 -0.0813,1.6908 0.2478004,4.174 0.3445,2.5998 1.264799,4.9561 2.887399,6.6819 1.7257,1.6226 4.0817,2.5428 6.6817,2.8875 C 12.309,28.0722 14,27.9912 14,27.9912 c 0,0 1.6907,0.081 4.1738,-0.2479 2.6001,-0.3447 4.9562,-1.2649 6.6818,-2.8875 1.623,-1.7258 2.5432,-4.0821 2.8877,-6.6819 0.3289,-2.4832 0.2479,-4.174 0.2479,-4.174 0,0 0.081,-1.691 -0.2479,-4.17399 -0.3445,-2.6 -1.2647,-4.9561 -2.8873,-6.6819 z"
       fill="#75b4fb"
       id="path895" />
    <path
       d="m 9.9896,15.0312 c 1.7068,0 3.0937,1.3879 3.0937,3.0938 0,1.7059 -1.3869,3.0938 -3.0937,3.0938 -1.7059,0 -3.0938,-1.3879 -3.0938,-3.0938 0,-1.7059 1.3879,-3.0938 3.0938,-3.0938 z m 8.0208,0 c 1.7069,0 3.0938,1.3879 3.0938,3.0938 0,1.7059 -1.3869,3.0938 -3.0938,3.0938 -1.7059,0 -3.0937,-1.3879 -3.0937,-3.0938 0,-1.7059 1.3878,-3.0938 3.0937,-3.0938 z M 9.9896,6.78125 c 1.7068,0 3.0937,1.3878 3.0937,3.0937 0,1.70585 -1.3869,3.09375 -3.0937,3.09375 -1.7059,0 -3.0938,-1.3879 -3.0938,-3.09375 0,-1.7059 1.3879,-3.0937 3.0938,-3.0937 z m 8.0208,0 c 1.7069,0 3.0938,1.3878 3.0938,3.0937 0,1.70585 -1.3869,3.09375 -3.0938,3.09375 -1.7059,0 -3.0937,-1.3879 -3.0937,-3.09375 0,-1.7059 1.3878,-3.0937 3.0937,-3.0937 z"
       fill="#ffffff"
       id="path897" />
  </g>
  <defs
     id="defs904">
    <clipPath
       id="clip0_1_2180">
      <rect
         width="28"
         height="28"
         fill="#ffffff"
         id="rect901"
         x="0"
         y="0" />
    </clipPath>
  </defs>
</svg>
