<?xml version="1.0" encoding="UTF-8" standalone="no"?>
<svg
   width="28.000021"
   height="28.000021"
   viewBox="0 0 28.000021 28.000021"
   fill="none"
   version="1.1"
   id="svg929"
   sodipodi:docname="ic_settings_development.svg"
   xmlns:inkscape="http://www.inkscape.org/namespaces/inkscape"
   xmlns:sodipodi="http://sodipodi.sourceforge.net/DTD/sodipodi-0.dtd"
   xmlns="http://www.w3.org/2000/svg"
   xmlns:svg="http://www.w3.org/2000/svg">
  <sodipodi:namedview
     id="namedview931"
     pagecolor="#ffffff"
     bordercolor="#666666"
     borderopacity="1.0"
     inkscape:showpageshadow="2"
     inkscape:pageopacity="0.0"
     inkscape:pagecheckerboard="0"
     inkscape:deskcolor="#d1d1d1" />
  <g
     clip-path="url(#clip0_1_2152)"
     id="g922">
    <path
       d="M 24.856,3.14401 C 23.13,1.52161 20.7739,0.601214 18.1738,0.256914 15.6907,-0.072186 14,0.00881404 14,0.00881404 c 0,0 -1.691,-0.08100004 -4.17421,0.24809996 -2.6,0.3443 -4.956,1.264696 -6.6815,2.887096 -1.6228,1.7258 -2.543099,4.0819 -2.887599,6.6819 -0.3291004,2.48299 -0.2478004,4.17399 -0.2478004,4.17399 0,0 -0.0813,1.6908 0.2478004,4.174 0.3445,2.5998 1.264799,4.9561 2.887399,6.6819 1.7257,1.6226 4.0817,2.5428 6.6817,2.8875 C 12.309,28.0722 14,27.9912 14,27.9912 c 0,0 1.6907,0.081 4.1738,-0.2479 2.6001,-0.3447 4.9562,-1.2649 6.6818,-2.8875 1.623,-1.7258 2.5432,-4.0821 2.8877,-6.6819 0.3289,-2.4832 0.2479,-4.174 0.2479,-4.174 0,0 0.081,-1.691 -0.2479,-4.17399 -0.3445,-2.6 -1.2647,-4.9561 -2.8873,-6.6819 z"
       fill="#8b8b8b"
       id="path918" />
    <path
       d="m 18.6749,6.77706 c 0.4826,0 0.9226,0.1857 1.2523,0.4894 0.3325,0.3063 0.5527,0.7325 0.5918,1.217 l 0.0058,2.00864 c 0,0.3692 0.182,0.826 0.4273,1.1151 l 1.1001,1.0429 c 0.3722,0.3489 0.5856,0.8405 0.5856,1.35 0,0.4529 -0.1686,0.8924 -0.4728,1.2351 l -1.1107,1.0508 c -0.272,0.2553 -0.4772,0.6886 -0.5209,1.077 l -0.0086,2.0101 c 0,0.4826 -0.1856,0.9227 -0.4894,1.2524 -0.3062,0.3324 -0.7324,0.5526 -1.217,0.5918 l -2.3585,0.0058 c -0.2351,0 -0.4475,-0.0951 -0.6011,-0.2488 -0.1539,-0.1539 -0.249,-0.3665 -0.249,-0.6012 0,-0.2138 0.0789,-0.4092 0.2092,-0.5586 0.1333,-0.1529 0.3205,-0.2575 0.5322,-0.2845 l 2.2347,-0.0066 0.239,-2.0202 c 0.0017,-0.818 0.3573,-1.7018 0.9251,-2.3146 l 1.0746,-1.0171 -0.9381,-1.2211 C 19.3002,12.3977 18.8919,11.5152 18.8321,10.6901 L 18.8252,8.71746 16.4546,8.47706 c -0.2329,-0.0014 -0.4433,-0.0962 -0.5958,-0.2488 -0.1539,-0.1539 -0.249,-0.3665 -0.249,-0.6012 0,-0.2138 0.0789,-0.4092 0.2092,-0.5586 0.1333,-0.1529 0.3205,-0.2575 0.5322,-0.2845 z m -7.1327,-2e-4 c 0.2346,0 0.4471,0.0952 0.6009,0.249 0.1539,0.1539 0.249,0.3664 0.249,0.601 0,0.2137 -0.0789,0.409 -0.2093,0.5584 -0.1334,0.153 -0.3207,0.2577 -0.5322,0.2847 l -2.2365,0.0066 -0.239,2.02224 c -0.0015,0.8559 -0.3332,1.6844 -0.9204,2.31 l -1.0793,1.0198 0.9381,1.223 c 0.5948,0.5602 0.996,1.4244 1.0545,2.2569 l 0.0068,1.974 2.3726,0.2404 c 0.2325,0.0014 0.443,0.0963 0.5957,0.249 0.1539,0.1539 0.249,0.3664 0.249,0.601 0,0.2137 -0.0789,0.409 -0.2093,0.5584 -0.1334,0.153 -0.3207,0.2577 -0.5322,0.2847 l -2.3255,0.0069 c -0.4829,0 -0.9229,-0.1856 -1.2525,-0.4892 C 7.7401,20.4274 7.5201,20.0012 7.481,19.5165 L 7.4752,17.5089 c 0,-0.3749 -0.178,-0.8233 -0.426,-1.1134 L 5.9469,15.349 C 5.5747,15.0011 5.3622,14.5095 5.3622,13.9999 c 0,-0.452 0.1686,-0.8914 0.4728,-1.234 l 1.1098,-1.051 C 7.2443,11.4347 7.4304,11.0516 7.4676,10.6547 L 7.4752,8.62686 c 0,-0.4827 0.1855,-0.9229 0.4892,-1.2526 0.3061,-0.3323 0.7322,-0.5525 1.217,-0.5916 z"
       fill="#ffffff"
       stroke="#ffffff"
       stroke-width="0.2"
       id="path920" />
  </g>
  <defs
     id="defs927">
    <clipPath
       id="clip0_1_2152">
      <rect
         width="28"
         height="28"
         fill="#ffffff"
         id="rect924"
         x="0"
         y="0" />
    </clipPath>
  </defs>
</svg>
