<?xml version="1.0" encoding="UTF-8" standalone="no"?>
<svg
   width="28.000021"
   height="28.000021"
   viewBox="0 0 28.000021 28.000021"
   fill="none"
   version="1.1"
   id="svg952"
   sodipodi:docname="ic_settings_display.svg"
   xmlns:inkscape="http://www.inkscape.org/namespaces/inkscape"
   xmlns:sodipodi="http://sodipodi.sourceforge.net/DTD/sodipodi-0.dtd"
   xmlns="http://www.w3.org/2000/svg"
   xmlns:svg="http://www.w3.org/2000/svg">
  <sodipodi:namedview
     id="namedview954"
     pagecolor="#ffffff"
     bordercolor="#666666"
     borderopacity="1.0"
     inkscape:showpageshadow="2"
     inkscape:pageopacity="0.0"
     inkscape:pagecheckerboard="0"
     inkscape:deskcolor="#d1d1d1" />
  <g
     clip-path="url(#clip0_1_2146)"
     id="g945">
    <path
       d="M 24.856,3.14401 C 23.13,1.52161 20.7739,0.601214 18.1738,0.256914 15.6907,-0.072186 14,0.00881404 14,0.00881404 c 0,0 -1.691,-0.08100004 -4.17421,0.24809996 -2.6,0.3443 -4.956,1.264696 -6.6815,2.887096 -1.6228,1.7258 -2.543099,4.0819 -2.887599,6.6819 -0.3291004,2.48299 -0.2478004,4.17399 -0.2478004,4.17399 0,0 -0.0813,1.6908 0.2478004,4.174 0.3445,2.5998 1.264799,4.9561 2.887399,6.6819 1.7257,1.6226 4.0817,2.5428 6.6817,2.8875 C 12.309,28.0722 14,27.9912 14,27.9912 c 0,0 1.6907,0.081 4.1738,-0.2479 2.6001,-0.3447 4.9562,-1.2649 6.6818,-2.8875 1.623,-1.7258 2.5432,-4.0821 2.8877,-6.6819 0.3289,-2.4832 0.2479,-4.174 0.2479,-4.174 0,0 0.081,-1.691 -0.2479,-4.17399 -0.3445,-2.6 -1.2647,-4.9561 -2.8873,-6.6819 z"
       fill="#a4d925"
       id="path941" />
    <path
       d="m 14.0002,20.3583 c 0.414,0 0.75,0.336 0.75,0.75 v 1.517 c 0,0.415 -0.336,0.75 -0.75,0.75 -0.414,0 -0.75,-0.335 -0.75,-0.75 v -1.517 c 0,-0.414 0.336,-0.75 0.75,-0.75 z M 8.4436,18.496 c 0.293,-0.293 0.768,-0.293 1.061,0 0.293,0.293 0.293,0.768 0,1.061 l -1.073,1.073 c -0.146,0.146 -0.339,0.22 -0.53,0.22 -0.192,0 -0.384,-0.074 -0.53,-0.22 -0.293,-0.293 -0.293,-0.768 0,-1.061 z m 10.0523,0 c 0.293,-0.293 0.768,-0.293 1.061,0 l 1.072,1.073 c 0.293,0.293 0.293,0.768 0,1.061 -0.146,0.146 -0.338,0.22 -0.53,0.22 -0.191,0 -0.384,-0.074 -0.53,-0.22 l -1.073,-1.073 c -0.293,-0.293 -0.293,-0.768 0,-1.061 z m -7.4912,-7.5342 c 1.684,-1.68399 4.416,-1.68399 6.1,0 1.684,1.684 1.684,4.416 0,6.1 -1.684,1.683 -4.415,1.683 -6.1,0 -1.683,-1.684 -1.683,-4.416 0,-6.1 z m -4.1119,2.2881 c 0.414,0 0.75,0.336 0.75,0.75 0,0.415 -0.336,0.75 -0.75,0.75 h -1.518 c -0.414,0 -0.75,-0.335 -0.75,-0.75 0,-0.414 0.336,-0.75 0.75,-0.75 z m 15.7324,0 c 0.414,0 0.75,0.336 0.75,0.75 0,0.415 -0.336,0.75 -0.75,0.75 h -1.517 c -0.415,0 -0.75,-0.335 -0.75,-0.75 0,-0.414 0.335,-0.75 0.75,-0.75 z M 19.5686,7.37051 c 0.293,-0.292 0.768,-0.292 1.061,0 0.293,0.293 0.293,0.768 0,1.061 l -1.073,1.073 c -0.146,0.147 -0.339,0.22 -0.53,0.22 -0.192,0 -0.384,-0.073 -0.53,-0.22 -0.293,-0.293 -0.293,-0.767 0,-1.06 z m -12.1977,5e-4 c 0.293,-0.293 0.768,-0.293 1.061,0 l 1.072,1.073 c 0.293,0.293 0.293,0.768 0,1.061 -0.146,0.146 -0.338,0.22 -0.53,0.22 -0.191,0 -0.384,-0.074 -0.53,-0.22 l -1.073,-1.073 c -0.293,-0.293 -0.293,-0.768 0,-1.061 z m 6.6293,-2.7465 c 0.414,0 0.75,0.336 0.75,0.75 v 1.518 c 0,0.414 -0.336,0.75 -0.75,0.75 -0.414,0 -0.75,-0.336 -0.75,-0.75 v -1.518 c 0,-0.414 0.336,-0.75 0.75,-0.75 z"
       fill="#ffffff"
       id="path943" />
  </g>
  <defs
     id="defs950">
    <clipPath
       id="clip0_1_2146">
      <rect
         width="28"
         height="28"
         fill="#ffffff"
         id="rect947"
         x="0"
         y="0" />
    </clipPath>
  </defs>
</svg>
