<?xml version="1.0" encoding="UTF-8" standalone="no"?>
<svg
   width="32.000385"
   height="32.000385"
   viewBox="0 0 32.000385 32.000385"
   fill="none"
   version="1.1"
   id="svg979"
   sodipodi:docname="ic_settings_sharing.svg"
   xmlns:inkscape="http://www.inkscape.org/namespaces/inkscape"
   xmlns:sodipodi="http://sodipodi.sourceforge.net/DTD/sodipodi-0.dtd"
   xmlns="http://www.w3.org/2000/svg"
   xmlns:svg="http://www.w3.org/2000/svg">
  <sodipodi:namedview
     id="namedview981"
     pagecolor="#ffffff"
     bordercolor="#666666"
     borderopacity="1.0"
     inkscape:showpageshadow="2"
     inkscape:pageopacity="0.0"
     inkscape:pagecheckerboard="0"
     inkscape:deskcolor="#d1d1d1" />
  <g
     clip-path="url(#clip0_1_466)"
     id="g972">
    <path
       d="m 28.4072,3.59315 c -1.973,-1.854 -4.665,-2.905999 -7.637,-3.298999 -2.838,-0.3770004 -4.77,-0.2840004 -4.77,-0.2840004 0,0 -1.933,-0.093 -4.77,0.2840004 -2.97201,0.393 -5.66401,1.444999 -7.63701,3.298999 -1.854,1.972 -2.906003,4.665 -3.300003,7.63705 -0.3760002,2.837 -0.2830002,4.77 -0.2830002,4.77 0,0 -0.093,1.932 0.2830002,4.77 0.394,2.971 1.446003,5.664 3.300003,7.637 1.973,1.854 4.665,2.906 7.63701,3.3 2.837,0.376 4.77,0.283 4.77,0.283 0,0 1.932,0.093 4.77,-0.283 2.972,-0.394 5.664,-1.446 7.636,-3.3 1.855,-1.973 2.907,-4.666 3.301,-7.637 0.376,-2.838 0.283,-4.77 0.283,-4.77 0,0 0.093,-1.933 -0.283,-4.77 -0.394,-2.97205 -1.446,-5.66505 -3.3,-7.63705 z"
       fill="#1d49c2"
       id="path964" />
    <path
       d="m 14.875,15.337 c 2.026,0 3.669,-1.642 3.669,-3.668 C 18.544,9.642 16.901,8 14.875,8 c -2.025,0 -3.669,1.642 -3.669,3.669 0,2.026 1.644,3.668 3.669,3.668 z"
       fill="#ffffff"
       id="path966" />
    <path
       d="m 21.38,23.752 c -0.19,0.16 -0.45,0.25 -0.73,0.25 H 9.1 c -0.61,0 -1.1,-0.44 -1.1,-0.99 v -0.77 c 0,-2.77 3.08,-5.33 6.88,-5.33 1.21,0 2.34,0.26 3.32,0.71 -1.04,0.25 -1.82,1.19 -1.82,2.32 0,1.32 1.08,2.4 2.399,2.4 0.161,0 0.321,-0.02 0.481,-0.06 l 2.019,1.2 c 0.031,0.09 0.061,0.18 0.101,0.27 z"
       fill="#ffffff"
       id="path968" />
    <path
       d="m 23.6,21.7 c -0.221,0 -0.416,0.08 -0.592,0.188 l -3.103,-1.834 c 0.005,-0.04 0.023,-0.075 0.023,-0.116 0,-0.041 -0.018,-0.076 -0.022,-0.116 l 3.102,-1.835 c 0.176,0.109 0.371,0.188 0.592,0.188 0.636,0 1.15,-0.515 1.15,-1.149 0,-0.636 -0.514,-1.151 -1.15,-1.151 -0.635,0 -1.15,0.515 -1.15,1.151 0,0.041 0.019,0.075 0.023,0.115 l -3.102,1.835 C 19.196,18.867 19,18.787 18.779,18.787 c -0.636,0 -1.151,0.516 -1.151,1.151 0,0.635 0.515,1.15 1.151,1.15 0.221,0 0.416,-0.079 0.592,-0.188 l 3.102,1.834 c -0.004,0.04 -0.023,0.075 -0.023,0.116 0,0.636 0.515,1.15 1.15,1.15 0.636,0 1.15,-0.514 1.15,-1.15 0,-0.635 -0.514,-1.15 -1.15,-1.15 z"
       fill="#ffffff"
       id="path970" />
  </g>
  <defs
     id="defs977">
    <clipPath
       id="clip0_1_466">
      <rect
         width="32"
         height="32"
         fill="#ffffff"
         id="rect974"
         x="0"
         y="0" />
    </clipPath>
  </defs>
</svg>
