<svg width="24" height="24" viewBox="0 0 24 24" fill="none" xmlns="http://www.w3.org/2000/svg">
<path d="M6.5 3.25H17.5C19.2333 3.25 20.6493 4.6062 20.7449 6.3155L20.75 6.5V17.5C20.75 19.2333 19.3938 20.6493 17.6845 20.7449L17.5 20.75H6.5C4.7667 20.75 3.3507 19.3938 3.2551 17.6845L3.25 17.5V6.5C3.25 4.7667 4.6062 3.3507 6.3155 3.2551L6.5 3.25H17.5H6.5ZM15.8742 12.3624L15.8204 12.4026L12.4562 15.6998C12.0014 16.1454 11.2859 16.1751 10.7945 15.7891L10.6928 15.7L9.3234 14.3596C9.2429 14.281 9.1231 14.2668 9.0289 14.3175L8.976 14.3556L4.8962 18.2017C5.1473 18.7749 5.6965 19.1875 6.3479 19.2435L6.5 19.25H17.5C18.4184 19.25 19.1712 18.5431 19.2442 17.6436L19.25 17.5V15.553L16.1757 12.4069C16.0946 12.3241 15.9705 12.3091 15.8742 12.3624ZM17.5 4.75H6.5C5.5816 4.75 4.8288 5.4569 4.7558 6.3564L4.75 6.5V16.278L7.9474 13.2639C8.5908 12.6583 9.5754 12.6316 10.2494 13.1779L10.372 13.287L11.574 14.463L14.7705 11.3313C15.4208 10.6942 16.4413 10.6673 17.1239 11.2428L17.2478 11.3578L19.25 13.407V6.5C19.25 5.5816 18.5431 4.8288 17.6436 4.7558L17.5 4.75ZM8.7422 6.3345C10.1214 6.3345 11.2422 7.4553 11.2422 8.8345C11.2422 10.2137 10.1214 11.3345 8.7422 11.3345C7.363 11.3345 6.2422 10.2137 6.2422 8.8345C6.2422 7.4553 7.363 6.3345 8.7422 6.3345ZM8.7422 7.8345C8.1914 7.8345 7.7422 8.2837 7.7422 8.8345C7.7422 9.3853 8.1914 9.8345 8.7422 9.8345C9.293 9.8345 9.7422 9.3853 9.7422 8.8345C9.7422 8.2837 9.293 7.8345 8.7422 7.8345Z" fill="#252525" fill-opacity="0.901961"/>
</svg>
