<?xml version="1.0" encoding="UTF-8" standalone="no"?>
<svg
   width="10.66661"
   height="10.66655"
   viewBox="0 0 10.66661 10.66655"
   fill="none"
   version="1.1"
   id="svg1030"
   sodipodi:docname="image.svg"
   xmlns:inkscape="http://www.inkscape.org/namespaces/inkscape"
   xmlns:sodipodi="http://sodipodi.sourceforge.net/DTD/sodipodi-0.dtd"
   xmlns="http://www.w3.org/2000/svg"
   xmlns:svg="http://www.w3.org/2000/svg">
  <defs
     id="defs1034" />
  <sodipodi:namedview
     id="namedview1032"
     pagecolor="#ffffff"
     bordercolor="#666666"
     borderopacity="1.0"
     inkscape:showpageshadow="2"
     inkscape:pageopacity="0.0"
     inkscape:pagecheckerboard="0"
     inkscape:deskcolor="#d1d1d1" />
  <path
     d="M 9.00001,0 H 1.6666 C 0.7333,0 0,0.7333 0,1.6666 v 7.33335 c 0,0.9333 0.7333,1.6666 1.6666,1.6666 h 7.33341 c 0.9333,0 1.6666,-0.7333 1.6666,-1.6666 V 1.6666 C 10.66661,0.7333 9.93331,0 9.00001,0 Z M 4.2,3.4 c 0,0.5333 -0.4667,1 -1,1 -0.5334,0 -1,-0.4667 -1,-1 0,-0.5334 0.4666,-1 1,-1 0.6,0 1,0.4666 1,1 z m 5.46661,5.59995 c 0,0.3333 -0.3333,0.6666 -0.6666,0.6666 H 1.6666 C 1.3333,9.66655 1,9.33325 1,8.99995 V 7.93325 L 2.9333,6.2666 c 0.3333,-0.2666 0.6,-0.2 0.8,0 L 4.6,7.0666 C 4.7333,7.2 4.9333,7.2 5.0666,7.0666 L 7.40001,4.8 c 0.3333,-0.3334 0.6666,-0.1334 0.8,0 l 1.4666,1.4666 z"
     fill="#000000"
     id="path1028" />
</svg>
