<svg id="vector" xmlns="http://www.w3.org/2000/svg" width="28.0d" height="28.0d" viewBox="0 0 28.0 28.0"><path fill="@color/sec_dashboard_wallpapers_color" d="M24.856,3.144C23.13,1.5216 20.7739,0.6012 18.1738,0.2569C15.6907,-0.0722 14,0.0088 14,0.0088C14,0.0088 12.309,-0.0722 9.8258,0.2569C7.2258,0.6012 4.8698,1.5216 3.1443,3.144C1.5215,4.8698 0.6012,7.2259 0.2567,9.8259C-0.0724,12.3089 0.0089,13.9999 0.0089,13.9999C0.0089,13.9999 -0.0724,15.6907 0.2567,18.1739C0.6012,20.7737 1.5215,23.13 3.1441,24.8558C4.8698,26.4784 7.2258,27.3986 9.8258,27.7433C12.309,28.0722 14,27.9912 14,27.9912C14,27.9912 15.6907,28.0722 18.1738,27.7433C20.7739,27.3986 23.13,26.4784 24.8556,24.8558C26.4786,23.13 27.3988,20.7737 27.7433,18.1739C28.0722,15.6907 27.9912,13.9999 27.9912,13.9999C27.9912,13.9999 28.0722,12.3089 27.7433,9.8259C27.3988,7.2259 26.4786,4.8698 24.856,3.144Z" stroke="#00000000" stroke-width="1.0" fill-rule="evenodd" id="path_0"/><path fill="#ffffffff" d="M10.6826,10.3856C10.6826,9.6788 11.2555,9.105 11.9632,9.105C12.6699,9.105 13.2428,9.6788 13.2428,10.3856C13.2428,11.0923 12.6699,11.6652 11.9632,11.6652C11.2555,11.6652 10.6826,11.0923 10.6826,10.3856L10.6826,10.3856ZM19.0417,19.5678C19.0417,20.0353 18.6127,20.4167 18.0865,20.4167L9.9135,20.4167C9.8163,20.4167 8.9583,20.3993 8.9583,19.797L8.9583,16.794L10.6844,15.0542C10.8668,14.8837 11.1611,14.8855 11.3389,15.0597L12.6763,16.3641C12.8551,16.5392 13.1466,16.5382 13.3244,16.3641L16.6996,13.0558C16.8783,12.8817 17.1652,12.8844 17.3403,13.0623L19.0417,14.8534L19.0417,19.5678ZM7.5833,8.4331L7.5833,19.797C7.5833,21.0253 8.6265,21.7917 9.9135,21.7917L18.0865,21.7917C19.3726,21.7917 20.4167,20.7962 20.4167,19.5678L20.4167,8.4331C20.4167,7.2048 19.3726,6.2083 18.0865,6.2083L9.9135,6.2083C8.6265,6.2083 7.5833,7.2048 7.5833,8.4331L7.5833,8.4331Z" stroke="#00000000" stroke-width="1.0" fill-rule="nonzero" id="path_1"/></svg>