<svg width="16" height="16" viewBox="0 0 16 16" fill="none" xmlns="http://www.w3.org/2000/svg">
<path d="M11.6667 2.66675H4.33329C3.39999 2.66675 2.66669 3.40005 2.66669 4.33335V11.6667C2.66669 12.6 3.39999 13.3333 4.33329 13.3333H11.6667C12.6 13.3333 13.3333 12.6 13.3333 11.6667V4.33335C13.3333 3.40005 12.6 2.66675 11.6667 2.66675ZM6.86669 6.06675C6.86669 6.60005 6.39999 7.06675 5.86669 7.06675C5.33329 7.06675 4.86669 6.60005 4.86669 6.06675C4.86669 5.53335 5.33329 5.06675 5.86669 5.06675C6.46669 5.06675 6.86669 5.53335 6.86669 6.06675ZM12.3333 11.6667C12.3333 12 12 12.3333 11.6667 12.3333H4.33329C3.99999 12.3333 3.66669 12 3.66669 11.6667V10.6L5.59999 8.93335C5.93329 8.66675 6.19999 8.73335 6.39999 8.93335L7.26669 9.73335C7.39999 9.86675 7.59999 9.86675 7.73329 9.73335L10.0667 7.46675C10.4 7.13335 10.7333 7.33335 10.8667 7.46675L12.3333 8.93335V11.6667Z" fill="black"/>
</svg>
