<?xml version="1.0" encoding="UTF-8" standalone="no"?>
<svg
   width="17.5"
   height="17.5"
   viewBox="0 0 17.5 17.5"
   fill="none"
   version="1.1"
   id="svg1018"
   sodipodi:docname="image-outline.svg"
   xmlns:inkscape="http://www.inkscape.org/namespaces/inkscape"
   xmlns:sodipodi="http://sodipodi.sourceforge.net/DTD/sodipodi-0.dtd"
   xmlns="http://www.w3.org/2000/svg"
   xmlns:svg="http://www.w3.org/2000/svg">
  <defs
     id="defs1022" />
  <sodipodi:namedview
     id="namedview1020"
     pagecolor="#ffffff"
     bordercolor="#666666"
     borderopacity="1.0"
     inkscape:showpageshadow="2"
     inkscape:pageopacity="0.0"
     inkscape:pagecheckerboard="0"
     inkscape:deskcolor="#d1d1d1" />
  <path
     d="m 3.25,0 h 11 c 1.7333,0 3.1493,1.3562 3.2449,3.0655 L 17.5,3.25 v 11 c 0,1.7333 -1.3562,3.1493 -3.0655,3.2449 L 14.25,17.5 h -11 C 1.5167,17.5 0.1007,16.1438 0.0051,14.4345 L 0,14.25 v -11 C 0,1.5167 1.3562,0.1007 3.0655,0.0051 L 3.25,0 h 11 z m 9.3742,9.1124 -0.0538,0.0402 -3.3642,3.2972 C 8.7514,12.8954 8.0359,12.9251 7.5445,12.5391 L 7.4428,12.45 6.0734,11.1096 C 5.9929,11.031 5.8731,11.0168 5.7789,11.0675 L 5.726,11.1056 1.6462,14.9517 c 0.2511,0.5732 0.8003,0.9858 1.4517,1.0418 L 3.25,16 h 11 c 0.9184,0 1.6712,-0.7069 1.7442,-1.6064 L 16,14.25 V 12.303 L 12.9257,9.1569 C 12.8446,9.0741 12.7205,9.0591 12.6242,9.1124 Z M 14.25,1.5 h -11 C 2.3316,1.5 1.5788,2.2069 1.5058,3.1064 L 1.5,3.25 v 9.778 l 3.1974,-3.0141 c 0.6434,-0.6056 1.628,-0.6323 2.302,-0.086 l 0.1226,0.1091 1.202,1.176 3.1965,-3.1317 c 0.6503,-0.6371 1.6708,-0.664 2.3534,-0.0885 L 13.9978,8.1078 16,10.157 V 3.25 C 16,2.3316 15.2931,1.5788 14.3936,1.5058 Z M 5.4922,3.0845 c 1.3792,0 2.5,1.1208 2.5,2.5 0,1.3792 -1.1208,2.5 -2.5,2.5 -1.3792,0 -2.5,-1.1208 -2.5,-2.5 0,-1.3792 1.1208,-2.5 2.5,-2.5 z m 0,1.5 c -0.5508,0 -1,0.4492 -1,1 0,0.5508 0.4492,1 1,1 0.5508,0 1,-0.4492 1,-1 0,-0.5508 -0.4492,-1 -1,-1 z"
     fill="#252525"
     fill-opacity="0.901961"
     id="path1016" />
</svg>
