<svg width="24" height="24" viewBox="0 0 24 24" fill="none" xmlns="http://www.w3.org/2000/svg">
<path d="M8.404 14.475C8.751 16.141 10.231 17.397 12 17.397C13.769 17.397 15.249 16.141 15.596 14.475H20V17.5C20 18.875 18.875 20 17.5 20H6.5C5.125 20 4 18.875 4 17.5V14.475H8.404ZM17.5 4C18.875 4 20 5.125 20 6.5V12.975H14.923C14.509 12.975 14.173 13.31 14.173 13.725C14.173 14.923 13.198 15.897 12 15.897C10.802 15.897 9.827 14.923 9.827 13.725C9.827 13.31 9.491 12.975 9.077 12.975H4V6.5C4 5.125 5.125 4 6.5 4H17.5Z" fill="#252525"/>
</svg>
