<svg width="24" height="24" viewBox="0 0 24 24" fill="none" xmlns="http://www.w3.org/2000/svg">
<path d="M13.098 16.451C13.098 16.914 12.679 17.279 12.199 17.187C11.843 17.118 11.598 16.786 11.598 16.423V11.862H10.681C10.318 11.862 9.985 11.617 9.917 11.26C9.825 10.781 10.19 10.362 10.653 10.362H12.598C12.874 10.362 13.098 10.585 13.098 10.862V16.451ZM12 6.743C12.553 6.743 13 7.191 13 7.743C13 8.295 12.553 8.743 12 8.743C11.448 8.743 11 8.295 11 7.743C11 7.191 11.448 6.743 12 6.743ZM12 3.625C7.382 3.625 3.625 7.382 3.625 12C3.625 16.618 7.382 20.375 12 20.375C16.619 20.375 20.375 16.618 20.375 12C20.375 7.382 16.619 3.625 12 3.625Z" fill="#252525"/>
</svg>
