<?xml version="1.0" encoding="UTF-8" standalone="no"?>
<svg
   width="16.75"
   height="16.75"
   viewBox="0 0 16.75 16.75"
   fill="none"
   version="1.1"
   id="svg1066"
   sodipodi:docname="info.svg"
   xmlns:inkscape="http://www.inkscape.org/namespaces/inkscape"
   xmlns:sodipodi="http://sodipodi.sourceforge.net/DTD/sodipodi-0.dtd"
   xmlns="http://www.w3.org/2000/svg"
   xmlns:svg="http://www.w3.org/2000/svg">
  <defs
     id="defs1070" />
  <sodipodi:namedview
     id="namedview1068"
     pagecolor="#ffffff"
     bordercolor="#666666"
     borderopacity="1.0"
     inkscape:showpageshadow="2"
     inkscape:pageopacity="0.0"
     inkscape:pagecheckerboard="0"
     inkscape:deskcolor="#d1d1d1" />
  <path
     d="m 9.473,12.826 c 0,0.463 -0.419,0.828 -0.899,0.736 C 8.218,13.493 7.973,13.161 7.973,12.798 V 8.237 H 7.056 C 6.693,8.237 6.36,7.992 6.292,7.635 6.2,7.156 6.565,6.737 7.028,6.737 h 1.945 c 0.276,0 0.5,0.223 0.5,0.5 z M 8.375,3.118 c 0.553,0 1,0.448 1,1 0,0.552 -0.447,1 -1,1 -0.552,0 -1,-0.448 -1,-1 0,-0.552 0.448,-1 1,-1 z M 8.375,0 C 3.757,0 0,3.757 0,8.375 c 0,4.618 3.757,8.375 8.375,8.375 4.619,0 8.375,-3.757 8.375,-8.375 C 16.75,3.757 12.994,0 8.375,0 Z"
     fill="#252525"
     id="path1064" />
</svg>
