<?xml version="1.0" encoding="UTF-8" standalone="no"?>
<!-- Created with Vectornator (http://vectornator.io/) -->

<svg
   height="22.729044"
   stroke-miterlimit="10"
   style="clip-rule:evenodd;fill-rule:nonzero;stroke-linecap:round;stroke-linejoin:round"
   version="1.1"
   viewBox="0 0 11.85502 22.729044"
   width="11.85502"
   xml:space="preserve"
   id="svg1081"
   sodipodi:docname="italic.svg"
   xmlns:inkscape="http://www.inkscape.org/namespaces/inkscape"
   xmlns:sodipodi="http://sodipodi.sourceforge.net/DTD/sodipodi-0.dtd"
   xmlns="http://www.w3.org/2000/svg"
   xmlns:svg="http://www.w3.org/2000/svg"
   xmlns:vectornator="http://vectornator.io"><sodipodi:namedview
   id="namedview1083"
   pagecolor="#ffffff"
   bordercolor="#666666"
   borderopacity="1.0"
   inkscape:showpageshadow="2"
   inkscape:pageopacity="0.0"
   inkscape:pagecheckerboard="0"
   inkscape:deskcolor="#d1d1d1" />
<defs
   id="defs1076" />
<g
   id="Untitled"
   vectornator:layerName="Untitled"
   transform="translate(-6.07248,-0.635456)">
<path
   d="m 16.8161,2.85828 c 0.6135,0 1.1114,-0.49791 1.1114,-1.11141 0,-0.6135 -0.4979,-1.111414 -1.1114,-1.111414 h -5.9275 c -0.6135,0 -1.11142,0.497914 -1.11142,1.111414 0,0.6135 0.49792,1.11141 1.11142,1.11141 h 1.6982 L 9.13552,21.1417 H 7.18389 c -0.6135,0 -1.11141,0.4979 -1.11141,1.1114 0,0.6135 0.49791,1.1114 1.11141,1.1114 h 5.92751 c 0.6135,0 1.1114,-0.4979 1.1114,-1.1114 0,-0.6135 -0.4979,-1.1114 -1.1114,-1.1114 h -1.713 L 14.8482,2.85828 Z"
   fill="#252525"
   fill-rule="nonzero"
   opacity="1"
   stroke="none"
   id="path1078" />
</g>
</svg>
