<svg width="24" height="24" viewBox="0 0 24 24" fill="none" xmlns="http://www.w3.org/2000/svg">
<path d="M7.20144 10.0789C9.01344 8.2659 11.9635 8.2659 13.7774 10.0789L13.9195 10.22C14.2115 10.5129 14.2115 10.988 13.9195 11.2809C13.6264 11.5739 13.1504 11.5739 12.8584 11.2809L12.7165 11.1389C11.4885 9.91198 9.4904 9.91198 8.26144 11.1389L5.76144 13.6389C5.1704 14.232 4.84352 15.0229 4.84352 15.8669C4.84352 16.712 5.1704 17.5029 5.76144 18.0939L5.9024 18.236C7.1304 19.4649 9.12944 19.4649 10.3574 18.236L11.8574 16.736C12.1504 16.4429 12.6264 16.4429 12.9184 16.736C13.2115 17.0289 13.2115 17.504 12.9184 17.7969L11.4184 19.2969C10.5115 20.2029 9.32144 20.6569 8.12944 20.6569C6.93952 20.6569 5.74944 20.2029 4.84144 19.2969L4.70144 19.1549C3.82544 18.28 3.34352 17.112 3.34352 15.8669C3.34352 14.6219 3.82544 13.4549 4.70144 12.5789L7.20144 10.0789ZM15.9085 3.34302C17.1805 3.34302 18.3725 3.83598 19.2675 4.73006C21.1195 6.58206 21.1195 9.59502 19.2675 11.448L16.8376 13.8771C15.9626 14.752 14.7946 15.2341 13.5496 15.2341C12.3045 15.2341 11.1365 14.752 10.2616 13.876L10.1205 13.736C9.82752 13.443 9.82752 12.968 10.1205 12.675C10.4136 12.3821 10.8875 12.3821 11.1805 12.675L11.3226 12.816C11.9136 13.4091 12.7056 13.7341 13.5496 13.7341C14.3946 13.7341 15.1856 13.4091 15.7776 12.816L18.2066 10.387C19.4736 9.11998 19.4736 7.05806 18.2066 5.79102C17.5955 5.17998 16.7805 4.84302 15.9085 4.84302C15.0376 4.84302 14.2216 5.17998 13.6106 5.79102L12.1805 7.21998C11.8885 7.5131 11.4136 7.5131 11.1205 7.21998C10.8275 6.92702 10.8275 6.4531 11.1205 6.15998L12.5496 4.73006C13.4445 3.83598 14.6365 3.34302 15.9085 3.34302Z" fill="black"/>
</svg>
