<?xml version="1.0" encoding="UTF-8" standalone="no"?>
<svg
   height="185.94948"
   width="185.94948"
   version="1.1"
   id="svg1106"
   sodipodi:docname="lock-squircle.svg"
   xmlns:inkscape="http://www.inkscape.org/namespaces/inkscape"
   xmlns:sodipodi="http://sodipodi.sourceforge.net/DTD/sodipodi-0.dtd"
   xmlns="http://www.w3.org/2000/svg"
   xmlns:svg="http://www.w3.org/2000/svg">
  <defs
     id="defs1110" />
  <sodipodi:namedview
     id="namedview1108"
     pagecolor="#ffffff"
     bordercolor="#666666"
     borderopacity="1.0"
     inkscape:showpageshadow="2"
     inkscape:pageopacity="0.0"
     inkscape:pagecheckerboard="0"
     inkscape:deskcolor="#d1d1d1" />
  <path
     d="m 184.27474,65.27474 c -2.3,-17.3 -8.4,-32.9 -19.2,-44.4 v 0 c -11.4,-10.8 -27.1,-16.8999995 -44.4,-19.1999995 -16.5,-2.20000002 -27.7,-1.60000002 -27.7,-1.60000002 0,0 -11.2,-0.5 -27.7,1.60000002 -17.3,2.3 -33,8.3999995 -44.4,19.1999995 v 0 c -10.8,11.4 -16.8999995,27.1 -19.1999995,44.4 -2.20000002,16.5 -1.60000002,27.7 -1.60000002,27.7 0,0 -0.5,11.2 1.60000002,27.7 2.3,17.3 8.3999995,32.9 19.1999995,44.4 v 0 c 11.4,10.8 27.1,16.9 44.4,19.2 16.5,2.2 27.7,1.6 27.7,1.6 0,0 11.2,0.5 27.7,-1.6 17.3,-2.3 32.9,-8.4 44.4,-19.2 v 0 c 10.8,-11.5 16.9,-27.1 19.2,-44.4 2.2,-16.5 1.6,-27.7 1.6,-27.7 0,0 0.6,-11.2 -1.6,-27.7 z"
     fill="#00aa96"
     fill-opacity="1"
     id="path1102" />
  <path
     d="m 126.07474,82.27474 h -2.1 v -10.5 c 0,-17.2 -13.7,-31.2 -30.5,-31.2 -16.8,0 -30.5,14 -30.5,31.2 v 10.5 h -2.1 c -4.5,0 -8.2,3.7 -8.2,8.2 v 42.1 c 0,4.5 3.7,8.2 8.2,8.2 h 65.3 c 4.5,0 8.2,-3.7 8.2,-8.2 v -42.1 c -0.2,-4.5 -3.8,-8.2 -8.3,-8.2 z m -27.9,30.5 v 15.1 h -9.5 v -15.1 c -2.5,-1.6 -4.2,-4.3 -4.2,-7.5 0,-4.9 4,-8.8 9,-8.8 5,0 9,4 9,8.8 -0.1,3.1 -1.8,5.9 -4.3,7.5 z m 16.2,-30.5 h -42 v -10.5 c 0,-11.9 9.4,-21.6 21,-21.6 11.6,0 21,9.7 21,21.6 z"
     fill="#fafafa"
     fill-opacity="1"
     id="path1104" />
</svg>
