<?xml version="1.0" encoding="utf-8" standalone="no"?><svg xmlns:android="http://schemas.android.com/apk/res/android" height="210.0" width="210.0" xmlns="http://www.w3.org/2000/svg">
    <path d="M196.3,77.3c-2.3,-17.3 -8.4,-32.9 -19.2,-44.4l0,0C165.7,22.1 150,16 132.7,13.7c-16.5,-2.2 -27.7,-1.6 -27.7,-1.6s-11.2,-0.5 -27.7,1.6C60,16 44.3,22.1 32.9,32.9l0,0C22.1,44.3 16,60 13.7,77.3c-2.2,16.5 -1.6,27.7 -1.6,27.7s-0.5,11.2 1.6,27.7c2.3,17.3 8.4,32.9 19.2,44.4l0,0C44.3,187.9 60,194 77.3,196.3c16.5,2.2 27.7,1.6 27.7,1.6s11.2,0.5 27.7,-1.6c17.3,-2.3 32.9,-8.4 44.4,-19.2l0,0c10.8,-11.5 16.9,-27.1 19.2,-44.4c2.2,-16.5 1.6,-27.7 1.6,-27.7S198.5,93.8 196.3,77.3z" fill="#00aa96" fill-opacity="1.0"/>
    <path d="M138.1,94.3h-2.1V83.8c0,-17.2 -13.7,-31.2 -30.5,-31.2c-16.8,0 -30.5,14 -30.5,31.2v10.5h-2.1c-4.5,0 -8.2,3.7 -8.2,8.2v42.1c0,4.5 3.7,8.2 8.2,8.2h65.3c4.5,0 8.2,-3.7 8.2,-8.2v-42.1C146.2,98 142.6,94.3 138.1,94.3zM110.2,124.8v15.1h-9.5v-15.1c-2.5,-1.6 -4.2,-4.3 -4.2,-7.5c0,-4.9 4,-8.8 9,-8.8c5,0 9,4 9,8.8C114.4,120.4 112.7,123.2 110.2,124.8zM126.4,94.3h-42V83.8c0,-11.9 9.4,-21.6 21,-21.6c11.6,0 21,9.7 21,21.6V94.3z" fill="#fafafa" fill-opacity="1.0"/>
</svg>