<?xml version="1.0" encoding="UTF-8" standalone="no"?>
<!-- Created with Vectornator (http://vectornator.io/) -->

<svg
   height="195.67973"
   stroke-miterlimit="10"
   style="clip-rule:evenodd;fill-rule:nonzero;stroke-linecap:round;stroke-linejoin:round"
   version="1.1"
   viewBox="0 0 195.6796 195.67973"
   width="195.6796"
   xml:space="preserve"
   id="svg1128"
   sodipodi:docname="logout-squircle.svg"
   xmlns:inkscape="http://www.inkscape.org/namespaces/inkscape"
   xmlns:sodipodi="http://sodipodi.sourceforge.net/DTD/sodipodi-0.dtd"
   xmlns="http://www.w3.org/2000/svg"
   xmlns:svg="http://www.w3.org/2000/svg"
   xmlns:vectornator="http://vectornator.io"><sodipodi:namedview
   id="namedview1130"
   pagecolor="#ffffff"
   bordercolor="#666666"
   borderopacity="1.0"
   inkscape:showpageshadow="2"
   inkscape:pageopacity="0.0"
   inkscape:pagecheckerboard="0"
   inkscape:deskcolor="#d1d1d1" />
<defs
   id="defs1117" />
<g
   id="Untitled"
   vectornator:layerName="Untitled"
   transform="translate(-0.37495179,-0.85781728)">
<g
   opacity="1"
   id="g1125">
<path
   d="m 194.292,69.5482 c -2.42,-18.2053 -8.839,-34.6216 -20.204,-46.7233 v 0 C 162.091,11.4597 145.57,5.04054 127.364,2.62019 110.001,0.305072 98.2148,0.936469 98.2148,0.936469 c 0,0 -11.7861,-0.526164 -29.1495,1.683721 C 50.8601,5.04054 34.3385,11.4597 22.342,22.8249 v 0 C 10.9769,34.8214 4.55768,51.3429 2.13733,69.5482 -0.177793,86.9116 0.453603,98.6977 0.453603,98.6977 c 0,0 -0.5261633,11.7863 1.683727,29.1493 2.42035,18.205 8.83957,34.622 20.20467,46.723 v 0 c 11.9965,11.366 28.5181,17.785 46.7233,20.205 17.3634,2.315 29.1495,1.684 29.1495,1.684 0,0 11.7862,0.526 29.1492,-1.684 18.206,-2.42 34.622,-8.839 46.724,-20.205 v 0 c 11.365,-12.101 17.784,-28.518 20.204,-46.723 2.315,-17.363 1.684,-29.1493 1.684,-29.1493 0,0 0.631,-11.7861 -1.684,-29.1495 z"
   fill="#5b7e96"
   fill-rule="nonzero"
   opacity="1"
   stroke="none"
   id="path1119" />
<path
   d="m 130.732,73.8627 -8.419,8.4187 10.839,10.9442 H 81.4828 v 11.8914 h 51.7742 l -10.944,10.944 8.419,8.313 25.256,-25.1502 z"
   fill="#fafafa"
   fill-rule="nonzero"
   opacity="1"
   stroke="none"
   id="path1121" />
<path
   d="m 115.894,133.53 c 0,1.052 -0.947,1.999 -2,1.999 H 74.2217 c -1.0523,0 -1.9994,-0.947 -1.9994,-1.999 V 64.7075 c 0,-1.0523 0.9471,-1.9994 1.9994,-1.9994 h 39.6723 c 1.053,0 2,0.9471 2,1.9994 v 2.5256 h 11.996 v -2.5256 c 0,-7.682 -6.314,-13.8907 -13.996,-13.8907 H 74.2217 c -7.682,0 -13.9959,6.2087 -13.9959,13.8907 V 133.53 c 0,7.682 6.3139,13.89 13.9959,13.89 h 39.6723 c 7.682,0 13.996,-6.208 13.996,-13.89 v -2.421 h -11.996 c 0,-0.105 0,2.421 0,2.421 z"
   fill="#fafafa"
   fill-rule="nonzero"
   opacity="1"
   stroke="none"
   id="path1123" />
</g>
</g>
</svg>
