<?xml version="1.0" encoding="utf-8" standalone="no"?><svg xmlns:android="http://schemas.android.com/apk/res/android" height="210.0" width="210.0" xmlns="http://www.w3.org/2000/svg">
    <path d="M196.3,77.3c-2.3,-17.3 -8.4,-32.9 -19.2,-44.4l0,0C165.7,22.1 150,16 132.7,13.7c-16.5,-2.2 -27.7,-1.6 -27.7,-1.6s-11.2,-0.5 -27.7,1.6C60,16 44.3,22.1 32.9,32.9l0,0C22.1,44.3 16,60 13.7,77.3c-2.2,16.5 -1.6,27.7 -1.6,27.7s-0.5,11.2 1.6,27.7c2.3,17.3 8.4,32.9 19.2,44.4l0,0C44.3,187.9 60,194 77.3,196.3c16.5,2.2 27.7,1.6 27.7,1.6s11.2,0.5 27.7,-1.6c17.3,-2.3 32.9,-8.4 44.4,-19.2l0,0c10.8,-11.5 16.9,-27.1 19.2,-44.4c2.2,-16.5 1.6,-27.7 1.6,-27.7S198.5,93.8 196.3,77.3z" fill="#5b7e96" fill-opacity="1.0"/>
    <path d="M135.9,81.4l-8,8l10.3,10.4l-49.1,0l0,11.3l49.2,0l-10.4,10.4l8,7.9l24,-23.9z" fill="#fafafa" fill-opacity="1.0"/>
    <path d="M121.8,138.1c0,1 -0.9,1.9 -1.9,1.9H82.2c-1,0 -1.9,-0.9 -1.9,-1.9V72.7c0,-1 0.9,-1.9 1.9,-1.9h37.7c1,0 1.9,0.9 1.9,1.9v2.4h11.4v-2.4c0,-7.3 -6,-13.2 -13.3,-13.2H82.2c-7.3,0 -13.3,5.9 -13.3,13.2v65.4c0,7.3 6,13.2 13.3,13.2h37.7c7.3,0 13.3,-5.9 13.3,-13.2v-2.3h-11.4C121.8,135.7 121.8,138.1 121.8,138.1z" fill="#fafafa" fill-opacity="1.0"/>
</svg>