<?xml version="1.0" encoding="UTF-8" standalone="no"?>
<svg
   width="17.424721"
   height="17.424999"
   viewBox="0 0 17.424721 17.424999"
   fill="none"
   version="1.1"
   id="svg1162"
   sodipodi:docname="magnifying-glass.svg"
   xmlns:inkscape="http://www.inkscape.org/namespaces/inkscape"
   xmlns:sodipodi="http://sodipodi.sourceforge.net/DTD/sodipodi-0.dtd"
   xmlns="http://www.w3.org/2000/svg"
   xmlns:svg="http://www.w3.org/2000/svg">
  <defs
     id="defs1166" />
  <sodipodi:namedview
     id="namedview1164"
     pagecolor="#ffffff"
     bordercolor="#666666"
     borderopacity="1.0"
     inkscape:showpageshadow="2"
     inkscape:pageopacity="0.0"
     inkscape:pagecheckerboard="0"
     inkscape:deskcolor="#d1d1d1" />
  <path
     d="M 1.5,7.124 C 1.5,4.022 4.023,1.5 7.12497,1.5 c 3.102,0 5.625,2.522 5.625,5.624 0,3.102 -2.523,5.626 -5.625,5.626 C 4.023,12.75 1.5,10.226 1.5,7.124 Z m 15.70497,9.021 -4.542,-4.543 c 0.991,-1.225 1.587,-2.783 1.587,-4.478 C 14.24997,3.195 11.05397,0 7.12497,0 3.196,0 0,3.195 0,7.124 c 0,3.929 3.196,7.126 7.12497,7.126 1.694,0 3.253,-0.597 4.477,-1.588 l 4.543,4.543 c 0.146,0.147 0.338,0.22 0.53,0.22 0.192,0 0.384,-0.073 0.53,-0.22 0.293,-0.293 0.293,-0.768 0,-1.06 z"
     fill="#000000"
     id="path1160" />
</svg>
