<svg width="24" height="24" viewBox="0 0 24 24" fill="none" xmlns="http://www.w3.org/2000/svg">
<path d="M4.78763 10.4115C4.78763 7.3095 7.31063 4.7875 10.4126 4.7875C13.5146 4.7875 16.0376 7.3095 16.0376 10.4115C16.0376 13.5135 13.5146 16.0375 10.4126 16.0375C7.31063 16.0375 4.78763 13.5135 4.78763 10.4115ZM20.4926 19.4325L15.9506 14.8895C16.9416 13.6645 17.5376 12.1065 17.5376 10.4115C17.5376 6.4825 14.3416 3.2875 10.4126 3.2875C6.48363 3.2875 3.28763 6.4825 3.28763 10.4115C3.28763 14.3405 6.48363 17.5375 10.4126 17.5375C12.1066 17.5375 13.6656 16.9405 14.8896 15.9495L19.4326 20.4925C19.5786 20.6395 19.7706 20.7125 19.9626 20.7125C20.1546 20.7125 20.3466 20.6395 20.4926 20.4925C20.7856 20.1995 20.7856 19.7245 20.4926 19.4325Z" fill="black"/>
</svg>
