<svg width="24" height="24" viewBox="0 0 24 24" fill="none" xmlns="http://www.w3.org/2000/svg">
<path d="M21.3235 2.50049H2.6765C1.7505 2.50049 0.999496 3.25049 0.999496 4.17649V19.8235C0.999496 20.7495 1.7505 21.4995 2.6765 21.4995H21.3235C22.2495 21.4995 23.0005 20.7495 23.0005 19.8235V4.17749C23.0005 3.25149 22.2495 2.50049 21.3235 2.50049ZM20.4455 7.96249L12.8255 13.9625C12.5825 14.1525 12.2915 14.2475 11.9995 14.2475C11.7085 14.2475 11.4165 14.1525 11.1745 13.9625L3.5535 7.96249C2.9755 7.50749 2.8755 6.66949 3.3305 6.09049C3.7855 5.51249 4.6245 5.41149 5.2035 5.86749L11.9985 11.2185L18.7945 5.86749C19.3735 5.41149 20.2115 5.51249 20.6665 6.09049C21.1245 6.66949 21.0245 7.50749 20.4455 7.96249Z" fill="black"/>
</svg>
