<svg width="40" height="40" viewBox="0 0 40 40" fill="none" xmlns="http://www.w3.org/2000/svg">
<path d="M25.8249 7.51308L15.0933 14.0633V14.1159V14.121C14.9288 14.0921 14.7626 14.0752 14.5897 14.0752H9.7673C8.1361 14.0752 6.8 15.4096 6.8 17.0425V21.2816C6.8 22.9128 8.1361 24.2489 9.7673 24.2489H11.8529C11.8224 24.4354 11.8055 24.6304 11.8055 24.8288V30.8805C11.8055 32.0521 12.755 33 13.925 33H14.2997C15.4714 33 16.4193 32.0521 16.4193 30.8805V25.0764L25.8249 30.8194C26.8643 31.7537 27.7155 31.3739 27.7155 29.975V8.35588C27.7155 6.95868 26.8643 6.57718 25.8249 7.51308Z" fill="black"/>
<path d="M28.7155 22.8936C30.3723 22.8936 31.7155 21.5504 31.7155 19.8936C31.7155 18.2367 30.3723 16.8936 28.7155 16.8936V22.8936Z" fill="black"/>
</svg>
