<?xml version="1.0" encoding="UTF-8" standalone="no"?>
<svg
   width="24.915501"
   height="25.999998"
   viewBox="0 0 24.915501 25.999998"
   fill="none"
   version="1.1"
   id="svg1188"
   sodipodi:docname="megaphone.svg"
   xmlns:inkscape="http://www.inkscape.org/namespaces/inkscape"
   xmlns:sodipodi="http://sodipodi.sourceforge.net/DTD/sodipodi-0.dtd"
   xmlns="http://www.w3.org/2000/svg"
   xmlns:svg="http://www.w3.org/2000/svg">
  <defs
     id="defs1192" />
  <sodipodi:namedview
     id="namedview1190"
     pagecolor="#ffffff"
     bordercolor="#666666"
     borderopacity="1.0"
     inkscape:showpageshadow="2"
     inkscape:pageopacity="0.0"
     inkscape:pagecheckerboard="0"
     inkscape:deskcolor="#d1d1d1" />
  <path
     d="m 19.0249,0.5130782 -10.7316,6.55022 v 0.0526 0.0051 c -0.1645,-0.0289 -0.3307,-0.0458 -0.5036,-0.0458 H 2.9673 C 1.3361,7.0751982 0,8.4095982 0,10.042498 v 4.2391 c 0,1.6312 1.3361,2.9673 2.9673,2.9673 h 2.0856 c -0.0305,0.1865 -0.0474,0.3815 -0.0474,0.5799 v 6.0517 c 0,1.1716 0.9495,2.1195 2.1195,2.1195 h 0.3747 c 1.1717,0 2.1196,-0.9479 2.1196,-2.1195 v -5.8041 l 9.4056,5.743 c 1.0394,0.9343 1.8906,0.5545 1.8906,-0.8444 V 1.3558782 c 0,-1.3972 -0.8512,-1.7787 -1.8906,-0.8428 z"
     fill="#000000"
     id="path1184" />
  <path
     d="m 21.9155,15.893598 c 1.6568,0 3,-1.3432 3,-3 0,-1.6569 -1.3432,-2.9999998 -3,-2.9999998 z"
     fill="#000000"
     id="path1186" />
</svg>
