<svg width="24" height="24" viewBox="0 0 24 24" fill="none" xmlns="http://www.w3.org/2000/svg">
<path d="M7.71428 11.9999C7.71428 12.9428 6.94285 13.7142 5.99999 13.7142C5.05713 13.7142 4.28571 12.9428 4.28571 11.9999C4.28571 11.0571 5.05713 10.2856 5.99999 10.2856C6.94285 10.2856 7.71428 11.0571 7.71428 11.9999ZM13.7143 11.9999C13.7143 12.9428 12.9428 13.7142 12 13.7142C11.0571 13.7142 10.2857 12.9428 10.2857 11.9999C10.2857 11.0571 11.0571 10.2856 12 10.2856C12.9428 10.2856 13.7143 11.0571 13.7143 11.9999ZM19.7143 11.9999C19.7143 12.9428 18.9428 13.7142 18 13.7142C17.0571 13.7142 16.2857 12.9428 16.2857 11.9999C16.2857 11.0571 17.0571 10.2856 18 10.2856C18.9428 10.2856 19.7143 11.0571 19.7143 11.9999Z" fill="black"/>
</svg>
