<?xml version="1.0" encoding="UTF-8" standalone="no"?>
<svg
   width="15.42859"
   height="3.4286001"
   viewBox="0 0 15.42859 3.4286001"
   fill="none"
   version="1.1"
   id="svg1233"
   sodipodi:docname="menu-horizontal.svg"
   xmlns:inkscape="http://www.inkscape.org/namespaces/inkscape"
   xmlns:sodipodi="http://sodipodi.sourceforge.net/DTD/sodipodi-0.dtd"
   xmlns="http://www.w3.org/2000/svg"
   xmlns:svg="http://www.w3.org/2000/svg">
  <defs
     id="defs1237" />
  <sodipodi:namedview
     id="namedview1235"
     pagecolor="#ffffff"
     bordercolor="#666666"
     borderopacity="1.0"
     inkscape:showpageshadow="2"
     inkscape:pageopacity="0.0"
     inkscape:pagecheckerboard="0"
     inkscape:deskcolor="#d1d1d1" />
  <path
     d="m 3.42857,1.7143 c 0,0.9429 -0.77143,1.7143 -1.71429,1.7143 C 0.77142,3.4286 0,2.6572 0,1.7143 0,0.7715 0.77142,0 1.71428,0 2.65714,0 3.42857,0.7715 3.42857,1.7143 Z m 6.00002,0 c 0,0.9429 -0.7715,1.7143 -1.7143,1.7143 -0.9429,0 -1.7143,-0.7714 -1.7143,-1.7143 C 5.99999,0.7715 6.77139,0 7.71429,0 c 0.9428,0 1.7143,0.7715 1.7143,1.7143 z m 6,0 c 0,0.9429 -0.7715,1.7143 -1.7143,1.7143 -0.9429,0 -1.7143,-0.7714 -1.7143,-1.7143 0,-0.9428 0.7714,-1.7143 1.7143,-1.7143 0.9428,0 1.7143,0.7715 1.7143,1.7143 z"
     fill="#000000"
     id="path1231" />
</svg>
