<svg width="24" height="24" viewBox="0 0 24 24" fill="none" xmlns="http://www.w3.org/2000/svg">
<path d="M9.939 6.029C9.939 6.56712 10.1561 7.08321 10.5427 7.46372C10.9292 7.84423 11.4534 8.058 12 8.058C12.5466 8.058 13.0708 7.84423 13.4573 7.46372C13.8439 7.08321 14.061 6.56712 14.061 6.029C14.061 5.49088 13.8439 4.97479 13.4573 4.59428C13.0708 4.21377 12.5466 4 12 4C11.4534 4 10.9292 4.21377 10.5427 4.59428C10.1561 4.97479 9.939 5.49088 9.939 6.029V6.029Z" fill="black"/>
<path d="M9.939 12.06C9.939 12.5981 10.1561 13.1142 10.5427 13.4947C10.9292 13.8752 11.4534 14.089 12 14.089C12.5466 14.089 13.0708 13.8752 13.4573 13.4947C13.8439 13.1142 14.061 12.5981 14.061 12.06C14.061 11.5219 13.8439 11.0058 13.4573 10.6253C13.0708 10.2448 12.5466 10.031 12 10.031C11.4534 10.031 10.9292 10.2448 10.5427 10.6253C10.1561 11.0058 9.939 11.5219 9.939 12.06V12.06Z" fill="black"/>
<path d="M9.939 18.055C9.939 18.5929 10.1561 19.1087 10.5427 19.489C10.9292 19.8693 11.4534 20.083 12 20.083C12.5466 20.083 13.0708 19.8693 13.4573 19.489C13.8439 19.1087 14.061 18.5929 14.061 18.055C14.061 17.5171 13.8439 17.0013 13.4573 16.621C13.0708 16.2407 12.5466 16.027 12 16.027C11.4534 16.027 10.9292 16.2407 10.5427 16.621C10.1561 17.0013 9.939 17.5171 9.939 18.055Z" fill="black"/>
</svg>
