<svg width="18" height="23" viewBox="0 0 18 23" fill="none" xmlns="http://www.w3.org/2000/svg">
<path d="M11.587 20.0372C12.2338 20.0372 12.6649 20.4684 12.6649 21.1151C12.6649 21.7619 12.2338 22.1931 11.587 22.1931H6.413C5.7662 22.1931 5.3351 21.7619 5.3351 21.1151C5.3351 20.4684 5.7662 20.0372 6.413 20.0372H11.587ZM16.2221 9.258C16.8688 9.258 17.3 9.6892 17.3 10.3359C17.3 14.971 13.5273 18.7437 9 18.7437C4.4727 18.7437 0.699997 14.971 0.699997 10.3359C0.699997 9.6892 1.1312 9.258 1.7779 9.258C2.4247 9.258 2.8558 9.6892 2.8558 10.3359C2.8558 13.7853 5.6584 16.5879 9 16.5879C12.3416 16.5879 15.1442 13.7853 15.1442 10.3359C15.1442 9.6892 15.5753 9.258 16.2221 9.258ZM9 0C11.2636 0 13.0961 0.4312 13.0961 3.0182V9.9048C13.0961 12.4918 11.2636 14.3242 9 14.3242C6.7364 14.3242 4.9039 12.4918 4.9039 9.9048V3.0182C4.9039 0.4312 6.7364 0 9 0Z" fill="black"/>
</svg>
