<svg width="39" height="39" viewBox="0 0 39 39" fill="none" xmlns="http://www.w3.org/2000/svg">
<path d="M26.848 23.937C26.8473 22.4948 26.3223 21.6443 25.576 20.9655C25.1125 20.544 24.5328 20.199 23.6748 19.9995C23.6748 19.9995 20.6028 19.2578 16.771 19.9298C16.726 19.9373 16.681 19.9463 16.6368 19.9545C16.5693 19.9673 16.4313 19.9958 16.4313 19.998C15.5688 20.1975 14.9875 20.5425 14.521 20.9663C13.7755 21.6443 13.2513 22.4948 13.2498 23.937L13.2505 23.9385V23.9423C13.2505 24.3945 13.3803 24.6308 13.5655 24.798C13.7515 24.9675 14.011 25.0853 14.512 25.0845L15.7758 25.0853C16.2768 25.086 16.537 24.9675 16.7223 24.798C16.9068 24.6308 17.0365 24.3945 17.0373 23.9415L17.038 23.433C17.038 22.9755 17.173 22.7453 17.353 22.5713C17.5015 22.428 17.7948 22.3388 17.8668 22.3238C20.1078 21.714 21.9648 22.2308 22.3503 22.3538C22.375 22.3605 22.5925 22.434 22.7448 22.5713C22.9315 22.7385 23.0605 22.9755 23.0605 23.433V23.9415C23.062 24.3945 23.1918 24.6308 23.3755 24.798C23.5615 24.9675 23.821 25.0853 24.3228 25.086L25.5858 25.0853C26.0868 25.086 26.347 24.9675 26.5323 24.798C26.7175 24.6308 26.8473 24.3945 26.848 23.9415V23.9385V23.937Z" fill="black"/>
<path d="M15.5812 17.2962C15.84 17.2962 16.05 17.0862 16.05 16.8274V14.5842L18.9165 17.3111C19.227 17.6059 19.6207 17.7529 20.0145 17.7529C20.4217 17.7529 20.8282 17.5961 21.1417 17.2826L24.2137 14.2107C24.3967 14.0276 24.3967 13.7306 24.2137 13.5477C24.0307 13.3646 23.7337 13.3646 23.5507 13.5477L20.4787 16.6196C20.2245 16.8739 19.8225 16.8784 19.5622 16.6317L16.7302 13.9369H18.8955C19.155 13.9369 19.3642 13.7276 19.3642 13.4682C19.3642 13.2094 19.155 12.9994 18.8955 12.9994H16.1437C15.5752 12.9994 15.1125 13.4629 15.1125 14.0307V16.8274C15.1125 17.0862 15.3225 17.2962 15.5812 17.2962Z" fill="black"/>
</svg>
