<?xml version="1.0" encoding="UTF-8" standalone="no"?>
<svg
   width="16"
   height="4"
   viewBox="0 0 16 4"
   fill="none"
   version="1.1"
   id="svg1358"
   sodipodi:docname="more-horizontal.svg"
   xmlns:inkscape="http://www.inkscape.org/namespaces/inkscape"
   xmlns:sodipodi="http://sodipodi.sourceforge.net/DTD/sodipodi-0.dtd"
   xmlns="http://www.w3.org/2000/svg"
   xmlns:svg="http://www.w3.org/2000/svg">
  <defs
     id="defs1362" />
  <sodipodi:namedview
     id="namedview1360"
     pagecolor="#ffffff"
     bordercolor="#666666"
     borderopacity="1.0"
     inkscape:showpageshadow="2"
     inkscape:pageopacity="0.0"
     inkscape:pagecheckerboard="0"
     inkscape:deskcolor="#d1d1d1" />
  <path
     d="M 2,0 C 0.9,0 0,0.9 0,2 0,3.1 0.9,4 2,4 3.1,4 4,3.1 4,2 4,0.9 3.1,0 2,0 Z m 12,0 c -1.1,0 -2,0.9 -2,2 0,1.1 0.9,2 2,2 1.1,0 2,-0.9 2,-2 C 16,0.9 15.1,0 14,0 Z M 8,0 C 6.9,0 6,0.9 6,2 6,3.1 6.9,4 8,4 9.1,4 10,3.1 10,2 10,0.9 9.1,0 8,0 Z"
     fill="#000000"
     id="path1356" />
</svg>
