<?xml version="1.0" encoding="UTF-8" standalone="no"?>
<svg
   width="14.775698"
   height="15.433548"
   viewBox="0 0 14.775698 15.433548"
   fill="none"
   version="1.1"
   id="svg1382"
   sodipodi:docname="mute.svg"
   xmlns:inkscape="http://www.inkscape.org/namespaces/inkscape"
   xmlns:sodipodi="http://sodipodi.sourceforge.net/DTD/sodipodi-0.dtd"
   xmlns="http://www.w3.org/2000/svg"
   xmlns:svg="http://www.w3.org/2000/svg">
  <defs
     id="defs1386" />
  <sodipodi:namedview
     id="namedview1384"
     pagecolor="#ffffff"
     bordercolor="#666666"
     borderopacity="1.0"
     inkscape:showpageshadow="2"
     inkscape:pageopacity="0.0"
     inkscape:pagecheckerboard="0"
     inkscape:deskcolor="#d1d1d1" />
  <path
     d="m 1.032,0.81618921 c 0.224,-0.224 0.554,-0.276 0.828,-0.158 0.025,0.036 0.052,0.072 0.084,0.103 L 14.727,13.545199 c 0.101,0.267 0.045,0.58 -0.169,0.795 -0.147,0.147 -0.339,0.22 -0.531,0.22 -0.192,0 -0.384,-0.073 -0.53,-0.22 l -2.405,-2.405 v 2.596 c 0,0.931 -0.566,1.183 -1.259,0.561 l -5.131,-4.628 c -0.048,0.004 -0.095,0.008 -0.143,0.008 H 1.75 C 0.788,10.472199 0,9.6851992 0,8.7221992 v -2.266 c 0,-0.96301 0.788,-1.75001 1.75,-1.75001 h 2.112 l -2.83,-2.83 c -0.293,-0.293 -0.293,-0.768 0,-1.05999999 z m 8.8017,-0.4751 c 0.692,-0.622 1.258,-0.369 1.258,0.561 V 7.7880992 l -4.846,-4.84501 z"
     fill="#000000"
     id="path1380" />
</svg>
