<svg width="24" height="24" viewBox="0 0 24 24" fill="none" xmlns="http://www.w3.org/2000/svg">
<path d="M17.25 17.1531H21.75" stroke="black" stroke-width="1.5" stroke-linecap="round" stroke-linejoin="round"/>
<path d="M19.5 19.4029V14.9029M14.25 17.1699H12.613C12.5243 17.1695 12.4383 17.2011 12.371 17.2589L7.858 21.0809C7.80342 21.127 7.7368 21.1566 7.66599 21.1661C7.59518 21.1756 7.52312 21.1647 7.45829 21.1347C7.39347 21.1046 7.33858 21.0567 7.30008 20.9965C7.26159 20.9363 7.24109 20.8664 7.241 20.7949V17.5449C7.241 17.4455 7.20149 17.3501 7.13117 17.2798C7.06084 17.2094 6.96546 17.1699 6.866 17.1699H5C4.33696 17.1699 3.70107 16.9065 3.23223 16.4377C2.76339 15.9688 2.5 15.333 2.5 14.6699V6.66992C2.5 6.00688 2.76339 5.371 3.23223 4.90215C3.70107 4.43331 4.33696 4.16992 5 4.16992H17C17.663 4.16992 18.2989 4.43331 18.7678 4.90215C19.2366 5.371 19.5 6.00688 19.5 6.66992V11.9029" stroke="black" stroke-width="1.5" stroke-linecap="round" stroke-linejoin="round"/>
</svg>
