<svg width="28" height="28" viewBox="0 0 28 28" fill="none" xmlns="http://www.w3.org/2000/svg">
<g clip-path="url(#clip0_1_7957)">
<path d="M24.856 3.14401C23.13 1.52161 20.7739 0.601214 18.1738 0.256914C15.6907 -0.072186 14 0.00881404 14 0.00881404C14 0.00881404 12.309 -0.072186 9.8258 0.256914C7.2258 0.601214 4.8698 1.52161 3.1443 3.14401C1.5215 4.86981 0.6012 7.22591 0.2567 9.82591C-0.0723999 12.3089 0.00890014 13.9999 0.00890014 13.9999C0.00890014 13.9999 -0.0723999 15.6907 0.2567 18.1739C0.6012 20.7737 1.5215 23.13 3.1441 24.8558C4.8698 26.4784 7.2258 27.3986 9.8258 27.7433C12.309 28.0722 14 27.9912 14 27.9912C14 27.9912 15.6907 28.0722 18.1738 27.7433C20.7739 27.3986 23.13 26.4784 24.8556 24.8558C26.4786 23.13 27.3988 20.7737 27.7433 18.1739C28.0722 15.6907 27.9912 13.9999 27.9912 13.9999C27.9912 13.9999 28.0722 12.3089 27.7433 9.82591C27.3988 7.22591 26.4786 4.86981 24.856 3.14401Z" fill="black"/>
<path d="M15.6177 9.5505C15.5902 9.6642 15.5664 9.7778 15.5471 9.8952C15.5288 10.0088 15.5132 10.1234 15.5041 10.2389C15.4967 10.3462 15.4885 10.4516 15.4885 10.5597C15.4885 12.8395 17.3411 14.6939 19.6181 14.6939C19.6254 14.6939 19.6309 14.6921 19.6373 14.6921C19.7537 14.6921 19.8692 14.6847 19.982 14.6747C20.0993 14.6646 20.213 14.6472 20.3267 14.6279V15.8654C20.3267 17.5759 18.9361 18.9656 17.2265 18.9656H8.9591C7.2504 18.9656 5.8589 17.5759 5.8589 15.8654V12.6507C5.8589 10.9411 7.2504 9.5505 8.9591 9.5505H15.6177ZM19.6184 8.0332C21.0127 8.0332 22.1411 9.1644 22.1411 10.5596C22.1411 11.7081 21.3757 12.6761 20.3261 12.9832C20.2152 13.0153 20.0997 13.0391 19.9823 13.0566C19.8696 13.0731 19.755 13.0841 19.6377 13.085C19.6313 13.085 19.6248 13.0859 19.6184 13.0859C18.2251 13.0859 17.0958 11.9547 17.0958 10.5596C17.0958 10.4505 17.1059 10.3451 17.1187 10.2396C17.1324 10.1223 17.1563 10.0077 17.1865 9.895C17.2195 9.7786 17.258 9.6649 17.3048 9.5549C17.6925 8.6602 18.5817 8.0332 19.6184 8.0332Z" fill="white"/>
</g>
<defs>
<clipPath id="clip0_1_7957">
<rect width="28" height="28" fill="white"/>
</clipPath>
</defs>
</svg>
