<?xml version="1.0" encoding="UTF-8" standalone="no"?>
<svg
   width="18.5"
   height="18.5"
   viewBox="0 0 18.5 18.5"
   fill="none"
   version="1.1"
   id="svg1409"
   sodipodi:docname="noti_off_outline.svg"
   xmlns:inkscape="http://www.inkscape.org/namespaces/inkscape"
   xmlns:sodipodi="http://sodipodi.sourceforge.net/DTD/sodipodi-0.dtd"
   xmlns="http://www.w3.org/2000/svg"
   xmlns:svg="http://www.w3.org/2000/svg">
  <defs
     id="defs1413" />
  <sodipodi:namedview
     id="namedview1411"
     pagecolor="#ffffff"
     bordercolor="#666666"
     borderopacity="1.0"
     inkscape:showpageshadow="2"
     inkscape:pageopacity="0.0"
     inkscape:pagecheckerboard="0"
     inkscape:deskcolor="#d1d1d1" />
  <path
     d="m 6.86,16.695 c 0.61,0.44 1.405,0.708 2.277,0.708 0.871,0 1.666,-0.267 2.275,-0.708 M 0.75,0.75 l 17,17 M 2.171,12.448 3.671,9.298 C 3.725,9.183 3.753,9.058 3.753,8.932 V 6.334 C 3.756,6.311 3.758,6.286 3.759,6.264 3.875,3.368 6.237,1.101 9.136,1.101 c 2.9,0 5.261,2.267 5.378,5.163 0.001,0.022 0.003,0.047 0.006,0.07 v 2.598 c 0,0.126 0.028,0.251 0.082,0.366 l 1.5,3.15 c 0.268,0.565 -0.143,1.215 -0.767,1.215 H 2.938 c -0.624,0 -1.036,-0.65 -0.767,-1.215 z"
     stroke="#000000"
     stroke-width="1.5"
     stroke-linecap="round"
     stroke-linejoin="round"
     id="path1407" />
</svg>
