<svg width="24" height="24" viewBox="0 0 24 24" fill="none" xmlns="http://www.w3.org/2000/svg">
<path d="M10.11 19.945C10.72 20.385 11.515 20.653 12.387 20.653C13.258 20.653 14.053 20.386 14.662 19.945M4 4L21 21M5.421 15.698L6.921 12.548C6.975 12.433 7.003 12.308 7.003 12.182V9.584C7.006 9.561 7.008 9.536 7.009 9.514C7.125 6.618 9.487 4.351 12.386 4.351C15.286 4.351 17.647 6.618 17.764 9.514C17.765 9.536 17.767 9.561 17.77 9.584V12.182C17.77 12.308 17.798 12.433 17.852 12.548L19.352 15.698C19.62 16.263 19.209 16.913 18.585 16.913H6.188C5.564 16.913 5.152 16.263 5.421 15.698V15.698Z" stroke="black" stroke-width="1.5" stroke-linecap="round" stroke-linejoin="round"/>
</svg>
