<svg width="24" height="24" viewBox="0 0 24 24" fill="none" xmlns="http://www.w3.org/2000/svg">
<path d="M19.2186 4.59805C17.2306 2.61705 13.9936 2.61705 12.0056 4.59805L3.50759 13.0661C3.21359 13.3581 3.21259 13.8331 3.50559 14.1261C3.79759 14.4201 4.27259 14.4201 4.56659 14.1281L13.0646 5.66005C14.4686 4.26005 16.7546 4.26005 18.1586 5.66005C18.8386 6.33805 19.2136 7.23905 19.2136 8.19705C19.2136 9.15505 18.8386 10.0561 18.1596 10.7341L9.9216 18.9411C9.3236 19.5381 8.35059 19.5371 7.75159 18.9411C7.46259 18.6521 7.30259 18.2691 7.30259 17.8621C7.30259 17.4541 7.46159 17.0711 7.75059 16.7831L15.2806 9.28205C15.5726 8.98905 15.5736 8.51405 15.2816 8.22105C14.9896 7.92705 14.5146 7.92605 14.2216 8.21905L6.69259 15.7201C6.11859 16.2921 5.80259 17.0531 5.80259 17.8621C5.80359 18.6701 6.11859 19.4311 6.69259 20.0021C7.28359 20.5931 8.06059 20.8881 8.83759 20.8881C9.61459 20.8881 10.3906 20.5931 10.9816 20.0021L19.2186 11.7951C20.1826 10.8341 20.7136 9.55605 20.7136 8.19705C20.7136 6.83705 20.1826 5.55905 19.2186 4.59805Z" fill="#252525"/>
</svg>
