<?xml version="1.0" encoding="UTF-8" standalone="no"?>
<svg
   width="9.5228004"
   height="12.354"
   viewBox="0 0 9.5228004 12.354"
   fill="none"
   version="1.1"
   id="svg1466"
   sodipodi:docname="pause.svg"
   xmlns:inkscape="http://www.inkscape.org/namespaces/inkscape"
   xmlns:sodipodi="http://sodipodi.sourceforge.net/DTD/sodipodi-0.dtd"
   xmlns="http://www.w3.org/2000/svg"
   xmlns:svg="http://www.w3.org/2000/svg">
  <defs
     id="defs1470" />
  <sodipodi:namedview
     id="namedview1468"
     pagecolor="#ffffff"
     bordercolor="#666666"
     borderopacity="1.0"
     inkscape:showpageshadow="2"
     inkscape:pageopacity="0.0"
     inkscape:pagecheckerboard="0"
     inkscape:deskcolor="#d1d1d1" />
  <path
     d="m 1.4691,0 0.141,0.0068 c 0.7426,0.0715 1.3273,0.7016 1.3273,1.4615 v 9.4166 c 0,0.8082 -0.66,1.4691 -1.4683,1.4691 C 0.66,12.354 0,11.6931 0,10.8849 V 1.4683 C 0,0.6609 0.66,0 1.4691,0 Z m 6.5846,0 0.141,0.0068 c 0.7427,0.0715 1.3281,0.7016 1.3281,1.4615 v 9.4166 c 0,0.8082 -0.6609,1.4691 -1.4691,1.4691 -0.8083,0 -1.4683,-0.6609 -1.4683,-1.4691 V 1.4683 C 6.5854,0.6609 7.2454,0 8.0537,0 Z"
     fill="#ffffff"
     id="path1464" />
</svg>
