<svg width="24" height="24" viewBox="0 0 24 24" fill="none" xmlns="http://www.w3.org/2000/svg">
<path d="M13.9602 4.03C15.0341 2.9562 16.7747 2.9562 17.8495 4.0297L19.9705 6.1517C21.0448 7.2246 21.0448 8.9654 19.9709 10.0407L11.4639 18.5477C11.4234 18.5882 11.3811 18.6259 11.3374 18.6607C11.3192 18.6845 11.2982 18.7085 11.2754 18.7313C10.951 19.0557 10.2552 19.5533 9.8158 19.7038L9.6923 19.738L4.5261 20.7506C3.7702 20.9007 3.1563 20.331 3.2297 19.5916L3.2471 19.4735L4.2614 14.3069C4.3444 13.8889 4.9112 13.0802 5.2667 12.7246L5.3467 12.6558C5.3797 12.6148 5.4152 12.5751 5.4532 12.537L13.9602 4.03ZM5.6767 14.8826L4.8364 19.1605L9.1157 18.3216L5.6767 14.8826ZM16.7896 5.091C16.3004 4.6025 15.509 4.6025 15.0209 5.0907L6.5148 13.5968L10.4029 17.487L18.9099 8.9804C19.3983 8.4913 19.3983 7.7002 18.9101 7.2126L16.7896 5.091Z" fill="#252525"/>
</svg>
