<svg width="25" height="25" viewBox="0 0 25 25" fill="none" xmlns="http://www.w3.org/2000/svg">
<path d="M6.646 14.8123C6.6606 14.776 6.701 14.7929 6.7672 14.8631C7.8567 15.9536 8.9804 17.0787 10.1381 18.2384C10.1463 18.2466 10.1587 18.259 10.1752 18.2755C10.226 18.3283 10.1102 18.3579 10.0448 18.375L6.6073 19C6.1612 19.0968 5.9042 18.8438 5.9823 18.375L6.6073 14.9375C6.622 14.8858 6.6241 14.8668 6.646 14.8123ZM14.576 6.42188C15.1229 5.79688 16.1385 5.79688 16.7635 6.42188L18.5604 8.21878C19.1854 8.84378 19.1854 9.78128 18.5604 10.4063L11.9198 17.0469C11.7635 17.2032 11.5292 17.2032 11.3729 17.0469L7.9354 13.6094C7.7792 13.4532 7.7792 13.2188 7.9354 13.0625L14.576 6.42188Z" fill="#252525"/>
</svg>
