<svg width="18" height="18" viewBox="0 0 18 18" fill="none" xmlns="http://www.w3.org/2000/svg">
<path d="M12.5704 10.0471C15.3004 10.0471 17.5144 12.1031 17.5144 14.3191V15.7971C17.5144 16.3491 17.0674 16.7971 16.5144 16.7971H13.8434C13.2924 16.7971 12.8434 16.3491 12.8434 15.7971V14.1381C12.8434 12.6691 12.2524 11.2991 11.2754 10.2101C11.6884 10.1081 12.1224 10.0471 12.5704 10.0471ZM5.7892 9.55391C8.7192 9.55391 11.0942 11.7599 11.0942 14.1379V15.7969C11.0942 16.3489 10.6462 16.7969 10.0942 16.7969H1.4842C0.9322 16.7969 0.4842 16.3489 0.4842 15.7969V14.1379C0.4842 11.7599 2.8592 9.55391 5.7892 9.55391ZM12.8419 3.74051C14.2229 3.74051 15.3429 4.85951 15.3429 6.24151C15.3429 7.62251 14.2229 8.74051 12.8419 8.74051C11.4619 8.74051 10.3429 7.62251 10.3429 6.24151C10.3429 4.85951 11.4619 3.74051 12.8419 3.74051ZM5.7892 1.51001C7.5502 1.51001 8.9772 2.93701 8.9772 4.69801C8.9772 6.45901 7.5502 7.88601 5.7892 7.88601C4.0282 7.88601 2.6012 6.45901 2.6012 4.69801C2.6012 2.93701 4.0282 1.51001 5.7892 1.51001Z" fill="black"/>
</svg>
