<?xml version="1.0" encoding="UTF-8" standalone="no"?>
<svg
   width="18.763"
   height="16.227711"
   viewBox="0 0 18.763 16.227711"
   fill="none"
   version="1.1"
   id="svg1504"
   sodipodi:docname="people-outline.svg"
   xmlns:inkscape="http://www.inkscape.org/namespaces/inkscape"
   xmlns:sodipodi="http://sodipodi.sourceforge.net/DTD/sodipodi-0.dtd"
   xmlns="http://www.w3.org/2000/svg"
   xmlns:svg="http://www.w3.org/2000/svg">
  <defs
     id="defs1508" />
  <sodipodi:namedview
     id="namedview1506"
     pagecolor="#ffffff"
     bordercolor="#666666"
     borderopacity="1.0"
     inkscape:showpageshadow="2"
     inkscape:pageopacity="0.0"
     inkscape:pagecheckerboard="0"
     inkscape:deskcolor="#d1d1d1" />
  <path
     d="m 1.75,16.22771 c -0.8417,0 -1.5531,-0.5962 -1.7186,-1.439 L 0.008,14.63751 0,14.47771 v -1.027 c 0,-2.9227 2.8466,-5.44 6.177,-5.44 1.6559,0 3.1956,0.6229 4.3236,1.6141 0.8951,-0.6528 2.0108,-1.0251 3.1784,-1.0251 2.6659,0 4.957,1.9619 5.0789,4.2993 l 0.0051,0.1956 v 1.3831 c 0,0.9179 -0.7074,1.6711 -1.6065,1.7441 l -0.1435,0.0059 z m 4.427,-6.717 c -2.4655,0 -4.551,1.7801 -4.6715,3.7596 l -0.0055,0.1804 -0.0012,0.9839 0.0029,0.0733 c 0.012,0.1036 0.088,0.1872 0.1867,0.2122 l 0.0616,0.0076 8.8108,0.0013 0.0732,-0.003 c 0.1033,-0.012 0.1872,-0.0883 0.2123,-0.1868 l 0.0077,-0.0615 2e-4,-1.0078 -0.004,-0.1677 c -0.0394,-0.7737 -0.3775,-1.5158 -0.9201,-2.135 -0.003,-8e-4 -0.0053,-0.0031 -0.0075,-0.0053 L 9.884,11.11541 C 9.0202,10.16071 7.6656,9.51071 6.177,9.51071 Z m 7.502,0.589 c -0.7965,0 -1.5579,0.2386 -2.1804,0.6562 0.46,0.6858 0.7561,1.4614 0.8351,2.2809 l 0.0153,0.2081 0.005,0.2058 v 1.027 c 0,0.0849 -0.0061,0.1684 -0.0179,0.2502 l 4.6769,-2e-4 c 0.1181,0 0.2174,-0.0825 0.2434,-0.1928 l 0.0066,-0.0572 v -1.3831 c 0,-1.5502 -1.6341,-2.9949 -3.584,-2.9949 z M 13.6779,1.91 c 1.585,0 2.869,1.2835 2.869,2.868 0,1.58371 -1.2843,2.86801 -2.869,2.86801 -1.5823,0 -2.866,-1.285 -2.866,-2.86801 0,-1.5838 1.2834,-2.868 2.866,-2.868 z M 6.1768,0 c 2.0016,0 3.625,1.6223 3.625,3.624 0,2.0021 -1.6236,3.62611 -3.625,3.62611 C 4.1754,7.25011 2.5518,5.6261 2.5518,3.624 2.5518,1.6223 4.1752,0 6.1768,0 Z m 7.5011,3.41 c -0.754,0 -1.366,0.6124 -1.366,1.368 0,0.7549 0.6124,1.36801 1.366,1.36801 0.7563,0 1.369,-0.61281 1.369,-1.36801 0,-0.7559 -0.6123,-1.368 -1.369,-1.368 z M 6.1768,1.5 c -1.1734,0 -2.125,0.9509 -2.125,2.124 0,1.1737 0.9521,2.1261 2.125,2.1261 1.1729,0 2.125,-0.9524 2.125,-2.1261 C 8.3018,2.4509 7.3502,1.5 6.1768,1.5 Z"
     fill="#252525"
     id="path1502" />
</svg>
