<svg width="24" height="24" viewBox="0 0 24 24" fill="none" xmlns="http://www.w3.org/2000/svg">
<path d="M4.3685 20.1137C3.5268 20.1137 2.8154 19.5175 2.6499 18.6747L2.6265 18.5235L2.6185 18.3637V17.3367C2.6185 14.414 5.4651 11.8967 8.7955 11.8967C10.4514 11.8967 11.9911 12.5196 13.1191 13.5108C14.0142 12.858 15.1299 12.4857 16.2975 12.4857C18.9634 12.4857 21.2545 14.4476 21.3764 16.785L21.3815 16.9806V18.3637C21.3815 19.2816 20.6741 20.0348 19.775 20.1078L19.6315 20.1137H4.3685ZM8.7955 13.3967C6.33 13.3967 4.2445 15.1768 4.124 17.1563L4.1185 17.3367L4.1173 18.3206L4.1202 18.3939C4.1322 18.4975 4.2082 18.5811 4.3069 18.6061L4.3685 18.6137L13.1793 18.615L13.2525 18.612C13.3558 18.6 13.4397 18.5237 13.4648 18.4252L13.4725 18.3637L13.4727 17.3559L13.4687 17.1882C13.4293 16.4145 13.0912 15.6724 12.5486 15.0532C12.5456 15.0524 12.5433 15.0501 12.5411 15.0479L12.5025 15.0014C11.6387 14.0467 10.2841 13.3967 8.7955 13.3967ZM16.2975 13.9857C15.501 13.9857 14.7396 14.2243 14.1171 14.6419C14.5771 15.3277 14.8732 16.1033 14.9522 16.9228L14.9675 17.1309L14.9725 17.3367V18.3637C14.9725 18.4486 14.9664 18.5321 14.9546 18.6139L19.6315 18.6137C19.7496 18.6137 19.8489 18.5312 19.8749 18.4209L19.8815 18.3637V16.9806C19.8815 15.4304 18.2474 13.9857 16.2975 13.9857ZM16.2964 5.79599C17.8814 5.79599 19.1654 7.07949 19.1654 8.66399C19.1654 10.2477 17.8811 11.532 16.2964 11.532C14.7141 11.532 13.4304 10.247 13.4304 8.66399C13.4304 7.08019 14.7138 5.79599 16.2964 5.79599ZM8.7953 3.88599C10.7969 3.88599 12.4203 5.50829 12.4203 7.50999C12.4203 9.51209 10.7967 11.1361 8.7953 11.1361C6.7939 11.1361 5.1703 9.51209 5.1703 7.50999C5.1703 5.50829 6.7937 3.88599 8.7953 3.88599ZM16.2964 7.29599C15.5424 7.29599 14.9304 7.90839 14.9304 8.66399C14.9304 9.41889 15.5428 10.032 16.2964 10.032C17.0527 10.032 17.6654 9.41919 17.6654 8.66399C17.6654 7.90809 17.0531 7.29599 16.2964 7.29599ZM8.7953 5.38599C7.6219 5.38599 6.6703 6.33689 6.6703 7.50999C6.6703 8.68369 7.6224 9.63609 8.7953 9.63609C9.9682 9.63609 10.9203 8.68369 10.9203 7.50999C10.9203 6.33689 9.9687 5.38599 8.7953 5.38599Z" fill="#252525"/>
</svg>
