<?xml version="1.0" encoding="UTF-8" standalone="no"?>
<svg
   width="17.030199"
   height="15.28709"
   viewBox="0 0 17.030199 15.28709"
   fill="none"
   version="1.1"
   id="svg1516"
   sodipodi:docname="people.svg"
   xmlns:inkscape="http://www.inkscape.org/namespaces/inkscape"
   xmlns:sodipodi="http://sodipodi.sourceforge.net/DTD/sodipodi-0.dtd"
   xmlns="http://www.w3.org/2000/svg"
   xmlns:svg="http://www.w3.org/2000/svg">
  <defs
     id="defs1520" />
  <sodipodi:namedview
     id="namedview1518"
     pagecolor="#ffffff"
     bordercolor="#666666"
     borderopacity="1.0"
     inkscape:showpageshadow="2"
     inkscape:pageopacity="0.0"
     inkscape:pagecheckerboard="0"
     inkscape:deskcolor="#d1d1d1" />
  <path
     d="m 12.0862,8.53709 c 2.73,0 4.944,2.056 4.944,4.272 v 1.478 c 0,0.552 -0.447,1 -1,1 h -2.671 c -0.551,0 -1,-0.448 -1,-1 v -1.659 c 0,-1.469 -0.591,-2.839 -1.568,-3.928 0.413,-0.102 0.847,-0.163 1.295,-0.163 z M 5.305,8.0439 c 2.93,0 5.305,2.20599 5.305,4.58399 v 1.659 c 0,0.552 -0.448,1 -1,1 H 1 c -0.552,0 -1,-0.448 -1,-1 v -1.659 C 0,10.24989 2.375,8.0439 5.305,8.0439 Z m 7.0527,-5.8134 c 1.381,0 2.501,1.119 2.501,2.501 0,1.381 -1.12,2.499 -2.501,2.499 -1.38,0 -2.499,-1.118 -2.499,-2.499 0,-1.382 1.119,-2.501 2.499,-2.501 z M 5.305,0 C 7.066,0 8.493,1.427 8.493,3.188 8.493,4.949 7.066,6.376 5.305,6.376 3.544,6.376 2.117,4.949 2.117,3.188 2.117,1.427 3.544,0 5.305,0 Z"
     fill="#000000"
     id="path1514" />
</svg>
