<svg width="40" height="40" viewBox="0 0 40 40" fill="none" xmlns="http://www.w3.org/2000/svg">
<path d="M33.6743 27.1367L31.291 24.7533C30.3743 23.8367 29.641 23.47 28.9076 23.47C28.1743 23.47 27.6243 23.6533 26.7076 24.57L25.791 25.4867C24.8743 26.4033 24.3243 26.5867 23.591 26.5867C23.041 26.5867 22.3076 26.22 22.1243 26.0367C16.8076 22.92 14.241 18.52 13.691 17.6033C13.691 17.6033 13.3243 17.0533 13.3243 16.5033C13.3243 15.77 13.5076 15.22 14.4243 14.3033L15.341 13.3867C16.2576 12.47 16.441 11.92 16.441 11.1867C16.441 10.4533 16.0743 9.72002 15.1576 8.80332L12.7743 6.42002C11.8576 5.50332 11.1243 5.13672 10.391 5.13672C9.65759 5.13672 9.10759 5.32002 8.19099 6.23672C5.44099 8.98672 4.89099 11.5533 5.07429 14.12C5.07429 15.77 5.62429 17.6033 6.90759 19.4367C6.90759 19.4367 11.3076 26.5867 19.741 32.4533C19.9243 32.4533 19.9243 32.6367 20.1076 32.6367C20.291 32.82 20.6576 33.0033 20.6576 33.0033C22.6743 34.2867 24.3243 34.6533 25.9743 34.8367C28.7243 35.02 31.291 34.2867 33.8576 31.72C34.7743 30.8033 34.9576 30.2533 34.9576 29.52C34.7743 28.7867 34.591 28.0533 33.6743 27.1367Z" fill="black"/>
</svg>
