<?xml version="1.0" encoding="UTF-8" standalone="no"?>
<svg
   width="53.309914"
   height="53.192261"
   viewBox="0 0 53.309914 53.192261"
   fill="none"
   version="1.1"
   id="svg1540"
   sodipodi:docname="phone-outline.svg"
   xmlns:inkscape="http://www.inkscape.org/namespaces/inkscape"
   xmlns:sodipodi="http://sodipodi.sourceforge.net/DTD/sodipodi-0.dtd"
   xmlns="http://www.w3.org/2000/svg"
   xmlns:svg="http://www.w3.org/2000/svg">
  <defs
     id="defs1544" />
  <sodipodi:namedview
     id="namedview1542"
     pagecolor="#ffffff"
     bordercolor="#666666"
     borderopacity="1.0"
     inkscape:showpageshadow="2"
     inkscape:pageopacity="0.0"
     inkscape:pagecheckerboard="0"
     inkscape:deskcolor="#d1d1d1" />
  <path
     d="m 37.326164,53.192261 c -0.38,0 -0.76,0 -1.14,0 -3.5403,-0.1808 -6.9697,-1.2952 -9.94,-3.23 v 0 c -0.294,-0.1553 -0.5779,-0.329 -0.85,-0.52 l -0.53,-0.37 c -8.5339,-5.943 -15.8717997,-13.4404 -21.6299997,-22.1 -1.9216,-2.9531 -3.0289,-6.3614 -3.21,-9.88 -0.27,-5.86 1.54,-10.4000004 5.88,-14.7500004 0.0291,-0.0241 0.0559,-0.0509 0.08,-0.08 0.6575,-0.7338 1.4667,-1.31599998 2.3715,-1.70629998 0.9047,-0.3902 1.8834997,-0.5791 2.8684997,-0.5537 2.0418,0.1797 3.9344,1.14389998 5.28,2.68999998 l 3.91,3.87 c 1.5464,1.3484 2.5075,3.2456 2.68,5.2900004 0.0252,0.997 -0.1686,1.9875 -0.5677,2.9015 -0.3992,0.914 -0.9939,1.7293 -1.7423,2.3885 l -1.58,1.52 c -1.06,1.07 -1,1.61 -1,1.9 0.0448,0.3475 0.1461,0.6853 0.3,1 2.9909,5.4307 7.4239,9.9295 12.81,13 0.3909,0.2461 0.8201,0.4253 1.27,0.53 0.38,0 0.94,0 2,-1 l 1.57,-1.57 c 0.6607,-0.7499 1.4775,-1.3462 2.393,-1.747 0.9156,-0.4008 1.9078,-0.5964 2.907,-0.573 2.0444,0.1703 3.9404,1.1363 5.28,2.69 l 3.88,3.88 c 1.5503,1.3423 2.5155,3.2368 2.69,5.28 0.0331,0.987 -0.1533,1.9691 -0.5459,2.8752 -0.3925,0.9062 -0.9814,1.7139 -1.7241,2.3648 l -0.06,0.07 c -4.11,3.97 -8.33,5.82 -13.65,5.83 z m -8.77,-7.13 h 0.08 c 2.3122,1.5299 4.9914,2.4137 7.76,2.56 3.2,0.15 7,-0.27 11.31,-4.52 l 0.06,-0.07 c 1.05,-1 1,-1.57 1,-1.89 0,-0.32 0,-1 -1.37,-2.31 l -3.88,-3.89 c -1.33,-1.33 -2,-1.36 -2.31,-1.38 -0.31,-0.02 -0.86,0 -1.91,1 l -1.57,1.56 c -0.6543,0.7505 -1.4587,1.3554 -2.3613,1.7757 -0.9025,0.4203 -1.8832,0.6466 -2.8787,0.6643 -1.2679,-0.1054 -2.4905,-0.5209 -3.56,-1.21 -6.0826,-3.5072 -11.0794,-8.6251 -14.44,-14.79 -0.4453,-0.8721 -0.7138,-1.8237 -0.79,-2.8 -0.0335,-1.0045 0.1584,-2.0037 0.5616,-2.9243 0.4032,-0.9206 1.0074,-1.7392 1.7684,-2.3957 l 1.62,-1.53 c 1,-1.05 1,-1.59 1,-1.92 0,-0.33 -0.05,-1 -1.37,-2.3000004 l -3.93,-3.88 c -1.33,-1.33 -2,-1.36 -2.31,-1.37 -0.31,-0.01 -0.85,0 -1.9099997,1 l -0.07,0.06 c -4.24,4.28 -4.66,8.1200004 -4.51,11.3000004 0.1432,2.7662 1.0198,5.4445 2.54,7.76 5.4657997,8.1149 12.3773997,15.1554 20.3899997,20.77 l 0.44,0.31 z"
     fill="#000000"
     id="path1538" />
</svg>
