<svg width="84" height="84" viewBox="0 0 84 84" fill="none" xmlns="http://www.w3.org/2000/svg">
<path d="M52.68 68.63C52.3 68.63 51.92 68.63 51.54 68.63C47.9997 68.4492 44.5703 67.3348 41.6 65.4V65.4C41.306 65.2447 41.0221 65.071 40.75 64.88L40.22 64.51C31.6861 58.567 24.3482 51.0696 18.59 42.41C16.6684 39.4569 15.5611 36.0486 15.38 32.53C15.11 26.67 16.92 22.13 21.26 17.78C21.2891 17.7559 21.3159 17.7291 21.34 17.7C21.9975 16.9662 22.8067 16.384 23.7115 15.9937C24.6162 15.6035 25.595 15.4146 26.58 15.44C28.6218 15.6197 30.5144 16.5839 31.86 18.13L35.77 22C37.3164 23.3484 38.2775 25.2456 38.45 27.29C38.4752 28.287 38.2814 29.2775 37.8823 30.1915C37.4831 31.1055 36.8884 31.9208 36.14 32.58L34.56 34.1C33.5 35.17 33.56 35.71 33.56 36C33.6048 36.3475 33.7061 36.6853 33.86 37C36.8509 42.4307 41.2839 46.9295 46.67 50C47.0609 50.2461 47.4901 50.4253 47.94 50.53C48.32 50.53 48.88 50.53 49.94 49.53L51.51 47.96C52.1707 47.2101 52.9875 46.6138 53.903 46.213C54.8186 45.8122 55.8108 45.6166 56.81 45.64C58.8544 45.8103 60.7504 46.7763 62.09 48.33L65.97 52.21C67.5203 53.5523 68.4855 55.4468 68.66 57.49C68.6931 58.477 68.5067 59.4591 68.1141 60.3652C67.7216 61.2714 67.1327 62.0791 66.39 62.73L66.33 62.8C62.22 66.77 58 68.62 52.68 68.63ZM43.91 61.5H43.99C46.3022 63.0299 48.9814 63.9137 51.75 64.06C54.95 64.21 58.75 63.79 63.06 59.54L63.12 59.47C64.17 58.47 64.12 57.9 64.12 57.58C64.12 57.26 64.12 56.58 62.75 55.27L58.87 51.38C57.54 50.05 56.87 50.02 56.56 50C56.25 49.98 55.7 50 54.65 51L53.08 52.56C52.4257 53.3105 51.6213 53.9154 50.7187 54.3357C49.8162 54.756 48.8355 54.9823 47.84 55C46.5721 54.8946 45.3495 54.4791 44.28 53.79C38.1974 50.2828 33.2006 45.1649 29.84 39C29.3947 38.1279 29.1262 37.1763 29.05 36.2C29.0165 35.1955 29.2084 34.1963 29.6116 33.2757C30.0148 32.3551 30.619 31.5365 31.38 30.88L33 29.35C34 28.3 34 27.76 34 27.43C34 27.1 33.95 26.43 32.63 25.13L28.7 21.25C27.37 19.92 26.7 19.89 26.39 19.88C26.08 19.87 25.54 19.88 24.48 20.88L24.41 20.94C20.17 25.22 19.75 29.06 19.9 32.24C20.0432 35.0062 20.9198 37.6845 22.44 40C27.9058 48.1149 34.8174 55.1554 42.83 60.77L43.27 61.08L43.91 61.5Z" fill="black"/>
</svg>
