<svg width="18" height="18" viewBox="0 0 18 18" fill="none" xmlns="http://www.w3.org/2000/svg">
<path d="M3.2673 15.2873C3.4093 15.2873 3.5513 15.2333 3.6593 15.1246L7.6907 11.0939L10.0016 13.4181C10.1347 13.5342 10.3263 13.5416 10.441 13.427C10.5016 13.3656 10.7169 12.421 11.0002 10.7648L13.9945 7.16315L14.3407 7.50935C14.4487 7.61735 14.5907 7.67205 14.7327 7.67205C14.8748 7.67205 15.0168 7.61735 15.1248 7.50935C15.3415 7.29265 15.3415 6.94125 15.1248 6.72455L11.2753 2.87505C11.0586 2.65835 10.7072 2.65835 10.4905 2.87505C10.2738 3.09175 10.2738 3.44245 10.4905 3.65915L10.8064 3.97575L7.2365 6.97975C6.3481 7.08255 4.6505 7.48045 4.5906 7.54115C4.4759 7.65725 4.4833 7.84965 4.6002 7.98425L6.9088 10.3069L2.8752 14.3405C2.6585 14.5572 2.6585 14.9079 2.8752 15.1246C2.9832 15.2333 3.1252 15.2873 3.2673 15.2873Z" fill="black"/>
</svg>
