<svg width="24" height="24" viewBox="0 0 24 24" fill="none" xmlns="http://www.w3.org/2000/svg">
<path d="M16.4714 4.80005C17.9785 4.80005 19.2 6.02157 19.2 7.5286V16.4715C19.2 17.9785 17.9785 19.2 16.4714 19.2H7.52855C6.02152 19.2 4.8 17.9785 4.8 16.4715V7.5286C4.8 6.02157 6.02152 4.80005 7.52855 4.80005H16.4714ZM16.4094 5.83453H7.59062C6.66124 5.83453 5.90069 6.55701 5.83862 7.47067L5.83449 7.59067V16.4094C5.83449 17.3388 6.55697 18.0994 7.47062 18.1614L7.59062 18.1656H16.4094C17.3388 18.1656 18.0993 17.4431 18.1614 16.5294L18.1655 16.4094V7.59067C18.1655 6.66129 17.443 5.90074 16.5294 5.83867L16.4094 5.83453ZM15.2814 7.9035C15.7316 7.9035 16.0966 8.26846 16.0966 8.71867V12.6605C16.0966 13.1098 15.7316 13.4756 15.2814 13.4756H12.8731C12.6513 13.4756 12.451 13.3871 12.3037 13.2439C12.1523 13.0958 12.0579 12.8889 12.0579 12.6605V8.71867C12.0579 8.26846 12.4221 7.9035 12.8731 7.9035H15.2814Z" fill="black"/>
</svg>
