<?xml version="1.0" encoding="UTF-8" standalone="no"?>
<svg
   width="14.4"
   height="14.39995"
   viewBox="0 0 14.4 14.39995"
   fill="none"
   version="1.1"
   id="svg1634"
   sodipodi:docname="pip.svg"
   xmlns:inkscape="http://www.inkscape.org/namespaces/inkscape"
   xmlns:sodipodi="http://sodipodi.sourceforge.net/DTD/sodipodi-0.dtd"
   xmlns="http://www.w3.org/2000/svg"
   xmlns:svg="http://www.w3.org/2000/svg">
  <defs
     id="defs1638" />
  <sodipodi:namedview
     id="namedview1636"
     pagecolor="#ffffff"
     bordercolor="#666666"
     borderopacity="1.0"
     inkscape:showpageshadow="2"
     inkscape:pageopacity="0.0"
     inkscape:pagecheckerboard="0"
     inkscape:deskcolor="#d1d1d1" />
  <path
     d="M 11.6714,0 C 13.1785,0 14.4,1.22152 14.4,2.72855 v 8.9429 c 0,1.507 -1.2215,2.7285 -2.7286,2.7285 H 2.72855 C 1.22152,14.39995 0,13.17845 0,11.67145 V 2.72855 C 0,1.22152 1.22152,0 2.72855,0 Z m -0.062,1.03448 H 2.79062 c -0.92938,0 -1.68993,0.72248 -1.752,1.63614 l -0.00413,0.12 v 8.81873 c 0,0.9294 0.72248,1.69 1.63613,1.752 l 0.12,0.0042 h 8.81878 c 0.9294,0 1.6899,-0.7225 1.752,-1.6362 l 0.0041,-0.12 V 2.79062 c 0,-0.92938 -0.7225,-1.68993 -1.6361,-1.752 z m -1.128,2.06897 c 0.4502,0 0.8152,0.36496 0.8152,0.81517 v 3.94183 c 0,0.4493 -0.365,0.8151 -0.8152,0.8151 H 8.0731 C 7.8513,8.67555 7.651,8.58705 7.5037,8.44385 7.3523,8.29575 7.2579,8.08885 7.2579,7.86045 V 3.91862 c 0,-0.45021 0.3642,-0.81517 0.8152,-0.81517 z"
     fill="#000000"
     id="path1632" />
</svg>
