<svg width="11" height="11" viewBox="0 0 11 11" fill="none" xmlns="http://www.w3.org/2000/svg">
<g clip-path="url(#clip0_1_1056)">
<path d="M8.044 5.99445H5.9925V8.04585C5.9925 8.31765 5.772 8.53825 5.5002 8.53825C5.2284 8.53825 5.0078 8.31765 5.0078 8.04585V5.99445H2.9564C2.6846 5.99445 2.464 5.77385 2.464 5.50205C2.464 5.23025 2.6846 5.00975 2.9564 5.00975H5.0078V2.95825C5.0078 2.68645 5.2284 2.46595 5.5002 2.46595C5.772 2.46595 5.9925 2.68645 5.9925 2.95825V5.00975H8.044C8.3158 5.00975 8.5363 5.23025 8.5363 5.50205C8.5363 5.77385 8.3158 5.99445 8.044 5.99445ZM5.5002 0.00415039C2.4686 0.00415039 0.0023 2.46985 0.0023 5.50205C0.0023 8.53295 2.4686 11 5.5002 11C8.5324 11 10.9981 8.53295 10.9981 5.50205C10.9981 2.46985 8.5324 0.00415039 5.5002 0.00415039Z" fill="black"/>
</g>
<defs>
<clipPath id="clip0_1_1056">
<rect width="11" height="11" fill="white"/>
</clipPath>
</defs>
</svg>
