<?xml version="1.0" encoding="UTF-8" standalone="no"?>
<svg
   width="10.9958"
   height="10.99585"
   viewBox="0 0 10.9958 10.99585"
   fill="none"
   version="1.1"
   id="svg1667"
   sodipodi:docname="plus-circle.svg"
   xmlns:inkscape="http://www.inkscape.org/namespaces/inkscape"
   xmlns:sodipodi="http://sodipodi.sourceforge.net/DTD/sodipodi-0.dtd"
   xmlns="http://www.w3.org/2000/svg"
   xmlns:svg="http://www.w3.org/2000/svg">
  <sodipodi:namedview
     id="namedview1669"
     pagecolor="#ffffff"
     bordercolor="#666666"
     borderopacity="1.0"
     inkscape:showpageshadow="2"
     inkscape:pageopacity="0.0"
     inkscape:pagecheckerboard="0"
     inkscape:deskcolor="#d1d1d1" />
  <g
     clip-path="url(#clip0_1_1056)"
     id="g1660"
     transform="translate(-0.0023,-0.00415039)">
    <path
       d="M 8.044,5.99445 H 5.9925 v 2.0514 c 0,0.2718 -0.2205,0.4924 -0.4923,0.4924 -0.2718,0 -0.4924,-0.2206 -0.4924,-0.4924 V 5.99445 H 2.9564 c -0.2718,0 -0.4924,-0.2206 -0.4924,-0.4924 0,-0.2718 0.2206,-0.4923 0.4924,-0.4923 h 2.0514 v -2.0515 c 0,-0.2718 0.2206,-0.4923 0.4924,-0.4923 0.2718,0 0.4923,0.2205 0.4923,0.4923 v 2.0515 H 8.044 c 0.2718,0 0.4923,0.2205 0.4923,0.4923 0,0.2718 -0.2205,0.4924 -0.4923,0.4924 z M 5.5002,0.00415039 C 2.4686,0.00415039 0.0023,2.46985 0.0023,5.50205 0.0023,8.53295 2.4686,11 5.5002,11 c 3.0322,0 5.4979,-2.46705 5.4979,-5.49795 0,-3.0322 -2.4657,-5.49789961 -5.4979,-5.49789961 z"
       fill="#000000"
       id="path1658" />
  </g>
  <defs
     id="defs1665">
    <clipPath
       id="clip0_1_1056">
      <rect
         width="11"
         height="11"
         fill="#ffffff"
         id="rect1662"
         x="0"
         y="0" />
    </clipPath>
  </defs>
</svg>
