<svg width="24" height="24" viewBox="0 0 24 24" fill="none" xmlns="http://www.w3.org/2000/svg">
<path d="M21.25 16.5V15.84C21.25 14.71 20.22 13.75 19 13.75C17.78 13.75 16.75 14.71 16.75 15.84V16.5H16V22H22V16.5H21.25ZM19.75 16.5H18.25V15.84C18.25 15.55 18.63 15.25 19 15.25C19.37 15.25 19.75 15.55 19.75 15.84V16.5Z" fill="black"/>
<path d="M12 17C8.21 17 4.83 14.87 3.18 11.5C4.83 8.13 8.21 6 12 6C15.79 6 19.17 8.13 20.82 11.5H23C21.27 7.11 17 4 12 4C7 4 2.73 7.11 1 11.5C2.73 15.89 7 19 12 19C12.68 19 13.35 18.94 14 18.83V16.78C13.35 16.91 12.69 17 12 17Z" fill="black"/>
<path d="M16.43 12.23C16.47 11.99 16.5 11.75 16.5 11.5C16.5 9.02 14.48 7 12 7C9.52 7 7.5 9.02 7.5 11.5C7.5 13.98 9.52 16 12 16C12.77 16 13.48 15.79 14.12 15.45C14.41 14.08 15.27 12.93 16.43 12.23ZM12 14.2C10.51 14.2 9.3 12.99 9.3 11.5C9.3 10.01 10.51 8.8 12 8.8C13.49 8.8 14.7 10.01 14.7 11.5C14.7 12.99 13.49 14.2 12 14.2Z" fill="black"/>
</svg>
