<?xml version="1.0" encoding="UTF-8" standalone="no"?>
<svg
   width="22"
   height="18"
   viewBox="0 0 22 18"
   fill="none"
   version="1.1"
   id="svg1684"
   sodipodi:docname="privacy.svg"
   xmlns:inkscape="http://www.inkscape.org/namespaces/inkscape"
   xmlns:sodipodi="http://sodipodi.sourceforge.net/DTD/sodipodi-0.dtd"
   xmlns="http://www.w3.org/2000/svg"
   xmlns:svg="http://www.w3.org/2000/svg">
  <defs
     id="defs1688" />
  <sodipodi:namedview
     id="namedview1686"
     pagecolor="#ffffff"
     bordercolor="#666666"
     borderopacity="1.0"
     inkscape:showpageshadow="2"
     inkscape:pageopacity="0.0"
     inkscape:pagecheckerboard="0"
     inkscape:deskcolor="#d1d1d1" />
  <path
     d="m 20.25,12.5 v -0.66 c 0,-1.13 -1.03,-2.09 -2.25,-2.09 -1.22,0 -2.25,0.96 -2.25,2.09 V 12.5 H 15 V 18 h 6 v -5.5 z m -1.5,0 h -1.5 v -0.66 c 0,-0.29 0.38,-0.59 0.75,-0.59 0.37,0 0.75,0.3 0.75,0.59 z"
     fill="#000000"
     id="path1678" />
  <path
     d="M 11,13 C 7.21,13 3.83,10.87 2.18,7.5 3.83,4.13 7.21,2 11,2 c 3.79,0 7.17,2.13 8.82,5.5 H 22 C 20.27,3.11 16,0 11,0 6,0 1.73,3.11 0,7.5 1.73,11.89 6,15 11,15 c 0.68,0 1.35,-0.06 2,-0.17 V 12.78 C 12.35,12.91 11.69,13 11,13 Z"
     fill="#000000"
     id="path1680" />
  <path
     d="M 15.43,8.23 C 15.47,7.99 15.5,7.75 15.5,7.5 15.5,5.02 13.48,3 11,3 8.52,3 6.5,5.02 6.5,7.5 6.5,9.98 8.52,12 11,12 c 0.77,0 1.48,-0.21 2.12,-0.55 0.29,-1.37 1.15,-2.52 2.31,-3.22 z M 11,10.2 C 9.51,10.2 8.3,8.99 8.3,7.5 8.3,6.01 9.51,4.8 11,4.8 c 1.49,0 2.7,1.21 2.7,2.7 0,1.49 -1.21,2.7 -2.7,2.7 z"
     fill="#000000"
     id="path1682" />
</svg>
