<?xml version="1.0" encoding="UTF-8" standalone="no"?>
<!DOCTYPE svg PUBLIC "-//W3C//DTD SVG 1.1//EN" "http://www.w3.org/Graphics/SVG/1.1/DTD/svg11.dtd">
<!-- Created with Vectornator (http://vectornator.io/) -->
<svg height="100%" stroke-miterlimit="10" style="fill-rule:nonzero;clip-rule:evenodd;stroke-linecap:round;stroke-linejoin:round;" version="1.1" viewBox="0 0 62 62" width="100%" xml:space="preserve" xmlns="http://www.w3.org/2000/svg" xmlns:xlink="http://www.w3.org/1999/xlink">
<defs/>
<g id="Untitled">
<path d="M31.2962 41.2023C30.4616 42.0388 29.3506 42.5 28.1684 42.5C26.9862 42.5 25.8752 42.0388 25.0405 41.2023L14.6256 30.7682C13.5441 29.683 13.5469 27.9278 14.6311 26.8463C15.7153 25.7649 17.4715 25.7676 18.5529 26.8528L28.1684 36.4846L43.4412 21.1755C44.5227 20.0904 46.2779 20.0876 47.3631 21.169C48.4473 22.2505 48.4501 24.0067 47.3686 25.0909L31.2962 41.2023ZM31 0C13.9056 0 0 13.9056 0 31C0 48.0935 13.9056 62 31 62C48.0944 62 62 48.0935 62 31C62 13.9056 48.0944 0 31 0" fill="#000000" fill-rule="nonzero" opacity="1" stroke="none"/>
</g>
</svg>
