<svg width="24" height="24" viewBox="0 0 24 24" fill="none" xmlns="http://www.w3.org/2000/svg">
<path d="M12.1 21.2C7.1 21.2 3 17.1 3 12.1C3 7.1 7.1 3 12.1 3C17.1 3 21.2 7.1 21.2 12.1C21.2 17.2 17.2 21.2 12.1 21.2ZM12.1 4.5C7.9 4.5 4.5 7.9 4.5 12.1C4.5 16.3 7.9 19.7 12.1 19.7C16.3 19.7 19.7 16.3 19.7 12.1C19.8 7.9 16.3 4.5 12.1 4.5Z" fill="black"/>
<path d="M15.6 12.8H12.6C11.9 12.8 11.4 12.2 11.4 11.6V7.8C11.4 7.4 11.7 7 12.1 7C12.5 7 12.9 7.3 12.9 7.8V11.3H15.7C16.1 11.3 16.5 11.6 16.5 12.1C16.5 12.6 16.1 12.8 15.6 12.8Z" fill="black"/>
</svg>
