<?xml version="1.0" encoding="UTF-8" standalone="no"?>
<svg
   width="18.200001"
   height="18.200001"
   viewBox="0 0 18.200001 18.200001"
   fill="none"
   version="1.1"
   id="svg1750"
   sodipodi:docname="recent.svg"
   xmlns:inkscape="http://www.inkscape.org/namespaces/inkscape"
   xmlns:sodipodi="http://sodipodi.sourceforge.net/DTD/sodipodi-0.dtd"
   xmlns="http://www.w3.org/2000/svg"
   xmlns:svg="http://www.w3.org/2000/svg">
  <defs
     id="defs1754" />
  <sodipodi:namedview
     id="namedview1752"
     pagecolor="#ffffff"
     bordercolor="#666666"
     borderopacity="1.0"
     inkscape:showpageshadow="2"
     inkscape:pageopacity="0.0"
     inkscape:pagecheckerboard="0"
     inkscape:deskcolor="#d1d1d1" />
  <path
     d="M 9.1,18.2 C 4.1,18.2 0,14.1 0,9.1 0,4.1 4.1,0 9.1,0 c 5,0 9.1,4.1 9.1,9.1 0,5.1 -4,9.1 -9.1,9.1 z m 0,-16.7 c -4.2,0 -7.6,3.4 -7.6,7.6 0,4.2 3.4,7.6 7.6,7.6 4.2,0 7.6,-3.4 7.6,-7.6 C 16.8,4.9 13.3,1.5 9.1,1.5 Z"
     fill="#000000"
     id="path1746" />
  <path
     d="m 12.6,9.8 h -3 C 8.9,9.8 8.4,9.2 8.4,8.6 V 4.8 C 8.4,4.4 8.7,4 9.1,4 9.5,4 9.9,4.3 9.9,4.8 v 3.5 h 2.8 c 0.4,0 0.8,0.3 0.8,0.8 0,0.5 -0.4,0.7 -0.9,0.7 z"
     fill="#000000"
     id="path1748" />
</svg>
