<svg width="24" height="24" viewBox="0 0 24 24" fill="none" xmlns="http://www.w3.org/2000/svg">
<g clip-path="url(#clip0_1_2658)">
<path d="M17.65 6.34999C16.02 4.71999 13.71 3.77999 11.17 4.03999C7.50001 4.40999 4.48001 7.38999 4.07001 11.06C3.52001 15.91 7.27001 20 12 20C15.19 20 17.93 18.13 19.21 15.43C19.52 14.77 19.05 14 18.32 14H18.31C17.94 14 17.59 14.2 17.43 14.53C16.3 16.96 13.59 18.5 10.62 17.85C8.40001 17.36 6.61001 15.55 6.13001 13.33C5.31001 9.43999 8.26001 5.99999 12 5.99999C13.66 5.99999 15.14 6.68999 16.22 7.77999L13.85 10.15C13.54 10.46 13.76 11 14.21 11H19C19.55 11 20 10.55 20 9.99999V5.20999C20 4.75999 19.46 4.53999 19.15 4.85999L17.65 6.34999Z" fill="black"/>
</g>
<defs>
<clipPath id="clip0_1_2658">
<rect width="24" height="24" fill="white"/>
</clipPath>
</defs>
</svg>
