<svg width="24" height="24" viewBox="0 0 24 24" fill="none" xmlns="http://www.w3.org/2000/svg">
<path d="M20.0463 17.9218C20.0043 12.2638 15.4033 7.65975 9.79129 7.65975H6.30229L8.68229 5.27975C8.97529 4.98675 8.97529 4.51275 8.68229 4.21975C8.38929 3.92675 7.91429 3.92675 7.62129 4.21975L4.31729 7.52375C3.83129 8.00975 3.83129 8.80175 4.31629 9.28875L7.61229 12.5988C7.76029 12.7458 7.95229 12.8188 8.14529 12.8188C8.33629 12.8188 8.52729 12.7468 8.67429 12.6018C8.96729 12.3088 8.96829 11.8337 8.67629 11.5397L6.30529 9.15975H9.79129C14.5823 9.15975 18.5103 13.0957 18.5463 17.9358C18.5473 18.0008 18.5473 19.2258 18.5473 19.2498C18.5473 19.6638 18.8823 19.9998 19.2973 19.9998C19.7113 19.9998 20.0473 19.6638 20.0473 19.2498C20.0473 19.2258 20.0463 17.9378 20.0463 17.9218Z" fill="#252525"/>
</svg>
