<svg width="132" height="132" viewBox="0 0 132 132" fill="none" xmlns="http://www.w3.org/2000/svg">
<path d="M129 66C129 74.2733 127.37 82.4655 124.204 90.1091C121.038 97.7526 116.398 104.698 110.548 110.548C104.698 116.398 97.7526 121.038 90.1091 124.204C82.4655 127.37 74.2733 129 66 129C57.7267 129 49.5345 127.37 41.8909 124.204C34.2474 121.038 27.3024 116.398 21.4523 110.548C15.6022 104.698 10.9616 97.7526 7.79559 90.1091C4.62954 82.4655 3 74.2733 3 66C3 57.7267 4.62954 49.5345 7.79559 41.8909C10.9616 34.2474 15.6022 27.3024 21.4523 21.4523C27.3024 15.6022 34.2474 10.9616 41.8909 7.79559C49.5345 4.62954 57.7267 3 66 3C74.2733 3 82.4655 4.62954 90.1091 7.79559C97.7526 10.9616 104.698 15.6022 110.548 21.4523C116.398 27.3024 121.038 34.2474 124.204 41.8909C127.37 49.5345 129 57.7267 129 66" fill="#FCFCFC"/>
<path d="M84.75 80.4H47.25C46.6533 80.4 46.081 80.163 45.659 79.741C45.2371 79.3191 45 78.7468 45 78.15C45 77.5533 45.2371 76.981 45.659 76.559C46.081 76.1371 46.6533 75.9 47.25 75.9H84.75C85.3467 75.9 85.919 76.1371 86.341 76.559C86.7629 76.981 87 77.5533 87 78.15C87 78.7468 86.7629 79.3191 86.341 79.741C85.919 80.163 85.3467 80.4 84.75 80.4Z" fill="#888888"/>
<path d="M69.27 72.39C67.59 74.16 64.86 74.26 63.06 72.7L62.73 72.39L46.26 55.05C45.35 54.09 45.39 52.57 46.35 51.66C47.22 50.83 48.56 50.79 49.48 51.51L49.74 51.75L66 68.86L82.26 51.75C83.09 50.87 84.42 50.76 85.38 51.43L85.65 51.66C86.53 52.49 86.64 53.82 85.97 54.78L85.74 55.05L69.27 72.39Z" fill="black"/>
</svg>
