<?xml version="1.0" encoding="UTF-8" standalone="no"?>
<svg
   width="28.000021"
   height="28.000021"
   viewBox="0 0 28.000021 28.000021"
   fill="none"
   version="1.1"
   id="svg2255"
   sodipodi:docname="sec_ic_settings_wallpaper.svg"
   xmlns:inkscape="http://www.inkscape.org/namespaces/inkscape"
   xmlns:sodipodi="http://sodipodi.sourceforge.net/DTD/sodipodi-0.dtd"
   xmlns="http://www.w3.org/2000/svg"
   xmlns:svg="http://www.w3.org/2000/svg">
  <sodipodi:namedview
     id="namedview2257"
     pagecolor="#ffffff"
     bordercolor="#666666"
     borderopacity="1.0"
     inkscape:showpageshadow="2"
     inkscape:pageopacity="0.0"
     inkscape:pagecheckerboard="0"
     inkscape:deskcolor="#d1d1d1" />
  <g
     clip-path="url(#clip0_1_1329)"
     id="g2248">
    <path
       d="M 24.856,3.14401 C 23.13,1.52161 20.7739,0.601214 18.1738,0.256914 15.6907,-0.072186 14,0.00881404 14,0.00881404 c 0,0 -1.691,-0.08100004 -4.17421,0.24809996 -2.6,0.3443 -4.956,1.264696 -6.6815,2.887096 -1.6228,1.7258 -2.543099,4.0819 -2.887599,6.6819 -0.3291004,2.48299 -0.2478004,4.17399 -0.2478004,4.17399 0,0 -0.0813,1.6908 0.2478004,4.174 0.3445,2.5998 1.264799,4.9561 2.887399,6.6819 1.7257,1.6226 4.0817,2.5428 6.6817,2.8875 C 12.309,28.0722 14,27.9912 14,27.9912 c 0,0 1.6907,0.081 4.1738,-0.2479 2.6001,-0.3447 4.9562,-1.2649 6.6818,-2.8875 1.623,-1.7258 2.5432,-4.0821 2.8877,-6.6819 0.3289,-2.4832 0.2479,-4.174 0.2479,-4.174 0,0 0.081,-1.691 -0.2479,-4.17399 -0.3445,-2.6 -1.2647,-4.9561 -2.8873,-6.6819 z"
       fill="#f47b9d"
       id="path2244" />
    <path
       d="m 10.6826,10.3856 c 0,-0.70685 0.5729,-1.28065 1.2806,-1.28065 0.7067,0 1.2796,0.5738 1.2796,1.28065 0,0.7067 -0.5729,1.2796 -1.2796,1.2796 -0.7077,0 -1.2806,-0.5729 -1.2806,-1.2796 z m 8.3591,9.1822 c 0,0.4675 -0.429,0.8489 -0.9552,0.8489 h -8.173 c -0.0972,0 -0.9552,-0.0174 -0.9552,-0.6197 v -3.003 l 1.7261,-1.7398 c 0.1824,-0.1705 0.4767,-0.1687 0.6545,0.0055 l 1.3374,1.3044 c 0.1788,0.1751 0.4703,0.1741 0.6481,0 l 3.3752,-3.3083 c 0.1787,-0.1741 0.4656,-0.1714 0.6407,0.0065 l 1.7014,1.7911 z M 7.5833,8.43305 V 19.797 c 0,1.2283 1.0432,1.9947 2.3302,1.9947 h 8.173 c 1.2861,0 2.3302,-0.9955 2.3302,-2.2239 V 8.43305 c 0,-1.2283 -1.0441,-2.2248 -2.3302,-2.2248 h -8.173 c -1.287,0 -2.3302,0.9965 -2.3302,2.2248 z"
       fill="#ffffff"
       id="path2246" />
  </g>
  <defs
     id="defs2253">
    <clipPath
       id="clip0_1_1329">
      <rect
         width="28"
         height="28"
         fill="#ffffff"
         id="rect2250"
         x="0"
         y="0" />
    </clipPath>
  </defs>
</svg>
