<?xml version="1.0" encoding="UTF-8" standalone="no"?>
<svg
   width="28.000021"
   height="28.000021"
   viewBox="0 0 28.000021 28.000021"
   fill="none"
   version="1.1"
   id="svg1979"
   sodipodi:docname="sec_ic_settings_devicecare.svg"
   xmlns:inkscape="http://www.inkscape.org/namespaces/inkscape"
   xmlns:sodipodi="http://sodipodi.sourceforge.net/DTD/sodipodi-0.dtd"
   xmlns="http://www.w3.org/2000/svg"
   xmlns:svg="http://www.w3.org/2000/svg">
  <sodipodi:namedview
     id="namedview1981"
     pagecolor="#ffffff"
     bordercolor="#666666"
     borderopacity="1.0"
     inkscape:showpageshadow="2"
     inkscape:pageopacity="0.0"
     inkscape:pagecheckerboard="0"
     inkscape:deskcolor="#d1d1d1" />
  <g
     clip-path="url(#clip0_1_1419)"
     id="g1972">
    <path
       d="M 24.856,3.14401 C 23.13,1.52161 20.7739,0.601214 18.1738,0.256914 15.6907,-0.072186 14,0.00881404 14,0.00881404 c 0,0 -1.691,-0.08100004 -4.17421,0.24809996 -2.6,0.3443 -4.956,1.264696 -6.6815,2.887096 -1.6228,1.7258 -2.543099,4.0819 -2.887599,6.6819 -0.3291004,2.48299 -0.2478004,4.17399 -0.2478004,4.17399 0,0 -0.0813,1.6908 0.2478004,4.174 0.3445,2.5998 1.264799,4.9561 2.887399,6.6819 1.7257,1.6226 4.0817,2.5428 6.6817,2.8875 C 12.309,28.0722 14,27.9912 14,27.9912 c 0,0 1.6907,0.081 4.1738,-0.2479 2.6001,-0.3447 4.9562,-1.2649 6.6818,-2.8875 1.623,-1.7258 2.5432,-4.0821 2.8877,-6.6819 0.3289,-2.4832 0.2479,-4.174 0.2479,-4.174 0,0 0.081,-1.691 -0.2479,-4.17399 -0.3445,-2.6 -1.2647,-4.9561 -2.8873,-6.6819 z"
       fill="#05bba5"
       id="path1968" />
    <path
       d="m 11.7894,5.48392 c 0.468,-0.124 0.946,0.155 1.069,0.623 0.124,0.467 -0.155,0.945 -0.622,1.069 -2.67101,0.705 -4.66501,2.92398 -5.08101,5.65498 -0.278,1.828 0.172,3.655 1.268,5.145 1.095,1.49 2.70601,2.464 4.53401,2.742 2.831,0.431 5.676,-0.955 7.08,-3.448 0.236,-0.422 0.77,-0.571 1.191,-0.334 0.421,0.237 0.571,0.771 0.333,1.192 -1.544,2.745 -4.482,4.418 -7.577,4.418 -0.428,0 -0.86,-0.032 -1.29,-0.098 -2.291,-0.349 -4.30801,-1.568 -5.68101,-3.435 -1.373,-1.866 -1.937,-4.155 -1.588,-6.446 0.521,-3.41998 3.019,-6.19998 6.36401,-7.08298 z m 2.6303,4.67588 c 2.015,0 3.654,1.639 3.654,3.654 0,2.014 -1.639,3.653 -3.654,3.653 -1.994,0 -3.617,-1.605 -3.65,-3.591 l -0.218,0.217 c -0.146,0.147 -0.338,0.22 -0.53,0.22 -0.19201,0 -0.38401,-0.073 -0.53001,-0.22 -0.293,-0.293 -0.293,-0.768 0,-1.06 l 1.31201,-1.313 c 0.452,-0.452 1.187,-0.452 1.639,0 l 1.311,1.31 c 0.293,0.293 0.293,0.769 0,1.061 -0.293,0.293 -0.768,0.293 -1.061,0 l -0.426,-0.426 v 0.149 c 0,1.187 0.966,2.153 2.153,2.153 1.188,0 2.154,-0.966 2.154,-2.153 0,-1.187 -0.966,-2.154 -2.154,-2.154 -0.414,0 -0.75,-0.336 -0.75,-0.75 0,-0.414 0.336,-0.75 0.75,-0.75 z m 0.7152,-4.05188 c 0.123,-0.467 0.6,-0.747 1.068,-0.625 3.878,1.014 6.598,4.65698 6.468,8.66298 -0.015,0.473 -0.404,0.846 -0.874,0.846 h -0.029 c -0.483,-0.016 -0.862,-0.42 -0.846,-0.904 0.104,-3.196 -2.067,-6.10298 -5.161,-6.91198 -0.468,-0.122 -0.748,-0.6 -0.626,-1.068 z"
       fill="#ffffff"
       id="path1970" />
  </g>
  <defs
     id="defs1977">
    <clipPath
       id="clip0_1_1419">
      <rect
         width="28"
         height="28"
         fill="#ffffff"
         id="rect1974"
         x="0"
         y="0" />
    </clipPath>
  </defs>
</svg>
