<svg width="28" height="28" viewBox="0 0 28 28" fill="none" xmlns="http://www.w3.org/2000/svg">
<g clip-path="url(#clip0_1_1453)">
<path d="M24.856 3.14401C23.13 1.52161 20.7739 0.601214 18.1738 0.256914C15.6907 -0.072186 14 0.00881404 14 0.00881404C14 0.00881404 12.309 -0.072186 9.82579 0.256914C7.22579 0.601214 4.86979 1.52161 3.14429 3.14401C1.52149 4.86981 0.601191 7.22591 0.256691 9.82591C-0.0724094 12.3089 0.0088906 13.9999 0.0088906 13.9999C0.0088906 13.9999 -0.0724094 15.6907 0.256691 18.1739C0.601191 20.7737 1.52149 23.13 3.14409 24.8558C4.86979 26.4784 7.22579 27.3986 9.82579 27.7433C12.309 28.0722 14 27.9912 14 27.9912C14 27.9912 15.6907 28.0722 18.1738 27.7433C20.7739 27.3986 23.13 26.4784 24.8556 24.8558C26.4786 23.13 27.3988 20.7737 27.7433 18.1739C28.0722 15.6907 27.9912 13.9999 27.9912 13.9999C27.9912 13.9999 28.0722 12.3089 27.7433 9.82591C27.3988 7.22591 26.4786 4.86981 24.856 3.14401Z" fill="#4772E6"/>
<path d="M14 19.3168C12.4059 19.3168 10.986 18.5779 10.062 17.4248C10.4653 15.6208 12.0741 14.2724 14 14.2724C15.925 14.2724 17.5337 15.6208 17.9371 17.4248C17.0122 18.5779 15.5932 19.3168 14 19.3168ZM13.9862 9.2628C15.0157 9.2628 15.8507 10.0978 15.8507 11.1273C15.8507 12.1567 15.0157 12.9918 13.9862 12.9918C12.9559 12.9918 12.1217 12.1567 12.1217 11.1273C12.1217 10.0978 12.9559 9.2628 13.9862 9.2628ZM14 6.323C9.75951 6.323 6.32291 9.7596 6.32291 14.0001C6.32291 18.2397 9.75951 21.6772 14 21.6772C18.2405 21.6772 21.6771 18.2397 21.6771 14.0001C21.6771 9.7596 18.2405 6.323 14 6.323Z" fill="white"/>
</g>
<defs>
<clipPath id="clip0_1_1453">
<rect width="28" height="28" fill="white"/>
</clipPath>
</defs>
</svg>
