<?xml version="1.0" encoding="UTF-8" standalone="no"?>
<svg
   width="28.000021"
   height="28.000021"
   viewBox="0 0 28.000021 28.000021"
   fill="none"
   version="1.1"
   id="svg2025"
   sodipodi:docname="sec_ic_settings_emergency.svg"
   xmlns:inkscape="http://www.inkscape.org/namespaces/inkscape"
   xmlns:sodipodi="http://sodipodi.sourceforge.net/DTD/sodipodi-0.dtd"
   xmlns="http://www.w3.org/2000/svg"
   xmlns:svg="http://www.w3.org/2000/svg">
  <sodipodi:namedview
     id="namedview2027"
     pagecolor="#ffffff"
     bordercolor="#666666"
     borderopacity="1.0"
     inkscape:showpageshadow="2"
     inkscape:pageopacity="0.0"
     inkscape:pagecheckerboard="0"
     inkscape:deskcolor="#d1d1d1" />
  <g
     clip-path="url(#clip0_1_1405)"
     id="g2018">
    <path
       d="M 24.856,3.14401 C 23.13,1.52161 20.7739,0.601214 18.1738,0.256914 15.6907,-0.072186 14,0.00881404 14,0.00881404 c 0,0 -1.691,-0.08100004 -4.17421,0.24809996 -2.6,0.3443 -4.956,1.264696 -6.6815,2.887096 -1.6228,1.7258 -2.543099,4.0819 -2.887599,6.6819 -0.3291004,2.48299 -0.2478004,4.17399 -0.2478004,4.17399 0,0 -0.0813,1.6908 0.2478004,4.174 0.3445,2.5998 1.264799,4.9561 2.887399,6.6819 1.7257,1.6226 4.0817,2.5428 6.6817,2.8875 C 12.309,28.0722 14,27.9912 14,27.9912 c 0,0 1.6907,0.081 4.1738,-0.2479 2.6001,-0.3447 4.9562,-1.2649 6.6818,-2.8875 1.623,-1.7258 2.5432,-4.0821 2.8877,-6.6819 0.3289,-2.4832 0.2479,-4.174 0.2479,-4.174 0,0 0.081,-1.691 -0.2479,-4.17399 -0.3445,-2.6 -1.2647,-4.9561 -2.8873,-6.6819 z"
       fill="#ee7567"
       id="path2014" />
    <path
       d="m 13.3125,14.1361 v -3.3916 c 0,-0.3795 0.308,-0.6875 0.6875,-0.6875 0.3795,0 0.6875,0.308 0.6875,0.6875 v 3.3916 c 0,0.3795 -0.308,0.6875 -0.6875,0.6875 -0.3795,0 -0.6875,-0.308 -0.6875,-0.6875 z m 0.6866,2.0506 c 0.5069,0 0.9176,0.4107 0.9176,0.9167 0,0.5069 -0.4107,0.9166 -0.9176,0.9166 -0.506,0 -0.9158,-0.4097 -0.9158,-0.9166 0,-0.506 0.4098,-0.9167 0.9158,-0.9167 z m 7.0464,3.1414 H 19.9079 L 18.7016,9.21908 c -0.1274,-1.0606 -1.0973,-1.9222 -2.1643,-1.9222 h -5.0737 c -1.067,0 -2.0378,0.8616 -2.1643,1.9222 L 8.0921,19.3281 H 6.9545 c -0.3795,0 -0.6875,0.308 -0.6875,0.6875 0,0.3795 0.308,0.6875 0.6875,0.6875 h 14.091 c 0.3795,0 0.6875,-0.308 0.6875,-0.6875 0,-0.3795 -0.308,-0.6875 -0.6875,-0.6875 z"
       fill="#ffffff"
       id="path2016" />
  </g>
  <defs
     id="defs2023">
    <clipPath
       id="clip0_1_1405">
      <rect
         width="28"
         height="28"
         fill="#ffffff"
         id="rect2020"
         x="0"
         y="0" />
    </clipPath>
  </defs>
</svg>
