<?xml version="1.0" encoding="UTF-8" standalone="no"?>
<svg
   width="20.237"
   height="16.333401"
   viewBox="0 0 20.237 16.333401"
   fill="none"
   version="1.1"
   id="svg2269"
   sodipodi:docname="sec_ic_storage_game.svg"
   xmlns:inkscape="http://www.inkscape.org/namespaces/inkscape"
   xmlns:sodipodi="http://sodipodi.sourceforge.net/DTD/sodipodi-0.dtd"
   xmlns="http://www.w3.org/2000/svg"
   xmlns:svg="http://www.w3.org/2000/svg">
  <defs
     id="defs2273" />
  <sodipodi:namedview
     id="namedview2271"
     pagecolor="#ffffff"
     bordercolor="#666666"
     borderopacity="1.0"
     inkscape:showpageshadow="2"
     inkscape:pageopacity="0.0"
     inkscape:pagecheckerboard="0"
     inkscape:deskcolor="#d1d1d1" />
  <path
     d="m 15.7255,9.5434 c -0.7397,0 -1.337,-0.602 -1.337,-1.344 0,-0.7432 0.5973,-1.3452 1.337,-1.3452 0.7385,0 1.337,0.602 1.337,1.3452 0,0.742 -0.5985,1.344 -1.337,1.344 z M 12.768,6.3362 c -0.7373,0 -1.337,-0.602 -1.337,-1.3452 0,-0.742 0.5997,-1.344 1.337,-1.344 0.7397,0 1.337,0.602 1.337,1.344 0,0.7432 -0.5973,1.3452 -1.337,1.3452 z M 8.4863,7.1704 H 7.028 v 1.4583 c 0,0.483 -0.392,0.875 -0.875,0.875 -0.4842,0 -0.875,-0.392 -0.875,-0.875 V 7.1704 H 3.8197 c -0.4842,0 -0.875,-0.392 -0.875,-0.875 0,-0.483 0.3908,-0.875 0.875,-0.875 H 5.278 V 3.962 c 0,-0.483 0.3908,-0.875 0.875,-0.875 0.483,0 0.875,0.392 0.875,0.875 v 1.4584 h 1.4583 c 0.483,0 0.875,0.392 0.875,0.875 0,0.483 -0.392,0.875 -0.875,0.875 z M 20.237,7.2427 C 20.237,3.2492 16.989,0 12.9955,0 H 7.2415 C 3.248,0 0,3.2492 0,7.2427 v 6.3653 c 0,1.6835 1.4198,2.7254 2.7358,2.7254 0.6814,0 1.3382,-0.2637 1.8469,-0.742 l 3.1838,-2.989 h 4.7028 l 3.1839,2.989 c 0.5168,0.4865 1.1561,0.742 1.8468,0.742 1.3172,0 2.737,-1.0419 2.737,-2.7254 z"
     fill="#000000"
     id="path2267" />
</svg>
