<?xml version="1.0" encoding="UTF-8" standalone="no"?>
<svg
   width="28.000021"
   height="28.000021"
   viewBox="0 0 28.000021 28.000021"
   fill="none"
   version="1.1"
   id="svg1884"
   sodipodi:docname="sec_ic_32_system.svg"
   xmlns:inkscape="http://www.inkscape.org/namespaces/inkscape"
   xmlns:sodipodi="http://sodipodi.sourceforge.net/DTD/sodipodi-0.dtd"
   xmlns="http://www.w3.org/2000/svg"
   xmlns:svg="http://www.w3.org/2000/svg">
  <sodipodi:namedview
     id="namedview1886"
     pagecolor="#ffffff"
     bordercolor="#666666"
     borderopacity="1.0"
     inkscape:showpageshadow="2"
     inkscape:pageopacity="0.0"
     inkscape:pagecheckerboard="0"
     inkscape:deskcolor="#d1d1d1" />
  <g
     clip-path="url(#clip0_1_1493)"
     id="g1877">
    <path
       d="M 24.856,3.14401 C 23.13,1.52161 20.7739,0.601214 18.1738,0.256914 15.6907,-0.072186 14,0.00881404 14,0.00881404 c 0,0 -1.691,-0.08100004 -4.17421,0.24809996 -2.6,0.3443 -4.956,1.264696 -6.6815,2.887096 -1.6228,1.7258 -2.543099,4.0819 -2.887599,6.6819 -0.3291004,2.48299 -0.2478004,4.17399 -0.2478004,4.17399 0,0 -0.0813,1.6908 0.2478004,4.174 0.3445,2.5998 1.264799,4.9561 2.887399,6.6819 1.7257,1.6226 4.0817,2.5428 6.6817,2.8875 C 12.309,28.0722 14,27.9912 14,27.9912 c 0,0 1.6907,0.081 4.1738,-0.2479 2.6001,-0.3447 4.9562,-1.2649 6.6818,-2.8875 1.623,-1.7258 2.5432,-4.0821 2.8877,-6.6819 0.3289,-2.4832 0.2479,-4.174 0.2479,-4.174 0,0 0.081,-1.691 -0.2479,-4.17399 -0.3445,-2.6 -1.2647,-4.9561 -2.8873,-6.6819 z"
       fill="#5d7e95"
       id="path1873" />
    <path
       d="M 20.9551,8.84871 17.8562,11.9475 16.0525,10.144 19.1516,7.04471 c -1.7854,-0.9995 -4.0842,-0.7439 -5.6035,0.7747 -1.2979,1.2974 -1.6714,3.16529 -1.1307,4.79529 l -5.3546,5.3554 c -0.8193,0.8193 -0.8198,2.1479 -3e-4,2.9672 0.8196,0.8197 2.1486,0.8195 2.9675,-3e-4 l 5.3551,-5.3546 c 1.6304,0.5409 3.4984,0.1674 4.796,-1.1302 1.5186,-1.5189 1.7737,-3.817 0.774,-5.60349 z"
       fill="#ffffff"
       id="path1875" />
  </g>
  <defs
     id="defs1882">
    <clipPath
       id="clip0_1_1493">
      <rect
         width="28"
         height="28"
         fill="#ffffff"
         id="rect1879"
         x="0"
         y="0" />
    </clipPath>
  </defs>
</svg>
