<svg id="vector" xmlns="http://www.w3.org/2000/svg" width="28.0d" height="28.0d" viewBox="0 0 28.0 28.0"><path fill="@color/sec_dashboard_lock_screen_security_color" d="M24.856,3.144C23.13,1.5216 20.7739,0.6012 18.1738,0.2569C15.6907,-0.0722 14,0.0088 14,0.0088C14,0.0088 12.309,-0.0722 9.8258,0.2569C7.2258,0.6012 4.8698,1.5216 3.1443,3.144C1.5215,4.8698 0.6012,7.2259 0.2567,9.8259C-0.0724,12.3089 0.0089,13.9999 0.0089,13.9999C0.0089,13.9999 -0.0724,15.6907 0.2567,18.1739C0.6012,20.7737 1.5215,23.13 3.1441,24.8558C4.8698,26.4784 7.2258,27.3986 9.8258,27.7433C12.309,28.0722 14,27.9912 14,27.9912C14,27.9912 15.6907,28.0722 18.1738,27.7433C20.7739,27.3986 23.13,26.4784 24.8556,24.8558C26.4786,23.13 27.3988,20.7737 27.7433,18.1739C28.0722,15.6907 27.9912,13.9999 27.9912,13.9999C27.9912,13.9999 28.0722,12.3089 27.7433,9.8259C27.3988,7.2259 26.4786,4.8698 24.856,3.144Z" stroke="#00000000" stroke-width="1.0" fill-rule="evenodd" id="path_0"/><path fill="#ffffffff" d="M18.3092,11.6313L18.3092,11.6313L18.2134,9.0437C18.2134,6.6479 16.2967,4.7312 13.9967,4.7312C11.6967,4.7312 9.78,6.6479 9.78,9.0437L9.78,11.6313L9.6842,11.6313C8.5342,11.6313 7.5759,12.5896 7.5759,13.7396L7.5759,20.1604C7.5759,21.3104 8.5342,22.2687 9.6842,22.2687L18.3092,22.2687C19.4592,22.2687 20.4175,21.3104 20.4175,20.1604L20.4175,13.7396C20.5134,12.5896 19.555,11.6313 18.3092,11.6313ZM12.8467,15.8479C12.8467,15.1771 13.4217,14.6021 14.0925,14.6021C14.7634,14.6021 15.3384,15.1771 15.3384,15.8479C15.3384,16.2313 15.1467,16.6146 14.8592,16.8062L14.8592,18.8188C14.8592,19.2021 14.5717,19.5854 14.0925,19.5854C13.6134,19.5854 13.3259,19.2979 13.3259,18.8188L13.3259,16.8062C13.0384,16.6146 12.8467,16.2313 12.8467,15.8479ZM11.2175,8.9479C11.2175,7.3187 12.4634,6.0729 13.9967,6.0729C15.53,6.0729 16.7759,7.3187 16.7759,8.9479L16.7759,11.5354L11.2175,11.5354L11.2175,8.9479Z" stroke="#00000000" stroke-width="1.0" fill-rule="nonzero" id="path_1"/></svg>