<svg width="24" height="24" viewBox="0 0 24 24" fill="none" xmlns="http://www.w3.org/2000/svg">
<path d="M20.3656 4.02093C19.9506 3.40693 19.1186 3.19693 18.2786 3.53793L4.6116 9.27793C3.8216 9.60293 3.3586 10.1289 3.3736 10.6849C3.3826 10.9859 3.5396 11.5399 4.5096 11.8769L9.4246 13.5179L13.6406 9.30193C13.9326 9.00893 14.4076 9.00893 14.7006 9.30193C14.9936 9.59493 14.9936 10.0699 14.7006 10.3629L10.4856 14.5789L12.1326 19.4889C12.4846 20.5139 13.0986 20.6249 13.3466 20.6249C13.8986 20.6249 14.4016 20.1749 14.7246 19.3909L20.4626 5.71393C20.7116 5.09893 20.6756 4.48193 20.3656 4.02093Z" fill="#252525"/>
</svg>
