<svg width="24" height="24" viewBox="0 0 24 24" fill="none" xmlns="http://www.w3.org/2000/svg">
<path d="M16.0331 13.8922C17.4665 13.8922 18.636 15.0073 18.7081 16.4088L20.5714 16.4091C20.8081 16.4091 21 16.6088 21 16.855C21 17.0704 20.8531 17.2502 20.6578 17.2918L20.5714 17.3008L18.6017 17.3014C18.2736 18.3994 17.2481 19.2 16.0331 19.2C14.8188 19.2 13.7928 18.3994 13.4645 17.3014L3.42862 17.3008C3.19192 17.3008 3 17.1013 3 16.855C3 16.6395 3.14693 16.4598 3.34223 16.4183L3.42862 16.4091L13.359 16.409L13.3607 16.3644C13.455 14.9839 14.6157 13.8922 16.0331 13.8922ZM7.92188 5.4C9.35479 5.4 10.5255 6.5155 10.597 7.91757L20.5714 7.9169C20.8081 7.9169 21 8.11653 21 8.36275C21 8.5782 20.8531 8.75799 20.6578 8.79956L20.5714 8.80859L10.4905 8.80915C10.1622 9.90715 9.1362 10.7077 7.92188 10.7077C6.70687 10.7077 5.68144 9.90715 5.35327 8.80915L3.42862 8.80859C3.19192 8.80859 3 8.60896 3 8.36275C3 8.14729 3.14693 7.96751 3.34223 7.92593L3.42862 7.9169L5.24775 7.91679L5.24955 7.87221C5.34371 6.49154 6.5037 5.4 7.92188 5.4Z" fill="black"/>
</svg>
