<?xml version="1.0" encoding="UTF-8" standalone="no"?>
<svg
   width="18"
   height="13.8"
   viewBox="0 0 18 13.8"
   fill="none"
   version="1.1"
   id="svg2305"
   sodipodi:docname="sliders.svg"
   xmlns:inkscape="http://www.inkscape.org/namespaces/inkscape"
   xmlns:sodipodi="http://sodipodi.sourceforge.net/DTD/sodipodi-0.dtd"
   xmlns="http://www.w3.org/2000/svg"
   xmlns:svg="http://www.w3.org/2000/svg">
  <defs
     id="defs2309" />
  <sodipodi:namedview
     id="namedview2307"
     pagecolor="#ffffff"
     bordercolor="#666666"
     borderopacity="1.0"
     inkscape:showpageshadow="2"
     inkscape:pageopacity="0.0"
     inkscape:pagecheckerboard="0"
     inkscape:deskcolor="#d1d1d1" />
  <path
     d="m 13.0331,8.4922 c 1.4334,0 2.6029,1.1151 2.675,2.5166 l 1.8633,3e-4 c 0.2367,0 0.4286,0.1997 0.4286,0.4459 0,0.2154 -0.1469,0.3952 -0.3422,0.4368 l -0.0864,0.009 -1.9697,6e-4 c -0.3281,1.098 -1.3536,1.8986 -2.5686,1.8986 -1.2143,0 -2.2403,-0.8006 -2.5686,-1.8986 L 0.42862,11.9008 C 0.19192,11.9008 0,11.7013 0,11.455 0,11.2395 0.14693,11.0598 0.34223,11.0183 L 0.42862,11.0091 10.359,11.009 10.3607,10.9644 C 10.455,9.5839 11.6157,8.4922 13.0331,8.4922 Z M 4.92188,0 C 6.35479,0 7.5255,1.1155 7.597,2.51757 L 17.5714,2.5169 C 17.8081,2.5169 18,2.71653 18,2.96275 18,3.1782 17.8531,3.35799 17.6578,3.39956 L 17.5714,3.40859 7.4905,3.40915 C 7.1622,4.50715 6.1362,5.3077 4.92188,5.3077 3.70687,5.3077 2.68144,4.50715 2.35327,3.40915 L 0.42862,3.40859 C 0.19192,3.40859 0,3.20896 0,2.96275 0,2.74729 0.14693,2.56751 0.34223,2.52593 L 0.42862,2.5169 2.24775,2.51679 2.24955,2.47221 C 2.34371,1.09154 3.5037,0 4.92188,0 Z"
     fill="#000000"
     id="path2303" />
</svg>
