<svg width="24" height="24" viewBox="0 0 24 24" fill="none" xmlns="http://www.w3.org/2000/svg">
<path d="M12.001 19.9539C16.386 19.9539 19.953 16.3859 19.953 11.9999C19.953 7.61491 16.386 4.04791 12.001 4.04791C7.615 4.04791 4.047 7.61491 4.047 11.9999C4.047 16.3859 7.615 19.9539 12.001 19.9539ZM12.001 2.48291C17.248 2.48291 21.518 6.75291 21.518 11.9999C21.518 17.2479 17.248 21.5169 12.001 21.5169C6.752 21.5169 2.482 17.2479 2.482 11.9999C2.482 6.75291 6.752 2.48291 12.001 2.48291ZM8.883 11.0309C8.291 11.0309 7.813 10.5509 7.813 9.95891C7.813 9.36491 8.291 8.88491 8.883 8.88491C9.476 8.88491 9.957 9.36491 9.957 9.95891C9.957 10.5509 9.476 11.0309 8.883 11.0309ZM16.089 12.8439C16.49 13.0039 16.687 13.4579 16.528 13.8599C15.787 15.7309 14.01 16.9389 12.001 16.9389C9.992 16.9389 8.215 15.7309 7.474 13.8599C7.315 13.4589 7.51 13.0039 7.912 12.8439C8.315 12.6859 8.769 12.8809 8.928 13.2829C9.432 14.5529 10.638 15.3739 12.001 15.3739C13.364 15.3739 14.57 14.5529 15.073 13.2829C15.233 12.8819 15.688 12.6859 16.089 12.8439ZM15.244 8.87891C15.689 8.86691 16.534 9.02691 17.222 10.2769C17.395 10.5919 17.281 10.9879 16.966 11.1619C16.65 11.3359 16.254 11.2219 16.08 10.9059C15.781 10.3629 15.481 10.1799 15.286 10.1829C15.069 10.1899 14.813 10.4519 14.617 10.8689C14.506 11.1059 14.271 11.2429 14.026 11.2429C13.933 11.2429 13.839 11.2239 13.749 11.1819C13.424 11.0279 13.284 10.6399 13.436 10.3149C14.009 9.09791 14.815 8.89291 15.244 8.87891Z" fill="black"/>
</svg>
