<?xml version="1.0" encoding="UTF-8" standalone="no"?>
<svg
   width="18.5"
   height="17.999983"
   viewBox="0 0 18.5 17.999983"
   fill="none"
   version="1.1"
   id="svg2354"
   sodipodi:docname="sms.svg"
   xmlns:inkscape="http://www.inkscape.org/namespaces/inkscape"
   xmlns:sodipodi="http://sodipodi.sourceforge.net/DTD/sodipodi-0.dtd"
   xmlns="http://www.w3.org/2000/svg"
   xmlns:svg="http://www.w3.org/2000/svg">
  <defs
     id="defs2358" />
  <sodipodi:namedview
     id="namedview2356"
     pagecolor="#ffffff"
     bordercolor="#666666"
     borderopacity="1.0"
     inkscape:showpageshadow="2"
     inkscape:pageopacity="0.0"
     inkscape:pagecheckerboard="0"
     inkscape:deskcolor="#d1d1d1" />
  <path
     d="M 9.25,0 C 4.14133,0 0,3.58167 0,8 c 0,2.7137 1.56333,5.1097 3.95233,6.5563 0.10534,1.117 -0.39966,2.173 -0.84266,2.8597 -0.18834,0.2923 0.08033,0.6653 0.414,0.5683 C 4.48667,17.7047 6.012,17.103 7.5613,15.8647 8.109,15.9517 8.6727,16 9.25,16 14.3587,16 18.5,12.4183 18.5,8 18.5,3.58167 14.3587,0 9.25,0 Z"
     fill="#ffffff"
     id="path2350" />
  <path
     d="M 9.25,0 C 4.14133,0 0,3.58167 0,8 c 0,2.7137 1.56333,5.1097 3.95233,6.5563 0.10534,1.117 -0.39966,2.173 -0.84266,2.8597 -0.18834,0.2923 0.08033,0.6653 0.414,0.5683 C 4.48667,17.7047 6.012,17.103 7.5613,15.8647 8.109,15.9517 8.6727,16 9.25,16 14.3587,16 18.5,12.4183 18.5,8 18.5,3.58167 14.3587,0 9.25,0 Z"
     fill="#000000"
     id="path2352" />
</svg>
