<svg width="24" height="24" viewBox="0 0 24 24" fill="none" xmlns="http://www.w3.org/2000/svg">
<path d="M12 3C6.89133 3 2.75 6.58167 2.75 11C2.75 13.7137 4.31333 16.1097 6.70233 17.5563C6.80767 18.6733 6.30267 19.7293 5.85967 20.416C5.67133 20.7083 5.94 21.0813 6.27367 20.9843C7.23667 20.7047 8.762 20.103 10.3113 18.8647C10.859 18.9517 11.4227 19 12 19C17.1087 19 21.25 15.4183 21.25 11C21.25 6.58167 17.1087 3 12 3Z" fill="white"/>
<path d="M12 3C6.89133 3 2.75 6.58167 2.75 11C2.75 13.7137 4.31333 16.1097 6.70233 17.5563C6.80767 18.6733 6.30267 19.7293 5.85967 20.416C5.67133 20.7083 5.94 21.0813 6.27367 20.9843C7.23667 20.7047 8.762 20.103 10.3113 18.8647C10.859 18.9517 11.4227 19 12 19C17.1087 19 21.25 15.4183 21.25 11C21.25 6.58167 17.1087 3 12 3Z" fill="black"/>
</svg>
