<?xml version="1.0" encoding="UTF-8" standalone="no"?>
<svg
   id="vector"
   width="20.528301"
   height="15.75"
   viewBox="0 0 20.528301 15.75"
   version="1.1"
   sodipodi:docname="sort.svg"
   xmlns:inkscape="http://www.inkscape.org/namespaces/inkscape"
   xmlns:sodipodi="http://sodipodi.sourceforge.net/DTD/sodipodi-0.dtd"
   xmlns="http://www.w3.org/2000/svg"
   xmlns:svg="http://www.w3.org/2000/svg">
  <defs
     id="defs2369" />
  <sodipodi:namedview
     id="namedview2367"
     pagecolor="#ffffff"
     bordercolor="#666666"
     borderopacity="1.0"
     inkscape:showpageshadow="2"
     inkscape:pageopacity="0.0"
     inkscape:pagecheckerboard="0"
     inkscape:deskcolor="#d1d1d1" />
  <path
     fill="#ff909090"
     d="m 3.5117006,0 c 0.414,0 0.75,0.336 0.75,0.75 v 0 V 15 c 0,0.296 -0.174,0.563 -0.4421,0.685 -0.0989,0.044 -0.2039,0.065 -0.3079,0.065 -0.181,0 -0.358,-0.064 -0.4981,-0.189 v 0 L 0.25170062,13.107 c -0.309,-0.275 -0.338,-0.749 -0.062,-1.058 0.275,-0.311 0.749,-0.338 1.05799998,-0.063 v 0 l 1.514,1.344 V 0.75 c 0,-0.414 0.336,-0.75 0.75,-0.75 z m 9.1226004,13.6377 c 0.415,0 0.75,0.336 0.75,0.75 0,0.414 -0.335,0.75 -0.75,0.75 v 0 H 8.0283006 c -0.414,0 -0.75,-0.336 -0.75,-0.75 0,-0.414 0.336,-0.75 0.75,-0.75 v 0 z m 2.1323,-6.4434 c 0.414,0 0.75,0.336 0.75,0.75 0,0.414 -0.336,0.75 -0.75,0.75 v 0 H 8.0286006 c -0.414,0 -0.75,-0.336 -0.75,-0.75 0,-0.414 0.336,-0.75 0.75,-0.75 v 0 z m 5.0117,-6.4443 c 0.414,0 0.75,0.336 0.75,0.75 0,0.414 -0.336,0.75 -0.75,0.75 v 0 H 8.0283006 c -0.414,0 -0.75,-0.336 -0.75,-0.75 0,-0.414 0.336,-0.75 0.75,-0.75 v 0 z"
     stroke="#00000000"
     stroke-width="1"
     fill-rule="nonzero"
     id="path_0" />
</svg>
