<svg id="vector" xmlns="http://www.w3.org/2000/svg" width="32.0d" height="32.0d" viewBox="0 0 32.0 32.0"><path fill="#ff909090" d="M9.2476,8.125C9.6616,8.125 9.9976,8.461 9.9976,8.875L9.9976,8.875L9.9976,23.125C9.9976,23.421 9.8236,23.688 9.5555,23.81C9.4566,23.854 9.3516,23.875 9.2476,23.875C9.0666,23.875 8.8896,23.811 8.7495,23.686L8.7495,23.686L5.9876,21.232C5.6786,20.957 5.6496,20.483 5.9256,20.174C6.2006,19.863 6.6746,19.836 6.9836,20.111L6.9836,20.111L8.4976,21.455L8.4976,8.875C8.4976,8.461 8.8336,8.125 9.2476,8.125ZM18.3702,21.7627C18.7852,21.7627 19.1202,22.0987 19.1202,22.5127C19.1202,22.9267 18.7852,23.2627 18.3702,23.2627L18.3702,23.2627L13.7642,23.2627C13.3502,23.2627 13.0142,22.9267 13.0142,22.5127C13.0142,22.0987 13.3502,21.7627 13.7642,21.7627L13.7642,21.7627ZM20.5025,15.3193C20.9165,15.3193 21.2525,15.6553 21.2525,16.0693C21.2525,16.4833 20.9165,16.8193 20.5025,16.8193L20.5025,16.8193L13.7645,16.8193C13.3505,16.8193 13.0145,16.4833 13.0145,16.0693C13.0145,15.6553 13.3505,15.3193 13.7645,15.3193L13.7645,15.3193ZM25.5142,8.875C25.9282,8.875 26.2642,9.211 26.2642,9.625C26.2642,10.039 25.9282,10.375 25.5142,10.375L25.5142,10.375L13.7642,10.375C13.3502,10.375 13.0142,10.039 13.0142,9.625C13.0142,9.211 13.3502,8.875 13.7642,8.875L13.7642,8.875Z" stroke="#00000000" stroke-width="1.0" fill-rule="nonzero" id="path_0"/></svg>