<?xml version="1.0" encoding="utf-8" standalone="no"?><svg xmlns:android="http://schemas.android.com/apk/res/android" height="210.0" width="210.0" xmlns="http://www.w3.org/2000/svg">
    <path d="M196.294,77.272c-2.286,-17.273 -8.4,-32.923 -19.179,-44.386l-0.002,-0.002c-11.463,-10.778 -27.115,-16.891 -44.386,-19.179C116.232,11.52 105,12.059 105,12.059s-11.232,-0.539 -27.728,1.646C60,15.994 44.349,22.106 32.886,32.884l-0.001,0.002C22.106,44.349 15.993,60 13.705,77.272c-2.185,16.494 -1.646,27.727 -1.646,27.727s-0.539,11.232 1.646,27.727c2.288,17.271 8.401,32.924 19.18,44.386l0.001,0.003c11.463,10.778 27.114,16.891 44.385,19.18C93.767,198.48 105,197.941 105,197.941s11.233,0.539 27.728,-1.647c17.271,-2.289 32.923,-8.401 44.386,-19.18l0.002,-0.003c10.778,-11.462 16.893,-27.114 19.179,-44.386c2.187,-16.494 1.647,-27.727 1.647,-27.727S198.48,93.767 196.294,77.272z" fill="#ff00ff" fill-opacity="1.0"/>
</svg>