<svg width="24" height="24" viewBox="0 0 24 24" fill="none" xmlns="http://www.w3.org/2000/svg">
<path d="M15.6055 8.71775C15.2515 8.71775 14.9375 8.48975 14.8285 8.15375L12.7775 4.06475C12.5335 3.31175 11.4675 3.31175 11.2225 4.06475L9.1715 8.15375C9.0625 8.48975 8.7495 8.71775 8.3945 8.71775L4.0675 9.53475C3.2755 9.53475 2.9465 10.5488 3.5865 11.0138L6.7105 14.1508C6.9985 14.3588 7.1175 14.7277 7.0075 15.0647L6.3205 19.4257C6.0755 20.1787 6.9375 20.8047 7.5785 20.3397L11.5195 18.0207C11.8055 17.8127 12.1945 17.8127 12.4805 18.0207L16.4215 20.3397C17.0625 20.8047 17.9245 20.1787 17.6805 19.4257L16.9925 15.0647C16.8825 14.7277 17.0025 14.3588 17.2895 14.1508L20.4135 11.0138C21.0535 10.5488 20.7245 9.53475 19.9325 9.53475L15.6055 8.71775Z" fill="#252525"/>
</svg>
