<svg width="24" height="24" viewBox="0 0 24 24" fill="none" xmlns="http://www.w3.org/2000/svg">
<path d="M4.00299 10.332C4.01899 10.285 4.04299 10.285 4.06699 10.285H4.13799L8.47599 9.46602C9.10199 9.43402 9.646 9.03402 9.864 8.44602L11.894 4.40002L11.936 4.29602C11.943 4.27202 11.951 4.24902 12 4.24902C12.049 4.24902 12.057 4.27202 12.065 4.29602L14.137 8.44602C14.355 9.03402 14.899 9.43402 15.524 9.46602L19.862 10.285H19.933C19.957 10.285 19.982 10.285 19.997 10.332C20.012 10.378 19.992 10.393 19.973 10.407L16.793 13.585C16.3 13.978 16.09 14.623 16.259 15.23L16.94 19.542L16.967 19.657C16.975 19.68 16.982 19.704 16.942 19.732C16.903 19.762 16.883 19.747 16.863 19.732L12.887 17.39C12.352 17.021 11.649 17.021 11.113 17.39L7.19699 19.692L7.13699 19.732C7.11699 19.747 7.09799 19.762 7.05799 19.732C7.01899 19.704 7.02499 19.68 7.03299 19.657L7.74099 15.23C7.90999 14.623 7.69999 13.978 7.20699 13.585L4.11799 10.484L4.02699 10.407C4.00799 10.393 3.98799 10.378 4.00299 10.332ZM3.09199 11.579L6.17999 14.68L6.27099 14.757C6.29399 14.774 6.30399 14.805 6.29499 14.832L5.58699 19.259C5.40799 19.896 5.63499 20.553 6.17599 20.946C6.45599 21.149 6.77599 21.251 7.09799 21.251C7.40499 21.251 7.71299 21.157 7.98399 20.97L11.899 18.667L11.96 18.627C11.984 18.609 12.016 18.609 12.04 18.627L16.016 20.97C16.57 21.353 17.275 21.345 17.824 20.946C18.365 20.553 18.592 19.896 18.413 19.259L17.732 14.947L17.705 14.832C17.696 14.805 17.706 14.774 17.73 14.757L20.908 11.579C21.428 11.168 21.63 10.504 21.424 9.86802C21.218 9.23602 20.67 8.81802 20.014 8.78702L15.676 7.96802H15.606C15.576 7.96802 15.551 7.94902 15.541 7.92102L13.47 3.77002C13.24 3.14702 12.67 2.74902 12 2.74902C11.33 2.74902 10.76 3.14802 10.53 3.77002L8.50199 7.81602L8.45899 7.92102C8.44899 7.94902 8.424 7.96802 8.395 7.96802H8.324L3.98699 8.78702C3.32999 8.81802 2.78199 9.23602 2.57599 9.86802C2.36999 10.504 2.57199 11.168 3.09199 11.579Z" fill="#252525"/>
</svg>
