<svg width="26" height="26" viewBox="0 0 26 26" fill="none" xmlns="http://www.w3.org/2000/svg">
<g clip-path="url(#clip0_1_772)">
<path d="M14.2439 25.1083H4.5766C2.5661 25.1083 0.921101 23.4634 0.921101 21.4529V4.63782C0.921101 2.62732 2.5661 0.982422 4.5766 0.982422H21.3916C23.4021 0.982422 25.0471 2.62732 25.0471 4.63782V14.3065" stroke="black" stroke-width="1.5"/>
<path d="M17.1454 10.9653C17.8332 10.9653 18.3916 10.406 18.3916 9.71738C18.3916 9.02658 17.8332 8.46948 17.1454 8.46948C16.4543 8.46948 15.8958 9.02658 15.8958 9.71738C15.8958 10.406 16.4543 10.9653 17.1454 10.9653Z" fill="black"/>
<path d="M8.8228 10.9653C9.5128 10.9653 10.0723 10.406 10.0723 9.71738C10.0723 9.02658 9.5128 8.46838 8.8228 8.46948C8.1339 8.46838 7.5754 9.02658 7.5765 9.71738C7.5765 10.406 8.1328 10.9653 8.8228 10.9653Z" fill="black"/>
<path d="M25.0471 14.2932C25.0471 14.2932 23.8809 14.9363 20.8499 15.0367C18.8227 15.104 17.5733 15.4659 16.489 16.5513C15.4047 17.6355 15.0416 18.8873 14.9729 20.9117C14.8752 23.9436 14.232 25.1083 14.232 25.1083L25.0471 14.2932Z" fill="black" stroke="black" stroke-width="1.5" stroke-linecap="round" stroke-linejoin="round"/>
<path d="M6.7446 15.125C8.065 17.8643 11.8963 19.1035 15.0639 18.1157" stroke="black" stroke-width="1.5" stroke-linecap="round" stroke-linejoin="round"/>
</g>
<defs>
<clipPath id="clip0_1_772">
<rect width="26" height="26" fill="white"/>
</clipPath>
</defs>
</svg>
