<svg width="37" height="37" viewBox="0 0 37 37" fill="none" xmlns="http://www.w3.org/2000/svg">
<path d="M8.906 16.01C8.906 15.254 9.52 14.64 10.277 14.64H12.285V18.04L12.286 18.072C12.284 18.235 12.252 18.388 12.206 18.535C11.994 19.226 11.358 19.732 10.597 19.732C9.974 19.732 9.438 19.392 9.143 18.892C8.997 18.641 8.906 18.352 8.906 18.04V16.01V16.01ZM14.342 14.64H17.721V18.04L17.722 18.072C17.718 18.235 17.688 18.388 17.642 18.535C17.43 19.226 16.794 19.732 16.032 19.732C15.273 19.732 14.637 19.226 14.422 18.535C14.378 18.388 14.347 18.235 14.345 18.072C14.345 18.062 14.342 18.051 14.342 18.04V14.64V14.64ZM19.778 14.64H23.155V18.04L23.157 18.073C23.154 18.235 23.122 18.388 23.077 18.535C22.866 19.226 22.23 19.732 21.469 19.732C20.708 19.732 20.073 19.226 19.859 18.535C19.813 18.388 19.783 18.235 19.781 18.072C19.781 18.062 19.778 18.051 19.778 18.04V14.64V14.64ZM25.212 14.64H27.223C27.981 14.64 28.593 15.254 28.593 16.01V18.04C28.593 18.353 28.505 18.64 28.358 18.892C28.065 19.392 27.526 19.732 26.903 19.732C26.142 19.732 25.506 19.226 25.295 18.535C25.249 18.388 25.219 18.235 25.216 18.073C25.215 18.062 25.212 18.053 25.212 18.04V14.64V14.64ZM6.85 16.01V18.04C6.85 19.592 7.798 20.927 9.144 21.496V26.697C9.144 28.582 10.687 30.125 12.573 30.125H14.809V26.117C14.809 24.797 15.889 23.717 17.209 23.717C18.529 23.717 19.609 24.797 19.609 26.117V30.125H24.931C26.816 30.125 28.359 28.582 28.359 26.697V21.496C29.706 20.926 30.652 19.592 30.652 18.04V16.01C30.652 15.296 30.432 14.634 30.058 14.084L27.848 9.57096C27.329 8.50796 26.248 7.83496 25.065 7.83496H12.437C11.254 7.83496 10.173 8.50796 9.654 9.57096L7.446 14.084C7.07 14.634 6.849 15.296 6.849 16.01H6.85Z" fill="black"/>
</svg>
