<svg id="vector" xmlns="http://www.w3.org/2000/svg" width="28.0d" height="28.0d" viewBox="0 0 28.0 28.0"><path fill="@color/sec_dashboard_wallpapers_and_themes_color" d="M24.856,3.144C23.13,1.5216 20.7739,0.6012 18.1738,0.2569C15.6907,-0.0722 14,0.0088 14,0.0088C14,0.0088 12.309,-0.0722 9.8258,0.2569C7.2258,0.6012 4.8698,1.5216 3.1443,3.144C1.5215,4.8698 0.6012,7.2259 0.2567,9.8259C-0.0724,12.3089 0.0089,13.9999 0.0089,13.9999C0.0089,13.9999 -0.0724,15.6907 0.2567,18.1739C0.6012,20.7737 1.5215,23.13 3.1441,24.8558C4.8698,26.4784 7.2258,27.3986 9.8258,27.7433C12.309,28.0722 14,27.9912 14,27.9912C14,27.9912 15.6907,28.0722 18.1738,27.7433C20.7739,27.3986 23.13,26.4784 24.8556,24.8558C26.4786,23.13 27.3988,20.7737 27.7433,18.1739C28.0722,15.6907 27.9912,13.9999 27.9912,13.9999C27.9912,13.9999 28.0722,12.3089 27.7433,9.8259C27.3988,7.2259 26.4786,4.8698 24.856,3.144Z" stroke="#00000000" stroke-width="1.0" fill-rule="evenodd" id="path_0"/><path fill="#ffffffff" d="M20.211,12.249L20.211,14.0796C20.211,15.0366 19.0422,15.417 18.671,15.4986C17.3299,15.7946 15.9439,16.1008 15.6991,16.8607C15.4718,17.5638 15.6386,17.7655 15.8293,18.4988C15.8477,18.5533 16.1272,19.5357 16.1272,19.9911C16.1272,21.0875 15.0043,21.9061 14.0006,21.9061C12.9977,21.9061 11.8748,21.0875 11.8748,19.9911C11.8748,19.5053 12.191,18.42 12.17,18.4988C12.3625,17.7655 12.5284,17.5638 12.3029,16.8607C12.0572,16.1008 10.6712,15.7946 9.331,15.4986C8.958,15.417 7.7892,15.0366 7.7892,14.0796L7.7892,14.0796L7.7892,12.249L20.211,12.249ZM14.0004,6.8944C17.7642,5.5194 19.5059,6.1711 20.2108,6.9539L20.2108,6.9539L20.2108,10.8736L7.789,10.8736L7.789,7.2739C7.789,6.9356 8.1364,6.711 8.4445,6.8504C9.4106,7.2839 11.3879,7.8495 14.0004,6.8944Z" stroke="#00000000" stroke-width="1.0" fill-rule="nonzero" id="path_1"/></svg>