<svg width="100" height="100" viewBox="0 0 100 100" fill="none" xmlns="http://www.w3.org/2000/svg">
<path d="M61.709 37.327V24.999C61.709 20.579 58.125 16.999 53.709 16.999H27.001C21.477 16.999 17.001 21.475 17.001 26.999V53.711C17.001 58.127 20.581 61.711 25.001 61.711H27.077" stroke="black" stroke-width="6" stroke-linecap="round" stroke-linejoin="round"/>
<path d="M38.291 35.1982V72.9982C38.291 78.5222 42.767 82.9982 48.291 82.9982H72.999C78.523 82.9982 82.999 78.5222 82.999 72.9982V50.4182C82.999 45.9982 79.419 42.4182 74.999 42.4182H73.291" stroke="black" stroke-width="6" stroke-linecap="round" stroke-linejoin="round"/>
<path d="M29.01 40.9012L36.878 33.0332C37.658 32.2532 38.926 32.2532 39.706 33.0332L47.574 40.9012" stroke="black" stroke-width="6" stroke-linecap="round" stroke-linejoin="round"/>
<path d="M70.99 28.3418L63.122 36.2098C62.342 36.9858 61.074 36.9858 60.294 36.2098L52.426 28.3418" stroke="black" stroke-width="6" stroke-linecap="round" stroke-linejoin="round"/>
<path d="M50.465 71.4762L60.001 50.7602C60.357 49.9842 61.461 49.9842 61.817 50.7602L71.361 71.4762" stroke="black" stroke-width="6" stroke-linecap="round" stroke-linejoin="round"/>
<path d="M55.414 62.96H66.414" stroke="black" stroke-width="6" stroke-linecap="round" stroke-linejoin="round"/>
</svg>
