<svg width="24" height="24" viewBox="0 0 24 24" fill="none" xmlns="http://www.w3.org/2000/svg">
<path d="M13.8742 4.44788C14.4492 4.44788 14.9158 4.91538 14.9158 5.48958V7.15628H18.405C18.75 7.15628 19.03 7.43628 19.03 7.78128C19.03 8.12708 18.75 8.40628 18.405 8.40628H17.2783L16.5225 17.7946C16.445 18.7638 15.59 19.5521 14.6183 19.5521H9.3817C8.41 19.5521 7.5558 18.7638 7.4775 17.7946L6.7225 8.40628H5.595C5.25 8.40628 4.97 8.12708 4.97 7.78128C4.97 7.43628 5.25 7.15628 5.595 7.15628H9.0825V5.48958C9.0825 4.91538 9.55 4.44788 10.1242 4.44788H13.8742ZM10.4425 11.0429C10.0967 11.0429 9.8175 11.3229 9.8175 11.6679V15.3763C9.8175 15.7221 10.0967 16.0013 10.4425 16.0013C10.7875 16.0013 11.0675 15.7221 11.0675 15.3763V11.6679C11.0675 11.3229 10.7875 11.0429 10.4425 11.0429ZM13.5583 11.0429C13.2133 11.0429 12.9333 11.3229 12.9333 11.6679V15.3763C12.9333 15.7221 13.2133 16.0013 13.5583 16.0013C13.9033 16.0013 14.1833 15.7221 14.1833 15.3763V11.6679C14.1833 11.3229 13.9033 11.0429 13.5583 11.0429ZM13.6658 5.69788H10.3325V7.15628H13.6658V5.69788Z" fill="black"/>
</svg>
