<?xml version="1.0" encoding="UTF-8" standalone="no"?>
<svg
   width="17.499451"
   height="20.000151"
   viewBox="0 0 17.499451 20.000151"
   fill="none"
   version="1.1"
   id="svg2555"
   sodipodi:docname="twinkle.svg"
   xmlns:inkscape="http://www.inkscape.org/namespaces/inkscape"
   xmlns:sodipodi="http://sodipodi.sourceforge.net/DTD/sodipodi-0.dtd"
   xmlns="http://www.w3.org/2000/svg"
   xmlns:svg="http://www.w3.org/2000/svg">
  <defs
     id="defs2559" />
  <sodipodi:namedview
     id="namedview2557"
     pagecolor="#ffffff"
     bordercolor="#666666"
     borderopacity="1.0"
     inkscape:showpageshadow="2"
     inkscape:pageopacity="0.0"
     inkscape:pagecheckerboard="0"
     inkscape:deskcolor="#d1d1d1" />
  <path
     d="M 9.262,10.0862 6.44,8.7332 5.094,4.69716 c -0.114,-0.341 -0.597,-0.341 -0.711,0 L 3.037,8.7322 0.213,10.0862 c -0.284,0.137 -0.284,0.541 0,0.677 l 2.824,1.353 1.346,4.037 c 0.114,0.342 0.597,0.342 0.711,0 l 1.347,-4.038 2.821,-1.352 c 0.284,-0.136 0.284,-0.54 0,-0.677 z"
     fill="#ffa700"
     id="path2549" />
  <path
     d="m 17.3577,15.3074 -2.129,-1.02 -1.017,-3.049 c -0.076,-0.228 -0.398,-0.228 -0.474,0 l -1.016,3.048 -2.131,1.021 c -0.19,0.091 -0.19,0.36 0,0.451 l 2.13,1.022 1.017,3.048 c 0.076,0.229 0.398,0.229 0.474,0 l 1.018,-3.049 2.128,-1.021 c 0.189,-0.091 0.189,-0.36 0,-0.451 z"
     fill="#ffa700"
     id="path2551" />
  <path
     d="m 15.6731,4.24 -2.128,-1.02 -1.017,-3.049 c -0.076,-0.228 -0.398,-0.228 -0.475,0 l -1.016,3.048 -2.131,1.021 c -0.189,0.091 -0.189,0.36 0,0.451 l 2.131,1.022 1.016,3.048 c 0.077,0.229 0.399,0.229 0.475,0 l 1.017,-3.049 2.128,-1.021 c 0.189,-0.091 0.189,-0.36 0,-0.451 z"
     fill="#ffa700"
     id="path2553" />
</svg>
