<svg width="24" height="24" viewBox="0 0 24 24" fill="none" xmlns="http://www.w3.org/2000/svg">
<path d="M12.012 12.0862L9.19 10.7332L7.844 6.69716C7.73 6.35616 7.247 6.35616 7.133 6.69716L5.787 10.7322L2.963 12.0862C2.679 12.2232 2.679 12.6272 2.963 12.7632L5.787 14.1162L7.133 18.1532C7.247 18.4952 7.73 18.4952 7.844 18.1532L9.191 14.1152L12.012 12.7632C12.296 12.6272 12.296 12.2232 12.012 12.0862Z" fill="#FFA700"/>
<path d="M20.1077 17.3074L17.9787 16.2874L16.9617 13.2384C16.8857 13.0104 16.5637 13.0104 16.4877 13.2384L15.4717 16.2864L13.3407 17.3074C13.1507 17.3984 13.1507 17.6674 13.3407 17.7584L15.4707 18.7804L16.4877 21.8284C16.5637 22.0574 16.8857 22.0574 16.9617 21.8284L17.9797 18.7794L20.1077 17.7584C20.2967 17.6674 20.2967 17.3984 20.1077 17.3074Z" fill="#FFA700"/>
<path d="M18.4231 6.24L16.2951 5.22L15.2781 2.171C15.2021 1.943 14.8801 1.943 14.8031 2.171L13.7871 5.219L11.6561 6.24C11.4671 6.331 11.4671 6.6 11.6561 6.691L13.7871 7.713L14.8031 10.761C14.8801 10.99 15.2021 10.99 15.2781 10.761L16.2951 7.712L18.4231 6.691C18.6121 6.6 18.6121 6.331 18.4231 6.24Z" fill="#FFA700"/>
</svg>
