<svg width="45" height="34" viewBox="0 0 45 34" fill="none" xmlns="http://www.w3.org/2000/svg">
<path d="M15.5 24.669V23.169H29.4998L29.499 23.9042L29.5 23.919C29.5 23.9241 29.5 23.9292 29.4998 23.9342V24.669H15.5ZM19.125 9.33105C19.539 9.33105 19.875 9.66715 19.875 10.0811C19.875 10.4952 19.539 10.8311 19.125 10.8311H18.75V16.2762C18.75 18.3452 20.432 20.0262 22.5 20.0262C24.567 20.0262 26.25 18.3452 26.25 16.2762V10.8311H25.875C25.46 10.8311 25.125 10.4952 25.125 10.0811C25.125 9.66715 25.46 9.33105 25.875 9.33105H28.125C28.539 9.33105 28.875 9.66715 28.875 10.0811C28.875 10.4952 28.539 10.8311 28.125 10.8311H27.75V16.2762C27.75 19.1711 25.395 21.5262 22.5 21.5262C19.605 21.5262 17.25 19.1711 17.25 16.2762V10.8311H16.875C16.46 10.8311 16.125 10.4952 16.125 10.0811C16.125 9.66715 16.46 9.33105 16.875 9.33105H19.125Z" fill="#252525"/>
</svg>
