<?xml version="1.0" encoding="UTF-8" standalone="no"?>
<svg
   width="26.666697"
   height="26.666708"
   viewBox="0 0 26.666697 26.666708"
   fill="none"
   version="1.1"
   id="svg2595"
   sodipodi:docname="user.svg"
   xmlns:inkscape="http://www.inkscape.org/namespaces/inkscape"
   xmlns:sodipodi="http://sodipodi.sourceforge.net/DTD/sodipodi-0.dtd"
   xmlns="http://www.w3.org/2000/svg"
   xmlns:svg="http://www.w3.org/2000/svg">
  <defs
     id="defs2599" />
  <sodipodi:namedview
     id="namedview2597"
     pagecolor="#ffffff"
     bordercolor="#666666"
     borderopacity="1.0"
     inkscape:showpageshadow="2"
     inkscape:pageopacity="0.0"
     inkscape:pagecheckerboard="0"
     inkscape:deskcolor="#d1d1d1" />
  <path
     d="M 13.333296,0 C 5.973296,0 0,5.973298 0,13.333308 c 0,7.36 5.973296,13.3334 13.333296,13.3334 7.36,0 13.3334,-5.9734 13.3334,-13.3334 C 26.666696,5.973298 20.693296,0 13.333296,0 Z m 8.48,19.773308 c -1.9066,-2.32 -6.5333,-3.1066 -8.48,-3.1066 -1.9466,0 -6.5733,0.7866 -8.48,3.1066 -1.36,-1.7866 -2.1866,-4.0133 -2.1866,-6.44 0,-5.88001 4.7866,-10.66661 10.6666,-10.66661 5.88,0 10.6667,4.7866 10.6667,10.66661 0,2.4267 -0.8267,4.6534 -2.1867,6.44 z m -13.1466,-9.7733 c 0,-2.58671 2.08,-4.66671 4.6666,-4.66671 2.5867,0 4.6667,2.08 4.6667,4.66671 0,2.5867 -2.08,4.6667 -4.6667,4.6667 -2.5866,0 -4.6666,-2.08 -4.6666,-4.6667 z"
     fill="#ffffff"
     id="path2593" />
</svg>
