<svg width="28" height="28" viewBox="0 0 28 28" fill="none" xmlns="http://www.w3.org/2000/svg">
<path d="M13.9998 0.666992C6.6398 0.666992 0.666504 6.64029 0.666504 14.0003C0.666504 21.3603 6.6398 27.3337 13.9998 27.3337C21.3598 27.3337 27.3332 21.3603 27.3332 14.0003C27.3332 6.64029 21.3598 0.666992 13.9998 0.666992ZM22.4798 20.4403C20.5732 18.1203 15.9465 17.3337 13.9998 17.3337C12.0532 17.3337 7.4265 18.1203 5.5198 20.4403C4.1598 18.6537 3.3332 16.427 3.3332 14.0003C3.3332 8.12029 8.1198 3.33369 13.9998 3.33369C19.8798 3.33369 24.6665 8.12029 24.6665 14.0003C24.6665 16.427 23.8398 18.6537 22.4798 20.4403ZM9.3332 10.667C9.3332 8.08029 11.4132 6.00029 13.9998 6.00029C16.5865 6.00029 18.6665 8.08029 18.6665 10.667C18.6665 13.2537 16.5865 15.3337 13.9998 15.3337C11.4132 15.3337 9.3332 13.2537 9.3332 10.667Z" fill="white"/>
</svg>
