<?xml version="1.0" encoding="UTF-8" standalone="no"?>
<svg
   width="22.322201"
   height="14.57784"
   viewBox="0 0 22.322201 14.57784"
   fill="none"
   version="1.1"
   id="svg2630"
   sodipodi:docname="video-call.svg"
   xmlns:inkscape="http://www.inkscape.org/namespaces/inkscape"
   xmlns:sodipodi="http://sodipodi.sourceforge.net/DTD/sodipodi-0.dtd"
   xmlns="http://www.w3.org/2000/svg"
   xmlns:svg="http://www.w3.org/2000/svg">
  <defs
     id="defs2634" />
  <sodipodi:namedview
     id="namedview2632"
     pagecolor="#ffffff"
     bordercolor="#666666"
     borderopacity="1.0"
     inkscape:showpageshadow="2"
     inkscape:pageopacity="0.0"
     inkscape:pagecheckerboard="0"
     inkscape:deskcolor="#d1d1d1" />
  <path
     d="m 2.8472,14.57784 h 11.1611 c 1.5944,0 2.8472,-1.2528 2.8472,-2.8472 v -1.4806 l 4.3278,2.5056 c 0.1139,0.1139 0.3417,0.1139 0.4555,0.1139 0.3417,0 0.6834,-0.2278 0.6834,-0.7973 V 2.5056 c 0,-0.4556 -0.3417,-0.7973 -0.6834,-0.7973 -0.1138,0 -0.3416,0 -0.4555,0.1139 L 16.8555,4.3278 V 2.8472 C 16.8555,1.2528 15.6027,0 14.0083,0 H 2.8472 C 1.2527,0 0,1.2528 0,2.8472 v 8.88344 c 0,1.4805 1.2527,2.8472 2.8472,2.8472 z"
     fill="#000000"
     id="path2628" />
</svg>
