<svg width="24" height="24" viewBox="0 0 24 24" fill="none" xmlns="http://www.w3.org/2000/svg">
<path d="M4.3528 19.2889H15.5139C17.1083 19.2889 18.3611 18.0361 18.3611 16.4417V14.9611L22.6889 17.4667C22.8028 17.5806 23.0306 17.5806 23.1444 17.5806C23.4861 17.5806 23.8278 17.3528 23.8278 16.7833V7.21666C23.8278 6.76106 23.4861 6.41936 23.1444 6.41936C23.0306 6.41936 22.8028 6.41936 22.6889 6.53326L18.3611 9.03886V7.55826C18.3611 5.96386 17.1083 4.71106 15.5139 4.71106H4.3528C2.7583 4.71106 1.5056 5.96386 1.5056 7.55826V16.4417C1.5056 17.9222 2.7583 19.2889 4.3528 19.2889Z" fill="black"/>
</svg>
