<?xml version="1.0" encoding="UTF-8" standalone="no"?>
<svg
   width="20.60001"
   height="20.600018"
   viewBox="0 0 20.60001 20.600018"
   fill="none"
   version="1.1"
   id="svg2616"
   sodipodi:docname="video-call-squircle.svg"
   xmlns:inkscape="http://www.inkscape.org/namespaces/inkscape"
   xmlns:sodipodi="http://sodipodi.sourceforge.net/DTD/sodipodi-0.dtd"
   xmlns="http://www.w3.org/2000/svg"
   xmlns:svg="http://www.w3.org/2000/svg">
  <sodipodi:namedview
     id="namedview2618"
     pagecolor="#ffffff"
     bordercolor="#666666"
     borderopacity="1.0"
     inkscape:showpageshadow="2"
     inkscape:pageopacity="0.0"
     inkscape:pagecheckerboard="0"
     inkscape:deskcolor="#d1d1d1" />
  <g
     clip-path="url(#clip0_1_1116)"
     id="g2609"
     transform="translate(-0.19998122,-0.20007372)">
    <path
       d="M 18.4869,2.51316 C 17.2171,1.31956 15.4836,0.642361 13.5707,0.389061 11.7439,0.146961 10.5,0.206561 10.5,0.206561 c 0,0 -1.24411,-0.0596 -3.07101,0.1825 -1.9129,0.2533 -3.6462,0.930499 -4.9157,2.124099 -1.1939,1.2697 -1.870996,3.0031 -2.124396,4.916 -0.2421,1.8267 -0.1824,3.07084 -0.1824,3.07084 0,0 -0.0597,1.244 0.1824,3.0709 0.2534,1.9127 0.930496,3.6463 2.124296,4.9159 1.2696,1.1938 3.0029,1.8709 4.9158,2.1244 1.8269,0.242 3.07101,0.1824 3.07101,0.1824 0,0 1.2439,0.0596 3.0707,-0.1824 1.9129,-0.2535 3.6464,-0.9306 4.9159,-2.1244 1.1941,-1.2696 1.8711,-3.0032 2.1245,-4.9159 0.242,-1.8269 0.1824,-3.0709 0.1824,-3.0709 0,0 0.0596,-1.24414 -0.1824,-3.07084 -0.2534,-1.9129 -0.9304,-3.6463 -2.1242,-4.916 z"
       fill="#15b76d"
       id="path2605" />
    <path
       d="m 16.1194,7.68408 -1.9181,1.2931 v -0.8213 c 0,-0.8625 -0.7,-1.5625 -1.5625,-1.5625 h -6.17 c -0.8632,0 -1.5625,0.7 -1.5625,1.5625 v 4.68752 c 0,0.8632 0.6993,1.5625 1.5625,1.5625 h 6.17 c 0.8625,0 1.5625,-0.6993 1.5625,-1.5625 v -0.82 l 1.9181,1.2925 c 0.415,0.28 0.9744,-0.0175 0.9744,-0.5181 V 8.20218 c 0,-0.5006 -0.5594,-0.7981 -0.9744,-0.5181 z"
       fill="#fafafa"
       id="path2607" />
  </g>
  <defs
     id="defs2614">
    <clipPath
       id="clip0_1_1116">
      <rect
         width="21"
         height="21"
         fill="#ffffff"
         id="rect2611"
         x="0"
         y="0" />
    </clipPath>
  </defs>
</svg>
