<svg width="24" height="24" viewBox="0 0 24 24" fill="none" xmlns="http://www.w3.org/2000/svg">
<path d="M16 18V9.69V6H4V18H16ZM18 6V10.48L22 6.5V17.5L18 13.52V18C18 18.53 17.79 19.04 17.41 19.41C17.04 19.79 16.53 20 16 20H4C3.47 20 2.96 19.79 2.59 19.41C2.21 19.04 2 18.53 2 18V6C2 5.47 2.21 4.96 2.59 4.59C2.96 4.21 3.47 4 4 4H16C16.53 4 17.04 4.21 17.41 4.59C17.79 4.96 18 5.47 18 6Z" fill="black"/>
<path d="M18 6V10.48L22 6.5V17.5L18 13.52V18C18 18.53 17.79 19.04 17.41 19.41C17.04 19.79 16.53 20 16 20H4C3.47 20 2.96 19.79 2.59 19.41C2.21 19.04 2 18.53 2 18V6C2 5.47 2.21 4.96 2.59 4.59C2.96 4.21 3.47 4 4 4H16C16.53 4 17.04 4.21 17.41 4.59C17.79 4.96 18 5.47 18 6Z" fill="black"/>
</svg>
