<?xml version="1.0" encoding="UTF-8" standalone="no"?>
<svg
   width="35.549992"
   height="35.550018"
   viewBox="0 0 35.549992 35.550018"
   fill="none"
   version="1.1"
   id="svg2670"
   sodipodi:docname="voice-squircle.svg"
   xmlns:inkscape="http://www.inkscape.org/namespaces/inkscape"
   xmlns:sodipodi="http://sodipodi.sourceforge.net/DTD/sodipodi-0.dtd"
   xmlns="http://www.w3.org/2000/svg"
   xmlns:svg="http://www.w3.org/2000/svg">
  <sodipodi:namedview
     id="namedview2672"
     pagecolor="#ffffff"
     bordercolor="#666666"
     borderopacity="1.0"
     inkscape:showpageshadow="2"
     inkscape:pageopacity="0.0"
     inkscape:pagecheckerboard="0"
     inkscape:deskcolor="#d1d1d1" />
  <g
     clip-path="url(#clip0_1_2159)"
     id="g2663"
     transform="translate(-0.22502091,-0.22509788)">
    <path
       d="M 31.7832,4.2169 C 29.5918,2.157 26.6004,0.988405 23.2992,0.551205 20.1465,0.133405 18,0.236305 18,0.236305 c 0,0 -2.147,-0.1029 -5.2997,0.3149 C 9.3992,0.988405 6.408,2.157 4.2171,4.2169 2.1567,6.408 0.988301,9.39941 0.551001,12.7005 0.133101,15.853 0.236301,18 0.236301,18 c 0,0 -0.1032,2.1467 0.3147,5.2994 0.4373,3.3009 1.605699,6.2926 3.665899,8.4837 2.1911,2.0601 5.1823,3.2285 8.4834,3.6661 C 15.853,35.8668 18,35.7639 18,35.7639 c 0,0 2.1465,0.1029 5.2992,-0.3147 3.3012,-0.4376 6.2926,-1.606 8.4835,-3.6661 2.0606,-2.1911 3.229,-5.1828 3.6664,-8.4837 C 35.8667,20.1467 35.7638,18 35.7638,18 c 0,0 0.1029,-2.147 -0.3147,-5.2995 C 35.0117,9.39941 33.8433,6.408 31.7832,4.2169 Z"
       fill="#e83d43"
       id="path2655" />
    <path
       d="m 20.1696,28.2158 h -4.3407 c -0.5523,0 -1,-0.4478 -1,-1 0,-0.5523 0.4477,-1 1,-1 h 4.3407 c 0.5523,0 1,0.4477 1,1 0,0.5522 -0.4477,1 -1,1 z"
       fill="#ffffff"
       id="path2657" />
    <path
       d="m 17.9992,8.00342 c -2.0235,0 -3.6637,0.3917 -3.6637,2.71248 v 5.5577 c 0,2.3198 1.6402,3.9433 3.6637,3.9433 2.0238,0 3.664,-1.6235 3.664,-3.9433 v -5.5577 c 0,-2.32078 -1.6402,-2.71248 -3.664,-2.71248 z"
       fill="#ffffff"
       id="path2659" />
    <path
       d="m 17.999,24.5345 c -4.2343,0 -7.6788,-3.493 -7.6788,-7.7865 0,-0.552 0.4478,-1 1,-1 0.5523,0 1,0.448 1,1 0,3.1907 2.5475,5.7865 5.6788,5.7865 3.1317,0 5.6795,-2.5958 5.6795,-5.7865 0,-0.552 0.4477,-1 1,-1 0.5522,0 1,0.448 1,1 0,4.2935 -3.445,7.7865 -7.6795,7.7865 z"
       fill="#ffffff"
       id="path2661" />
  </g>
  <defs
     id="defs2668">
    <clipPath
       id="clip0_1_2159">
      <rect
         width="36"
         height="36"
         fill="#ffffff"
         id="rect2665"
         x="0"
         y="0" />
    </clipPath>
  </defs>
</svg>
