<svg width="24" height="24" viewBox="0 0 24 24" fill="none" xmlns="http://www.w3.org/2000/svg">
<g clip-path="url(#clip0_2_416)">
<path d="M21.19 2.66667C18.9867 0.45 15.6867 0 12 0C8.31 0 5.01333 0.45 2.81 2.66667C1.05667 4.43333 0 7.32333 0 12C0 16.6767 1.05667 19.5667 2.81 21.3333C5.01333 23.55 8.31333 24 12 24C15.6867 24 18.9867 23.55 21.1867 21.3333C22.9433 19.5667 24 16.6767 24 12C24 7.32333 22.9433 4.43333 21.19 2.66667Z" fill="#1E48C2"/>
<path d="M6.66663 17.5556C5.56329 17.5556 4.66663 16.6765 4.66663 15.5948V8.40524C4.66663 7.32354 5.56329 6.44446 6.66663 6.44446H17.3333C18.4366 6.44446 19.3333 7.32354 19.3333 8.40524V15.5948C19.3333 16.6765 18.4366 17.5556 17.3333 17.5556H6.66663ZM10.6633 11.183H5.66663V15.268C5.66663 15.9673 6.22663 16.5392 6.93329 16.5752H6.99996H8.17329L10.6633 11.183ZM12.4 7.42485H6.99996C6.28663 7.42485 5.70329 7.97387 5.66996 8.66668L5.66663 8.73204V9.22224H11.57L12.4 7.42485Z" fill="white"/>
</g>
<defs>
<clipPath id="clip0_2_416">
<rect width="24" height="24" fill="white"/>
</clipPath>
</defs>
</svg>
