<?xml version="1.0" encoding="UTF-8" standalone="no"?>
<svg
   width="11.1666"
   height="11.16655"
   viewBox="0 0 11.1666 11.16655"
   fill="none"
   version="1.1"
   id="svg2709"
   sodipodi:docname="warn-circle.svg"
   xmlns:inkscape="http://www.inkscape.org/namespaces/inkscape"
   xmlns:sodipodi="http://sodipodi.sourceforge.net/DTD/sodipodi-0.dtd"
   xmlns="http://www.w3.org/2000/svg"
   xmlns:svg="http://www.w3.org/2000/svg">
  <defs
     id="defs2713" />
  <sodipodi:namedview
     id="namedview2711"
     pagecolor="#ffffff"
     bordercolor="#666666"
     borderopacity="1.0"
     inkscape:showpageshadow="2"
     inkscape:pageopacity="0.0"
     inkscape:pagecheckerboard="0"
     inkscape:deskcolor="#d1d1d1" />
  <path
     d="m 5.5826,9.08795 c -0.368,0 -0.666,-0.298 -0.666,-0.6667 0,-0.368 0.298,-0.6667 0.666,-0.6667 0.3687,0 0.6674,0.2987 0.6674,0.6667 0,0.3687 -0.2987,0.6667 -0.6674,0.6667 z M 5.0833,2.6166 c 0,-0.2766 0.224,-0.5 0.5,-0.5 0.276,0 0.5,0.2234 0.5,0.5 v 3.3927 c 0,0.276 -0.224,0.5 -0.5,0.5 -0.276,0 -0.5,-0.224 -0.5,-0.5 z M 5.5833,0 C 2.5046,0 0,2.5046 0,5.5833 c 0,3.07865 2.5046,5.58325 5.5833,5.58325 3.0787,0 5.5833,-2.5046 5.5833,-5.58325 C 11.1666,2.5046 8.662,0 5.5833,0 Z"
     fill="#000000"
     id="path2707" />
</svg>
