<svg width="16" height="16" viewBox="0 0 16 16" fill="none" xmlns="http://www.w3.org/2000/svg">
<path d="M7.9993 11.5047C7.6313 11.5047 7.3333 11.2067 7.3333 10.838C7.3333 10.47 7.6313 10.1713 7.9993 10.1713C8.368 10.1713 8.6667 10.47 8.6667 10.838C8.6667 11.2067 8.368 11.5047 7.9993 11.5047ZM7.5 5.03335C7.5 4.75675 7.724 4.53335 8 4.53335C8.276 4.53335 8.5 4.75675 8.5 5.03335V8.42605C8.5 8.70205 8.276 8.92605 8 8.92605C7.724 8.92605 7.5 8.70205 7.5 8.42605V5.03335ZM8 2.41675C4.9213 2.41675 2.4167 4.92135 2.4167 8.00005C2.4167 11.0787 4.9213 13.5833 8 13.5833C11.0787 13.5833 13.5833 11.0787 13.5833 8.00005C13.5833 4.92135 11.0787 2.41675 8 2.41675Z" fill="black"/>
</svg>
