<svg width="84" height="84" viewBox="0 0 84 84" fill="none" xmlns="http://www.w3.org/2000/svg">
<path d="M23.24 68.62C21.2317 68.6323 19.2952 67.8735 17.83 66.5C17.0597 65.7651 16.4438 64.8839 16.0184 63.908C15.5931 62.9321 15.3668 61.881 15.3528 60.8165C15.3388 59.752 15.5375 58.6954 15.9371 57.7087C16.3367 56.7219 16.9292 55.8248 17.68 55.07L36.57 36.18C35.7606 33.312 35.7504 30.2773 36.5406 27.404C37.3307 24.5306 38.8912 21.9279 41.0532 19.877C43.2153 17.8262 45.8967 16.4052 48.8078 15.7677C51.7188 15.1302 54.7487 15.3004 57.57 16.26C58.1333 16.451 58.6384 16.7827 59.0374 17.2237C59.4365 17.6648 59.7162 18.2005 59.85 18.78C59.9906 19.3449 59.9865 19.9361 59.8379 20.499C59.6893 21.0618 59.4011 21.5781 59 22L51.36 29.64L54.15 32.69L62 25.06C62.4133 24.6408 62.9276 24.3351 63.4933 24.1722C64.059 24.0094 64.6571 23.9948 65.23 24.13C65.8087 24.2656 66.3435 24.5459 66.7843 24.9447C67.2251 25.3435 67.5574 25.8477 67.75 26.41C68.7198 29.2321 68.8988 32.2659 68.2675 35.1825C67.6362 38.0991 66.2188 40.7873 64.1687 42.9558C62.1187 45.1243 59.5143 46.6904 56.6377 47.4844C53.7611 48.2784 50.7221 48.2699 47.85 47.46L29.15 66.16C28.3748 66.9382 27.4538 67.556 26.4398 67.9781C25.4257 68.4002 24.3384 68.6183 23.24 68.62V68.62ZM52.24 19.86C50.3183 19.8698 48.4278 20.3465 46.7312 21.2489C45.0346 22.1514 43.5826 23.4526 42.5004 25.0406C41.4181 26.6285 40.7379 28.4557 40.5184 30.3648C40.2988 32.2739 40.5465 34.2078 41.24 36C41.3964 36.4065 41.4314 36.8496 41.3409 37.2756C41.2504 37.7017 41.0382 38.0922 40.73 38.4L20.86 58.25C20.5339 58.5802 20.2774 58.9725 20.1057 59.4037C19.9339 59.8348 19.8504 60.296 19.86 60.76C19.8651 61.224 19.9644 61.6822 20.1518 62.1068C20.3391 62.5313 20.6107 62.9134 20.95 63.23C21.6587 63.8509 22.58 64.1736 23.5213 64.1308C24.4625 64.0879 25.3507 63.6827 26 63L45.65 43.3C45.9591 42.994 46.3497 42.7832 46.7752 42.6928C47.2006 42.6024 47.6431 42.6361 48.05 42.79C50.1908 43.6106 52.5234 43.7942 54.7662 43.3187C57.0091 42.8431 59.0664 41.7288 60.69 40.11C62.0708 38.7494 63.0951 37.0696 63.6724 35.2191C64.2497 33.3686 64.3622 31.4043 64 29.5L57.61 35.88C57.1778 36.3186 56.6624 36.6665 56.094 36.9035C55.5257 37.1404 54.9158 37.2616 54.3 37.26C53.0574 37.2566 51.867 36.7603 50.99 35.88L48.15 33.1C47.2713 32.2206 46.7777 31.0282 46.7777 29.785C46.7777 28.5418 47.2713 27.3494 48.15 26.47L54.53 20.08C53.785 19.9375 53.0285 19.8638 52.27 19.86H52.24Z" fill="black"/>
</svg>
