<?xml version="1.0" encoding="UTF-8" standalone="no"?>
<!DOCTYPE svg PUBLIC "-//W3C//DTD SVG 1.1//EN" "http://www.w3.org/Graphics/SVG/1.1/DTD/svg11.dtd">
<!-- Created with Vectornator (http://vectornator.io/) -->
<svg height="100%" stroke-miterlimit="10" style="fill-rule:nonzero;clip-rule:evenodd;stroke-linecap:round;stroke-linejoin:round;" version="1.1" viewBox="0 0 42 42" width="100%" xml:space="preserve" xmlns="http://www.w3.org/2000/svg" xmlns:xlink="http://www.w3.org/1999/xlink">
<defs/>
<g id="Untitled">
<path d="M26.467 22.4L16.134 22.4C15.581 22.4 15.134 21.953 15.134 21.4C15.134 20.847 15.581 20.4 16.134 20.4L26.467 20.4C27.02 20.4 27.467 20.847 27.467 21.4C27.467 21.953 27.02 22.4 26.467 22.4M28.721 13.979C26.82 12.078 24.195 10.9 21.3 10.9C15.511 10.9 10.8 15.611 10.8 21.4C10.8 24.295 11.978 26.92 13.879 28.821C15.78 30.722 18.405 31.9 21.3 31.9C27.09 31.9 31.8 27.19 31.8 21.4C31.8 18.505 30.622 15.88 28.721 13.979" fill="#000000" fill-rule="nonzero" opacity="1" stroke="none"/>
</g>
</svg>
