<?xml version="1.0" encoding="UTF-8"?>
<svg width="92px" height="92px" viewBox="0 0 92 92" version="1.1" xmlns="http://www.w3.org/2000/svg" xmlns:xlink="http://www.w3.org/1999/xlink">
    <title>generic</title>
    <g id="Page-1" stroke="none" stroke-width="1" fill="none" fill-rule="evenodd">
        <g id="generic" transform="translate(-12.000000, -25.000000)">
            <g transform="translate(12.000000, 25.000000)">
                <g id="squircle-mask" fill="#939CF5" fill-rule="nonzero">
                    <path d="M91.1556751,32.2850499 C90.0249706,23.7413998 87.0008552,16.0005254 81.669331,10.330644 L81.6683418,10.3296548 C75.9984965,4.99859125 68.2566821,1.97495135 59.7140756,0.843250348 C51.5552953,-0.237504326 45.9997071,0.0290983133 45.9997071,0.0290983133 C45.9997071,0.0290983133 40.4441194,-0.237504326 32.2848445,0.843250348 C23.7417434,1.97544597 16.0004236,4.99859125 10.3305783,10.3296548 L10.3300837,10.330644 C4.99855945,16.0005254 1.97493878,23.7418944 0.843244984,32.2850499 C-0.237502815,40.4433874 0.0290981282,45.9995051 0.0290981282,45.9995051 C0.0290981282,45.9995051 -0.237502815,51.5551287 0.843244984,59.7139608 C1.97493878,68.2566217 4.99855945,75.9989799 10.3300837,81.6683667 L10.3305783,81.6698505 C16.0004236,87.0009141 23.7417434,90.024554 32.2843499,91.1567497 C40.4436247,92.2375043 45.9997071,91.9709017 45.9997071,91.9709017 C45.9997071,91.9709017 51.55579,92.2375043 59.7145702,91.156255 C68.2571767,90.0240594 75.9989911,87.0009141 81.6688364,81.6693559 L81.6698256,81.6678721 C87.0008552,75.9984853 90.0254652,68.2566217 91.1561697,59.7134662 C92.2379068,51.5551287 91.9708112,45.9990105 91.9708112,45.9990105 C91.9708112,45.9990105 92.2369175,40.443882 91.1556751,32.2850499 Z" id="path2398"></path>
                </g>
                <circle id="Oval" fill="#FFFFFF" cx="46" cy="46" r="20"></circle>
            </g>
        </g>
    </g>
</svg>