<?xml version="1.0" encoding="UTF-8"?>
<svg width="24px" height="24px" viewBox="0 0 24 24" version="1.1" xmlns="http://www.w3.org/2000/svg" xmlns:xlink="http://www.w3.org/1999/xlink">
    <title>hypesquad-squircle</title>
    <g id="Page-1" stroke="none" stroke-width="1" fill="none" fill-rule="evenodd">
        <g id="Artboard" transform="translate(-206.000000, -51.000000)">
            <g id="hypesquad-squircle" transform="translate(206.000000, 51.000000)">
                <path d="M23.7797413,8.42218697 C23.4847749,6.19340868 22.6958753,4.17405013 21.3050429,2.69495064 L21.3047848,2.69469258 C19.8256947,1.30398034 17.8060909,0.515204701 15.5775849,0.219978352 C13.4492074,-0.0619576505 11.9999237,0.00759086443 11.9999237,0.00759086443 C11.9999237,0.00759086443 10.5506399,-0.0619576505 8.42213339,0.219978352 C6.19349832,0.515333733 4.17402358,1.30398034 2.6949335,2.69469258 L2.69480447,2.69495064 C1.30397205,4.17405013 0.515201423,6.19353772 0.219976952,8.42218697 C-0.0619572563,10.5504489 0.00759081614,11.999871 0.00759081614,11.999871 C0.00759081614,11.999871 -0.0619572563,13.449164 0.219976952,15.577555 C0.515201423,17.8060752 1.30397205,19.8258208 2.69480447,21.3047913 L2.6949335,21.3051784 C4.17402358,22.6958906 6.19349832,23.4846663 8.42200436,23.7800216 C10.5505109,24.0619577 11.9999237,23.9924091 11.9999237,23.9924091 C11.9999237,23.9924091 13.4493365,24.0619577 15.5777139,23.7798926 C17.80622,23.4845372 19.8258237,22.6958906 21.3049138,21.3050494 L21.3051719,21.3046623 C22.6958753,19.8256918 23.484904,17.8060752 23.7798704,15.5774259 C24.0620626,13.449164 23.9923855,11.9997419 23.9923855,11.9997419 C23.9923855,11.9997419 24.0618046,10.550578 23.7797413,8.42218697 Z" id="Path" fill="#FF9F1C" fill-rule="nonzero"></path>
                <path d="M11.7763892,18.8785981 L4.38374343,13.4694302 C4.24854383,13.3705052 4.21913744,13.1807097 4.31806242,13.0455101 C4.37518705,12.9674385 4.46612417,12.9212963 4.56286295,12.9212963 L6.08395376,12.9212963 C6.2128202,12.9212963 6.31728709,12.8168294 6.31728709,12.687963 C6.31728709,12.651731 6.30884946,12.6159968 6.2926427,12.5835916 L3.54190753,7.0835363 C3.46697204,6.93370387 3.52768801,6.75149347 3.67752044,6.67655799 C3.77764355,6.62648355 3.89720768,6.63562543 3.98855404,6.70033963 L10.7307692,11.4768519 L10.7307692,11.4768519 L11.7327894,13.8163716 C11.7835254,13.9348301 11.9206846,13.9897301 12.0391431,13.9389941 C12.0929851,13.9159335 12.1361847,13.8734666 12.1601629,13.820027 L13.2115385,11.4768519 L13.2115385,11.4768519 L19.9881009,6.71156817 C20.1251375,6.61520395 20.3143462,6.64817541 20.4107104,6.78521198 C20.4757148,6.87765267 20.4839419,6.99856523 20.4320583,7.09895918 L17.5990264,12.5808365 C17.5398621,12.6953186 17.584706,12.8360868 17.6991881,12.8952511 C17.7323038,12.9123653 17.7690379,12.9212963 17.8063145,12.9212963 L19.2692596,12.9212963 C19.4367859,12.9212963 19.5725929,13.0571033 19.5725929,13.2246296 C19.5725929,13.3210131 19.5267871,13.4116602 19.4491919,13.4688333 L12.1078217,18.8780472 C12.0093285,18.9506182 11.8751231,18.9508413 11.7763892,18.8785981 Z" id="Path-2" fill="#FFFFFF"></path>
            </g>
        </g>
    </g>
</svg>