<svg width="64" height="64" viewBox="0 0 64 64" fill="none" xmlns="http://www.w3.org/2000/svg">
<g clip-path="url(#clip0_19_1498)">
<path d="M63.4126 22.4592C62.6261 16.5158 60.5223 11.1308 56.8134 7.18654L56.8128 7.18585C52.8685 3.47728 47.4829 1.37388 41.5402 0.586609C35.8646 -0.16522 31.9998 0.0202423 31.9998 0.0202423C31.9998 0.0202423 28.135 -0.16522 22.459 0.586609C16.516 1.37422 11.1307 3.47728 7.18649 7.18585L7.18615 7.18654C3.47726 11.1308 1.37387 16.5161 0.586605 22.4592C-0.165219 28.1345 0.0202422 31.9997 0.0202422 31.9997C0.0202422 31.9997 -0.165219 35.8644 0.586605 41.5401C1.37387 47.4829 3.47726 52.8689 7.18615 56.8128L7.18649 56.8138C11.1307 60.5224 16.516 62.6258 22.4587 63.4134C28.1347 64.1652 31.9998 63.9798 31.9998 63.9798C31.9998 63.9798 35.8649 64.1652 41.5406 63.413C47.4833 62.6254 52.8689 60.5224 56.8131 56.8135L56.8138 56.8124C60.5223 52.8685 62.6264 47.4829 63.413 41.5398C64.1655 35.8644 63.9797 31.9993 63.9797 31.9993C63.9797 31.9993 64.1648 28.1349 63.4126 22.4592V22.4592Z" fill="#17B76D"/>
<g clip-path="url(#clip1_19_1498)">
<path d="M33.1214 37.1795L28.3877 32.536L28.4436 32.4805C31.6864 28.8915 33.9973 24.766 35.3577 20.4H40.8182V16.7H27.7727V13H24.0455V16.7H11V20.3815H31.8168C30.5682 23.952 28.5927 27.3375 25.9091 30.2975C24.1759 28.392 22.7409 26.3015 21.6041 24.1H17.8768C19.2373 27.1155 21.1009 29.9645 23.4305 32.536L13.9445 41.823L16.5909 44.45L25.9091 35.2L31.705 40.9535L33.1214 37.1795ZM43.6136 27.8H39.8864L31.5 50H35.2273L37.3145 44.45H46.1668L48.2727 50H52L43.6136 27.8ZM38.7309 40.75L41.75 32.7395L44.7691 40.75H38.7309Z" fill="white"/>
</g>
</g>
<defs>
<clipPath id="clip0_19_1498">
<rect width="64" height="64" fill="white"/>
</clipPath>
<clipPath id="clip1_19_1498">
<rect width="41" height="37" fill="white" transform="translate(11 13)"/>
</clipPath>
</defs>
</svg>
