<?xml version="1.0" encoding="UTF-8"?>
<svg width="24px" height="24px" viewBox="0 0 24 24" version="1.1" xmlns="http://www.w3.org/2000/svg" xmlns:xlink="http://www.w3.org/1999/xlink">
    <title>nitro-squircle</title>
    <g id="Page-1" stroke="none" stroke-width="1" fill="none" fill-rule="evenodd">
        <g id="Artboard" transform="translate(-235.000000, -51.000000)" fill-rule="nonzero">
            <g id="nitro-squircle" transform="translate(235.000000, 51.000000)">
                <path d="M23.7797413,8.42218697 C23.4847749,6.19340868 22.6958753,4.17405013 21.3050429,2.69495064 L21.3047848,2.69469258 C19.8256947,1.30398034 17.8060909,0.515204701 15.5775849,0.219978352 C13.4492074,-0.0619576505 11.9999237,0.00759086443 11.9999237,0.00759086443 C11.9999237,0.00759086443 10.5506399,-0.0619576505 8.42213339,0.219978352 C6.19349832,0.515333733 4.17402358,1.30398034 2.6949335,2.69469258 C1.30397205,4.17405013 0.515201423,6.19353772 0.219976952,8.42218697 C-0.0619572563,10.5504489 0.00759081614,11.999871 0.00759081614,11.999871 C0.00759081614,11.999871 -0.0619572563,13.449164 0.219976952,15.577555 C0.515201423,17.8060752 1.30397205,19.8258208 2.69480447,21.3047913 L2.6949335,21.3051784 C4.17402358,22.6958906 6.19349832,23.4846663 8.42200436,23.7800216 C10.5505109,24.0619577 11.9999237,23.9924091 11.9999237,23.9924091 C11.9999237,23.9924091 13.4493365,24.0619577 15.5777139,23.7798926 C17.80622,23.4845372 19.8258237,22.6958906 21.3049138,21.3050494 L21.3051719,21.3046623 C22.6958753,19.8256918 23.484904,17.8060752 23.7798704,15.5774259 C24.0620626,13.449164 23.9923855,11.9997419 23.9923855,11.9997419 C23.9923855,11.9997419 24.0618046,10.550578 23.7797413,8.42218697 Z" id="Path" fill="#5A9AF9"></path>
                <g id="Group" transform="translate(3.000000, 6.000000)" fill="#FFFFFF">
                    <path d="M1.62795349,3.89773404 C1.62795349,3.54866489 1.33730233,3.25782048 0.988465116,3.25782048 L0.639627906,3.25782048 C0.290790697,3.25782048 0,3.54866489 0,3.89773404 C0,4.24680319 0.290790697,4.5376476 0.639627906,4.5376476 L0.988465116,4.5376476 C1.33730233,4.5376476 1.62795349,4.24680319 1.62795349,3.89773404" id="Path"></path>
                    <path d="M11.8024824,0 C14.1281103,0.116449468 16.3373661,1.45450133 17.3838777,3.7234508 C18.8954591,6.92329785 17.5001103,10.7630585 14.1861568,12.2756449 C10.9885754,13.7301463 7.15136613,12.3338697 5.69783123,9.13402263 C5.40718006,8.49410905 5.23276146,7.79597075 5.17457542,7.09783244 L3.89545914,7.09783244 C3.54662193,7.09783244 3.25597076,6.80684839 3.25597076,6.45777926 C3.25597076,6.10871013 3.54662193,5.81786568 3.89545914,5.81786568 L5.75601727,5.81786568 C6.10485448,5.81786568 6.39550563,5.52702128 6.39550563,5.17795211 C6.39550563,4.82888298 6.10485448,4.53789893 5.75601727,4.53789893 L2.790901,4.53789893 C2.44206379,4.53789893 2.15127309,4.24705453 2.15127309,3.89798537 C2.15127309,3.54891622 2.44206379,3.25807181 2.790901,3.25807181 L6.91876147,3.25807181 C7.26759869,3.25807181 7.55824983,2.96708777 7.55824983,2.61801862 C7.55824983,2.26894947 7.26759869,1.97810505 6.91876147,1.97810505 L5.23276146,1.97810505 C4.70950565,1.97810505 4.24429635,1.57081117 4.24429635,0.989122341 C4.24429635,0.465518617 4.6513196,0 5.23276146,0 Z M14.8933116,4.88305851 C14.0491256,3.0434641 11.8744744,2.2368351 10.0361023,3.08158245 C8.19773022,3.92632979 7.3916372,6.10242688 8.23582327,7.94202128 C9.0800093,9.78161568 11.2546604,10.5882447 13.0930325,9.74349736 C14.9315442,8.89875 15.7374977,6.72265291 14.8933116,4.88305851 Z" id="Combined-Shape"></path>
                    <path d="M12.9651628,4.30512565 L14.127907,6.28323071 C14.186093,6.39954057 14.186093,6.4577653 14.127907,6.57407511 L12.9651628,8.55218018 C12.9069767,8.66849003 12.7907442,8.66849003 12.7325582,8.66849003 L10.4651163,8.66849003 C10.3488837,8.66849003 10.2906977,8.6102653 10.2326512,8.55218018 L9.06976743,6.57407511 C9.01172095,6.4577653 9.01172095,6.39954057 9.06976743,6.28323071 L10.2326512,4.30512565 C10.2906977,4.18881583 10.4070698,4.18881583 10.4651163,4.18881583 L12.7325582,4.18881583 C12.8489302,4.13059109 12.9069767,4.18881583 12.9651628,4.30512565" id="Path"></path>
                </g>
            </g>
        </g>
    </g>
</svg>