<?xml version="1.0" encoding="UTF-8"?>
<svg width="29px" height="45px" viewBox="0 0 29 45" version="1.1" xmlns="http://www.w3.org/2000/svg" xmlns:xlink="http://www.w3.org/1999/xlink">
    <title>Shape</title>
    <g id="Page-1" stroke="none" stroke-width="1" fill="none" fill-rule="evenodd">
        <g id="phone-portrait" transform="translate(0.880000, 0.250000)" fill="#000000" fill-rule="nonzero">
            <path d="M22.0864,0 L5.90862222,0 C4.34196622,0.00130742857 2.83982222,0.630633143 1.73206756,1.74974171 C0.624263111,2.86885029 0.00129422222,4.386272 0,5.96891429 L0,38.0310857 C0.00129422222,39.6135771 0.624263111,41.1312 1.73206756,42.2500571 C2.83982222,43.3694171 4.34196622,43.9984914 5.90862222,44 L22.0864,44 C23.6534044,43.9984914 25.1561956,43.3694171 26.2647467,42.25056 C27.3732978,41.1317029 27.9975111,39.61408 28,38.0310857 L28,5.96891429 C27.9975111,4.38581943 27.3732978,2.86839771 26.2647467,1.74944 C25.1561956,0.630482286 23.6534044,0.00130742857 22.0864,0 Z M17.3525333,37.4477714 L10.6474667,37.4477714 C10.3527324,37.4618514 10.0581973,37.4155886 9.78168178,37.3114971 C9.50516622,37.2074057 9.25249422,37.0474971 9.03889778,36.8418286 C8.82535111,36.63616 8.65531022,36.3887543 8.53912889,36.1146971 C8.42294756,35.84064 8.36306489,35.5459657 8.36306489,35.2477714 C8.36306489,34.9495771 8.42294756,34.6549029 8.53912889,34.3808457 C8.65531022,34.1067886 8.82535111,33.8593829 9.03889778,33.6537143 C9.25249422,33.4480457 9.50516622,33.2881371 9.78168178,33.1840457 C10.0581973,33.0799543 10.3527324,33.0336914 10.6474667,33.0477714 L17.3525333,33.0477714 C17.9120853,33.0749257 18.4399289,33.3183086 18.8264533,33.7281371 C19.2130276,34.1374629 19.4286649,34.6820571 19.4286649,35.2477714 C19.4286649,35.8134857 19.2130276,36.35808 18.8264533,36.7674057 C18.4399289,37.1772343 17.9120853,37.4206171 17.3525333,37.4477714 Z" id="Shape"></path>
        </g>
    </g>
</svg>