<svg width="168" height="168" viewBox="0 0 168 168" fill="none" xmlns="http://www.w3.org/2000/svg">
<path d="M100.25 43.25H67.75C64.6027 43.2526 61.585 44.5041 59.3596 46.7296C57.1341 48.9551 55.8826 51.9727 55.88 55.12V118.88C55.8826 122.027 57.1341 125.045 59.3596 127.27C61.585 129.496 64.6027 130.747 67.75 130.75H100.25C103.398 130.747 106.417 129.496 108.644 127.271C110.871 125.046 112.125 122.028 112.13 118.88V55.12C112.125 51.9718 110.871 48.9542 108.644 46.729C106.417 44.5038 103.398 43.2526 100.25 43.25ZM90.74 117.72H77.27C76.6779 117.748 76.0862 117.656 75.5307 117.449C74.9752 117.242 74.4676 116.924 74.0385 116.515C73.6095 116.106 73.2679 115.614 73.0345 115.069C72.8011 114.524 72.6808 113.938 72.6808 113.345C72.6808 112.752 72.8011 112.166 73.0345 111.621C73.2679 111.076 73.6095 110.584 74.0385 110.175C74.4676 109.766 74.9752 109.448 75.5307 109.241C76.0862 109.034 76.6779 108.942 77.27 108.97H90.74C91.8641 109.024 92.9245 109.508 93.701 110.323C94.4776 111.137 94.9108 112.22 94.9108 113.345C94.9108 114.47 94.4776 115.553 93.701 116.367C92.9245 117.182 91.8641 117.666 90.74 117.72Z" fill="black"/>
</svg>
