<svg width="42" height="42" viewBox="0 0 42 42" fill="none" xmlns="http://www.w3.org/2000/svg">
<path d="M30.5005 13.5V23C30.5005 24.103 29.6055 25 28.5005 25H19.5005V19.397C19.5005 17.522 17.9755 16 16.1035 16H12.0005V13.5C12.0005 12.395 12.8955 11.5 14.0005 11.5H28.5005C29.6055 11.5 30.5005 12.395 30.5005 13.5Z" fill="black"/>
<path d="M32.0005 28C32.0005 28.552 31.5525 29 31.0005 29H19.5005V27H31.0005C31.5525 27 32.0005 27.447 32.0005 28Z" fill="black"/>
<path d="M14.5 28.749H13C12.586 28.749 12.25 28.413 12.25 27.999C12.25 27.584 12.586 27.249 13 27.249H14.5C14.914 27.249 15.25 27.584 15.25 27.999C15.25 28.413 14.914 28.749 14.5 28.749ZM16.103 17.999H11.397C10.625 17.999 10 18.624 10 19.396V29.101C10 29.873 10.625 30.499 11.397 30.499H16.103C16.874 30.499 17.5 29.873 17.5 29.101V19.396C17.5 18.624 16.874 17.999 16.103 17.999Z" fill="black"/>
</svg>
