<?xml version="1.0" encoding="UTF-8" standalone="no"?>
<!DOCTYPE svg PUBLIC "-//W3C//DTD SVG 1.1//EN" "http://www.w3.org/Graphics/SVG/1.1/DTD/svg11.dtd">
<!-- Created with Vectornator (http://vectornator.io/) -->
<svg height="100%" stroke-miterlimit="10" style="fill-rule:nonzero;clip-rule:evenodd;stroke-linecap:round;stroke-linejoin:round;" version="1.1" viewBox="0 0 42 42" width="100%" xml:space="preserve" xmlns="http://www.w3.org/2000/svg" xmlns:xlink="http://www.w3.org/1999/xlink">
<defs/>
<g id="Untitled">
<path d="M25.1948 19.3106C25.7763 19.891 25.7763 20.8419 25.1948 21.4224L20.774 25.8432C20.1936 26.4236 19.2417 26.4236 18.6612 25.8432L16.419 23.5999C15.8375 23.0184 15.8375 22.0686 16.419 21.4871L20.8397 17.0663C21.4202 16.4858 22.3711 16.4858 22.9516 17.0663L25.1948 19.3106Z" fill="#000000" fill-rule="nonzero" opacity="1" stroke="none"/>
<path d="M16.0703 10.7673C16.5737 10.5401 17.166 10.764 17.3932 11.2674C17.6203 11.7708 17.3964 12.363 16.8931 12.5902C13.4586 14.1402 11.2 17.587 11.2 21.4552C11.2 25.5899 13.7855 29.2289 17.5754 30.5946C18.095 30.7819 18.3644 31.3549 18.1772 31.8744C17.9899 32.394 17.417 32.6634 16.8974 32.4762C12.3182 30.826 9.2 26.4373 9.2 21.4552C9.2 16.7956 11.924 12.6386 16.0703 10.7673Z" fill="#000000" fill-rule="nonzero" opacity="1" stroke="none"/>
<path d="M16.2068 10C17.0975 10 17.8599 10.581 17.8599 11.5406C17.8599 12.0929 17.4122 12.5406 16.8599 12.5406C16.5049 12.5406 16.1931 12.3556 16.0156 12.0767L15.9723 11.9995L14.5423 11.9995L14.6507 12.108C15.0112 12.4685 15.0389 13.0357 14.7339 13.428L14.6507 13.5222C14.2902 13.8827 13.723 13.9104 13.3307 13.6054L13.2365 13.5222L11.4214 11.7071C10.8188 11.1045 11.2008 10.0928 12.0149 10.006L12.1285 10L16.2068 10ZM23.434 11.0349C23.6212 10.5153 24.1941 10.2458 24.7138 10.4329C29.2946 12.0829 32.4133 16.4724 32.4133 21.4559C32.4133 26.1124 29.6886 30.2693 25.5432 32.1418C25.0399 32.3691 24.4476 32.1454 24.2202 31.6421C23.9929 31.1388 24.2166 30.5465 24.7199 30.3191C28.1539 28.7679 30.4133 25.3209 30.4133 21.4559C30.4133 17.3198 27.8274 13.6802 24.036 12.3146C23.5164 12.1274 23.2469 11.5545 23.434 11.0349Z" fill="#000000" fill-rule="nonzero" opacity="1" stroke="none"/>
<path d="M26.7176 29.143C27.0781 28.7826 27.6453 28.7548 28.0376 29.0598L28.1318 29.143L30.1909 31.2021C30.7934 31.8047 30.4114 32.8164 29.5974 32.9032L29.4838 32.9092L25.4065 32.9092C24.5157 32.9092 23.7533 32.3281 23.7533 31.3685C23.7533 30.8163 24.201 30.3685 24.7533 30.3685C25.1084 30.3685 25.4202 30.5536 25.5976 30.8325L25.6403 30.9085L27.0693 30.9085L26.7176 30.5572C26.3571 30.1968 26.3294 29.6295 26.6344 29.2372L26.7176 29.143Z" fill="#000000" fill-rule="nonzero" opacity="1" stroke="none"/>
</g>
</svg>
