<?xml version="1.0" encoding="UTF-8"?>
<svg width="30px" height="30px" viewBox="0 0 30 30" version="1.1" xmlns="http://www.w3.org/2000/svg" xmlns:xlink="http://www.w3.org/1999/xlink">
    <title>server-boost-squircle</title>
    <g id="Page-1" stroke="none" stroke-width="1" fill="none" fill-rule="evenodd">
        <g id="Artboard" transform="translate(-261.000000, -49.000000)" fill-rule="nonzero">
            <g id="server-boost-squircle" transform="translate(261.000000, 49.000000)">
                <path d="M29.7246767,10.5277337 C29.3559687,7.74176085 28.3698441,5.21756267 26.6313036,3.3686883 L26.630981,3.36836572 C24.7821184,1.62997543 22.2576137,0.644005876 19.4719811,0.274972939 C16.8115093,-0.0774470631 14.9999046,0.00948858053 14.9999046,0.00948858053 C14.9999046,0.00948858053 13.1882999,-0.0774470631 10.5276667,0.274972939 C7.74187289,0.644167166 5.21752948,1.62997543 3.36866687,3.36836572 L3.36850558,3.3686883 C1.62996506,5.21756267 0.644001779,7.74192215 0.27497119,10.5277337 C-0.0774465704,13.1880612 0.00948852017,14.9998387 0.00948852017,14.9998387 C0.00948852017,14.9998387 -0.0774465704,16.8114549 0.27497119,19.4719437 C0.644001779,22.257594 1.62996506,24.782276 3.36850558,26.6309891 L3.36866687,26.631473 C5.21752948,28.3698633 7.74187289,29.3558328 10.5275055,29.7250271 C13.1881386,30.0774471 14.9999046,29.9905114 14.9999046,29.9905114 C14.9999046,29.9905114 16.8116706,30.0774471 19.4721424,29.7248658 C22.257775,29.3556715 24.7822797,28.3698633 26.6311423,26.6313117 L26.6314649,26.6308278 C28.3698441,24.7821148 29.35613,22.257594 29.724838,19.4717824 C30.0775783,16.8114549 29.9904819,14.9996774 29.9904819,14.9996774 C29.9904819,14.9996774 30.0772557,13.1882225 29.7246767,10.5277337 Z" id="Path" fill="#7882FC"></path>
                <g id="Group" transform="translate(9.000000, 5.000000)" fill="#FFFFFF">
                    <path d="M6,0 L0,6.4 L0,12.8 L6,19.2 L12,12.8 L12,6.4 L6,0 Z M10.5,12.144 L6,16.944 L1.5,12.144 L1.5,7.056 L6,2.256 L10.5,7.056 L10.5,12.144 Z" id="Shape"></path>
                    <polygon id="Path" points="3 7.728 3 11.472 6 14.672 9 11.472 9 7.728 6 4.528"></polygon>
                </g>
            </g>
        </g>
    </g>
</svg>