<?xml version="1.0" encoding="UTF-8"?>
<svg width="97px" height="114px" viewBox="0 0 97 114" version="1.1" xmlns="http://www.w3.org/2000/svg" xmlns:xlink="http://www.w3.org/1999/xlink">
    <title>Combined Shape</title>
    <g id="Page-1" stroke="none" stroke-width="1" fill="none" fill-rule="evenodd">
        <g id="Artboard" transform="translate(-41.000000, -139.000000)" fill="#FFFFFF" fill-rule="nonzero">
            <g id="UNITY" transform="translate(41.328096, 139.250000)">
                <path d="M69.6652344,0.0874511719 C77.4255013,0.0874511719 83.8268669,2.54885742 88.8693311,7.47166992 C93.9117952,12.3944824 96.4330273,18.8214876 96.4330273,26.7526855 L96.4330273,72.7502148 C96.4330273,75.5256507 94.1830921,77.7755859 91.4076562,77.7755859 C88.6322204,77.7755859 86.3822852,75.5256507 86.3822852,72.7502148 L86.3822852,26.0860547 C86.3822852,21.6076628 84.7413477,17.7446224 81.4594727,14.4969336 C78.1775977,11.2492448 74.2461849,9.62540039 69.6652344,9.62540039 C65.0500977,9.62540039 61.1272314,11.2406982 57.8966357,14.4712939 C54.66604,17.7018896 53.0507422,21.5734766 53.0507422,26.0860547 L53.006,43.5294512 L53.4330273,86.1103516 C53.4330273,94.0415495 50.9117952,100.468555 45.8693311,105.391367 C40.8268669,110.31418 34.4255013,112.775586 26.6652344,112.775586 C18.8707813,112.775586 12.4779622,110.322726 7.48677734,105.417007 C2.49559245,100.511287 0,94.0757357 0,86.1103516 L0,40.1128223 C-3.39892859e-16,37.3373864 2.24993528,35.0874512 5.02537109,35.0874512 C7.80080691,35.0874512 10.0507422,37.3373864 10.0507422,40.1128223 L10.0507422,86.7769824 C10.0507422,91.2895605 11.66604,95.1611475 14.8966357,98.3917432 C18.1272314,101.622339 22.0500977,103.237637 26.6652344,103.237637 C31.2461849,103.237637 35.1775977,101.613792 38.4594727,98.3661035 C41.7413477,95.1184147 43.3822852,91.2553743 43.3822852,86.7769824 L43.391,74.1824512 L43,26.7526855 C43,18.96431 45.3859096,12.6385297 50.1577289,7.77534465 L50.4867773,7.44603027 C55.4779622,2.54031087 61.8707812,0.0874511719 69.6652344,0.0874511719 Z" id="Combined-Shape"></path>
            </g>
        </g>
    </g>
</svg>