<?xml version="1.0" encoding="UTF-8"?>
<svg width="24px" height="24px" viewBox="0 0 24 24" version="1.1" xmlns="http://www.w3.org/2000/svg" xmlns:xlink="http://www.w3.org/1999/xlink">
    <title>billing-squircle</title>
    <g id="Page-1" stroke="none" stroke-width="1" fill="none" fill-rule="evenodd">
        <g id="Artboard" transform="translate(-264.000000, -80.000000)">
            <g id="billing-squircle" transform="translate(264.000000, 80.000000)">
                <path d="M23.7797413,8.42218697 C23.4847749,6.19340868 22.6958753,4.17405013 21.3050429,2.69495064 L21.3047848,2.69469258 C19.8256947,1.30398034 17.8060909,0.515204701 15.5775849,0.219978352 C13.4492074,-0.0619576505 11.9999237,0.00759086443 11.9999237,0.00759086443 C11.9999237,0.00759086443 10.5506399,-0.0619576505 8.42213339,0.219978352 C6.19349832,0.515333733 4.17402358,1.30398034 2.6949335,2.69469258 L2.69480447,2.69495064 C1.30397205,4.17405013 0.515201423,6.19353772 0.219976952,8.42218697 C-0.0619572563,10.5504489 0.00759081614,11.999871 0.00759081614,11.999871 C0.00759081614,11.999871 -0.0619572563,13.449164 0.219976952,15.577555 C0.515201423,17.8060752 1.30397205,19.8258208 2.69480447,21.3047913 L2.6949335,21.3051784 C4.17402358,22.6958906 6.19349832,23.4846663 8.42200436,23.7800216 C10.5505109,24.0619577 11.9999237,23.9924091 11.9999237,23.9924091 C11.9999237,23.9924091 13.4493365,24.0619577 15.5777139,23.7798926 C17.80622,23.4845372 19.8258237,22.6958906 21.3049138,21.3050494 L21.3051719,21.3046623 C22.6958753,19.8256918 23.484904,17.8060752 23.7798704,15.5774259 C24.0620626,13.449164 23.9923855,11.9997419 23.9923855,11.9997419 C23.9923855,11.9997419 24.0618046,10.550578 23.7797413,8.42218697 Z" id="Path" fill="#0091EA" fill-rule="nonzero"></path>
                <g id="cardglyph" transform="translate(5.000000, 7.000000)" fill="#FFFFFF">
                    <path d="M13.3333333,0 L1.66666667,0 C1.22464167,0 0.800715,0.175593333 0.488154167,0.488154167 C0.175593333,0.800715 0,1.22464167 0,1.66666667 L0,1.92911667 L15,1.92911667 L15,1.66666667 C15,1.22464167 14.8244167,0.800715 14.5118333,0.488154167 C14.19925,0.175593333 13.7753333,0 13.3333333,0 Z M15,3.23328333 L0,3.23328333 L0,8.33333333 C0,8.77533333 0.175593333,9.19925 0.488154167,9.51183333 C0.800715,9.82441667 1.22464167,10 1.66666667,10 L13.3333333,10 C13.7753333,10 14.19925,9.82441667 14.5118333,9.51183333 C14.8244167,9.19925 15,8.77533333 15,8.33333333 L15,3.23328333 Z M12.8691667,4.34753333 L11.1308333,4.34753333 C11.0203333,4.34753333 10.9143333,4.39143333 10.8361667,4.469575 C10.7580833,4.54771667 10.7141667,4.65369167 10.7141667,4.7642 L10.7141667,5.67003333 C10.7141667,5.78054167 10.7580833,5.88651667 10.8361667,5.96465833 C10.9143333,6.0428 11.0203333,6.0867 11.1308333,6.0867 L12.8691667,6.0867 C12.9796667,6.0867 13.0856667,6.0428 13.1638333,5.96465833 C13.2419167,5.88651667 13.2858333,5.78054167 13.2858333,5.67003333 L13.2858333,4.7642 C13.2858333,4.65369167 13.2419167,4.54771667 13.1638333,4.469575 C13.0856667,4.39143333 12.9796667,4.34753333 12.8691667,4.34753333 Z" id="Shape"></path>
                </g>
            </g>
        </g>
    </g>
</svg>