<?xml version="1.0" encoding="UTF-8"?>
<svg width="24px" height="24px" viewBox="0 0 24 24" version="1.1" xmlns="http://www.w3.org/2000/svg" xmlns:xlink="http://www.w3.org/1999/xlink">
    <title>billing-squircle</title>
    <g id="Page-1" stroke="none" stroke-width="1" fill="none" fill-rule="evenodd">
        <g id="Artboard" transform="translate(-264.000000, -80.000000)">
            <g id="billing-squircle" transform="translate(264.000000, 80.000000)">
                <path d="M23.7797413,8.42218697 C23.4847749,6.19340868 22.6958753,4.17405013 21.3050429,2.69495064 L21.3047848,2.69469258 C19.8256947,1.30398034 17.8060909,0.515204701 15.5775849,0.219978352 C13.4492074,-0.0619576505 11.9999237,0.00759086443 11.9999237,0.00759086443 C11.9999237,0.00759086443 10.5506399,-0.0619576505 8.42213339,0.219978352 C6.19349832,0.515333733 4.17402358,1.30398034 2.6949335,2.69469258 L2.69480447,2.69495064 C1.30397205,4.17405013 0.515201423,6.19353772 0.219976952,8.42218697 C-0.0619572563,10.5504489 0.00759081614,11.999871 0.00759081614,11.999871 C0.00759081614,11.999871 -0.0619572563,13.449164 0.219976952,15.577555 C0.515201423,17.8060752 1.30397205,19.8258208 2.69480447,21.3047913 L2.6949335,21.3051784 C4.17402358,22.6958906 6.19349832,23.4846663 8.42200436,23.7800216 C10.5505109,24.0619577 11.9999237,23.9924091 11.9999237,23.9924091 C11.9999237,23.9924091 13.4493365,24.0619577 15.5777139,23.7798926 C17.80622,23.4845372 19.8258237,22.6958906 21.3049138,21.3050494 L21.3051719,21.3046623 C22.6958753,19.8256918 23.484904,17.8060752 23.7798704,15.5774259 C24.0620626,13.449164 23.9923855,11.9997419 23.9923855,11.9997419 C23.9923855,11.9997419 24.0618046,10.550578 23.7797413,8.42218697 Z" id="Path" fill="#0091EA" fill-rule="nonzero"></path>
                <g id="cardglyph" transform="translate(3.000000, 6.000000)" fill="#FFFFFF">
                    <path d="M16,0 L2,0 C1.46957,0 0.960858,0.210712 0.585785,0.585785 C0.210712,0.960858 0,1.46957 0,2 L0,2.31494 L18,2.31494 L18,2 C18,1.46957 17.7893,0.960858 17.4142,0.585785 C17.0391,0.210712 16.5304,0 16,0 Z M18,3.87994 L0,3.87994 L0,10 C0,10.5304 0.210712,11.0391 0.585785,11.4142 C0.960858,11.7893 1.46957,12 2,12 L16,12 C16.5304,12 17.0391,11.7893 17.4142,11.4142 C17.7893,11.0391 18,10.5304 18,10 L18,3.87994 Z M15.443,5.21704 L13.357,5.21704 C13.2244,5.21704 13.0972,5.26972 13.0034,5.36349 C12.9097,5.45726 12.857,5.58443 12.857,5.71704 L12.857,6.80404 C12.857,6.93665 12.9097,7.06382 13.0034,7.15759 C13.0972,7.25136 13.2244,7.30404 13.357,7.30404 L15.443,7.30404 C15.5756,7.30404 15.7028,7.25136 15.7966,7.15759 C15.8903,7.06382 15.943,6.93665 15.943,6.80404 L15.943,5.71704 C15.943,5.58443 15.8903,5.45726 15.7966,5.36349 C15.7028,5.26972 15.5756,5.21704 15.443,5.21704 Z" id="Shape"></path>
                </g>
            </g>
        </g>
    </g>
</svg>