<?xml version="1.0" encoding="UTF-8" standalone="no"?>
<!DOCTYPE svg PUBLIC "-//W3C//DTD SVG 1.1//EN" "http://www.w3.org/Graphics/SVG/1.1/DTD/svg11.dtd">
<!-- Created with Vectornator (http://vectornator.io/) -->
<svg height="100%" stroke-miterlimit="10" style="fill-rule:nonzero;clip-rule:evenodd;stroke-linecap:round;stroke-linejoin:round;" version="1.1" viewBox="0 0 42 42" width="100%" xml:space="preserve" xmlns="http://www.w3.org/2000/svg" xmlns:vectornator="http://vectornator.io" xmlns:xlink="http://www.w3.org/1999/xlink">
<defs/>
<g id="Untitled" vectornator:layerName="Untitled">
<path d="M27.8264 13.25L27.5864 13.25L14.4127 13.25C12.5282 13.25 11 14.7782 11 16.6636L11 25.3373C11 27.2227 12.5282 28.7518 14.4127 28.7518L27.5864 28.7518C29.4718 28.7518 31 27.2227 31 25.3373L31 16.6636C31 14.7782 29.7118 13.25 27.8264 13.25ZM21 24.3136C19.1155 24.3136 17.5864 22.7864 17.5864 20.9018C17.5864 19.0164 19.1155 17.4882 21 17.4882C22.8845 17.4882 24.4136 19.0164 24.4136 20.9018C24.4136 22.7864 22.8845 24.3136 21 24.3136ZM27.3073 18.3382C26.49 18.3382 25.8282 17.6755 25.8282 16.8591C25.8282 16.0427 26.49 15.38 27.3073 15.38C28.1236 15.38 28.7855 16.0427 28.7855 16.8591C28.7855 17.6755 28.1236 18.3382 27.3073 18.3382Z" fill="#030303" fill-rule="nonzero" opacity="1" stroke="#000000" stroke-linecap="butt" stroke-linejoin="miter" stroke-opacity="0" stroke-width="1"/>
</g>
</svg>
