<?xml version="1.0" encoding="UTF-8"?>
<svg width="24px" height="24px" viewBox="0 0 24 24" version="1.1" xmlns="http://www.w3.org/2000/svg" xmlns:xlink="http://www.w3.org/1999/xlink">
    <title>Devices</title>
    <g id="Page-1" stroke="none" stroke-width="1" fill="none" fill-rule="evenodd">
        <g id="Artboard" transform="translate(-249.000000, -171.000000)" fill-rule="nonzero">
            <g id="Devices" transform="translate(249.000000, 171.000000)">
                <path d="M23.7797413,8.42218697 C23.4847749,6.19340868 22.6958753,4.17405013 21.3050429,2.69495064 L21.3047848,2.69469258 C19.8256947,1.30398034 17.8060909,0.515204701 15.5775849,0.219978352 C13.4492074,-0.0619576505 11.9999237,0.00759086443 11.9999237,0.00759086443 C11.9999237,0.00759086443 10.5506399,-0.0619576505 8.42213339,0.219978352 C6.19349832,0.515333733 4.17402358,1.30398034 2.6949335,2.69469258 L2.69480447,2.69495064 C1.30397205,4.17405013 0.515201423,6.19353772 0.219976952,8.42218697 C-0.0619572563,10.5504489 0.00759081614,11.999871 0.00759081614,11.999871 C0.00759081614,11.999871 -0.0619572563,13.449164 0.219976952,15.577555 C0.515201423,17.8060752 1.30397205,19.8258208 2.69480447,21.3047913 L2.6949335,21.3051784 C4.17402358,22.6958906 6.19349832,23.4846663 8.42200436,23.7800216 C10.5505109,24.0619577 11.9999237,23.9924091 11.9999237,23.9924091 C11.9999237,23.9924091 13.4493365,24.0619577 15.5777139,23.7798926 C17.80622,23.4845372 19.8258237,22.6958906 21.3049138,21.3050494 L21.3051719,21.3046623 C22.6958753,19.8256918 23.484904,17.8060752 23.7798704,15.5774259 C24.0620626,13.449164 23.9923855,11.9997419 23.9923855,11.9997419 C23.9923855,11.9997419 24.0618046,10.550578 23.7797413,8.42218697 Z" id="Path" fill="#0091EA"></path>
                <g id="quick_panel_icon_ms_windows_link" transform="translate(5.433962, 6.339623)" fill="#FFFFFF">
                    <path d="M12.236727,1.19172111 L12.236727,6.8523964 C12.236727,7.5096306 11.7025025,8.04411752 11.0429291,8.04411752 L5.67083853,8.04411752 L5.67083853,4.70551082 C5.67083853,3.58827227 4.76056762,2.68137251 3.64317278,2.68137251 L1.19409636,2.68137251 L1.19409636,1.19172111 C1.19409636,0.533295198 1.72832093,0 2.38789427,0 L11.0429291,0 C11.7025025,0 12.236727,0.533295198 12.236727,1.19172111 Z" id="Path"></path>
                    <path d="M13.1320755,9.83169919 C13.1320755,10.1606142 12.8646647,10.4275597 12.5351765,10.4275597 L5.67083853,10.4275597 L5.67083853,9.23583863 L12.5351765,9.23583863 C12.8646647,9.23583863 13.1320755,9.5021883 13.1320755,9.83169919 Z" id="Path"></path>
                    <path d="M2.6860453,10.2779987 L1.79069687,10.2779987 C1.5435807,10.2779987 1.34302265,10.0777896 1.34302265,9.83110333 C1.34302265,9.58382119 1.5435807,9.38420791 1.79069687,9.38420791 L2.6860453,9.38420791 C2.93316147,9.38420791 3.13371952,9.58382119 3.13371952,9.83110333 C3.13371952,10.0777896 2.93316147,10.2779987 2.6860453,10.2779987 Z M3.64287433,3.87249776 L0.833867841,3.87249776 C0.373061847,3.87249776 0,4.24491061 0,4.70491496 L0,10.4877417 C0,10.947746 0.373061847,11.3207547 0.833867841,11.3207547 L3.64287433,11.3207547 C4.10308342,11.3207547 4.47674217,10.947746 4.47674217,10.4877417 L4.47674217,4.70491496 C4.47674217,4.24491061 4.10308342,3.87249776 3.64287433,3.87249776 Z" id="Shape"></path>
                </g>
            </g>
        </g>
    </g>
</svg>