<?xml version="1.0" encoding="UTF-8"?>
<svg width="24px" height="24px" viewBox="0 0 24 24" version="1.1" xmlns="http://www.w3.org/2000/svg" xmlns:xlink="http://www.w3.org/1999/xlink">
    <title>streamer-mode-squircle</title>
    <g id="Page-1" stroke="none" stroke-width="1" fill="none" fill-rule="evenodd">
        <g id="Artboard" transform="translate(-235.000000, -80.000000)" fill-rule="nonzero">
            <g id="streamer-mode-squircle" transform="translate(235.000000, 80.000000)">
                <path d="M23.7797413,8.42218697 C23.4847749,6.19340868 22.6958753,4.17405013 21.3050429,2.69495064 L21.3047848,2.69469258 C19.8256947,1.30398034 17.8060909,0.515204701 15.5775849,0.219978352 C13.4492074,-0.0619576505 11.9999237,0.00759086443 11.9999237,0.00759086443 C11.9999237,0.00759086443 10.5506399,-0.0619576505 8.42213339,0.219978352 C6.19349832,0.515333733 4.17402358,1.30398034 2.6949335,2.69469258 L2.69480447,2.69495064 C1.30397205,4.17405013 0.515201423,6.19353772 0.219976952,8.42218697 C-0.0619572563,10.5504489 0.00759081614,11.999871 0.00759081614,11.999871 C0.00759081614,11.999871 -0.0619572563,13.449164 0.219976952,15.577555 C0.515201423,17.8060752 1.30397205,19.8258208 2.69480447,21.3047913 L2.6949335,21.3051784 C4.17402358,22.6958906 6.19349832,23.4846663 8.42200436,23.7800216 C10.5505109,24.0619577 11.9999237,23.9924091 11.9999237,23.9924091 C11.9999237,23.9924091 13.4493365,24.0619577 15.5777139,23.7798926 C17.80622,23.4845372 19.8258237,22.6958906 21.3049138,21.3050494 L21.3051719,21.3046623 C22.6958753,19.8256918 23.484904,17.8060752 23.7798704,15.5774259 C24.0620626,13.449164 23.9923855,11.9997419 23.9923855,11.9997419 C23.9923855,11.9997419 24.0618046,10.550578 23.7797413,8.42218697 Z" id="Path" fill="#12B0F3"></path>
                <path d="M16.4330681,12.5957363 C15.8482384,12.5957363 15.3759945,12.1165954 15.3759945,11.5260264 C15.3759945,10.9345023 15.8482384,10.4553614 16.4330681,10.4553614 C17.0169492,10.4553614 17.4901418,10.9345023 17.4901418,11.5260264 C17.4901418,12.1165954 17.0169492,12.5957363 16.4330681,12.5957363 Z M14.0947769,10.0430774 C13.5118446,10.0430774 13.0377032,9.56393647 13.0377032,8.97241236 C13.0377032,8.38184334 13.5118446,7.90270244 14.0947769,7.90270244 C14.6796067,7.90270244 15.1518506,8.38184334 15.1518506,8.97241236 C15.1518506,9.56393647 14.6796067,10.0430774 14.0947769,10.0430774 Z M10.709532,10.7070298 L9.55655483,10.7070298 L9.55655483,11.8677128 C9.55655483,12.2521398 9.24662746,12.5641385 8.86475268,12.5641385 C8.48192914,12.5641385 8.17295054,12.2521398 8.17295054,11.8677128 L8.17295054,10.7070298 L7.01997332,10.7070298 C6.63714978,10.7070298 6.32817117,10.395031 6.32817117,10.010604 C6.32817117,9.62617704 6.63714978,9.31417831 7.01997332,9.31417831 L8.17295054,9.31417831 L8.17295054,8.1534157 C8.17295054,7.7689887 8.48192914,7.45698997 8.86475268,7.45698997 C9.24662746,7.45698997 9.55655483,7.7689887 9.55655483,8.1534157 L9.55655483,9.31417831 L10.709532,9.31417831 C11.0914068,9.31417831 11.4013342,9.62617704 11.4013342,10.010604 C11.4013342,10.395031 11.0914068,10.7070298 10.709532,10.7070298 Z M20,10.7645744 C20,7.5860874 17.4320304,5 14.2746455,5 L9.72535455,5 C6.56796956,5 4,7.5860874 4,10.7645744 L4,15.8308129 C4,17.170736 5.12253793,18 6.16300835,18 C6.70174433,18 7.22103079,17.7901172 7.62322479,17.409431 L10.1404358,15.0304407 L13.8586154,15.0304407 L16.3759055,17.409431 C16.7845036,17.7966437 17.289954,18 17.8360429,18 C18.8774621,18 20,17.170736 20,15.8308129 L20,10.7645744 Z" id="Shape" fill="#FFFFFF"></path>
            </g>
        </g>
    </g>
</svg>