<?xml version="1.0" encoding="UTF-8"?>
<svg width="24px" height="24px" viewBox="0 0 24 24" version="1.1" xmlns="http://www.w3.org/2000/svg" xmlns:xlink="http://www.w3.org/1999/xlink">
    <title>keyboard-squircle</title>
    <g id="Page-1" stroke="none" stroke-width="1" fill="none" fill-rule="evenodd">
        <g id="Artboard" transform="translate(-293.000000, -80.000000)">
            <g id="keyboard-squircle" transform="translate(293.000000, 80.000000)">
                <path d="M23.7797413,8.42218697 C23.4847749,6.19340868 22.6958753,4.17405013 21.3050429,2.69495064 L21.3047848,2.69469258 C19.8256947,1.30398034 17.8060909,0.515204701 15.5775849,0.219978352 C13.4492074,-0.0619576505 11.9999237,0.00759086443 11.9999237,0.00759086443 C11.9999237,0.00759086443 10.5506399,-0.0619576505 8.42213339,0.219978352 C6.19349832,0.515333733 4.17402358,1.30398034 2.6949335,2.69469258 C1.30397205,4.17405013 0.515201423,6.19353772 0.219976952,8.42218697 C-0.0619572563,10.5504489 0.00759081614,11.999871 0.00759081614,11.999871 C0.00759081614,11.999871 -0.0619572563,13.449164 0.219976952,15.577555 C0.515201423,17.8060752 1.30397205,19.8258208 2.69480447,21.3047913 L2.6949335,21.3051784 C4.17402358,22.6958906 6.19349832,23.4846663 8.42200436,23.7800216 C10.5505109,24.0619577 11.9999237,23.9924091 11.9999237,23.9924091 C11.9999237,23.9924091 13.4493365,24.0619577 15.5777139,23.7798926 C17.80622,23.4845372 19.8258237,22.6958906 21.3049138,21.3050494 L21.3051719,21.3046623 C22.6958753,19.8256918 23.484904,17.8060752 23.7798704,15.5774259 C24.0620626,13.449164 23.9923855,11.9997419 23.9923855,11.9997419 C23.9923855,11.9997419 24.0618046,10.550578 23.7797413,8.42218697 Z" id="Path-3" fill="#0D967C" fill-rule="nonzero"></path>
                <path d="M17.2539636,6 C18.7705576,6 20,7.22944236 20,8.74603636 L20,16.2539636 C20,17.7705576 18.7705576,19 17.2539636,19 L6.74603636,19 C5.22944236,19 4,17.7705576 4,16.2539636 L4,8.74603636 C4,7.22944236 5.22944236,6 6.74603636,6 L17.2539636,6 Z M15.5053333,14.9655172 L8.28133333,14.9655172 C7.80195017,14.9655172 7.41333333,15.3541341 7.41333333,15.8335172 L7.41333333,15.8906207 C7.41333333,16.3700039 7.80195017,16.7586207 8.28133333,16.7586207 L15.5053333,16.7586207 C15.9847165,16.7586207 16.3733333,16.3700039 16.3733333,15.8906207 L16.3733333,15.8335172 C16.3733333,15.3541341 15.9847165,14.9655172 15.5053333,14.9655172 Z M7.09333333,11.3793103 C6.56313997,11.3793103 6.13333333,11.8308852 6.13333333,12.387931 C6.13333333,12.9449769 6.56313997,13.3965517 7.09333333,13.3965517 C7.62352669,13.3965517 8.05333333,12.9449769 8.05333333,12.387931 C8.05333333,11.8308852 7.62352669,11.3793103 7.09333333,11.3793103 Z M16.9066667,11.3793103 C16.3764733,11.3793103 15.9466667,11.8308852 15.9466667,12.387931 C15.9466667,12.9449769 16.3764733,13.3965517 16.9066667,13.3965517 C17.43686,13.3965517 17.8666667,12.9449769 17.8666667,12.387931 C17.8666667,11.8308852 17.43686,11.3793103 16.9066667,11.3793103 Z M14.4533333,11.3793103 C13.92314,11.3793103 13.4933333,11.8308852 13.4933333,12.387931 C13.4933333,12.9449769 13.92314,13.3965517 14.4533333,13.3965517 C14.9835267,13.3965517 15.4133333,12.9449769 15.4133333,12.387931 C15.4133333,11.8308852 14.9835267,11.3793103 14.4533333,11.3793103 Z M9.54666667,11.3793103 C9.01647331,11.3793103 8.58666667,11.8308852 8.58666667,12.387931 C8.58666667,12.9449769 9.01647331,13.3965517 9.54666667,13.3965517 C10.07686,13.3965517 10.5066667,12.9449769 10.5066667,12.387931 C10.5066667,11.8308852 10.07686,11.3793103 9.54666667,11.3793103 Z M12,11.3793103 C11.4698066,11.3793103 11.04,11.8308852 11.04,12.387931 C11.04,12.9449769 11.4698066,13.3965517 12,13.3965517 C12.5301934,13.3965517 12.96,12.9449769 12.96,12.387931 C12.96,11.8308852 12.5301934,11.3793103 12,11.3793103 Z M7.09333333,8.46551724 C6.56313997,8.46551724 6.13333333,8.91709211 6.13333333,9.47413793 C6.13333333,10.0311838 6.56313997,10.4827586 7.09333333,10.4827586 C7.62352669,10.4827586 8.05333333,10.0311838 8.05333333,9.47413793 C8.05333333,8.91709211 7.62352669,8.46551724 7.09333333,8.46551724 Z M16.9066667,8.46551724 C16.3764733,8.46551724 15.9466667,8.91709211 15.9466667,9.47413793 C15.9466667,10.0311838 16.3764733,10.4827586 16.9066667,10.4827586 C17.43686,10.4827586 17.8666667,10.0311838 17.8666667,9.47413793 C17.8666667,8.91709211 17.43686,8.46551724 16.9066667,8.46551724 Z M14.4533333,8.46551724 C13.92314,8.46551724 13.4933333,8.91709211 13.4933333,9.47413793 C13.4933333,10.0311838 13.92314,10.4827586 14.4533333,10.4827586 C14.9835267,10.4827586 15.4133333,10.0311838 15.4133333,9.47413793 C15.4133333,8.91709211 14.9835267,8.46551724 14.4533333,8.46551724 Z M9.54666667,8.46551724 C9.01647331,8.46551724 8.58666667,8.91709211 8.58666667,9.47413793 C8.58666667,10.0311838 9.01647331,10.4827586 9.54666667,10.4827586 C10.07686,10.4827586 10.5066667,10.0311838 10.5066667,9.47413793 C10.5066667,8.91709211 10.07686,8.46551724 9.54666667,8.46551724 Z M12,8.46551724 C11.4698066,8.46551724 11.04,8.91709211 11.04,9.47413793 C11.04,10.0311838 11.4698066,10.4827586 12,10.4827586 C12.5301934,10.4827586 12.96,10.0311838 12.96,9.47413793 C12.96,8.91709211 12.5301934,8.46551724 12,8.46551724 Z" id="Combined-Shape" fill="#FFFFFF"></path>
            </g>
        </g>
    </g>
</svg>