<svg width="40" height="40" viewBox="0 0 40 40" fill="none" xmlns="http://www.w3.org/2000/svg">
<path d="M25.607 21.3767C24.8673 21.3767 24.27 20.7747 24.27 20.0327C24.27 19.2895 24.8673 18.6875 25.607 18.6875C26.3455 18.6875 26.944 19.2895 26.944 20.0327C26.944 20.7747 26.3455 21.3767 25.607 21.3767ZM22.6495 18.1695C21.9122 18.1695 21.3125 17.5675 21.3125 16.8243C21.3125 16.0823 21.9122 15.4803 22.6495 15.4803C23.3892 15.4803 23.9865 16.0823 23.9865 16.8243C23.9865 17.5675 23.3892 18.1695 22.6495 18.1695ZM18.3678 19.0037H16.9095V20.462C16.9095 20.945 16.5175 21.337 16.0345 21.337C15.5503 21.337 15.1595 20.945 15.1595 20.462V19.0037H13.7012C13.217 19.0037 12.8262 18.6117 12.8262 18.1287C12.8262 17.6457 13.217 17.2537 13.7012 17.2537H15.1595V15.7953C15.1595 15.3123 15.5503 14.9203 16.0345 14.9203C16.5175 14.9203 16.9095 15.3123 16.9095 15.7953V17.2537H18.3678C18.8508 17.2537 19.2428 17.6457 19.2428 18.1287C19.2428 18.6117 18.8508 19.0037 18.3678 19.0037ZM30.1185 19.076C30.1185 15.0825 26.8705 11.8333 22.877 11.8333H17.123C13.1295 11.8333 9.8815 15.0825 9.8815 19.076V25.4413C9.8815 27.1248 11.3013 28.1667 12.6173 28.1667C13.2987 28.1667 13.9555 27.903 14.4642 27.4247L17.648 24.4357H22.3508L25.5347 27.4247C26.0515 27.9112 26.6908 28.1667 27.3815 28.1667C28.6987 28.1667 30.1185 27.1248 30.1185 25.4413V19.076Z" fill="black"/>
</svg>
