<?xml version="1.0" encoding="UTF-8"?>
<svg width="25px" height="25px" viewBox="0 0 25 25" version="1.1" xmlns="http://www.w3.org/2000/svg" xmlns:xlink="http://www.w3.org/1999/xlink">
    <title>server-boost-squircle</title>
    <g id="Page-1" stroke="none" stroke-width="1" fill="none" fill-rule="evenodd">
        <g id="Artboard" transform="translate(-263.000000, -51.000000)" fill-rule="nonzero">
            <g id="server-boost-squircle" transform="translate(263.000000, 51.000000)">
                <path d="M24.7705639,8.77311143 C24.4633072,6.45146738 23.6415367,4.34796889 22.192753,2.80724025 L22.1924842,2.80697143 C20.6517653,1.35831286 18.5480114,0.536671563 16.2266509,0.229144116 C14.0095911,-0.0645392193 12.4999205,0.00790715044 12.4999205,0.00790715044 C12.4999205,0.00790715044 10.9902499,-0.0645392193 8.77305562,0.229144116 C6.45156075,0.536805972 4.34794123,1.35831286 2.80722239,2.80697143 L2.80708799,2.80724025 C1.35830422,4.34796889 0.536668149,6.45160179 0.229142658,8.77311143 C-0.0645388087,10.990051 0.00790710014,12.4998656 0.00790710014,12.4998656 C0.00790710014,12.4998656 -0.0645388087,14.0095458 0.229142658,16.2266198 C0.536668149,18.547995 1.35830422,20.6518967 2.80708799,22.1924909 L2.80722239,22.1928942 C4.34794123,23.6415527 6.45156075,24.463194 8.77292121,24.7708559 C10.9901155,25.0645392 12.4999205,24.9920928 12.4999205,24.9920928 C12.4999205,24.9920928 14.0097255,25.0645392 16.2267853,24.7707215 C18.5481458,24.4630596 20.6518997,23.6415527 22.1926186,22.1927597 L22.1928874,22.1923565 C23.6415367,20.6517623 24.4634416,18.547995 24.7706983,16.2264853 C25.0646486,14.0095458 24.9920683,12.4997312 24.9920683,12.4997312 C24.9920683,12.4997312 25.0643798,10.9901854 24.7705639,8.77311143 Z" id="Path" fill="#7882FC"></path>
                <g id="Group" transform="translate(8.000000, 4.500000)" fill="#FFFFFF">
                    <path d="M4.68748283,0 L9.375,4.58669601 L9.375,11.038304 L4.68748283,15.625 L0,11.038304 L0,4.58669601 L4.68748283,0 Z M4.68748283,3.24260927 L2.34375859,5.53595728 L2.34375859,10.0890427 L4.68748283,12.3823907 L7.03124141,10.0890427 L7.03124141,5.53594888 L4.68748283,3.24260927 Z" id="Combined-Shape"></path>
                    <polygon id="Path" points="4.68748283 0 4.68748283 3.24260927 7.03124141 5.53595728 9.375 4.58669601"></polygon>
                </g>
            </g>
        </g>
    </g>
</svg>