<?xml version="1.0" encoding="UTF-8"?>
<svg width="32px" height="32px" viewBox="0 0 32 32" version="1.1" xmlns="http://www.w3.org/2000/svg" xmlns:xlink="http://www.w3.org/1999/xlink">
    <title>subscriptions</title>
    <g id="Page-1" stroke="none" stroke-width="1" fill="none" fill-rule="evenodd">
        <g id="Artboard" transform="translate(-161.000000, -76.000000)">
            <g id="subscriptions" transform="translate(161.000000, 76.000000)">
                <path d="M31.7063218,11.2295826 C31.3130332,8.25787825 30.261167,5.56540018 28.4067238,3.59326752 L28.4063797,3.59292344 C26.4342596,1.73864046 23.7414546,0.686939601 20.7701132,0.293304469 C17.9322766,-0.0826102006 15.9998982,0.0101211526 15.9998982,0.0101211526 C15.9998982,0.0101211526 14.0675199,-0.0826102006 11.2295112,0.293304469 C8.25799775,0.687111644 5.56536477,1.73864046 3.59324466,3.59292344 L3.59307262,3.59326752 C1.7386294,5.56540018 0.686935231,8.25805029 0.293302603,11.2295826 C-0.0826096751,14.0672653 0.0101210882,15.999828 0.0101210882,15.999828 C0.0101210882,15.999828 -0.0826096751,17.9322186 0.293302603,20.7700733 C0.686935231,23.7414336 1.7386294,26.4344278 3.59307262,28.4063884 L3.59324466,28.4069045 C5.56536477,30.2611875 8.25799775,31.3128884 11.2293392,31.7066955 C14.0673478,32.0826102 15.9998982,31.9898788 15.9998982,31.9898788 C15.9998982,31.9898788 17.9324486,32.0826102 20.7702852,31.7065235 C23.7416266,31.3127163 26.4344317,30.2611875 28.4065518,28.4067325 L28.4068958,28.4062163 C30.261167,26.4342557 31.3132053,23.7414336 31.7064938,20.7699012 C32.0827502,17.9322186 31.9898474,15.9996559 31.9898474,15.9996559 C31.9898474,15.9996559 32.0824061,14.0674373 31.7063218,11.2295826 Z" id="Path" fill="#17B76D" fill-rule="nonzero"></path>
                <path d="M19.2826634,6.37555244 C23.2791275,7.806972 26,11.6149818 26,15.9383026 C26,18.7093968 24.8814108,21.2765414 23.0114624,23.1399337 L24.3211696,24.4979812 C24.8325521,25.0281883 24.5083228,25.9183485 23.8174259,25.9947208 L23.7210059,26 L20.2603256,26 C19.5515985,26 18.9386291,25.5507508 18.864626,24.7990727 C18.8594487,24.7911174 18.8556843,24.783153 18.852028,24.7751062 C18.6537229,24.3384798 18.8488872,23.8246436 19.2879853,23.6273679 C22.2839375,22.28166 24.2551239,19.2912945 24.2551239,15.9383026 C24.2551239,12.3501242 21.9990865,9.19267288 18.6913249,8.007978 C18.2380061,7.84557695 18.0028841,7.34857073 18.1661172,6.8978037 C18.3294376,6.44703666 18.8292574,6.21323814 19.2826634,6.37555244 Z M11.8608331,6 C12.6379137,6 13.3030604,6.50403319 13.3030604,7.3365121 C13.3030604,7.5078113 13.2531357,7.6675118 13.1669648,7.80201182 C13.0974396,8.03168244 12.9300694,8.23221742 12.6889398,8.33858949 C9.7027361,9.65558201 7.73894524,12.5842335 7.73894524,15.870937 C7.73894524,19.3840783 9.9869667,22.4760369 13.282181,23.6364347 C13.733959,23.7955784 13.9681949,24.2824408 13.8054296,24.7238457 C13.6425774,25.1653356 13.1444565,25.3942374 12.6926785,25.2351787 C8.71118952,23.833049 6,20.1040909 6,15.870937 C6,13.1427487 7.12463405,10.617339 9.00357195,8.79044303 L7.68586822,7.48095535 C7.16013707,6.95818358 7.49340839,6.08050651 8.20366019,6.00520516 L8.30276915,6 L11.8608331,6 Z" id="Combined-Shape" fill="#FFFFFF" fill-rule="nonzero"></path>
                <g id="dollar-sign" transform="translate(13.000000, 10.000000)" stroke="#FFFFFF" stroke-linecap="round" stroke-linejoin="round" stroke-width="1.08">
                    <g id="ic_symbol_category_symbol">
                        <path d="M0,8.21689412 C0.02351284,8.61501176 0.127424423,8.96795294 0.31097627,9.27783529 C0.495286597,9.58630588 0.744826092,9.84748235 1.06111171,10.0599529 C1.37739733,10.2724235 1.74829342,10.4347765 2.17228302,10.5470118 C2.59778958,10.6585412 3.06197855,10.7143059 3.56712537,10.7143059 C4.01083541,10.7143059 4.43937588,10.6677176 4.85122982,10.5724235 C5.26384224,10.4778353 5.63018745,10.3359529 5.94874851,10.1467765 C6.26730957,9.9576 6.52215841,9.72254118 6.71329505,9.44230588 C6.90443168,9.16277647 7,8.83524706 7,8.46042353 C7,8.08983529 6.91353343,7.77712941 6.74135876,7.52230588 C6.56918409,7.26677647 6.33784809,7.05148235 6.04810922,6.87642353 C5.75761188,6.70065882 5.42463972,6.55383529 5.04995124,6.43595294 C4.67450428,6.31807059 2.32473724,5.68277647 1.94929028,5.56489412 C1.5746018,5.44701176 1.24238812,5.30018824 0.951890779,5.12442353 C0.661393434,4.94865882 0.430057428,4.73336471 0.25864124,4.47854118 C0.0857080941,4.22371765 0,3.91030588 0,3.53971765 C0,3.1656 0.0955683173,2.83807059 0.286704952,2.55783529 C0.477841586,2.2776 0.732690432,2.04324706 1.05125149,1.85336471 C1.36981255,1.66489412 1.73539928,1.52301176 2.1480117,1.42771765 C2.56062412,1.33312941 2.98916459,1.28654118 3.43211616,1.28654118 C3.93726298,1.28654118 4.40221042,1.34230588 4.8269585,1.45383529 C5.25170658,1.56607059 5.62184419,1.72842353 5.93812981,1.94018824 C6.25441543,2.15336471 6.50395492,2.41383529 6.68826525,2.72301176 C6.87257558,3.03218824 6.97572868,3.38512941 7,3.78324706 M3.4998483,0 L3.4998483,12" id="Shape"></path>
                    </g>
                </g>
            </g>
        </g>
    </g>
</svg>