<?xml version="1.0" encoding="UTF-8"?>
<svg width="40px" height="40px" viewBox="0 0 40 40" version="1.1" xmlns="http://www.w3.org/2000/svg" xmlns:xlink="http://www.w3.org/1999/xlink">
    <title>subscriptions</title>
    <g id="Page-1" stroke="none" stroke-width="1" fill="none" fill-rule="evenodd">
        <g id="Artboard" transform="translate(-95.000000, -149.000000)" fill-rule="nonzero">
            <g id="subscriptions" transform="translate(95.000000, 149.000000)">
                <path d="M39.6329022,14.0369783 C39.1412915,10.3223478 37.8264588,6.95675022 35.5084048,4.4915844 L35.5079747,4.49115429 C33.0428245,2.17330057 29.6768182,0.858674501 25.9626415,0.366630586 C22.4153457,-0.103262751 19.9998728,0.0126514407 19.9998728,0.0126514407 C19.9998728,0.0126514407 17.5843998,-0.103262751 14.036889,0.366630586 C10.3224972,0.858889555 6.95670597,2.17330057 4.49155583,4.49115429 L4.49134078,4.4915844 C2.17328675,6.95675022 0.858669038,10.3225629 0.366628253,14.0369783 C-0.103262094,17.5840816 0.0126513602,19.9997849 0.0126513602,19.9997849 C0.0126513602,19.9997849 -0.103262094,22.4152733 0.366628253,25.9625916 C0.858669038,29.676792 2.17328675,33.0430347 4.49134078,35.5079855 L4.49155583,35.5086307 C6.95670597,37.8264844 10.3224972,39.1411104 14.0366739,39.6333694 C17.5841848,40.1032628 19.9998728,39.9873486 19.9998728,39.9873486 C19.9998728,39.9873486 22.4155608,40.1032628 25.9628565,39.6331544 C29.6770333,39.1408954 33.0430396,37.8264844 35.5081897,35.5084156 L35.5086198,35.5077704 C37.8264588,33.0428197 39.1415066,29.676792 39.6331173,25.9623765 C40.1034377,22.4152733 39.9873092,19.9995699 39.9873092,19.9995699 C39.9873092,19.9995699 40.1030076,17.5842966 39.6329022,14.0369783 Z" id="Path" fill="#17B76D"></path>
                <path d="M14.3629528,7.10560985 C14.9757224,6.83534599 15.6967065,7.10168436 15.9732683,7.70049962 C16.2497084,8.29931488 15.9771635,9.00376143 15.3645157,9.27402529 C11.1838305,11.1178148 8.43452334,15.2179269 8.43452334,19.8193118 C8.43452334,24.7377096 11.5817534,29.0664516 16.1950534,30.6910086 C16.8275425,30.9138098 17.1554728,31.5954171 16.9276015,32.213384 C16.6996083,32.8314698 16.0022391,33.1519323 15.36975,32.9292501 C9.79566533,30.9662685 6,25.7457272 6,19.8193118 C6,14.2765237 9.31582078,9.3315991 14.3629528,7.10560985 Z" id="Path" fill="#FFFFFF"></path>
                <path d="M14.2051664,6 C15.2930792,6 16.2242846,6.70564646 16.2242846,7.87111694 C16.2242846,8.54190617 15.6774579,9.08565475 15.0028714,9.08565475 C14.5692697,9.08565475 14.188433,8.86096525 13.9716322,8.52223066 L13.918745,8.42846834 L12.1721241,8.42846834 L12.3045253,8.56024569 C12.7448447,8.99808657 12.7786779,9.68697241 12.4061468,10.1634356 L12.3045253,10.2778451 C11.8642058,10.7156859 11.1714202,10.7493286 10.6922598,10.3788946 L10.5772027,10.2778451 L8.36021551,8.07333749 C7.62419189,7.34145701 8.09077175,6.11270911 9.08512426,6.00728723 L9.22387681,6 L14.2051664,6 Z M23.0325641,7.25692517 C23.2612127,6.62585133 23.9609603,6.29853339 24.5957288,6.52577342 C30.1907785,8.52976079 34,13.8609745 34,19.9136236 C34,25.5691189 30.6720154,30.6178311 25.6087689,32.8920532 C24.9940317,33.1681176 24.2705886,32.8964255 23.9928392,32.2851486 C23.715212,31.6738718 23.9884421,30.954501 24.6031794,30.6783151 C28.7975125,28.7943241 31.5571735,24.6078123 31.5571735,19.9136236 C31.5571735,14.8901738 28.398721,10.469742 23.7678549,8.8111692 C23.1332086,8.58380773 22.8040377,7.88799902 23.0325641,7.25692517 Z" id="Shape" fill="#FFFFFF"></path>
                <path d="M27.5224028,29.3607496 C27.9507758,28.9168046 28.6247652,28.8825602 29.0909254,29.2582628 L29.2028609,29.3607496 L31.6496374,31.8971737 C32.3655729,32.6394636 31.911652,33.8856878 30.9443963,33.9926091 L30.8094083,34 L25.9644558,34 C24.9059407,34 24,33.284194 24,32.1021472 C24,31.4219406 24.5319906,30.8703352 25.1882747,30.8703352 C25.6102311,30.8703352 25.9807351,31.0983436 26.1915351,31.441896 L26.2422744,31.5355137 L27.940319,31.5355137 L27.5224028,31.1027782 C27.0940297,30.6588331 27.0611145,29.9600261 27.4235383,29.4767863 L27.5224028,29.3607496 Z" id="Path" fill="#FFFFFF"></path>
                <g id="dollar-sign" transform="translate(15.000000, 11.000000)" fill="#FFFFFF">
                    <path d="M5.38311077,7.9 C3.15324677,7.31 2.43615393,6.7 2.43615393,5.75 C2.43615393,4.66 3.42829607,3.9 5.08841509,3.9 C6.83694282,3.9 7.48527332,4.75 7.54421246,6 L9.71512751,6 C9.64636518,4.28 8.61494011,2.7 6.56189351,2.19 L6.56189351,1.47347842 C6.56189351,0.659698759 5.90219475,5.73292634e-16 5.08841509,0 C4.27463543,1.49488898e-16 3.61493667,0.659698759 3.61493667,1.47347842 L3.61493667,2.16 L3.61493667,2.16 C1.70923791,2.58 0.17681741,3.84 0.17681741,5.77 C0.17681741,8.08 2.05304955,9.23 4.79371941,9.9 C7.24951677,10.5 7.74067625,11.38 7.74067625,12.31 C7.74067625,13 7.25933996,14.1 5.08841509,14.1 C3.06483806,14.1 2.26915971,13.18 2.16110463,12 L0,12 C0.117878274,14.19 1.72888429,15.42 3.61493667,15.83 L3.61493667,16.5265216 C3.61493667,17.3403012 4.27463543,18 5.08841509,18 C5.90219475,18 6.56189351,17.3403012 6.56189351,16.5265216 L6.56189351,15.85 L6.56189351,15.85 C8.47741546,15.48 10,14.35 10,12.3 C10,9.46 7.61297478,8.49 5.38311077,7.9 Z" id="Path"></path>
                </g>
            </g>
        </g>
    </g>
</svg>