<?xml version="1.0" encoding="UTF-8" standalone="no"?>
<svg
   width="35"
   height="41.666561"
   viewBox="0 0 35 41.666561"
   fill="none"
   version="1.1"
   id="svg6"
   sodipodi:docname="accessibility-glyph.svg"
   xmlns:inkscape="http://www.inkscape.org/namespaces/inkscape"
   xmlns:sodipodi="http://sodipodi.sourceforge.net/DTD/sodipodi-0.dtd"
   xmlns="http://www.w3.org/2000/svg"
   xmlns:svg="http://www.w3.org/2000/svg">
  <defs
     id="defs10" />
  <sodipodi:namedview
     id="namedview8"
     pagecolor="#ffffff"
     bordercolor="#666666"
     borderopacity="1.0"
     inkscape:showpageshadow="2"
     inkscape:pageopacity="0.0"
     inkscape:pagecheckerboard="0"
     inkscape:deskcolor="#d1d1d1" />
  <path
     d="m 0,14.903585 c 0,1.4 1.1,2.5 2.5,2.5 l 8.2,0.6 c 0.2,0 0.5,0.2 0.5,0.4 0.3,1.3 0.5,2.1 0.5,3.4 0,0.6 -0.1,1.1 -0.2,1.7 l -4.2,14.9 c -0.4,1.3 0.4,2.7 1.8,3.1 1.3,0.4 2.7,-0.4 3.1,-1.8 l 4.7,-11.7 h 0.4 0.4 l 4.6,11.8 c 0.4,1.3 1.7,2.1 3.1,1.8 1.3,-0.4 2.1,-1.7 1.8,-3.1 l -4.2,-14.9 c -0.1,-0.5 -0.2,-1.1 -0.2,-1.7 0,-1.3 0.2,-2.2 0.5,-3.4 0.1,-0.2 0.3,-0.4 0.5,-0.4 l 8.7,-0.6 c 1.4,0 2.5,-1.1 2.5,-2.5 0,-1.4 -1.1,-2.5 -2.5,-2.5 h -30 c -1.3,-0.1 -2.5,1 -2.5,2.4 z"
     fill="#000000"
     id="path2" />
  <path
     d="m 12.9,4.3035847 c 0,2.4 1.9,4.3 4.3,4.3 2.4,0 4.3,-1.9 4.3,-4.3 0,-2.4 -1.9,-4.29998997 -4.3,-4.29998997 -2.4,-0.1 -4.3,1.89998997 -4.3,4.29998997 z"
     fill="#000000"
     id="path4" />
</svg>
