<?xml version="1.0" encoding="UTF-8" standalone="no"?>
<svg
   width="17.537001"
   height="14.500799"
   viewBox="0 0 17.537001 14.500799"
   fill="none"
   version="1.1"
   id="svg78"
   sodipodi:docname="arrow-right.svg"
   xmlns:inkscape="http://www.inkscape.org/namespaces/inkscape"
   xmlns:sodipodi="http://sodipodi.sourceforge.net/DTD/sodipodi-0.dtd"
   xmlns="http://www.w3.org/2000/svg"
   xmlns:svg="http://www.w3.org/2000/svg">
  <defs
     id="defs82" />
  <sodipodi:namedview
     id="namedview80"
     pagecolor="#ffffff"
     bordercolor="#666666"
     borderopacity="1.0"
     inkscape:showpageshadow="2"
     inkscape:pageopacity="0.0"
     inkscape:pagecheckerboard="0"
     inkscape:deskcolor="#d1d1d1" />
  <path
     d="m 16.999,5.9877993 -6.02,-5.77803999 c -0.297,-0.287 -0.772,-0.279 -1.059,0.021 -0.287,0.299 -0.277,0.77399999 0.021,1.06099999 l 5.426,5.20904 H 0.75 c -0.415,0 -0.75,0.336 -0.75,0.75 0,0.414 0.335,0.75 0.75,0.75 H 15.367 L 9.941,13.209799 c -0.298,0.286 -0.308,0.761 -0.021,1.06 0.146,0.154 0.344,0.231 0.541,0.231 0.186,0 0.374,-0.07 0.518,-0.209 L 17,8.5117993 c 0.347,-0.333 0.537,-0.781 0.537,-1.261 0,-0.482 -0.19,-0.93 -0.538,-1.263 z"
     fill="#252525"
     id="path76" />
</svg>
