<?xml version="1.0" encoding="UTF-8" standalone="no"?>
<svg
   width="14.799943"
   height="17.838051"
   viewBox="0 0 14.799943 17.838051"
   fill="none"
   version="1.1"
   id="svg90"
   sodipodi:docname="arrow-up.svg"
   xmlns:inkscape="http://www.inkscape.org/namespaces/inkscape"
   xmlns:sodipodi="http://sodipodi.sourceforge.net/DTD/sodipodi-0.dtd"
   xmlns="http://www.w3.org/2000/svg"
   xmlns:svg="http://www.w3.org/2000/svg">
  <defs
     id="defs94" />
  <sodipodi:namedview
     id="namedview92"
     pagecolor="#ffffff"
     bordercolor="#666666"
     borderopacity="1.0"
     inkscape:showpageshadow="2"
     inkscape:pageopacity="0.0"
     inkscape:pagecheckerboard="0"
     inkscape:deskcolor="#d1d1d1" />
  <path
     d="m 7.4000199,0 c 0.4633,0 0.9005,0.1645 1.2461,0.4651 l 0.1251,0.119 5.7780001,6.02005 c 0.3441,0.3585 0.3326,0.9272 -0.0258,1.2735 -0.1706,0.1625 -0.3933,0.2504 -0.6234,0.2504 -0.2024,0 -0.3989,-0.0682 -0.5583,-0.1945 L 13.25082,7.85095 8.2990199,2.692 l 0.001,14.24605 c 0,0.4593 -0.3433,0.8375 -0.7871,0.893 l -0.1129,0.007 c -0.4589,0 -0.8375,-0.3429 -0.893,-0.787 l -0.007,-0.113 -10e-4,-14.24504 -4.9498,5.15794 c -0.3154,0.3286 -0.82039998,0.3656 -1.17939998,0.1046 l -0.094,-0.0786 c -0.3278,-0.3168 -0.3648,-0.8211 -0.1036,-1.179 l 0.0786,-0.0938 L 6.0289199,0.584 C 6.3906199,0.2082 6.8788199,0 7.4000199,0 Z"
     fill="#252525"
     id="path88" />
</svg>
