<svg width="40" height="40" viewBox="0 0 40 40" fill="none" xmlns="http://www.w3.org/2000/svg">
<path fill-rule="evenodd" clip-rule="evenodd" d="M10.0472 12.0311L21.1597 1.80136C22.6499 0.339632 23.8682 0.93544 23.8682 3.11759V36.8812C23.8682 39.0659 22.6499 39.659 21.1597 38.2L10.0472 27.9675V27.8882V27.867C9.81176 27.9092 9.57398 27.9384 9.32888 27.9384H4.24705C1.9099 27.9384 0 25.8517 0 23.3043V16.6839C0 14.1338 1.9099 12.0496 4.24705 12.0496H9.32888C9.57398 12.0496 9.81176 12.0788 10.0472 12.1212V12.1133V12.0311ZM34.5198 33.7862C41.6934 26.1723 41.6934 13.8276 34.5198 6.21372C33.9373 5.59543 32.9928 5.59543 32.4102 6.21372C31.8276 6.83201 31.8276 7.83458 32.4102 8.45287C38.4187 14.8302 38.4187 25.1697 32.4102 31.547C31.8276 32.1653 31.8276 33.1679 32.4102 33.7862C32.9928 34.4045 33.9373 34.4045 34.5198 33.7862ZM30.5749 29.6038C35.5719 24.3001 35.5719 15.701 30.5749 10.3973C29.9923 9.77905 29.0478 9.77905 28.4651 10.3973C27.8826 11.0156 27.8826 12.0182 28.4651 12.6365C32.297 16.7036 32.297 23.2975 28.4651 27.3646C27.8826 27.9829 27.8826 28.9855 28.4651 29.6038C29.0478 30.2221 29.9923 30.2221 30.5749 29.6038Z" fill="black"/>
</svg>
