<?xml version="1.0" encoding="UTF-8" standalone="no"?>
<svg
   width="39.499992"
   height="39.500038"
   viewBox="0 0 39.499992 39.500038"
   fill="none"
   version="1.1"
   id="svg157"
   sodipodi:docname="biometric_data.svg"
   xmlns:inkscape="http://www.inkscape.org/namespaces/inkscape"
   xmlns:sodipodi="http://sodipodi.sourceforge.net/DTD/sodipodi-0.dtd"
   xmlns="http://www.w3.org/2000/svg"
   xmlns:svg="http://www.w3.org/2000/svg">
  <sodipodi:namedview
     id="namedview159"
     pagecolor="#ffffff"
     bordercolor="#666666"
     borderopacity="1.0"
     inkscape:showpageshadow="2"
     inkscape:pageopacity="0.0"
     inkscape:pagecheckerboard="0"
     inkscape:deskcolor="#d1d1d1" />
  <g
     clip-path="url(#clip0_1_436)"
     id="g150"
     transform="translate(-0.2499844,-0.24993893)">
    <path
       d="M 35.3146,4.68528 C 32.8798,2.39658 29.556,1.09808 25.888,0.61238 22.3851,0.14808 20,0.26238 20,0.26238 c 0,0 -2.3855,-0.1143 -5.8885,0.35 -3.668,0.4857 -6.9915,1.7842 -9.4258,4.0729 -2.2893,2.4345 -3.5876,5.75842 -4.073498,9.42632 -0.4643,3.5027 -0.3497,5.8883 -0.3497,5.8883 0,0 -0.1146,2.3852 0.3497,5.8882 0.485898,3.6677 1.784198,6.9918 4.073198,9.4263 2.4346,2.289 5.7581,3.5872 9.4261,4.0735 3.503,0.464 5.8885,0.3496 5.8885,0.3496 0,0 2.3851,0.1144 5.888,-0.3496 3.668,-0.4863 6.9918,-1.7845 9.4261,-4.0735 2.2896,-2.4345 3.5878,-5.7586 4.0738,-9.4263 0.464,-3.503 0.3496,-5.8882 0.3496,-5.8882 0,0 0.1144,-2.3856 -0.3496,-5.8883 -0.486,-3.6679 -1.7842,-6.99182 -4.0733,-9.42632 z"
       fill="#7882ff"
       id="path136" />
    <path
       d="M 8.7153,11.7623 H 6.4931 v -1.135 c 0,-2.28159 1.857,-4.13749 4.1395,-4.13749 h 1.1352 v 2.2223 h -1.1352 c -1.0573,0 -1.9173,0.8591 -1.9173,1.91519 z"
       fill="#adc6f7"
       id="path138" />
    <path
       d="m 33.6866,11.7623 h -2.2222 v -1.135 c 0,-1.05609 -0.86,-1.91519 -1.917,-1.91519 h -1.1353 v -2.2223 h 1.1353 c 2.2822,0 4.1392,1.8559 4.1392,4.13749 z"
       fill="#adc6f7"
       id="path140" />
    <path
       d="m 11.5868,33.566 h -1.1355 c -2.2825,0 -4.1395,-1.8564 -4.1395,-4.1378 v -1.135 h 2.2223 v 1.135 c 0,1.0561 0.86,1.9156 1.9172,1.9156 h 1.1355 z"
       fill="#adc6f7"
       id="path142" />
    <path
       d="m 29.3664,33.566 h -1.1353 v -2.2222 h 1.1353 c 1.0569,0 1.9169,-0.8595 1.9169,-1.9156 v -1.135 h 2.2223 v 1.135 c 0,2.2814 -1.857,4.1378 -4.1392,4.1378 z"
       fill="#adc6f7"
       id="path144" />
    <path
       d="m 19.999,28.4442 c 2.7452,0 5.1922,-1.2742 6.7855,-3.2617 -0.6944,-3.1086 -3.468,-5.4319 -6.7855,-5.4319 -3.3173,0 -6.0906,2.3233 -6.7853,5.4319 1.5931,1.9875 4.0397,3.2617 6.7853,3.2617 z"
       fill="#ffffff"
       id="path146" />
    <path
       d="m 23.5051,14.5621 c 0,1.9361 -1.5694,3.5055 -3.5058,3.5055 -1.9361,0 -3.5061,-1.5694 -3.5061,-3.5055 0,-1.9367 1.57,-3.5059 3.5061,-3.5059 1.9364,0 3.5058,1.5692 3.5058,3.5059 z"
       fill="#ffffff"
       id="path148" />
  </g>
  <defs
     id="defs155">
    <clipPath
       id="clip0_1_436">
      <rect
         width="40"
         height="40"
         fill="#ffffff"
         id="rect152"
         x="0"
         y="0" />
    </clipPath>
  </defs>
</svg>
