<?xml version="1.0" encoding="UTF-8" standalone="no"?>
<svg
   width="12.75"
   height="15.901"
   viewBox="0 0 12.75 15.901"
   fill="none"
   version="1.1"
   id="svg176"
   sodipodi:docname="bold.svg"
   xmlns:inkscape="http://www.inkscape.org/namespaces/inkscape"
   xmlns:sodipodi="http://sodipodi.sourceforge.net/DTD/sodipodi-0.dtd"
   xmlns="http://www.w3.org/2000/svg"
   xmlns:svg="http://www.w3.org/2000/svg">
  <defs
     id="defs180" />
  <sodipodi:namedview
     id="namedview178"
     pagecolor="#ffffff"
     bordercolor="#666666"
     borderopacity="1.0"
     inkscape:showpageshadow="2"
     inkscape:pageopacity="0.0"
     inkscape:pagecheckerboard="0"
     inkscape:deskcolor="#d1d1d1" />
  <path
     d="m 7.442,2.5 c 1.031,0 1.869,0.839 1.869,1.869 0,1.031 -0.838,1.869 -1.869,1.869 H 3.902 V 2.5 Z M 7.919,13.401 H 3.902 V 8.738 h 3.54 c 0.107,0 0.212,-0.009 0.317,-0.015 0.053,0.006 0.105,0.015 0.16,0.015 1.285,0 2.331,1.046 2.331,2.331 0,1.286 -1.046,2.332 -2.331,2.332 z m -6.517,0 H 1.25 c -0.69,0 -1.25,0.56 -1.25,1.25 0,0.691 0.56,1.25 1.25,1.25 h 6.669 c 2.664,0 4.831,-2.168 4.831,-4.832 0,-1.592 -0.779,-3.004 -1.972,-3.884 C 11.421,6.424 11.811,5.441 11.811,4.369 11.811,1.96 9.851,0 7.442,0 H 1.25 C 0.56,0 0,0.56 0,1.25 0,1.94 0.56,2.5 1.25,2.5 h 0.152 v 4.988 z"
     fill="#252525"
     id="path174" />
</svg>
