<svg xmlns="http://www.w3.org/2000/svg" fill="none" viewBox="0 0 10.613 12.865">
  <path fill="#000" d="M7.474 8.173a.523.523 0 1 1 0 1.043H3.139a.522.522 0 1 1 0-1.043Zm.171-2.82c.413 0 .748.335.748.745a.747.747 0 0 1-1.495 0c0-.41.335-.744.747-.744zm-4.677 0c.412 0 .747.335.747.745a.747.747 0 0 1-1.495 0c0-.41.336-.744.748-.744zm2.905-2.206v-.884c.381-.22.63-.6.63-1.071C6.502.534 5.965 0 5.305 0S4.111.534 4.111 1.192c0 .472.256.86.648 1.071v.884H1.794C.807 3.147 0 3.95 0 4.935v4.439c0 .984.807 1.788 1.794 1.788h.622c.011 0 .022.003.033.004h.568l.004 1.172-.004.25c0 .225.267.389.639.183l2.437-1.61h2.726c.987 0 1.794-.803 1.794-1.787v-4.44c0-.983-.807-1.787-1.794-1.787z"/>
</svg>