<svg width="50" height="54" viewBox="0 0 50 54" fill="none" xmlns="http://www.w3.org/2000/svg">
<path d="M35.5 0.75C36.6391 0.75 37.5805 1.5965 37.7295 2.6947L37.75 3V6.75H40C45.2944 6.75 49.6018 10.9677 49.7463 16.2271L49.75 16.5V43.5C49.75 48.8856 45.3856 53.25 40 53.25H10C4.6144 53.25 0.25 48.8856 0.25 43.5V16.5C0.25 11.1144 4.6144 6.75 10 6.75H12.25V3C12.25 1.7574 13.2574 0.75 14.5 0.75C15.6391 0.75 16.5805 1.5965 16.7295 2.6947L16.75 3V6.75H33.25V3C33.25 1.7574 34.2574 0.75 35.5 0.75ZM40 17.25H10C7.0996 17.25 4.75 19.5996 4.75 22.5V43.5C4.75 46.4004 7.0996 48.75 10 48.75H40C42.9004 48.75 45.25 46.4004 45.25 43.5V22.5C45.25 19.5996 42.9004 17.25 40 17.25ZM14.0503 34.8789C15.6133 34.8789 16.8853 36.1509 16.8853 37.7139C16.8853 39.2769 15.6133 40.5489 14.0503 40.5489C12.4873 40.5489 11.2153 39.2769 11.2153 37.7139C11.2153 36.1509 12.4873 34.8789 14.0503 34.8789ZM23.2399 34.8789C24.8029 34.8789 26.0749 36.1509 26.0749 37.7139C26.0749 39.2769 24.8029 40.5489 23.2399 40.5489C21.6769 40.5489 20.4049 39.2769 20.4049 37.7139C20.4049 36.1509 21.6769 34.8789 23.2399 34.8789ZM35.9482 25.4511C37.5112 25.4511 38.7832 26.7231 38.7832 28.2861C38.7832 29.8491 37.5112 31.1211 35.9482 31.1211C34.3852 31.1211 33.1132 29.8491 33.1132 28.2861C33.1132 26.7231 34.3852 25.4511 35.9482 25.4511ZM26.7571 25.4511C28.3231 25.4511 29.5921 26.7231 29.5921 28.2861C29.5921 29.8491 28.3231 31.1211 26.7571 31.1211C25.1941 31.1211 23.9221 29.8491 23.9221 28.2861C23.9221 26.7231 25.1941 25.4511 26.7571 25.4511Z" fill="black"/>
</svg>
