<?xml version="1.0" encoding="UTF-8" standalone="no"?>
<svg
   width="9.5757732"
   height="18.262367"
   viewBox="0 0 9.5757732 18.262367"
   fill="none"
   version="1.1"
   id="svg286"
   sodipodi:docname="chevron-left-back.svg"
   xmlns:inkscape="http://www.inkscape.org/namespaces/inkscape"
   xmlns:sodipodi="http://sodipodi.sourceforge.net/DTD/sodipodi-0.dtd"
   xmlns="http://www.w3.org/2000/svg"
   xmlns:svg="http://www.w3.org/2000/svg">
  <defs
     id="defs290" />
  <sodipodi:namedview
     id="namedview288"
     pagecolor="#ffffff"
     bordercolor="#666666"
     borderopacity="1.0"
     inkscape:showpageshadow="2"
     inkscape:pageopacity="0.0"
     inkscape:pagecheckerboard="0"
     inkscape:deskcolor="#d1d1d1" />
  <path
     d="M 9.352,1.283388 C 9.647,0.99238798 9.651,0.51738798 9.36,0.22238798 c -0.291,-0.294 -0.766,-0.297 -1.061,-0.006 L 0.521,7.886368 c -0.336,0.331 -0.521,0.774 -0.521,1.246 0,0.471 0.185,0.915 0.521,1.246 l 7.778,7.669 c 0.146,0.143 0.336,0.215 0.527,0.215 0.193,0 0.387,-0.075 0.534,-0.223 0.291,-0.295 0.287,-0.77 -0.008,-1.061 l -7.777,-7.669 c -0.066,-0.063 -0.075,-0.138 -0.075,-0.177 0,-0.039 0.009,-0.115 0.075,-0.178 z"
     fill="#000000"
     id="path284" />
</svg>
