<?xml version="1.0" encoding="UTF-8" standalone="no"?>
<svg
   width="9.5752659"
   height="18.263235"
   viewBox="0 0 9.5752659 18.263235"
   fill="none"
   version="1.1"
   id="svg298"
   sodipodi:docname="chevron-right.svg"
   xmlns:inkscape="http://www.inkscape.org/namespaces/inkscape"
   xmlns:sodipodi="http://sodipodi.sourceforge.net/DTD/sodipodi-0.dtd"
   xmlns="http://www.w3.org/2000/svg"
   xmlns:svg="http://www.w3.org/2000/svg">
  <defs
     id="defs302" />
  <sodipodi:namedview
     id="namedview300"
     pagecolor="#ffffff"
     bordercolor="#666666"
     borderopacity="1.0"
     inkscape:showpageshadow="2"
     inkscape:pageopacity="0.0"
     inkscape:pagecheckerboard="0"
     inkscape:deskcolor="#d1d1d1" />
  <path
     d="m 9.054266,7.886236 -7.777,-7.66997 c -0.295,-0.291 -0.77,-0.288 -1.061,0.007 -0.291,0.295 -0.288,0.769 0.007,1.06 l 7.778,7.67097 c 0.065,0.064 0.074,0.139 0.074,0.178 0,0.039 -0.009,0.114 -0.074,0.178 l -7.778,7.669 c -0.295,0.291 -0.298,0.765 -0.007,1.06 0.147,0.15 0.34,0.224 0.534,0.224 0.19,0 0.38,-0.072 0.527,-0.216 l 7.777,-7.669 c 0.337,-0.331 0.521,-0.774 0.521,-1.246 0,-0.473 -0.184,-0.915 -0.521,-1.246 z"
     fill="#000000"
     id="path296" />
</svg>
