<svg width="24" height="24" viewBox="0 0 24 24" fill="none" xmlns="http://www.w3.org/2000/svg">
<path fill-rule="evenodd" clip-rule="evenodd" d="M3.51472 3.51472C1.26428 5.76515 0 8.8174 0 12C0 15.1826 1.26428 18.2348 3.51472 20.4853C5.76515 22.7357 8.8174 24 12 24C15.1826 24 18.2348 22.7357 20.4853 20.4853C22.7357 18.2348 24 15.1826 24 12C24 8.8174 22.7357 5.76515 20.4853 3.51472C18.2348 1.26428 15.1826 0 12 0C8.8174 0 5.76515 1.26428 3.51472 3.51472ZM17.2733 7.52284L12.795 11.9995L17.2733 16.4778C17.493 16.6975 17.493 17.053 17.2733 17.2728C17.163 17.383 17.019 17.437 16.875 17.437C16.731 17.437 16.587 17.383 16.4775 17.2728L11.9993 12.796L7.5225 17.2728C7.4123 17.383 7.269 17.437 7.1242 17.437C6.9802 17.437 6.837 17.383 6.7267 17.2728C6.507 17.053 6.507 16.6975 6.7267 16.4778L11.2043 11.9995L6.7267 7.52284C6.507 7.30304 6.507 6.94754 6.7267 6.72784C6.9465 6.50804 7.3028 6.50804 7.5225 6.72784L11.9993 11.2038L16.4775 6.72784C16.6965 6.50804 17.0535 6.50804 17.2733 6.72784C17.493 6.94754 17.493 7.30304 17.2733 7.52284Z" fill="black"/>
</svg>
