<?xml version="1.0" encoding="UTF-8" standalone="no"?>
<svg
   width="17.095345"
   height="18.000799"
   viewBox="0 0 17.095345 18.000799"
   fill="none"
   version="1.1"
   id="svg367"
   sodipodi:docname="contract.svg"
   xmlns:inkscape="http://www.inkscape.org/namespaces/inkscape"
   xmlns:sodipodi="http://sodipodi.sourceforge.net/DTD/sodipodi-0.dtd"
   xmlns="http://www.w3.org/2000/svg"
   xmlns:svg="http://www.w3.org/2000/svg">
  <defs
     id="defs371" />
  <sodipodi:namedview
     id="namedview369"
     pagecolor="#ffffff"
     bordercolor="#666666"
     borderopacity="1.0"
     inkscape:showpageshadow="2"
     inkscape:pageopacity="0.0"
     inkscape:pagecheckerboard="0"
     inkscape:deskcolor="#d1d1d1" />
  <path
     d="m 6.7001484,9.2798401 c 0.819,0 1.485,0.666 1.485,1.4849599 v 5.119 c 0,0.416 -0.335,0.75 -0.75,0.75 -0.414,0 -0.75,-0.334 -0.75,-0.75 v -3.812 l -5.39,5.694 c -0.148,0.156 -0.34600005,0.235 -0.54500005,0.235 -0.186,0 -0.370004,-0.069 -0.516004,-0.206 -0.301,-0.285 -0.313,-0.759 -0.029,-1.06 l 5.64900405,-5.967 -4.346,0.012 c -0.414,0 -0.75000005,-0.336 -0.75000005,-0.75 0,-0.4139599 0.33600005,-0.7499599 0.75000005,-0.7499599 z M 15.801338,0.23364407 c 0.285,-0.2999996 0.759,-0.3129997 1.06,-0.028 0.301,0.285 0.313,0.76 0.028,1.06099603 l -5.656,5.963 3.617,-0.009 c 0.414,0 0.75,0.336 0.75,0.75 0,0.414 -0.336,0.75 -0.75,0.75 H 9.6583384 c -0.81899,0 -1.48499,-0.667 -1.48499,-1.486 v -5.12 c 0,-0.414 0.335,-0.75 0.75,-0.75 0.414,0 0.74999,0.336 0.74999,0.75 v 4.622 c 0.03,-0.056 0.066,-0.111 0.112,-0.16 z"
     fill="#252525"
     id="path365" />
</svg>
