<svg width="24" height="24" viewBox="0 0 24 24" fill="none" xmlns="http://www.w3.org/2000/svg">
<path d="M20.5297 3.47032C19.1736 2.19552 17.3223 1.47232 15.2794 1.20182C13.3284 0.943317 12 1.00692 12 1.00692C12 1.00692 10.6713 0.943317 8.72029 1.20182C6.67739 1.47232 4.82629 2.19552 3.47049 3.47032C2.19539 4.82622 1.47239 6.67752 1.20169 8.72042C0.94309 10.6712 1.00699 11.9999 1.00699 11.9999C1.00699 11.9999 0.94309 13.3284 1.20169 15.2795C1.47239 17.3222 2.19539 19.1736 3.47039 20.5295C4.82629 21.8044 6.67739 22.5275 8.72029 22.7983C10.6713 23.0567 12 22.9931 12 22.9931C12 22.9931 13.3284 23.0567 15.2794 22.7983C17.3223 22.5275 19.1736 21.8044 20.5294 20.5295C21.8046 19.1736 22.5277 17.3222 22.7983 15.2795C23.0567 13.3284 22.9931 11.9999 22.9931 11.9999C22.9931 11.9999 23.0567 10.6712 22.7983 8.72042C22.5277 6.67752 21.8046 4.82622 20.5297 3.47032Z" fill="#32965A"/>
<path d="M13.044 16.1769H10.9547C10.6787 16.1769 10.4547 15.9529 10.4547 15.6769C10.4547 15.4009 10.6787 15.1769 10.9547 15.1769H13.044C13.3207 15.1769 13.544 15.4009 13.544 15.6769C13.544 15.9529 13.3207 16.1769 13.044 16.1769ZM14.4167 6.0835H9.58335C8.66275 6.0835 7.91675 6.8295 7.91675 7.7502V16.2502C7.91675 17.1709 8.66275 17.9169 9.58335 17.9169H14.4167C15.3367 17.9169 16.0833 17.1709 16.0833 16.2502V7.7502C16.0833 6.8295 15.3367 6.0835 14.4167 6.0835Z" fill="#FAFAFA"/>
</svg>
