<?xml version="1.0" encoding="UTF-8" standalone="no"?>
<svg
   width="19.952761"
   height="19.952721"
   viewBox="0 0 19.952761 19.952721"
   fill="none"
   version="1.1"
   id="svg419"
   sodipodi:docname="discover.svg"
   xmlns:inkscape="http://www.inkscape.org/namespaces/inkscape"
   xmlns:sodipodi="http://sodipodi.sourceforge.net/DTD/sodipodi-0.dtd"
   xmlns="http://www.w3.org/2000/svg"
   xmlns:svg="http://www.w3.org/2000/svg">
  <defs
     id="defs423" />
  <sodipodi:namedview
     id="namedview421"
     pagecolor="#ffffff"
     bordercolor="#666666"
     borderopacity="1.0"
     inkscape:showpageshadow="2"
     inkscape:pageopacity="0.0"
     inkscape:pagecheckerboard="0"
     inkscape:deskcolor="#d1d1d1" />
  <path
     d="m 0.69643003,9.97679 c 0,5.1235 4.15499997,9.2795 9.28079997,9.2795 5.1242,0 9.2791,-4.156 9.2791,-9.2795 0,-5.1261 -4.1549,-9.28035997 -9.2791,-9.28035997 -5.1258,0 -9.28079997,4.15425997 -9.28079997,9.28035997 z"
     stroke="#000000"
     stroke-width="1.39286"
     id="path413" />
  <path
     d="m 13.36603,5.94919 c -0.1726,0.0568 -1.6367,0.6063 -4.3922,1.6484 -0.4756,0.2175 -1.0411,0.7841 -1.2593,1.2592 l -1.5902,4.395 c -0.2129,0.5565 -0.1268,0.9486 0.3618,0.9486 0.159,0 0.3588,-0.0407 0.6054,-0.1307 l 4.3145,-1.6378 c 0.4756,-0.2175 1.0429,-0.7837 1.2604,-1.2604 0.1449,-0.3177 0.6767,-1.7705 1.5954,-4.3582 0.2343,-0.6666 0.1667,-0.9933 -0.2697,-0.9933 -0.159,0 -0.3672,0.0438 -0.6261,0.1292 z"
     stroke="#000000"
     stroke-width="1.39286"
     stroke-linecap="square"
     id="path415" />
  <path
     d="m 8.80353,8.60899 2.7577,2.7577"
     stroke="#000000"
     stroke-width="1.39286"
     stroke-linecap="square"
     id="path417" />
</svg>
