<?xml version="1.0" encoding="UTF-8" standalone="no"?>
<svg
   width="17.219267"
   height="17.2171"
   viewBox="0 0 17.219267 17.2171"
   fill="none"
   version="1.1"
   id="svg445"
   sodipodi:docname="eraser.svg"
   xmlns:inkscape="http://www.inkscape.org/namespaces/inkscape"
   xmlns:sodipodi="http://sodipodi.sourceforge.net/DTD/sodipodi-0.dtd"
   xmlns="http://www.w3.org/2000/svg"
   xmlns:svg="http://www.w3.org/2000/svg">
  <defs
     id="defs449" />
  <sodipodi:namedview
     id="namedview447"
     pagecolor="#ffffff"
     bordercolor="#666666"
     borderopacity="1.0"
     inkscape:showpageshadow="2"
     inkscape:pageopacity="0.0"
     inkscape:pagecheckerboard="0"
     inkscape:deskcolor="#d1d1d1" />
  <path
     d="m 8.2390663,14.4584 c -1.6088,1.6085 -4.146,1.6872 -5.657,0.1767 -1.5108,-1.511 -1.4315,-4.0485 0.1767,-5.657 0.0178,-0.018 0.0313,-0.0382 0.047,-0.0575 l 0.0053,0.0053 0.6722,-0.672 5.4795,5.4792 -0.6725,0.6723 0.006,0.0062 c -0.019,0.0155 -0.0395,0.0288 -0.0572,0.0468 z M 17.219266,6.46005 c 0,-0.7347 -0.2862,-1.4252 -0.8057,-1.9447 l -3.7118,-3.7115 c -1.072,-1.0718 -2.8166997,-1.0718 -3.8886997,0 l -7.0625,7.06125 0.0052,0.0053 c -0.0192,0.0157 -0.0397,0.0292 -0.0575,0.0472 -2.19349995,2.193 -2.27249995,5.6823 -0.1767,7.778 1.0165,1.0168 2.3607,1.5215 3.7262,1.5215 1.4495,0 2.9228,-0.569 4.0518,-1.6982 0.0177,-0.0178 0.031,-0.0383 0.0467,-0.0573 l 0.0045,0.0045 1.2002997,-1.2 c 7e-4,-7e-4 0.002,-0.0012 0.003,-0.0022 10e-4,-10e-4 0.0015,-0.0023 0.0025,-0.0033 l 5.857,-5.856 c 0.5195,-0.5192 0.8057,-1.21 0.8057,-1.94455 z"
     fill="#252525"
     id="path443" />
</svg>
