<?xml version="1.0" encoding="UTF-8" standalone="no"?>
<svg
   width="15.67101"
   height="15.66798"
   viewBox="0 0 15.67101 15.66798"
   fill="none"
   version="1.1"
   id="svg481"
   sodipodi:docname="expand.svg"
   xmlns:inkscape="http://www.inkscape.org/namespaces/inkscape"
   xmlns:sodipodi="http://sodipodi.sourceforge.net/DTD/sodipodi-0.dtd"
   xmlns="http://www.w3.org/2000/svg"
   xmlns:svg="http://www.w3.org/2000/svg">
  <defs
     id="defs485" />
  <sodipodi:namedview
     id="namedview483"
     pagecolor="#ffffff"
     bordercolor="#666666"
     borderopacity="1.0"
     inkscape:showpageshadow="2"
     inkscape:pageopacity="0.0"
     inkscape:pagecheckerboard="0"
     inkscape:deskcolor="#d1d1d1" />
  <path
     d="m 9.35301,0 c -0.414,0 -0.75,0.336 -0.75,0.75 0,0.414 0.336,0.75 0.75,0.75 h 3.557 L 1.5,13.13998 v -3.722 c 0,-0.414 -0.336,-0.75 -0.75,-0.75 -0.415,0 -0.75,0.336 -0.75,0.75 v 4.81 c 0,0.793 0.646,1.44 1.44,1.44 h 4.87801 c 0.414,0 0.75,-0.336 0.75,-0.75 0,-0.414 -0.336,-0.75 -0.75,-0.75 H 2.591 L 14.17101,2.354 v 3.89598 c 0,0.414 0.336,0.75 0.75,0.75 0.415,0 0.75,-0.336 0.75,-0.75 V 1.44 c 0,-0.794 -0.646,-1.44 -1.44,-1.44 z"
     fill="#252525"
     id="path479" />
</svg>
