<svg width="36" height="36" viewBox="0 0 36 36" fill="none" xmlns="http://www.w3.org/2000/svg">
<g clip-path="url(#clip0_1_4321)">
<path d="M17.2873 10.7261C17.5119 10.0359 18.489 10.0359 18.7127 10.7261L20.5928 14.4744C20.6927 14.7824 20.9805 14.9914 21.305 14.9914L25.2715 15.7403C25.9975 15.7403 26.299 16.6698 25.7124 17.096L22.8487 19.9716C22.5856 20.1623 22.4756 20.5005 22.5765 20.8094L23.2071 24.807C23.4308 25.4973 22.6406 26.0711 22.053 25.6449L18.4405 23.5191C18.1783 23.3284 17.8217 23.3284 17.5595 23.5191L13.947 25.6449C13.3594 26.0711 12.5692 25.4973 12.7938 24.807L13.4235 20.8094C13.5244 20.5005 13.4153 20.1623 13.1513 19.9716L10.2876 17.096C9.701 16.6698 10.0025 15.7403 10.7285 15.7403L14.695 14.9914C15.0204 14.9914 15.3073 14.7824 15.4072 14.4744L17.2873 10.7261ZM18 14.9998C17.6178 14.9998 17.3077 15.31 17.3077 15.6921V17.8075H15.1923C14.8102 17.8075 14.5 18.1176 14.5 18.4998C14.5 18.882 14.8102 19.1921 15.1923 19.1921H17.3077V21.3075C17.3077 21.6896 17.6178 21.9998 18 21.9998C18.3822 21.9998 18.6923 21.6896 18.6923 21.3075V19.1921H20.8077C21.1898 19.1921 21.5 18.882 21.5 18.4998C21.5 18.1176 21.1898 17.8075 20.8077 17.8075H18.6923V15.6921C18.6923 15.31 18.3822 14.9998 18 14.9998Z" fill="black"/>
<path d="M-625 -634H1304V1872H-625V-634Z" stroke="#FF0000"/>
</g>
<defs>
<clipPath id="clip0_1_4321">
<rect width="36" height="36" fill="white"/>
</clipPath>
</defs>
</svg>
