<svg width="36" height="36" viewBox="0 0 36 36" fill="none" xmlns="http://www.w3.org/2000/svg">
<g clip-path="url(#clip0_1_764)">
<path d="M31.7832 4.21678C29.5918 2.15688 26.6004 0.988283 23.2992 0.551083C20.1465 0.133283 18 0.236183 18 0.236183C18 0.236183 15.853 0.133283 12.7003 0.551083C9.3992 0.988283 6.408 2.15688 4.2171 4.21678C2.1567 6.40788 0.988301 9.39928 0.551001 12.7004C0.133101 15.8529 0.236301 17.9999 0.236301 17.9999C0.236301 17.9999 0.133101 20.1466 0.551001 23.2993C0.988301 26.6002 2.1567 29.5919 4.2169 31.783C6.408 33.8431 9.3992 35.0115 12.7003 35.4491C15.853 35.8667 18 35.7638 18 35.7638C18 35.7638 20.1465 35.8667 23.2992 35.4491C26.6004 35.0115 29.5918 33.8431 31.7827 31.783C33.8433 29.5919 35.0117 26.6002 35.4491 23.2993C35.8667 20.1466 35.7638 17.9999 35.7638 17.9999C35.7638 17.9999 35.8667 15.8529 35.4491 12.7004C35.0117 9.39928 33.8433 6.40788 31.7832 4.21678Z" fill="#E95B31"/>
<path d="M27.5833 20.0368V12.6101C27.5833 10.5729 25.9318 8.92114 23.8948 8.92114H12.0906C10.7888 8.92114 9.6473 9.59684 8.9906 10.6149C9.8621 10.8951 10.4931 11.7116 10.4931 12.6763C10.4931 13.8474 9.5628 14.7989 8.4016 14.8381V16.3929C9.5628 16.4321 10.4931 17.3838 10.4931 18.5543C10.4931 19.7259 9.5628 20.6769 8.4016 20.7166V22.2706C9.5628 22.3106 10.4931 23.2618 10.4931 24.4328C10.4931 25.3816 9.8823 26.1858 9.0331 26.4784C9.6961 27.4586 10.8178 28.1034 12.0906 28.1034H19.7566L27.5833 20.0368Z" fill="white"/>
<path d="M27.3943 20.2347H23.4335C21.396 20.2347 19.745 21.8857 19.745 23.9235V28.1117L27.3943 20.2347Z" fill="#C34500"/>
<path d="M12.951 15.642H23.701V13.392H12.951V15.642Z" fill="#C34500"/>
<path d="M12.951 20.392H18.701V18.142H12.951V20.392Z" fill="#C34500"/>
</g>
<defs>
<clipPath id="clip0_1_764">
<rect width="36" height="36" fill="white"/>
</clipPath>
</defs>
</svg>
