<?xml version="1.0" encoding="UTF-8" standalone="no"?>
<svg
   width="20.37455"
   height="16.653099"
   viewBox="0 0 20.37455 16.653099"
   fill="none"
   version="1.1"
   id="svg567"
   sodipodi:docname="filter-search.svg"
   xmlns:inkscape="http://www.inkscape.org/namespaces/inkscape"
   xmlns:sodipodi="http://sodipodi.sourceforge.net/DTD/sodipodi-0.dtd"
   xmlns="http://www.w3.org/2000/svg"
   xmlns:svg="http://www.w3.org/2000/svg">
  <defs
     id="defs571" />
  <sodipodi:namedview
     id="namedview569"
     pagecolor="#ffffff"
     bordercolor="#666666"
     borderopacity="1.0"
     inkscape:showpageshadow="2"
     inkscape:pageopacity="0.0"
     inkscape:pagecheckerboard="0"
     inkscape:deskcolor="#d1d1d1" />
  <path
     d="m 13.6748,5.3061 c 2.563,0 4.647,2.085 4.647,4.647 0,1.011 -0.324,1.948 -0.875,2.711 l 2.708,2.709 c 0.293,0.293 0.293,0.768 0,1.061 -0.146,0.146 -0.338,0.219 -0.53,0.219 -0.192,0 -0.384,-0.073 -0.53,-0.219 l -2.708,-2.709 c -0.764,0.551 -1.7,0.876 -2.712,0.876 -2.563,0 -4.648,-2.085 -4.648,-4.648 0,-2.562 2.085,-4.647 4.648,-4.647 z M 6.1064,14 c 0.414,0 0.75,0.336 0.75,0.75 0,0.414 -0.336,0.75 -0.75,0.75 h -5.356 c -0.415,0 -0.75,-0.336 -0.75,-0.75 0,-0.414 0.335,-0.75 0.75,-0.75 z m 7.5684,-7.1939 c -1.736,0 -3.148,1.412 -3.148,3.147 0,1.736 1.412,3.148 3.148,3.148 1.735,0 3.147,-1.412 3.147,-3.148 0,-1.735 -1.412,-3.147 -3.147,-3.147 z M 6.1064,6.9902 c 0.414,0 0.75,0.336 0.75,0.75 0,0.414 -0.336,0.75 -0.75,0.75 h -5.356 c -0.415,0 -0.75,-0.336 -0.75,-0.75 0,-0.414 0.335,-0.75 0.75,-0.75 z M 17,0 c 0.414,0 0.75,0.336 0.75,0.75 0,0.414 -0.336,0.75 -0.75,0.75 H 0.75 C 0.336,1.5 0,1.164 0,0.75 0,0.336 0.336,0 0.75,0 Z"
     fill="#000000"
     id="path565" />
</svg>
