<?xml version="1.0" encoding="UTF-8" standalone="no"?>
<svg
   width="20"
   height="20"
   viewBox="0 0 20 20"
   fill="none"
   version="1.1"
   id="svg688"
   sodipodi:docname="globe.svg"
   xmlns:inkscape="http://www.inkscape.org/namespaces/inkscape"
   xmlns:sodipodi="http://sodipodi.sourceforge.net/DTD/sodipodi-0.dtd"
   xmlns="http://www.w3.org/2000/svg"
   xmlns:svg="http://www.w3.org/2000/svg">
  <defs
     id="defs692" />
  <sodipodi:namedview
     id="namedview690"
     pagecolor="#ffffff"
     bordercolor="#666666"
     borderopacity="1.0"
     inkscape:showpageshadow="2"
     inkscape:pageopacity="0.0"
     inkscape:pagecheckerboard="0"
     inkscape:deskcolor="#d1d1d1" />
  <path
     d="M 10,0 C 15.52,0 20,4.48 20,10 20,15.52 15.52,20 10,20 4.48,20 0,15.52 0,10 0,4.48 4.48,0 10,0 Z M 2,10 h 4.4 c 3.407,0.022 4.922,1.731 4.543,5.127 H 7.488 v 2.47 C 8.278,17.858 9.123,18 10,18 14.415,18 18,14.415 18,10 18,9.837 17.995,9.675 17.985,9.514 17.328,10.505 16.333,11 15,11 12.863,11 11.794,10.084 11.794,8.251 H 8.046 C 7.772,5.522 8.729,4.158 10.916,4.158 10.916,3.183 11.243,2.561 11.727,2.187 11.171,2.065 10.593,2 10,2 5.585,2 2,5.585 2,10 Z"
     fill="#000000"
     id="path686" />
</svg>
