<?xml version="1.0" encoding="UTF-8" standalone="no"?>
<svg
   width="14.724"
   height="14.998233"
   viewBox="0 0 14.724 14.998233"
   fill="none"
   version="1.1"
   id="svg712"
   sodipodi:docname="hashtag-bold.svg"
   xmlns:inkscape="http://www.inkscape.org/namespaces/inkscape"
   xmlns:sodipodi="http://sodipodi.sourceforge.net/DTD/sodipodi-0.dtd"
   xmlns="http://www.w3.org/2000/svg"
   xmlns:svg="http://www.w3.org/2000/svg">
  <defs
     id="defs716" />
  <sodipodi:namedview
     id="namedview714"
     pagecolor="#ffffff"
     bordercolor="#666666"
     borderopacity="1.0"
     inkscape:showpageshadow="2"
     inkscape:pageopacity="0.0"
     inkscape:pagecheckerboard="0"
     inkscape:deskcolor="#d1d1d1" />
  <path
     d="m 6.2928,6.0204049 h 2.8723 l -0.7339,2.95822 H 5.5589 Z m -3.7499,5.3244201 -0.5416,2.1837 c -0.1577,0.6341 0.2271,1.2764 0.8578,1.4341 0.6316,0.1585 1.2706,-0.227 1.4283,-0.8611 l 0.6836,-2.7567 h 2.8723 l -0.5416,2.1837 c -0.1568,0.6341 0.2271,1.2764 0.8578,1.4341 0.6316,0.1585 1.2707,-0.227 1.4283,-0.8611 l 0.6837,-2.7567 h 1.7924 c 0.6563,0 1.1872,-0.5292 1.1872,-1.1823 0,-0.6530001 -0.5309,-1.1839001 -1.1872,-1.1839001 h -1.2046 l 0.734,-2.95822 h 1.9434 c 0.6556,0 1.1873,-0.5308 1.1873,-1.1839 0,-0.6539 -0.5317,-1.1831 -1.1873,-1.1831 h -1.3564 l 0.5424,-2.1837 c 0.1569,-0.63410004 -0.2271,-1.27640004 -0.8586,-1.43410004 -0.6308,-0.1585 -1.2707,0.227 -1.4275,0.8619 L 9.753,3.6534049 H 6.8798 l 0.5425,-2.1837 C 7.5791,0.83560486 7.1952,0.19330486 6.5636,0.03560486 c -0.6316,-0.1585 -1.2706,0.227 -1.4274,0.8619 L 4.4525,3.6534049 H 2.6593 c -0.6555,0 -1.1864,0.5292 -1.1864,1.1831 0,0.6531 0.5309,1.1839 1.1864,1.1839 h 1.2054 l -0.7348,2.95822 H 1.1864 c -0.6555,0 -1.1864,0.5309 -1.1864,1.1839001 0,0.6531 0.5309,1.1823 1.1864,1.1823 z"
     fill="#000000"
     id="path710" />
</svg>
