<?xml version="1.0" encoding="UTF-8" standalone="no"?>
<svg
   width="18.5886"
   height="15.582358"
   viewBox="0 0 18.5886 15.582358"
   fill="none"
   version="1.1"
   id="svg774"
   sodipodi:docname="hidden.svg"
   xmlns:inkscape="http://www.inkscape.org/namespaces/inkscape"
   xmlns:sodipodi="http://sodipodi.sourceforge.net/DTD/sodipodi-0.dtd"
   xmlns="http://www.w3.org/2000/svg"
   xmlns:svg="http://www.w3.org/2000/svg">
  <defs
     id="defs778" />
  <sodipodi:namedview
     id="namedview776"
     pagecolor="#ffffff"
     bordercolor="#666666"
     borderopacity="1.0"
     inkscape:showpageshadow="2"
     inkscape:pageopacity="0.0"
     inkscape:pagecheckerboard="0"
     inkscape:deskcolor="#d1d1d1" />
  <path
     d="m 0.6977,0.19814827 c 0.2032,-0.2023 0.5017,-0.2495 0.7503,-0.1425 0.0227,0.0327 0.0472,0.0645 0.0762,0.0944 L 16.0365,14.661458 c 0.0916,0.2422 0.0408,0.5262 -0.1543,0.7222 -0.1333,0.1324 -0.3075,0.1987 -0.4817,0.1987 -0.1733,0 -0.3475,-0.0663 -0.4809,-0.1987 l -1.6821,-1.6831 c -1.2448,0.5317 -2.5795,0.8148 -3.9432,0.8148 -3.1946,0 -6.2277,-1.5415 -8.3226,-4.229 -1.2956,-1.6620997 -1.2956,-4.1689997 0,-5.8303097 0.4464,-0.5743 0.939,-1.0923 1.4635,-1.5569 l -1.7375,-1.7384 C 0.4318,0.89494827 0.4318,0.46394827 0.6977,0.19814827 Z M 3.3996,3.8627483 c -0.4863,0.4246 -0.9418,0.9 -1.3546,1.429 -0.9236,1.18581 -0.9236,2.97231 0,4.15811 1.8355,2.3544997 4.4775,3.7044997 7.2493,3.7044997 0.9908,0 1.9653,-0.1751 2.8916,-0.5053 l -1.2829,-1.2821 c -0.4972,0.1996 -1.0398,0.3131 -1.6087,0.3131 -2.3816,0 -4.3096,-1.9289997 -4.3096,-4.3096997 0,-0.5689 0.1134,-1.1115 0.3139,-1.60871 z M 9.2943,0.22494827 c 3.1937,0 6.2268,1.54240003 8.3226,4.23080003 1.2956,1.66221 1.2956,4.16811 0,5.8303097 -0.6006,0.7703 -1.2802,1.4426 -2.016,2.0151 l -0.969,-0.969 c 0.7004,-0.5253 1.3446,-1.1559 1.9117,-1.8825997 0.9236,-1.185 0.9236,-2.9724 0,-4.15731 -1.8364,-2.3553 -4.4785,-3.7063 -7.2493,-3.7063 -1.2512,0 -2.4752,0.2785 -3.612,0.7966 l -1.0189,-1.0189 C 6.0987,0.62324827 7.6756,0.22494827 9.2943,0.22494827 Z M 9.294,3.0611483 c 2.3807,0 4.3106,1.9289 4.3106,4.30961 0,0.8375 -0.2432,1.6169 -0.656,2.2783 l -5.9319,-5.93201 c 0.6614,-0.4137 1.4398,-0.6559 2.2773,-0.6559 z"
     fill="#fcfcfc"
     id="path772" />
</svg>
