<svg width="22" height="19" viewBox="0 0 22 19" fill="none" xmlns="http://www.w3.org/2000/svg">
<path d="M2.2755 1.50842L18.4405 17.6724M10.7575 2.24242C14.2875 2.24242 17.4535 3.98942 19.6075 6.75342C20.8705 8.37342 20.8705 10.8084 19.6075 12.4284C17.4535 15.1924 14.2875 16.9384 10.7575 16.9384C7.2285 16.9384 4.0615 15.1924 1.9075 12.4284C0.645499 10.8084 0.645499 8.37342 1.9075 6.75342C4.0615 3.98942 7.2285 2.24342 10.7575 2.24342V2.24242ZM10.7575 5.46542C8.4785 5.46542 6.6325 7.31242 6.6325 9.59042C6.6325 11.8684 8.4785 13.7154 10.7575 13.7154C13.0355 13.7154 14.8825 11.8684 14.8825 9.59042C14.8825 7.31242 13.0355 5.46542 10.7575 5.46542V5.46542Z" stroke="black" stroke-width="1.5" stroke-linecap="round" stroke-linejoin="round"/>
</svg>
