<?xml version="1.0" encoding="UTF-8" standalone="no"?>
<svg
   width="28.000013"
   height="28.000021"
   viewBox="0 0 28.000013 28.000021"
   fill="none"
   version="1.1"
   id="svg795"
   sodipodi:docname="home-squircle.svg"
   xmlns:inkscape="http://www.inkscape.org/namespaces/inkscape"
   xmlns:sodipodi="http://sodipodi.sourceforge.net/DTD/sodipodi-0.dtd"
   xmlns="http://www.w3.org/2000/svg"
   xmlns:svg="http://www.w3.org/2000/svg">
  <sodipodi:namedview
     id="namedview797"
     pagecolor="#ffffff"
     bordercolor="#666666"
     borderopacity="1.0"
     inkscape:showpageshadow="2"
     inkscape:pageopacity="0.0"
     inkscape:pagecheckerboard="0"
     inkscape:deskcolor="#d1d1d1" />
  <g
     clip-path="url(#clip0_1_6530)"
     id="g788">
    <path
       d="M 24.856,3.14401 C 23.13,1.52161 20.7739,0.601214 18.1738,0.256914 15.6907,-0.072186 14,0.00881404 14,0.00881404 c 0,0 -1.691,-0.08100004 -4.1742,0.24809996 -2.6,0.3443 -4.956,1.264696 -6.6815,2.887096 -1.6228,1.7258 -2.543102,4.0819 -2.887602,6.6819 -0.3290998,2.48299 -0.24779977,4.17399 -0.24779977,4.17399 0,0 -0.08130003,1.6908 0.24779977,4.174 0.3445,2.5998 1.264802,4.9561 2.887402,6.6819 1.7257,1.6226 4.0817,2.5428 6.6817,2.8875 C 12.309,28.0722 14,27.9912 14,27.9912 c 0,0 1.6907,0.081 4.1738,-0.2479 2.6001,-0.3447 4.9562,-1.2649 6.6818,-2.8875 1.623,-1.7258 2.5432,-4.0821 2.8877,-6.6819 0.3289,-2.4832 0.2479,-4.174 0.2479,-4.174 0,0 0.081,-1.691 -0.2479,-4.17399 -0.3445,-2.6 -1.2647,-4.9561 -2.8873,-6.6819 z"
       fill="#29b9d8"
       id="path784" />
    <path
       d="M 20.4002,11.0749 14.7095,6.23309 c -0.3896,-0.3199 -1.0285,-0.3199 -1.4181,0 L 7.5998,11.0749 c -0.3905,0.32 -0.7095,0.9928 -0.7095,1.497 v 6.1435 c 0,1.2604 1.0313,2.2916 2.2917,2.2916 h 1.9534 v -5.4294 c 0,-0.7562 0.6188,-1.375 1.375,-1.375 h 2.75 c 0.7563,0 1.375,0.6188 1.375,1.375 v 5.4294 h 2.1826 c 1.2604,0 2.2917,-1.0312 2.2917,-2.2916 v -6.1435 c 0,-0.5042 -0.319,-1.177 -0.7095,-1.497 z"
       fill="#ffffff"
       id="path786" />
  </g>
  <defs
     id="defs793">
    <clipPath
       id="clip0_1_6530">
      <rect
         width="28"
         height="28"
         fill="#ffffff"
         id="rect790"
         x="0"
         y="0" />
    </clipPath>
  </defs>
</svg>
