<?xml version="1.0" encoding="UTF-8" standalone="no"?>
<svg
   width="17.29199"
   height="17.218363"
   viewBox="0 0 17.29199 17.218363"
   fill="none"
   version="1.1"
   id="svg809"
   sodipodi:docname="home.svg"
   xmlns:inkscape="http://www.inkscape.org/namespaces/inkscape"
   xmlns:sodipodi="http://sodipodi.sourceforge.net/DTD/sodipodi-0.dtd"
   xmlns="http://www.w3.org/2000/svg"
   xmlns:svg="http://www.w3.org/2000/svg">
  <defs
     id="defs813" />
  <sodipodi:namedview
     id="namedview811"
     pagecolor="#ffffff"
     bordercolor="#666666"
     borderopacity="1.0"
     inkscape:showpageshadow="2"
     inkscape:pageopacity="0.0"
     inkscape:pagecheckerboard="0"
     inkscape:deskcolor="#d1d1d1" />
  <path
     d="m 9.76699,1.153383 5.607,4.676 c 0.74,0.617 1.168,1.532 1.168,2.495 v 5.64398 c 0,1.381 -1.119,2.5 -2.5,2.5 l -2.524,-7e-4 5e-4,-6.08 c 0,-0.7793 -0.5953,-1.42038 -1.3556,-1.49308 l -0.1444,-0.0069 H 7.2725 c -0.828,0 -1.5,0.67198 -1.5,1.49998 v 5.88 l 5.71649,0.2 -8.23899,7e-4 c -1.381,0 -2.5,-1.119 -2.5,-2.5 v -5.64398 c 0,-0.963 0.42799,-1.878 1.16799,-2.495 l 5.607,-4.676 c 0.649,-0.54099999 1.592,-0.54099999 2.242,0 z"
     stroke="#000000"
     stroke-width="1.5"
     stroke-linecap="round"
     stroke-linejoin="round"
     id="path807" />
</svg>
