<?xml version="1.0" encoding="UTF-8" standalone="no"?>
<svg
   width="18.000099"
   height="18"
   viewBox="0 0 18.000099 18"
   fill="none"
   version="1.1"
   id="svg858"
   sodipodi:docname="ic_expression_sticker.svg"
   xmlns:inkscape="http://www.inkscape.org/namespaces/inkscape"
   xmlns:sodipodi="http://sodipodi.sourceforge.net/DTD/sodipodi-0.dtd"
   xmlns="http://www.w3.org/2000/svg"
   xmlns:svg="http://www.w3.org/2000/svg">
  <defs
     id="defs862" />
  <sodipodi:namedview
     id="namedview860"
     pagecolor="#ffffff"
     bordercolor="#666666"
     borderopacity="1.0"
     inkscape:showpageshadow="2"
     inkscape:pageopacity="0.0"
     inkscape:pagecheckerboard="0"
     inkscape:deskcolor="#d1d1d1" />
  <path
     d="m 9.688399,18 h -6.8758 C 1.259299,18 0,16.7407 0,15.1876 V 2.8123 C 0,1.2593 1.259299,0 2.812599,0 h 12.375 c 1.5534,0 2.8124,1.2593 2.8124,2.8123 v 6.8761"
     fill="#4eacf9"
     id="path848" />
  <path
     d="m 13.323199,10.9059 c 0,1.7291 -1.6056,3.3858 -4.3025,3.3858 -1.9095,0 -4.3032,-0.8693 -4.3032,-3.3858 z"
     fill="#000000"
     id="path850" />
  <path
     d="m 5.490199,7.73354 c 0.6711,0 1.2155,-0.5445 1.2155,-1.2144 0,-0.6726 -0.5444,-1.2147 -1.2155,-1.2147 -0.6703,0 -1.2118,0.5421 -1.2118,1.2147 0,0.6699 0.5415,1.2144 1.2118,1.2144 z"
     fill="#000000"
     id="path852" />
  <path
     d="m 12.495099,7.73354 c 0.6711,0 1.2156,-0.5445 1.2156,-1.2144 0,-0.6726 -0.5445,-1.2147 -1.2156,-1.2147 -0.6702,0 -1.2117,0.5421 -1.2117,1.2147 0,0.6699 0.5415,1.2144 1.2117,1.2144 z"
     fill="#000000"
     id="path854" />
  <path
     d="m 18.000099,9.7734 c 0,0 -0.8864,0.4896 -3.1924,0.5658 -1.5412,0.0504 -2.4917,0.3262 -3.3163,1.1512 -0.8253,0.8252 -1.1008,1.7769 -1.1527,3.3169 -0.0753,2.3066 -0.564,3.1927 -0.564,3.1927 z"
     fill="#258fd6"
     id="path856" />
</svg>
