<svg width="40" height="40" viewBox="0 0 40 40" fill="none" xmlns="http://www.w3.org/2000/svg">
<path fill-rule="evenodd" clip-rule="evenodd" d="M35.9789 3H4.49789C2.566 3 1 4.56601 1 6.49789V23.9873C1 25.9192 2.566 27.4852 4.49789 27.4852H18.4899L18.4895 32.7323H13.2427C12.2767 32.7323 11.4937 33.5153 11.4937 34.4812C11.4937 35.4472 12.2767 36.2302 13.2427 36.2302H27.2342C28.2001 36.2302 28.9831 35.4472 28.9831 34.4812C28.9831 33.5153 28.2001 32.7323 27.2342 32.7323H21.9874L21.9877 27.4852H35.9789C37.9108 27.4852 39.4768 25.9192 39.4768 23.9873V6.49789C39.4768 4.56601 37.9108 3 35.9789 3Z" fill="black"/>
</svg>
