<?xml version="1.0" encoding="UTF-8" standalone="no"?>
<svg
   width="16"
   height="16"
   viewBox="0 0 16 16"
   fill="none"
   version="1.1"
   id="svg1042"
   sodipodi:docname="inbox.svg"
   xmlns:inkscape="http://www.inkscape.org/namespaces/inkscape"
   xmlns:sodipodi="http://sodipodi.sourceforge.net/DTD/sodipodi-0.dtd"
   xmlns="http://www.w3.org/2000/svg"
   xmlns:svg="http://www.w3.org/2000/svg">
  <defs
     id="defs1046" />
  <sodipodi:namedview
     id="namedview1044"
     pagecolor="#ffffff"
     bordercolor="#666666"
     borderopacity="1.0"
     inkscape:showpageshadow="2"
     inkscape:pageopacity="0.0"
     inkscape:pagecheckerboard="0"
     inkscape:deskcolor="#d1d1d1" />
  <path
     d="m 4.404,10.475 c 0.347,1.666 1.827,2.922 3.596,2.922 1.769,0 3.249,-1.256 3.596,-2.922 H 16 V 13.5 C 16,14.875 14.875,16 13.5,16 H 2.5 C 1.125,16 0,14.875 0,13.5 V 10.475 Z M 13.5,0 C 14.875,0 16,1.125 16,2.5 v 6.475 h -5.077 c -0.414,0 -0.75,0.335 -0.75,0.75 0,1.198 -0.975,2.172 -2.173,2.172 -1.198,0 -2.173,-0.974 -2.173,-2.172 0,-0.415 -0.336,-0.75 -0.75,-0.75 H 0 V 2.5 C 0,1.125 1.125,0 2.5,0 Z"
     fill="#252525"
     id="path1040" />
</svg>
