<?xml version="1.0" encoding="UTF-8" standalone="no"?>
<svg
   id="vector"
   width="28.000011"
   height="28.000034"
   viewBox="0 0 28.000011 28.000034"
   version="1.1"
   sodipodi:docname="info-squircle.svg"
   xmlns:inkscape="http://www.inkscape.org/namespaces/inkscape"
   xmlns:sodipodi="http://sodipodi.sourceforge.net/DTD/sodipodi-0.dtd"
   xmlns="http://www.w3.org/2000/svg"
   xmlns:svg="http://www.w3.org/2000/svg">
  <defs
     id="defs1057" />
  <sodipodi:namedview
     id="namedview1055"
     pagecolor="#ffffff"
     bordercolor="#666666"
     borderopacity="1.0"
     inkscape:showpageshadow="2"
     inkscape:pageopacity="0.0"
     inkscape:pagecheckerboard="0"
     inkscape:deskcolor="#d1d1d1" />
  <path
     fill="@color/sec_dashboard_about_phone_color"
     d="m 24.855991,3.144014 c -1.726,-1.6224 -4.0821,-2.54279996 -6.6822,-2.88709996 -2.4831,-0.3291 -4.1738,-0.2481 -4.1738,-0.2481 0,0 -1.691,-0.081 -4.1742004,0.2481 -2.6,0.3443 -4.956,1.26469996 -6.6815,2.88709996 -1.6228,1.7258 -2.5431,4.0819 -2.8876,6.6819 -0.3291,2.483 -0.2478,4.174 -0.2478,4.174 0,0 -0.0813,1.6908 0.2478,4.174 0.3445,2.5998 1.2648,4.9561 2.8874,6.6819 1.7257,1.6226 4.0817,2.5428 6.6817,2.8875 2.4832004,0.3289 4.1742004,0.2479 4.1742004,0.2479 0,0 1.6907,0.081 4.1738,-0.2479 2.6001,-0.3447 4.9562,-1.2649 6.6818,-2.8875 1.623,-1.7258 2.5432,-4.0821 2.8877,-6.6819 0.3289,-2.4832 0.2479,-4.174 0.2479,-4.174 0,0 0.081,-1.691 -0.2479,-4.174 -0.3445,-2.6 -1.2647,-4.9561 -2.8873,-6.6819 z"
     stroke="#00000000"
     stroke-width="1"
     fill-rule="evenodd"
     id="path_0" />
  <path
     fill="#ffffffff"
     d="m 15.006491,18.080114 c 0,0.4244 -0.3841,0.759 -0.8241,0.6746 -0.3263,-0.0632 -0.5509,-0.3675 -0.5509,-0.7003 v -4.1809 h -0.8406 c -0.3327,0 -0.638,-0.2246 -0.7003,-0.5518 -0.0843,-0.4391 0.2502,-0.8232 0.6747,-0.8232 h 1.7829 c 0.253,0 0.4583,0.2044 0.4583,0.4583 z m -1.0065,-8.899 c 0.5069,0 0.9167,0.4107 0.9167,0.9166 0,0.5061 -0.4098,0.9167 -0.9167,0.9167 -0.506,0 -0.9167,-0.4106 -0.9167,-0.9167 0,-0.5059 0.4107,-0.9166 0.9167,-0.9166 z m 0,-2.8582 c -4.2332004,0 -7.6771004,3.4439 -7.6771004,7.6771 0,4.2332 3.4439,7.6771 7.6771004,7.6771 4.2341,0 7.6771,-3.4439 7.6771,-7.6771 0,-4.2332 -3.443,-7.6771 -7.6771,-7.6771 z"
     stroke="#00000000"
     stroke-width="1"
     fill-rule="nonzero"
     id="path_1" />
</svg>
