<?xml version="1.0" encoding="UTF-8" standalone="no"?>
<svg
   width="17.312981"
   height="17.313881"
   viewBox="0 0 17.312981 17.313881"
   fill="none"
   version="1.1"
   id="svg1092"
   sodipodi:docname="link.svg"
   xmlns:inkscape="http://www.inkscape.org/namespaces/inkscape"
   xmlns:sodipodi="http://sodipodi.sourceforge.net/DTD/sodipodi-0.dtd"
   xmlns="http://www.w3.org/2000/svg"
   xmlns:svg="http://www.w3.org/2000/svg">
  <defs
     id="defs1096" />
  <sodipodi:namedview
     id="namedview1094"
     pagecolor="#ffffff"
     bordercolor="#666666"
     borderopacity="1.0"
     inkscape:showpageshadow="2"
     inkscape:pageopacity="0.0"
     inkscape:pagecheckerboard="0"
     inkscape:deskcolor="#d1d1d1" />
  <path
     d="m 3.85792,6.73588 c 1.812,-1.813 4.76206,-1.813 6.57596,0 l 0.1421,0.1411 c 0.292,0.2929 0.292,0.768 0,1.0609 -0.2931,0.293 -0.7691,0.293 -1.0611,0 l -0.1419,-0.142 c -1.228,-1.22692 -3.2261,-1.22692 -4.45506,0 l -2.5,2.5 C 1.82688,10.88898 1.5,11.67988 1.5,12.52388 c 0,0.8451 0.32688,1.636 0.91792,2.227 l 0.14096,0.1421 c 1.228,1.2289 3.22704,1.2289 4.455,0 l 1.5,-1.5 c 0.293,-0.2931 0.769,-0.2931 1.061,0 0.2931,0.2929 0.2931,0.768 0,1.0609 l -1.5,1.5 c -0.9069,0.906 -2.09696,1.36 -3.28896,1.36 -1.18992,0 -2.38,-0.454 -3.288,-1.36 l -0.14,-0.142 C 0.48192,14.93698 0,13.76898 0,12.52388 c 0,-1.245 0.48192,-2.412 1.35792,-3.288 z M 12.56498,0 c 1.272,0 2.464,0.49296 3.359,1.38704 1.852,1.852 1.852,4.86496 0,6.71794 l -2.4299,2.4291 c -0.875,0.8749 -2.043,1.357 -3.288,1.357 -1.2451,0 -2.4131,-0.4821 -3.288,-1.3581 l -0.1411,-0.14 c -0.29298,-0.293 -0.29298,-0.768 0,-1.061 0.2931,-0.2929 0.767,-0.2929 1.06,0 l 0.1421,0.141 c 0.591,0.5931 1.383,0.9181 2.227,0.9181 0.845,0 1.636,-0.325 2.228,-0.9181 l 2.429,-2.429 c 1.267,-1.26702 1.267,-3.32894 0,-4.59598 -0.6111,-0.61104 -1.4261,-0.948 -2.2981,-0.948 -0.8709,0 -1.6869,0.33696 -2.2979,0.948 l -1.4301,1.42896 c -0.292,0.29312 -0.7669,0.29312 -1.06,0 -0.293,-0.29296 -0.293,-0.76688 0,-1.06 L 9.20608,1.38704 C 10.10098,0.49296 11.29298,0 12.56498,0 Z"
     fill="#000000"
     id="path1090" />
</svg>
