<svg width="14" height="14" viewBox="0 0 14 14" fill="none" xmlns="http://www.w3.org/2000/svg">
<path d="M6.9997 7.72043C5.9791 7.72043 5.1507 6.89263 5.1507 5.87023C5.1507 4.85023 5.9791 4.02253 6.9997 4.02253C8.0209 4.02253 8.8486 4.85023 8.8486 5.87023C8.8486 6.89263 8.0209 7.72043 6.9997 7.72043ZM6.9991 1.46973C4.5474 1.46973 2.553 3.46413 2.553 5.91523C2.553 7.61313 3.8442 9.04303 3.8947 9.09723L6.2977 12.2077C6.6669 12.6379 7.3325 12.6379 7.7017 12.2071L10.0991 9.10273C10.1546 9.04303 11.447 7.61313 11.447 5.91523C11.447 3.46413 9.452 1.46973 6.9991 1.46973Z" fill="black"/>
</svg>
