<?xml version="1.0" encoding="UTF-8" standalone="no"?>
<svg
   width="22.001003"
   height="18.99901"
   viewBox="0 0 22.001003 18.99901"
   fill="none"
   version="1.1"
   id="svg1174"
   sodipodi:docname="mail.svg"
   xmlns:inkscape="http://www.inkscape.org/namespaces/inkscape"
   xmlns:sodipodi="http://sodipodi.sourceforge.net/DTD/sodipodi-0.dtd"
   xmlns="http://www.w3.org/2000/svg"
   xmlns:svg="http://www.w3.org/2000/svg">
  <defs
     id="defs1178" />
  <sodipodi:namedview
     id="namedview1176"
     pagecolor="#ffffff"
     bordercolor="#666666"
     borderopacity="1.0"
     inkscape:showpageshadow="2"
     inkscape:pageopacity="0.0"
     inkscape:pagecheckerboard="0"
     inkscape:deskcolor="#d1d1d1" />
  <path
     d="m 20.324004,0 h -18.647 C 0.751004,0 0,0.75 0,1.676 v 15.64701 c 0,0.926 0.751004,1.676 1.677004,1.676 h 18.647 c 0.926,0 1.677,-0.75 1.677,-1.676 V 1.677 c 0,-0.926 -0.751,-1.677 -1.677,-1.677 z m -0.878,5.462 -7.62,6.00001 c -0.243,0.19 -0.534,0.285 -0.826,0.285 -0.291,0 -0.583,-0.095 -0.825,-0.285 L 2.554004,5.462 c -0.578,-0.455 -0.678,-1.293 -0.223,-1.872 0.455,-0.578 1.294,-0.679 1.873,-0.223 l 6.795,5.35101 6.796,-5.35101 c 0.579,-0.456 1.417,-0.355 1.872,0.223 0.458,0.579 0.358,1.417 -0.221,1.872 z"
     fill="#000000"
     id="path1172" />
</svg>
