<?xml version="1.0" encoding="UTF-8" standalone="no"?>
<svg
   width="35.550007"
   height="35.550018"
   viewBox="0 0 35.550007 35.550018"
   fill="none"
   version="1.1"
   id="svg1216"
   sodipodi:docname="memo-squircle.svg"
   xmlns:inkscape="http://www.inkscape.org/namespaces/inkscape"
   xmlns:sodipodi="http://sodipodi.sourceforge.net/DTD/sodipodi-0.dtd"
   xmlns="http://www.w3.org/2000/svg"
   xmlns:svg="http://www.w3.org/2000/svg">
  <sodipodi:namedview
     id="namedview1218"
     pagecolor="#ffffff"
     bordercolor="#666666"
     borderopacity="1.0"
     inkscape:showpageshadow="2"
     inkscape:pageopacity="0.0"
     inkscape:pagecheckerboard="0"
     inkscape:deskcolor="#d1d1d1" />
  <g
     clip-path="url(#clip0_1_2131)"
     id="g1209"
     transform="translate(-0.22500591,-0.22509788)">
    <path
       d="M 31.7832,4.2169 C 29.5918,2.157 26.6004,0.988405 23.2992,0.551205 20.1465,0.133405 18,0.236305 18,0.236305 c 0,0 -2.147,-0.1029 -5.2997,0.3149 C 9.39919,0.988405 6.40799,2.157 4.21709,4.2169 2.15669,6.408 0.988286,9.39941 0.550986,12.7005 0.133086,15.853 0.236286,18 0.236286,18 c 0,0 -0.1032,2.1467 0.3147,5.2994 0.4373,3.3009 1.605704,6.2926 3.665904,8.4837 2.1911,2.0601 5.1823,3.2285 8.48341,3.6661 C 15.853,35.8668 18,35.7639 18,35.7639 c 0,0 2.1465,0.1029 5.2992,-0.3147 3.3012,-0.4376 6.2926,-1.606 8.4835,-3.6661 2.0606,-2.1911 3.229,-5.1828 3.6664,-8.4837 C 35.8667,20.1467 35.7638,18 35.7638,18 c 0,0 0.1029,-2.147 -0.3147,-5.2995 C 35.0117,9.39941 33.8433,6.408 31.7832,4.2169 Z"
       fill="#e95b31"
       id="path1199" />
    <path
       d="m 27.7616,12.0419 v 11.9665 c 0,2.0875 -1.6917,3.7792 -3.779,3.7792 h -11.967 c -2.08699,0 -3.77869,-1.6917 -3.77869,-3.7792 V 12.0419 c 0,-2.08776 1.6917,-3.77896 3.77869,-3.77896 h 11.967 c 2.0873,0 3.779,1.6912 3.779,3.77896 z"
       fill="#ffffff"
       id="path1201" />
    <path
       d="m 12.7882,14.4131 h 10.422 v -2.25 h -10.422 z"
       fill="#c34500"
       id="path1203" />
    <path
       d="m 12.7882,19.1499 h 10.422 v -2.25 h -10.422 z"
       fill="#c34500"
       id="path1205" />
    <path
       d="m 12.7882,23.8872 h 10.422 v -2.25 h -10.422 z"
       fill="#c34500"
       id="path1207" />
  </g>
  <defs
     id="defs1214">
    <clipPath
       id="clip0_1_2131">
      <rect
         width="36"
         height="36"
         fill="#ffffff"
         id="rect1211"
         x="0"
         y="0" />
    </clipPath>
  </defs>
</svg>
