<?xml version="1.0" encoding="UTF-8" standalone="no"?>
<svg
   width="4.1220002"
   height="16.083"
   viewBox="0 0 4.1220002 16.083"
   fill="none"
   version="1.1"
   id="svg1249"
   sodipodi:docname="menu.svg"
   xmlns:inkscape="http://www.inkscape.org/namespaces/inkscape"
   xmlns:sodipodi="http://sodipodi.sourceforge.net/DTD/sodipodi-0.dtd"
   xmlns="http://www.w3.org/2000/svg"
   xmlns:svg="http://www.w3.org/2000/svg">
  <defs
     id="defs1253" />
  <sodipodi:namedview
     id="namedview1251"
     pagecolor="#ffffff"
     bordercolor="#666666"
     borderopacity="1.0"
     inkscape:showpageshadow="2"
     inkscape:pageopacity="0.0"
     inkscape:pagecheckerboard="0"
     inkscape:deskcolor="#d1d1d1" />
  <path
     d="M 0,2.029 C 0,2.56712 0.2171,3.08321 0.6037,3.46372 0.9902,3.84423 1.5144,4.058 2.061,4.058 2.6076,4.058 3.1318,3.84423 3.5183,3.46372 3.9049,3.08321 4.122,2.56712 4.122,2.029 4.122,1.49088 3.9049,0.97479 3.5183,0.59428 3.1318,0.21377 2.6076,0 2.061,0 1.5144,0 0.9902,0.21377 0.6037,0.59428 0.2171,0.97479 0,1.49088 0,2.029 Z"
     fill="#000000"
     id="path1243" />
  <path
     d="M 0,8.06 C 0,8.5981 0.2171,9.1142 0.6037,9.4947 0.9902,9.8752 1.5144,10.089 2.061,10.089 2.6076,10.089 3.1318,9.8752 3.5183,9.4947 3.9049,9.1142 4.122,8.5981 4.122,8.06 4.122,7.5219 3.9049,7.0058 3.5183,6.6253 3.1318,6.2448 2.6076,6.031 2.061,6.031 1.5144,6.031 0.9902,6.2448 0.6037,6.6253 0.2171,7.0058 0,7.5219 0,8.06 Z"
     fill="#000000"
     id="path1245" />
  <path
     d="m 0,14.055 c 0,0.5379 0.2171,1.0537 0.6037,1.434 0.3865,0.3803 0.9107,0.594 1.4573,0.594 0.5466,0 1.0708,-0.2137 1.4573,-0.594 C 3.9049,15.1087 4.122,14.5929 4.122,14.055 4.122,13.5171 3.9049,13.0013 3.5183,12.621 3.1318,12.2407 2.6076,12.027 2.061,12.027 1.5144,12.027 0.9902,12.2407 0.6037,12.621 0.2171,13.0013 0,13.5171 0,14.055 Z"
     fill="#000000"
     id="path1247" />
</svg>
