<?xml version="1.0" encoding="UTF-8" standalone="no"?>
<svg
   width="16.600002"
   height="22.1931"
   viewBox="0 0 16.600002 22.1931"
   fill="none"
   version="1.1"
   id="svg1319"
   sodipodi:docname="mic.svg"
   xmlns:inkscape="http://www.inkscape.org/namespaces/inkscape"
   xmlns:sodipodi="http://sodipodi.sourceforge.net/DTD/sodipodi-0.dtd"
   xmlns="http://www.w3.org/2000/svg"
   xmlns:svg="http://www.w3.org/2000/svg">
  <defs
     id="defs1323" />
  <sodipodi:namedview
     id="namedview1321"
     pagecolor="#ffffff"
     bordercolor="#666666"
     borderopacity="1.0"
     inkscape:showpageshadow="2"
     inkscape:pageopacity="0.0"
     inkscape:pagecheckerboard="0"
     inkscape:deskcolor="#d1d1d1" />
  <path
     d="m 10.887003,20.0372 c 0.6468,0 1.0779,0.4312 1.0779,1.0779 0,0.6468 -0.4311,1.078 -1.0779,1.078 h -5.174 c -0.6468,0 -1.0779,-0.4312 -1.0779,-1.078 0,-0.6467 0.4311,-1.0779 1.0779,-1.0779 z m 4.6351,-10.7792 c 0.6467,0 1.0779,0.4312 1.0779,1.0779 0,4.6351 -3.7727,8.4078 -8.3,8.4078 C 3.772703,18.7437 0,14.971 0,10.3359 0,9.6892 0.431203,9.258 1.077903,9.258 c 0.6468,0 1.0779,0.4312 1.0779,1.0779 0,3.4494 2.8026,6.252 6.1442,6.252 3.3416,0 6.1442,-2.8026 6.1442,-6.252 0,-0.6467 0.4311,-1.0779 1.0779,-1.0779 z M 8.300003,0 c 2.2636,0 4.0961,0.4312 4.0961,3.0182 v 6.8866 c 0,2.587 -1.8325,4.4194 -4.0961,4.4194 -2.2636,0 -4.0961,-1.8324 -4.0961,-4.4194 V 3.0182 C 4.203903,0.4312 6.036403,0 8.300003,0 Z"
     fill="#000000"
     id="path1317" />
</svg>
