<?xml version="1.0" encoding="UTF-8" standalone="no"?>
<svg
   width="13.5982"
   height="12.0866"
   viewBox="0 0 13.5982 12.0866"
   fill="none"
   version="1.1"
   id="svg1345"
   sodipodi:docname="missed-call.svg"
   xmlns:inkscape="http://www.inkscape.org/namespaces/inkscape"
   xmlns:sodipodi="http://sodipodi.sourceforge.net/DTD/sodipodi-0.dtd"
   xmlns="http://www.w3.org/2000/svg"
   xmlns:svg="http://www.w3.org/2000/svg">
  <defs
     id="defs1349" />
  <sodipodi:namedview
     id="namedview1347"
     pagecolor="#ffffff"
     bordercolor="#666666"
     borderopacity="1.0"
     inkscape:showpageshadow="2"
     inkscape:pageopacity="0.0"
     inkscape:pagecheckerboard="0"
     inkscape:deskcolor="#d1d1d1" />
  <path
     d="M 13.5982,10.9376 C 13.5975,9.4954 13.0725,8.6449 12.3262,7.9661 11.8627,7.5446 11.283,7.1996 10.425,7.0001 c 0,0 -3.072,-0.7417 -6.9038,-0.0697 C 3.4762,6.9379 3.4312,6.9469 3.387,6.9551 3.3195,6.9679 3.1815,6.9964 3.1815,6.9986 2.319,7.1981 1.7377,7.5431 1.2712,7.9669 0.5257,8.6449 0.0015,9.4954 0,10.9376 l 7e-4,0.0015 v 0.0038 c 0,0.4522 0.1298,0.6885 0.315,0.8557 0.186,0.1695 0.4455,0.2873 0.9465,0.2865 l 1.2638,8e-4 c 0.501,7e-4 0.7612,-0.1178 0.9465,-0.2873 0.1845,-0.1672 0.3142,-0.4035 0.315,-0.8565 l 7e-4,-0.5085 c 0,-0.4575 0.135,-0.6877 0.315,-0.8617 C 4.2517,9.4286 4.545,9.3394 4.617,9.3244 6.858,8.7146 8.715,9.2314 9.1005,9.3544 9.1252,9.3611 9.3427,9.4346 9.495,9.5719 9.6817,9.7391 9.8107,9.9761 9.8107,10.4336 v 0.5085 c 0.0015,0.453 0.1313,0.6893 0.315,0.8565 0.186,0.1695 0.4455,0.2873 0.9473,0.288 l 1.263,-7e-4 c 0.501,7e-4 0.7612,-0.1178 0.9465,-0.2873 0.1852,-0.1672 0.315,-0.4035 0.3157,-0.8565 v -0.003 z"
     fill="#000000"
     id="path1341" />
  <path
     d="m 2.3314,4.2968 c 0.2588,0 0.4688,-0.21 0.4688,-0.4688 V 1.5848 l 2.8665,2.7269 c 0.3105,0.2948 0.7042,0.4418 1.098,0.4418 0.4072,0 0.8137,-0.1568 1.1272,-0.4703 l 3.072,-3.0719 c 0.183,-0.1831 0.183,-0.4801 0,-0.663 -0.183,-0.1831 -0.48,-0.1831 -0.663,0 L 7.2289,3.6202 C 6.9747,3.8745 6.5727,3.879 6.3124,3.6323 L 3.4804,0.9375 h 2.1653 c 0.2595,0 0.4687,-0.2093 0.4687,-0.4687 C 6.1144,0.21 5.9052,0 5.6457,0 H 2.8939 C 2.3254,0 1.8627,0.4635 1.8627,1.0313 V 3.828 c 0,0.2588 0.21,0.4688 0.4687,0.4688 z"
     fill="#000000"
     id="path1343" />
</svg>
