<?xml version="1.0" encoding="UTF-8" standalone="no"?>
<svg
   width="4"
   height="16"
   viewBox="0 0 4 16"
   fill="none"
   version="1.1"
   id="svg1370"
   sodipodi:docname="more-vertical.svg"
   xmlns:inkscape="http://www.inkscape.org/namespaces/inkscape"
   xmlns:sodipodi="http://sodipodi.sourceforge.net/DTD/sodipodi-0.dtd"
   xmlns="http://www.w3.org/2000/svg"
   xmlns:svg="http://www.w3.org/2000/svg">
  <defs
     id="defs1374" />
  <sodipodi:namedview
     id="namedview1372"
     pagecolor="#ffffff"
     bordercolor="#666666"
     borderopacity="1.0"
     inkscape:showpageshadow="2"
     inkscape:pageopacity="0.0"
     inkscape:pagecheckerboard="0"
     inkscape:deskcolor="#d1d1d1" />
  <path
     d="M 2,4 C 3.1,4 4,3.1 4,2 4,0.9 3.1,0 2,0 0.9,0 0,0.9 0,2 0,3.1 0.9,4 2,4 Z M 2,6 C 0.9,6 0,6.9 0,8 0,9.1 0.9,10 2,10 3.1,10 4,9.1 4,8 4,6.9 3.1,6 2,6 Z m 0,6 c -1.1,0 -2,0.9 -2,2 0,1.1 0.9,2 2,2 1.1,0 2,-0.9 2,-2 0,-1.1 -0.9,-2 -2,-2 z"
     fill="#000000"
     id="path1368" />
</svg>
