<svg width="24" height="21" viewBox="0 0 24 21" fill="none" xmlns="http://www.w3.org/2000/svg">
<path d="M17.55 15.426H22.5ZM20.025 17.901V12.951ZM14.25 15.444H12.45C12.3524 15.4437 12.258 15.4785 12.184 15.542L7.219 19.746C7.15905 19.7967 7.08587 19.8292 7.00807 19.8397C6.93027 19.8502 6.85109 19.8383 6.77986 19.8053C6.70862 19.7723 6.64829 19.7196 6.60598 19.6535C6.56366 19.5874 6.54112 19.5105 6.541 19.432V15.857C6.541 15.7475 6.49749 15.6425 6.42003 15.565C6.34258 15.4876 6.23753 15.444 6.128 15.444H4.075C3.34565 15.444 2.64618 15.1543 2.13045 14.6386C1.61473 14.1229 1.325 13.4234 1.325 12.694V3.89404C1.325 3.1647 1.61473 2.46522 2.13045 1.9495C2.64618 1.43377 3.34565 1.14404 4.075 1.14404H17.275C17.6361 1.14404 17.9937 1.21517 18.3274 1.35337C18.661 1.49157 18.9642 1.69414 19.2195 1.9495C19.4749 2.20486 19.6775 2.50802 19.8157 2.84166C19.9539 3.17531 20.025 3.53291 20.025 3.89404V9.65104" fill="black"/>
<path d="M17.55 15.426H22.5M20.025 17.901V12.951M14.25 15.444H12.45C12.3524 15.4437 12.258 15.4785 12.184 15.542L7.219 19.746C7.15905 19.7967 7.08587 19.8292 7.00807 19.8397C6.93027 19.8502 6.85109 19.8383 6.77986 19.8053C6.70862 19.7723 6.64829 19.7196 6.60598 19.6535C6.56366 19.5874 6.54112 19.5105 6.541 19.432V15.857C6.541 15.7475 6.49749 15.6425 6.42003 15.565C6.34258 15.4876 6.23753 15.444 6.128 15.444H4.075C3.34565 15.444 2.64618 15.1543 2.13045 14.6386C1.61473 14.1229 1.325 13.4234 1.325 12.694V3.89404C1.325 3.1647 1.61473 2.46522 2.13045 1.9495C2.64618 1.43377 3.34565 1.14404 4.075 1.14404H17.275C17.6361 1.14404 17.9937 1.21517 18.3274 1.35337C18.661 1.49157 18.9642 1.69414 19.2195 1.9495C19.4749 2.20486 19.6775 2.50802 19.8157 2.84166C19.9539 3.17531 20.025 3.53291 20.025 3.89404V9.65104" stroke="black" stroke-width="1.5" stroke-linecap="round" stroke-linejoin="round"/>
</svg>
