<?xml version="1.0" encoding="UTF-8" standalone="no"?>
<svg
   width="20.75"
   height="18.499512"
   viewBox="0 0 20.75 18.499512"
   fill="none"
   version="1.1"
   id="svg1396"
   sodipodi:docname="new-message.svg"
   xmlns:inkscape="http://www.inkscape.org/namespaces/inkscape"
   xmlns:sodipodi="http://sodipodi.sourceforge.net/DTD/sodipodi-0.dtd"
   xmlns="http://www.w3.org/2000/svg"
   xmlns:svg="http://www.w3.org/2000/svg">
  <defs
     id="defs1400" />
  <sodipodi:namedview
     id="namedview1398"
     pagecolor="#ffffff"
     bordercolor="#666666"
     borderopacity="1.0"
     inkscape:showpageshadow="2"
     inkscape:pageopacity="0.0"
     inkscape:pagecheckerboard="0"
     inkscape:deskcolor="#d1d1d1" />
  <path
     d="M 15.5,13.73318 H 20"
     stroke="#000000"
     stroke-width="1.5"
     stroke-linecap="round"
     stroke-linejoin="round"
     id="path1392" />
  <path
     d="m 17.75,15.98298 v -4.5 m -5.25,2.267 h -1.637 c -0.0887,-4e-4 -0.1747,0.0312 -0.242,0.089 l -4.513,3.822 c -0.05458,0.0461 -0.1212,0.0757 -0.19201,0.0852 -0.07081,0.0095 -0.14287,-0.0014 -0.2077,-0.0314 -0.06482,-0.0301 -0.11971,-0.078 -0.15821,-0.1382 -0.03849,-0.0602 -0.05899,-0.1301 -0.05908,-0.2016 v -3.25 c 0,-0.0994 -0.03951,-0.1948 -0.10983,-0.2651 C 5.31084,13.78948 5.21546,13.74998 5.116,13.74998 H 3.25 c -0.66304,0 -1.29893,-0.2634 -1.76777,-0.7322 C 1.01339,12.54888 0.75,11.91308 0.75,11.24998 V 3.25 C 0.75,2.58696 1.01339,1.95108 1.48223,1.48223 1.95107,1.01339 2.58696,0.75 3.25,0.75 h 12 c 0.663,0 1.2989,0.26339 1.7678,0.73223 C 17.4866,1.95108 17.75,2.58696 17.75,3.25 v 5.23298"
     stroke="#000000"
     stroke-width="1.5"
     stroke-linecap="round"
     stroke-linejoin="round"
     id="path1394" />
</svg>
