<svg width="24" height="24" viewBox="0 0 24 24" fill="none" xmlns="http://www.w3.org/2000/svg">
<path d="M17.4667 3.8667H6.53331C5.00001 3.8667 3.73331 5.1333 3.73331 6.6667V7.6V12.7333V13.6333C3.73331 15.1667 5.00001 16.4333 6.53331 16.4333C6.53331 16.4333 7.26671 16.4333 7.46671 16.4333H7.50001C7.53331 16.4333 7.53331 16.4333 7.56671 16.4333H8.46671V19.3333V19.6333C8.46671 20.1333 8.76671 20.2667 9.13331 19.9333L13.2333 16.4H17.4667C19 16.4 20.2667 15.1333 20.2667 13.6V6.6667C20.2667 5.1333 19 3.8667 17.4667 3.8667ZM17.1333 12.7667H6.86671V11.3333H17.1333V12.7667ZM17.1333 8.8333H6.86671V7.4H17.1333V8.8333Z" fill="#252525"/>
</svg>
