<svg width="36" height="36" viewBox="0 0 36 36" fill="none" xmlns="http://www.w3.org/2000/svg">
<g clip-path="url(#clip0_1_4310)">
<path d="M22.9147 24.6405V24.7125C22.9147 24.8752 22.809 25.026 22.632 25.1497C22.347 25.3485 21.8745 25.4805 21.339 25.4805C20.8035 25.4805 20.331 25.35 20.0467 25.1497C19.869 25.026 19.764 24.8752 19.764 24.7125H19.7647V24.6405H22.9147ZM16.5457 18.1973C17.0842 18.1973 17.604 18.2723 18.0915 18.4102C17.7457 18.972 17.5387 19.6403 17.5162 20.379C17.516 20.3856 17.5158 20.3915 17.5156 20.4126L17.5147 21.2595L16.7047 22.9613C16.5795 23.2245 16.5292 23.5072 16.5502 23.784L16.551 24.225H11.3047V22.7265C11.3047 20.3775 13.6515 18.1973 16.5457 18.1973ZM21.339 18.12C22.8052 18.12 23.685 19.1468 23.7262 20.427V21.3833C23.7262 21.4987 23.7675 21.6772 23.8162 21.783L24.6772 23.5928C24.7267 23.6978 24.6712 23.7832 24.552 23.7832H18.1245C18.0067 23.7832 17.9505 23.6978 17.9992 23.5928L18.8512 21.804L18.8617 21.783C18.9105 21.6787 18.9525 21.4987 18.9525 21.3833C18.9525 21.3833 18.9525 20.889 18.9527 20.6107L18.9532 20.4263C18.993 19.1468 19.8735 18.12 21.339 18.12ZM16.5457 10.5195C18.2854 10.5195 19.6957 11.9298 19.6957 13.6695C19.6957 15.4092 18.2854 16.8195 16.5457 16.8195C14.806 16.8195 13.3957 15.4092 13.3957 13.6695C13.3957 11.9298 14.806 10.5195 16.5457 10.5195Z" fill="black"/>
<path d="M-625 -501H1304V2005H-625V-501Z" stroke="#FF0000"/>
</g>
<defs>
<clipPath id="clip0_1_4310">
<rect width="36" height="36" fill="white"/>
</clipPath>
</defs>
</svg>
