<?xml version="1.0" encoding="UTF-8" standalone="no"?>
<svg
   id="vector"
   width="16.75"
   height="16.75"
   viewBox="0 0 16.75 16.75"
   version="1.1"
   sodipodi:docname="open-link.svg"
   xmlns:inkscape="http://www.inkscape.org/namespaces/inkscape"
   xmlns:sodipodi="http://sodipodi.sourceforge.net/DTD/sodipodi-0.dtd"
   xmlns="http://www.w3.org/2000/svg"
   xmlns:svg="http://www.w3.org/2000/svg">
  <defs
     id="defs1446" />
  <sodipodi:namedview
     id="namedview1444"
     pagecolor="#ffffff"
     bordercolor="#666666"
     borderopacity="1.0"
     inkscape:showpageshadow="2"
     inkscape:pageopacity="0.0"
     inkscape:pagecheckerboard="0"
     inkscape:deskcolor="#d1d1d1" />
  <path
     fill="@color/sec_app_button_icon_tint_color"
     d="M 6,0 C 6.415,0 6.75,0.336 6.75,0.75 6.75,1.165 6.415,1.5 6,1.5 v 0 H 3.25 C 2.285,1.5 1.5,2.285 1.5,3.25 v 0 10.25 c 0,0.966 0.785,1.75 1.75,1.75 v 0 H 13.5 c 0.965,0 1.75,-0.784 1.75,-1.75 v 0 -2.75 C 15.25,10.336 15.586,10 16,10 c 0.415,0 0.75,0.336 0.75,0.75 v 0 2.75 c 0,1.793 -1.458,3.25 -3.25,3.25 v 0 H 3.25 C 1.458,16.75 0,15.293 0,13.5 v 0 V 3.25 C 0,1.458 1.458,0 3.25,0 v 0 z m 8.4126,0.0624 c 0.965,0 1.75,0.785 1.75,1.75 v 0 3.965 c 0,0.414 -0.336,0.75 -0.75,0.75 -0.415,0 -0.75,-0.336 -0.75,-0.75 v 0 -3.286 l -5.892,6.023 c -0.147,0.151 -0.342,0.226 -0.536,0.226 -0.19,0 -0.379,-0.07 -0.525,-0.214 -0.296,-0.289 -0.301,-0.764 -0.011,-1.061 v 0 l 5.774,-5.903 h -3.206 c -0.415,0 -0.75,-0.336 -0.75,-0.75 0,-0.414 0.335,-0.75 0.75,-0.75 v 0 z"
     stroke="#00000000"
     stroke-width="1"
     fill-rule="evenodd"
     id="path_0" />
</svg>
