<?xml version="1.0" encoding="UTF-8" standalone="no"?>
<svg
   width="17.427137"
   height="17.775801"
   viewBox="0 0 17.427137 17.775801"
   fill="none"
   version="1.1"
   id="svg1454"
   sodipodi:docname="paperclip-attach.svg"
   xmlns:inkscape="http://www.inkscape.org/namespaces/inkscape"
   xmlns:sodipodi="http://sodipodi.sourceforge.net/DTD/sodipodi-0.dtd"
   xmlns="http://www.w3.org/2000/svg"
   xmlns:svg="http://www.w3.org/2000/svg">
  <defs
     id="defs1458" />
  <sodipodi:namedview
     id="namedview1456"
     pagecolor="#ffffff"
     bordercolor="#666666"
     borderopacity="1.0"
     inkscape:showpageshadow="2"
     inkscape:pageopacity="0.0"
     inkscape:pagecheckerboard="0"
     inkscape:deskcolor="#d1d1d1" />
  <path
     d="m 15.932136,1.48575 c -1.988,-1.981 -5.225,-1.981 -7.2129996,0 L 0.22112644,9.9538 c -0.294,0.292 -0.295,0.767 -0.002,1.06 0.292,0.294 0.767,0.294 1.06099996,0.002 l 8.49801,-8.46805 c 1.4039996,-1.4 3.6899996,-1.4 5.0939996,0 0.68,0.678 1.055,1.579 1.055,2.537 0,0.958 -0.375,1.85905 -1.054,2.53705 l -8.2379996,8.207 c -0.598,0.597 -1.57101,0.596 -2.17001,0 -0.289,-0.289 -0.449,-0.672 -0.449,-1.079 0,-0.408 0.159,-0.791 0.448,-1.079 L 11.994136,6.16975 c 0.292,-0.293 0.293,-0.768 0.001,-1.061 -0.292,-0.294 -0.767,-0.295 -1.06,-0.002 L 3.4061264,12.6078 c -0.574,0.572 -0.89,1.333 -0.89,2.142 10e-4,0.808 0.316,1.569 0.89,2.14 0.591,0.591 1.368,0.886 2.145,0.886 0.777,0 1.55301,-0.295 2.14401,-0.886 l 8.2369996,-8.207 c 0.964,-0.961 1.495,-2.23905 1.495,-3.59805 0,-1.36 -0.531,-2.638 -1.495,-3.599 z"
     fill="#252525"
     id="path1452" />
</svg>
