<?xml version="1.0" encoding="UTF-8" standalone="no"?>
<svg
   width="59.999943"
   height="59.999954"
   viewBox="0 0 59.999943 59.999954"
   fill="none"
   version="1.1"
   id="svg1573"
   sodipodi:docname="phone-squircle-2.svg"
   xmlns:inkscape="http://www.inkscape.org/namespaces/inkscape"
   xmlns:sodipodi="http://sodipodi.sourceforge.net/DTD/sodipodi-0.dtd"
   xmlns="http://www.w3.org/2000/svg"
   xmlns:svg="http://www.w3.org/2000/svg">
  <sodipodi:namedview
     id="namedview1575"
     pagecolor="#ffffff"
     bordercolor="#666666"
     borderopacity="1.0"
     inkscape:showpageshadow="2"
     inkscape:pageopacity="0.0"
     inkscape:pagecheckerboard="0"
     inkscape:deskcolor="#d1d1d1" />
  <g
     clip-path="url(#clip0_1_609)"
     id="g1566">
    <path
       d="M 59.4501,21.0556 C 58.7114,15.4844 56.7401,10.4361 53.2622,6.73781 h -8e-4 c -3.6971,-3.4775 -8.7462,-5.4491 -14.3175,-6.1866 -5.3212,-0.7054 -8.9441,-0.5325 -8.9441,-0.5325 0,0 -3.6238,-0.1729 -8.9442,0.5325 -5.5721,0.7375 -10.62,2.7091 -14.31746,6.1866 h -8e-4 c -3.4767,3.69829 -5.4492,8.74659 -6.187099,14.31779 -0.7054,5.3212 -0.5312001,8.9449 -0.5312001,8.9449 0,0 -0.1741999,3.6224 0.5312001,8.9441 C 1.28814,44.5153 3.26064,49.564 6.73734,53.2619 l 8e-4,8e-4 c 3.69746,3.4767 8.74536,5.4492 14.31746,6.1871 5.3204,0.705 8.9442,0.5312 8.9442,0.5312 0,0 3.6229,0.1738 8.9441,-0.5312 5.5713,-0.7379 10.6204,-2.7104 14.3175,-6.1871 l 8e-4,-8e-4 c 3.4779,-3.6979 5.4492,-8.7466 6.1879,-14.3173 0.7046,-5.3217 0.5309,-8.9441 0.5309,-8.9441 0,0 0.1737,-3.6237 -0.5309,-8.9449 z"
       fill="#0bae64"
       id="path1562" />
    <path
       d="m 28.3397,24.729 c 0.4898,-0.4771 1.1761,-0.8123 2.5022,-0.8123 h 3.3359 v -4e-4 c 1.3166,-0.0025 2.0008,-0.3368 2.4884,-0.8122 C 37.1564,22.6266 37.5,21.9588 37.5,20.6662 v -3.2494 c 0,-1.2918 -0.3436,-1.96 -0.8338,-2.4379 -0.4876,-0.4754 -1.1718,-0.8089 -2.4884,-0.8114 v -8e-4 h -0.009 -0.0047 c -5.3312,0.0025 -8,1.3522 -9.9718,3.2726 -1.9731,1.9221 -3.359,4.6149 -3.359,9.8171 v 6.3201 c 0,5.2027 1.3859,7.8958 3.359,9.8171 1.9718,1.9213 4.6406,3.2706 9.9718,3.2731 h 0.0047 0.009 v -4e-4 C 35.4944,46.6638 36.1786,46.3299 36.6662,45.854 37.1564,45.3769 37.5,44.7087 37.5,43.4169 v -3.2502 c 0,-1.2918 -0.3436,-1.9604 -0.8338,-2.4375 -0.4876,-0.4754 -1.1718,-0.8101 -2.4884,-0.8122 v -8e-4 h -3.3359 c -1.3261,0 -2.0124,-0.3339 -2.5022,-0.8118 -0.4897,-0.4771 -0.8341,-1.1462 -0.8341,-2.4376 v -6.5003 c 0,-1.2918 0.3444,-1.96 0.8341,-2.4375 z"
       fill="#ffffff"
       id="path1564" />
  </g>
  <defs
     id="defs1571">
    <clipPath
       id="clip0_1_609">
      <rect
         width="60"
         height="60"
         fill="#ffffff"
         id="rect1568"
         x="0"
         y="0" />
    </clipPath>
  </defs>
</svg>
