<svg width="20" height="20" viewBox="0 0 20 20" fill="none" xmlns="http://www.w3.org/2000/svg">
<path d="M17.6089 15.4856C17.6081 13.8831 17.0247 12.9381 16.1956 12.1839C15.6806 11.7156 15.0364 11.3323 14.0831 11.1106C14.0831 11.1106 10.6698 10.2864 6.4122 11.0331C6.3622 11.0414 6.3123 11.0514 6.2631 11.0606C6.1881 11.0748 6.0347 11.1064 6.0347 11.1089C5.0764 11.3306 4.4306 11.7139 3.9123 12.1848C3.0839 12.9381 2.5014 13.8831 2.4997 15.4856L2.5006 15.4873V15.4914C2.5006 15.9939 2.6447 16.2564 2.8506 16.4422C3.0573 16.6306 3.3456 16.7614 3.9022 16.7606L5.3064 16.7614C5.8631 16.7623 6.1522 16.6306 6.3581 16.4422C6.5631 16.2564 6.7072 15.9939 6.7081 15.4906L6.7089 14.9256C6.7089 14.4173 6.8589 14.1614 7.0589 13.9681C7.2239 13.8089 7.5498 13.7098 7.6298 13.6931C10.1198 13.0156 12.1831 13.5898 12.6114 13.7264C12.6389 13.7339 12.8806 13.8156 13.0498 13.9681C13.2572 14.1539 13.4006 14.4173 13.4006 14.9256V15.4906C13.4023 15.9939 13.5464 16.2564 13.7506 16.4422C13.9573 16.6306 14.2456 16.7614 14.8031 16.7623L16.2064 16.7614C16.7631 16.7623 17.0522 16.6306 17.2581 16.4422C17.4639 16.2564 17.6081 15.9939 17.6089 15.4906V15.4873V15.4856Z" fill="black"/>
<path d="M5.0903 8.10674C5.3777 8.10674 5.6111 7.87344 5.6111 7.58594V5.09344L8.7961 8.12344C9.1411 8.45094 9.5786 8.61424 10.0161 8.61424C10.4686 8.61424 10.9202 8.44014 11.2686 8.09174L14.6819 4.67844C14.8853 4.47514 14.8853 4.14514 14.6819 3.94174C14.4786 3.73844 14.1486 3.73844 13.9453 3.94174L10.5319 7.35514C10.2494 7.63764 9.8027 7.64264 9.5136 7.36844L6.3669 4.37424H8.7727C9.0611 4.37424 9.2936 4.14174 9.2936 3.85344C9.2936 3.56594 9.0611 3.33264 8.7727 3.33264H5.7153C5.0836 3.33264 4.5694 3.84764 4.5694 4.47844V7.58594C4.5694 7.87344 4.8027 8.10674 5.0903 8.10674Z" fill="black"/>
</svg>
