<svg width="18" height="18" viewBox="0 0 18 18" fill="none" xmlns="http://www.w3.org/2000/svg">
<path d="M17.0803 13.217L15.6719 11.8087C15.1303 11.267 14.6969 11.0504 14.2636 11.0504C13.8303 11.0504 13.5053 11.1587 12.9636 11.7004L12.4219 12.242C11.8803 12.7837 11.5553 12.892 11.1219 12.892C10.7969 12.892 10.3636 12.6754 10.2553 12.567C7.1136 10.7254 5.5969 8.12544 5.2719 7.58374C5.2719 7.58374 5.0553 7.25874 5.0553 6.93374C5.0553 6.50044 5.1636 6.17544 5.7053 5.63374L6.2469 5.09204C6.7886 4.55044 6.8969 4.22544 6.8969 3.79204C6.8969 3.35874 6.6803 2.92544 6.1386 2.38374L4.7303 0.975441C4.1886 0.433741 3.7553 0.217041 3.3219 0.217041C2.8886 0.217041 2.5636 0.325441 2.0219 0.867041C0.396903 2.49204 0.0719029 4.00874 0.180303 5.52544C0.180303 6.50044 0.505303 7.58374 1.2636 8.66704C1.2636 8.66704 3.8636 12.892 8.8469 16.3587C8.9553 16.3587 8.9553 16.467 9.0636 16.467C9.1719 16.5754 9.3886 16.6837 9.3886 16.6837C10.5803 17.442 11.5553 17.6587 12.5303 17.767C14.1553 17.8754 15.6719 17.442 17.1886 15.9254C17.7303 15.3837 17.8386 15.0587 17.8386 14.6254C17.7303 14.192 17.6219 13.7587 17.0803 13.217Z" fill="black"/>
</svg>
