<?xml version="1.0" encoding="UTF-8" standalone="no"?>
<svg
   width="29.915243"
   height="29.726618"
   viewBox="0 0 29.915243 29.726618"
   fill="none"
   version="1.1"
   id="svg1552"
   sodipodi:docname="phone-solid.svg"
   xmlns:inkscape="http://www.inkscape.org/namespaces/inkscape"
   xmlns:sodipodi="http://sodipodi.sourceforge.net/DTD/sodipodi-0.dtd"
   xmlns="http://www.w3.org/2000/svg"
   xmlns:svg="http://www.w3.org/2000/svg">
  <defs
     id="defs1556" />
  <sodipodi:namedview
     id="namedview1554"
     pagecolor="#ffffff"
     bordercolor="#666666"
     borderopacity="1.0"
     inkscape:showpageshadow="2"
     inkscape:pageopacity="0.0"
     inkscape:pagecheckerboard="0"
     inkscape:deskcolor="#d1d1d1" />
  <path
     d="m 28.631943,21.99998 -2.3833,-2.3834 c -0.9167,-0.9166 -1.65,-1.2833 -2.3834,-1.2833 -0.7333,0 -1.2833,0.1833 -2.2,1.1 l -0.9166,0.9167 c -0.9167,0.9166 -1.4667,1.1 -2.2,1.1 -0.55,0 -1.2834,-0.3667 -1.4667,-0.55 -5.3167,-3.1167 -7.8833,-7.5167 -8.4333,-8.4334 0,0 -0.3667,-0.55 -0.3667,-1.1 0,-0.7333 0.1833,-1.2833 1.1,-2.2 l 0.9167,-0.9166 c 0.9166,-0.9167 1.1,-1.4667 1.1,-2.2 0,-0.7334 -0.3667,-1.46668 -1.2834,-2.38338 L 7.731943,1.2833 C 6.815243,0.3666 6.081943,0 5.348643,0 4.615233,0 4.065233,0.1833 3.148633,1.1 0.39863299,3.85 -0.15136701,6.41658 0.03193299,8.98328 c 0,1.65 0.55,3.4833 1.83330001,5.3167 0,0 4.40001,7.15 12.83341,13.0166 0.1833,0 0.1833,0.1834 0.3666,0.1834 0.1834,0.1833 0.55,0.3666 0.55,0.3666 2.0167,1.2834 3.6667,1.65 5.3167,1.8334 2.75,0.1833 5.3167,-0.55 7.8833,-3.1167 0.9167,-0.9167 1.1,-1.4667 1.1,-2.2 -0.1833,-0.7333 -0.3666,-1.4667 -1.2833,-2.3833 z"
     fill="#000000"
     id="path1550" />
</svg>
