<?xml version="1.0" encoding="UTF-8" standalone="no"?>
<svg
   width="12.57465"
   height="12.574775"
   viewBox="0 0 12.57465 12.574775"
   fill="none"
   version="1.1"
   id="svg1622"
   sodipodi:docname="pin2.svg"
   xmlns:inkscape="http://www.inkscape.org/namespaces/inkscape"
   xmlns:sodipodi="http://sodipodi.sourceforge.net/DTD/sodipodi-0.dtd"
   xmlns="http://www.w3.org/2000/svg"
   xmlns:svg="http://www.w3.org/2000/svg">
  <defs
     id="defs1626" />
  <sodipodi:namedview
     id="namedview1624"
     pagecolor="#ffffff"
     bordercolor="#666666"
     borderopacity="1.0"
     inkscape:showpageshadow="2"
     inkscape:pageopacity="0.0"
     inkscape:pagecheckerboard="0"
     inkscape:deskcolor="#d1d1d1" />
  <path
     d="m 0.554625,12.574775 c 0.142,0 0.284,-0.054 0.392,-0.1627 l 4.0314,-4.0307 2.3109,2.3242 c 0.1331,0.1161 0.3247,0.1235 0.4394,0.0089 0.0606,-0.0614 0.2759,-1.006 0.5592,-2.6622 l 2.9943,-3.60165 0.3462,0.3462 c 0.108,0.108 0.25,0.1627 0.392,0.1627 0.1421,0 0.2841,-0.0547 0.3921,-0.1627 0.2167,-0.2167 0.2167,-0.5681 0,-0.7848 l -3.8495,-3.8495 c -0.2167,-0.2167 -0.5681,-0.2167 -0.7848,0 -0.2167,0.2167 -0.2167,0.5674 0,0.7841 l 0.3159,0.3166 -3.5699,3.004 c -0.8884,0.1028 -2.586,0.5007 -2.6459,0.5614 -0.1147,0.1161 -0.1073,0.3085 0.0096,0.4431 l 2.3086,2.32265 -4.0336,4.0336 c -0.2167,0.2167 -0.2167,0.5674 0,0.7841 0.108,0.1087 0.25,0.1627 0.3921,0.1627 z"
     fill="#000000"
     id="path1620" />
</svg>
