<?xml version="1.0" encoding="UTF-8" standalone="no"?>
<svg
   id="vector"
   width="53.400002"
   height="53.400002"
   viewBox="0 0 53.400002 53.400002"
   version="1.1"
   sodipodi:docname="radio-checked.svg"
   xmlns:inkscape="http://www.inkscape.org/namespaces/inkscape"
   xmlns:sodipodi="http://sodipodi.sourceforge.net/DTD/sodipodi-0.dtd"
   xmlns="http://www.w3.org/2000/svg"
   xmlns:svg="http://www.w3.org/2000/svg">
  <defs
     id="defs1715" />
  <sodipodi:namedview
     id="namedview1713"
     pagecolor="#ffffff"
     bordercolor="#666666"
     borderopacity="1.0"
     inkscape:showpageshadow="2"
     inkscape:pageopacity="0.0"
     inkscape:pagecheckerboard="0"
     inkscape:deskcolor="#d1d1d1" />
  <path
     fill="#ff0f9d58"
     d="M 26.7,0 C 12,0 0,12 0,26.7 0,41.4 12,53.4 26.7,53.4 41.4,53.4 53.4,41.4 53.4,26.7 53.4,12 41.4,0 26.7,0 Z"
     id="path_0" />
  <path
     fill="#ffffffff"
     d="m 44.1,19 -20,20 c -1,1 -2.7,1 -3.8,0 v 0 L 9.2,28 c -1.1,-1 -1.1,-2.7 0,-3.8 1.1,-1.1 2.7,-1.1 3.8,0 v 0 l 9.2,9.2 18.1,-18.1 c 1,-1 2.7,-1 3.8,0 1,1 1,2.7 0,3.7 z"
     id="path_1" />
</svg>
