<svg width="24" height="24" viewBox="0 0 24 24" fill="none" xmlns="http://www.w3.org/2000/svg">
<path d="M13.6815 3.07507C14.1099 3.07507 14.4576 3.42277 14.4576 3.85117V20.1488C14.4576 20.5772 14.1099 20.9249 13.6815 20.9249C13.2521 20.9249 12.9054 20.5772 12.9054 20.1488V3.85117C12.9054 3.42277 13.2521 3.07507 13.6815 3.07507ZM6.9555 5.79137C7.3839 5.79137 7.7316 6.13907 7.7316 6.56747V17.4325C7.7316 17.8609 7.3839 18.2086 6.9555 18.2086C6.5261 18.2086 6.1794 17.8609 6.1794 17.4325V6.56747C6.1794 6.13907 6.5261 5.79137 6.9555 5.79137ZM10.3185 8.50767C10.7469 8.50767 11.0946 8.85527 11.0946 9.28367V14.7163C11.0946 15.1447 10.7469 15.4923 10.3185 15.4923C9.8891 15.4923 9.5424 15.1447 9.5424 14.7163V9.28367C9.5424 8.85527 9.8891 8.50767 10.3185 8.50767ZM17.0445 8.50767C17.4729 8.50767 17.8206 8.85527 17.8206 9.28367V14.7163C17.8206 15.1447 17.4729 15.4923 17.0445 15.4923C16.6151 15.4923 16.2684 15.1447 16.2684 14.7163V9.28367C16.2684 8.85527 16.6151 8.50767 17.0445 8.50767ZM20.4075 10.3185C20.8359 10.3185 21.1836 10.6662 21.1836 11.0946V12.9054C21.1836 13.3338 20.8359 13.6815 20.4075 13.6815C19.9781 13.6815 19.6314 13.3338 19.6314 12.9054V11.0946C19.6314 10.6662 19.9781 10.3185 20.4075 10.3185ZM3.5925 10.3185C4.0209 10.3185 4.3686 10.6662 4.3686 11.0946V12.9054C4.3686 13.3338 4.0209 13.6815 3.5925 13.6815C3.1631 13.6815 2.8164 13.3338 2.8164 12.9054V11.0946C2.8164 10.6662 3.1631 10.3185 3.5925 10.3185Z" fill="#252525"/>
</svg>
