<svg width="24" height="25" viewBox="0 0 24 25" fill="none" xmlns="http://www.w3.org/2000/svg">
<g clip-path="url(#clip0_1_53)">
<path d="M17.1085 5H19.5755C19.9895 5 20.3255 4.664 20.3255 4.25C20.3255 3.836 19.9895 3.5 19.5755 3.5H14.8955C14.2115 3.5 13.6545 4.057 13.6545 4.742V9.16C13.6545 9.574 13.9895 9.91 14.4045 9.91C14.8185 9.91 15.1545 9.574 15.1545 9.16V5.563C17.5645 6.756 19.1095 9.215 19.1095 11.912C19.1095 15.82 15.9205 19 11.9995 19C8.0805 19 4.8905 15.82 4.8905 11.912C4.8905 8.659 7.0975 5.832 10.2565 5.038C10.6585 4.938 10.9025 4.529 10.8005 4.128C10.7005 3.727 10.2915 3.482 9.8905 3.583C6.0635 4.546 3.3905 7.971 3.3905 11.912C3.3905 16.647 7.2535 20.5 11.9995 20.5C16.7475 20.5 20.6095 16.647 20.6095 11.912C20.6095 9.154 19.2785 6.599 17.1085 5Z" fill="black"/>
<path d="M-659 -321H1270V2185H-659V-321Z" stroke="#FF0000"/>
</g>
<defs>
<clipPath id="clip0_1_53">
<rect width="24" height="25" fill="white"/>
</clipPath>
</defs>
</svg>
