<?xml version="1.0" encoding="UTF-8" standalone="no"?>
<svg
   width="16.094635"
   height="15.9998"
   viewBox="0 0 16.094635 15.9998"
   fill="none"
   version="1.1"
   id="svg1806"
   sodipodi:docname="reply.svg"
   xmlns:inkscape="http://www.inkscape.org/namespaces/inkscape"
   xmlns:sodipodi="http://sodipodi.sourceforge.net/DTD/sodipodi-0.dtd"
   xmlns="http://www.w3.org/2000/svg"
   xmlns:svg="http://www.w3.org/2000/svg">
  <defs
     id="defs1810" />
  <sodipodi:namedview
     id="namedview1808"
     pagecolor="#ffffff"
     bordercolor="#666666"
     borderopacity="1.0"
     inkscape:showpageshadow="2"
     inkscape:pageopacity="0.0"
     inkscape:pagecheckerboard="0"
     inkscape:deskcolor="#d1d1d1" />
  <path
     d="m 16.093635,13.9218 c -0.042,-5.658 -4.643,-10.26205 -10.2550099,-10.26205 h -3.489 l 2.38,-2.38 c 0.293,-0.293 0.293,-0.767 0,-1.06 -0.293,-0.293 -0.768,-0.293 -1.061,0 l -3.304,3.304 c -0.486,0.486 -0.486,1.278 -0.001,1.765 l 3.296,3.31005 c 0.148,0.147 0.34,0.22 0.533,0.22 0.191,0 0.382,-0.072 0.529,-0.217 0.293,-0.293 0.294,-0.7681 0.002,-1.0621 l -2.371,-2.37995 h 3.486 c 4.7910099,0 8.7190099,3.93595 8.7550099,8.77605 10e-4,0.065 10e-4,1.29 10e-4,1.314 0,0.414 0.335,0.75 0.75,0.75 0.414,0 0.75,-0.336 0.75,-0.75 0,-0.024 -0.001,-1.312 -0.001,-1.328 z"
     fill="#252525"
     id="path1804" />
</svg>
