<?xml version="1.0" encoding="UTF-8" standalone="no"?>
<svg
   width="126"
   height="126"
   viewBox="0 0 126 126"
   fill="none"
   version="1.1"
   id="svg1861"
   sodipodi:docname="scroll-to-bottom-light.svg"
   xmlns:inkscape="http://www.inkscape.org/namespaces/inkscape"
   xmlns:sodipodi="http://sodipodi.sourceforge.net/DTD/sodipodi-0.dtd"
   xmlns="http://www.w3.org/2000/svg"
   xmlns:svg="http://www.w3.org/2000/svg">
  <defs
     id="defs1865" />
  <sodipodi:namedview
     id="namedview1863"
     pagecolor="#ffffff"
     bordercolor="#666666"
     borderopacity="1.0"
     inkscape:showpageshadow="2"
     inkscape:pageopacity="0.0"
     inkscape:pagecheckerboard="0"
     inkscape:deskcolor="#d1d1d1" />
  <path
     d="m 126,63 c 0,8.2733 -1.63,16.4655 -4.796,24.1091 -3.166,7.6435 -7.806,14.5889 -13.656,20.4389 -5.85,5.85 -12.7954,10.49 -20.4389,13.656 C 79.4655,124.37 71.2733,126 63,126 54.7267,126 46.5345,124.37 38.8909,121.204 31.2474,118.038 24.3024,113.398 18.4523,107.548 12.6022,101.698 7.9616,94.7526 4.79559,87.1091 1.62954,79.4655 0,71.2733 0,63 0,54.7267 1.62954,46.5345 4.79559,38.8909 7.9616,31.2474 12.6022,24.3024 18.4523,18.4523 24.3024,12.6022 31.2474,7.9616 38.8909,4.79559 46.5345,1.62954 54.7267,0 63,0 c 8.2733,0 16.4655,1.62954 24.1091,4.79559 7.6435,3.16601 14.5889,7.80661 20.4389,13.65671 5.85,5.8501 10.49,12.7951 13.656,20.4386 C 124.37,46.5345 126,54.7267 126,63"
     fill="#fcfcfc"
     id="path1855" />
  <path
     d="m 81.75,77.4 h -37.5 c -0.5967,0 -1.169,-0.237 -1.591,-0.659 C 42.2371,76.3191 42,75.7468 42,75.15 42,74.5533 42.2371,73.981 42.659,73.559 43.081,73.1371 43.6533,72.9 44.25,72.9 h 37.5 c 0.5967,0 1.169,0.2371 1.591,0.659 0.4219,0.422 0.659,0.9943 0.659,1.591 0,0.5968 -0.2371,1.1691 -0.659,1.591 -0.422,0.422 -0.9943,0.659 -1.591,0.659 z"
     fill="#888888"
     id="path1857" />
  <path
     d="m 66.27,69.39 c -1.68,1.77 -4.41,1.87 -6.21,0.31 L 59.73,69.39 43.26,52.05 c -0.91,-0.96 -0.87,-2.48 0.09,-3.39 0.87,-0.83 2.21,-0.87 3.13,-0.15 L 46.74,48.75 63,65.86 79.26,48.75 c 0.83,-0.88 2.16,-0.99 3.12,-0.32 l 0.27,0.23 c 0.88,0.83 0.99,2.16 0.32,3.12 l -0.23,0.27 z"
     fill="#000000"
     id="path1859" />
</svg>
