<?xml version="1.0" encoding="UTF-8" standalone="no"?>
<svg
   width="28.000021"
   height="28.000021"
   viewBox="0 0 28.000021 28.000021"
   fill="none"
   version="1.1"
   id="svg2232"
   sodipodi:docname="sec_ic_settings_themes.svg"
   xmlns:inkscape="http://www.inkscape.org/namespaces/inkscape"
   xmlns:sodipodi="http://sodipodi.sourceforge.net/DTD/sodipodi-0.dtd"
   xmlns="http://www.w3.org/2000/svg"
   xmlns:svg="http://www.w3.org/2000/svg">
  <sodipodi:namedview
     id="namedview2234"
     pagecolor="#ffffff"
     bordercolor="#666666"
     borderopacity="1.0"
     inkscape:showpageshadow="2"
     inkscape:pageopacity="0.0"
     inkscape:pagecheckerboard="0"
     inkscape:deskcolor="#d1d1d1" />
  <g
     clip-path="url(#clip0_1_1341)"
     id="g2225">
    <path
       d="M 24.856,3.14401 C 23.13,1.52161 20.7739,0.601214 18.1738,0.256914 15.6907,-0.072186 14,0.00881404 14,0.00881404 c 0,0 -1.691,-0.08100004 -4.17421,0.24809996 -2.6,0.3443 -4.956,1.264696 -6.6815,2.887096 -1.6228,1.7258 -2.543099,4.0819 -2.887599,6.6819 -0.3291004,2.48299 -0.2478004,4.17399 -0.2478004,4.17399 0,0 -0.0813,1.6908 0.2478004,4.174 0.3445,2.5998 1.264799,4.9561 2.887399,6.6819 1.7257,1.6226 4.0817,2.5428 6.6817,2.8875 C 12.309,28.0722 14,27.9912 14,27.9912 c 0,0 1.6907,0.081 4.1738,-0.2479 2.6001,-0.3447 4.9562,-1.2649 6.6818,-2.8875 1.623,-1.7258 2.5432,-4.0821 2.8877,-6.6819 0.3289,-2.4832 0.2479,-4.174 0.2479,-4.174 0,0 0.081,-1.691 -0.2479,-4.17399 -0.3445,-2.6 -1.2647,-4.9561 -2.8873,-6.6819 z"
       fill="#ca84e8"
       id="path2221" />
    <path
       d="m 20.211,12.249 v 1.8306 c 0,0.957 -1.1688,1.3374 -1.54,1.419 -1.3411,0.296 -2.7271,0.6022 -2.9719,1.3621 -0.2273,0.7031 -0.0605,0.9048 0.1302,1.6381 0.0184,0.0545 0.2979,1.0369 0.2979,1.4923 0,1.0964 -1.1229,1.915 -2.1266,1.915 -1.0029,0 -2.1258,-0.8186 -2.1258,-1.915 0,-0.4858 0.3162,-1.5711 0.2952,-1.4923 0.1925,-0.7333 0.3584,-0.935 0.1329,-1.6381 C 12.0572,16.1008 10.6712,15.7946 9.331,15.4986 8.958,15.417 7.7892,15.0366 7.7892,14.0796 V 12.249 Z M 14.0004,6.89444 c 3.7638,-1.375 5.5055,-0.7233 6.2104,0.0595 V 10.8736 H 7.789 V 7.27394 c 0,-0.3383 0.3474,-0.5629 0.6555,-0.4235 0.9661,0.4335 2.9434,0.9991 5.5559,0.044 z"
       fill="#ffffff"
       id="path2223" />
  </g>
  <defs
     id="defs2230">
    <clipPath
       id="clip0_1_1341">
      <rect
         width="28"
         height="28"
         fill="#ffffff"
         id="rect2227"
         x="0"
         y="0" />
    </clipPath>
  </defs>
</svg>
