<?xml version="1.0" encoding="UTF-8" standalone="no"?>
<svg
   width="28.000021"
   height="28.000021"
   viewBox="0 0 28.000021 28.000021"
   fill="none"
   version="1.1"
   id="svg2140"
   sodipodi:docname="sec_ic_settings_remotesupport.svg"
   xmlns:inkscape="http://www.inkscape.org/namespaces/inkscape"
   xmlns:sodipodi="http://sodipodi.sourceforge.net/DTD/sodipodi-0.dtd"
   xmlns="http://www.w3.org/2000/svg"
   xmlns:svg="http://www.w3.org/2000/svg">
  <sodipodi:namedview
     id="namedview2142"
     pagecolor="#ffffff"
     bordercolor="#666666"
     borderopacity="1.0"
     inkscape:showpageshadow="2"
     inkscape:pageopacity="0.0"
     inkscape:pagecheckerboard="0"
     inkscape:deskcolor="#d1d1d1" />
  <g
     clip-path="url(#clip0_1_1363)"
     id="g2133">
    <path
       d="M 24.856,3.14401 C 23.13,1.52161 20.7739,0.601214 18.1738,0.256914 15.6907,-0.072186 14,0.00881404 14,0.00881404 c 0,0 -1.691,-0.08100004 -4.17421,0.24809996 -2.6,0.3443 -4.956,1.264696 -6.6815,2.887096 -1.6228,1.7258 -2.543099,4.0819 -2.887599,6.6819 -0.3291004,2.48299 -0.2478004,4.17399 -0.2478004,4.17399 0,0 -0.0813,1.6908 0.2478004,4.174 0.3445,2.5998 1.264799,4.9561 2.887399,6.6819 1.7257,1.6226 4.0817,2.5428 6.6817,2.8875 C 12.309,28.0722 14,27.9912 14,27.9912 c 0,0 1.6907,0.081 4.1738,-0.2479 2.6001,-0.3447 4.9562,-1.2649 6.6818,-2.8875 1.623,-1.7258 2.5432,-4.0821 2.8877,-6.6819 0.3289,-2.4832 0.2479,-4.174 0.2479,-4.174 0,0 0.081,-1.691 -0.2479,-4.17399 -0.3445,-2.6 -1.2647,-4.9561 -2.8873,-6.6819 z"
       fill="#30c5e5"
       id="path2129" />
    <path
       d="m 18.2932,21.5759 c 0.8846,0 1.6042,-0.7195 1.6042,-1.6041 v -0.2154 c 0.7562,-0.2613 1.3007,-0.9772 1.3007,-1.8206 v -1.4437 -1.6427 -2.2265 c 0,-3.96918 -3.2285,-7.19858 -7.1976,-7.19858 -3.9701,0 -7.1986,3.2294 -7.1986,7.19858 v 2.2265 1.6427 1.4437 c 0,1.0615 0.8635,1.926 1.925,1.926 h 0.1265 c 1.0615,0 1.9259,-0.8645 1.9259,-1.926 v -3.0864 c 0,-1.0624 -0.8644,-1.9259 -1.9259,-1.9259 H 8.7269 c -0.1916,0 -0.3759,0.0294 -0.55,0.0816 v -0.3822 c 0,-3.21108 2.6116,-5.82358 5.8236,-5.82358 3.211,0 5.8226,2.6125 5.8226,5.82358 v 0.3822 c -0.1741,-0.0522 -0.3584,-0.0816 -0.55,-0.0816 h -0.1265 c -1.0615,0 -1.925,0.8635 -1.925,1.9259 v 3.0864 c 0,0.8434 0.5454,1.5593 1.3008,1.8206 v 0.2154 c 0,0.1265 -0.1027,0.2291 -0.2292,0.2291 h -3.3651 c -0.0605,0 -0.1201,-0.0238 -0.1622,-0.0669 L 14.138,19.5061 c -0.2686,-0.2686 -0.704,-0.2686 -0.9717,0 -0.2686,0.2686 -0.2686,0.704 0,0.9726 l 0.627,0.627 c 0.3034,0.3034 0.7058,0.4702 1.1348,0.4702 z"
       fill="#ffffff"
       id="path2131" />
  </g>
  <defs
     id="defs2138">
    <clipPath
       id="clip0_1_1363">
      <rect
         width="28"
         height="28"
         fill="#ffffff"
         id="rect2135"
         x="0"
         y="0" />
    </clipPath>
  </defs>
</svg>
