<?xml version="1.0" encoding="UTF-8" standalone="no"?>
<svg
   width="28.000021"
   height="28.000021"
   viewBox="0 0 28.000021 28.000021"
   fill="none"
   version="1.1"
   id="svg1907"
   sodipodi:docname="sec_ic_account.svg"
   xmlns:inkscape="http://www.inkscape.org/namespaces/inkscape"
   xmlns:sodipodi="http://sodipodi.sourceforge.net/DTD/sodipodi-0.dtd"
   xmlns="http://www.w3.org/2000/svg"
   xmlns:svg="http://www.w3.org/2000/svg">
  <sodipodi:namedview
     id="namedview1909"
     pagecolor="#ffffff"
     bordercolor="#666666"
     borderopacity="1.0"
     inkscape:showpageshadow="2"
     inkscape:pageopacity="0.0"
     inkscape:pagecheckerboard="0"
     inkscape:deskcolor="#d1d1d1" />
  <g
     clip-path="url(#clip0_1_1453)"
     id="g1900">
    <path
       d="M 24.856,3.14401 C 23.13,1.52161 20.7739,0.601214 18.1738,0.256914 15.6907,-0.072186 14,0.00881404 14,0.00881404 c 0,0 -1.691,-0.08100004 -4.17421,0.24809996 -2.6,0.3443 -4.956,1.264696 -6.6815,2.887096 -1.6228,1.7258 -2.543099,4.0819 -2.887599,6.6819 -0.3291004,2.48299 -0.2478004,4.17399 -0.2478004,4.17399 0,0 -0.0813,1.6908 0.2478004,4.174 0.3445,2.5998 1.264799,4.9561 2.887399,6.6819 1.7257,1.6226 4.0817,2.5428 6.6817,2.8875 C 12.309,28.0722 14,27.9912 14,27.9912 c 0,0 1.6907,0.081 4.1738,-0.2479 2.6001,-0.3447 4.9562,-1.2649 6.6818,-2.8875 1.623,-1.7258 2.5432,-4.0821 2.8877,-6.6819 0.3289,-2.4832 0.2479,-4.174 0.2479,-4.174 0,0 0.081,-1.691 -0.2479,-4.17399 -0.3445,-2.6 -1.2647,-4.9561 -2.8873,-6.6819 z"
       fill="#4772e6"
       id="path1896" />
    <path
       d="m 14,19.3168 c -1.5941,0 -3.014,-0.7389 -3.938,-1.892 0.4033,-1.804 2.0121,-3.1524 3.938,-3.1524 1.925,0 3.5337,1.3484 3.9371,3.1524 -0.9249,1.1531 -2.3439,1.892 -3.9371,1.892 z M 13.9862,9.2628 c 1.0295,0 1.8645,0.835 1.8645,1.8645 0,1.0294 -0.835,1.8645 -1.8645,1.8645 -1.0303,0 -1.8645,-0.8351 -1.8645,-1.8645 0,-1.0295 0.8342,-1.8645 1.8645,-1.8645 z M 14,6.323 c -4.24049,0 -7.67709,3.4366 -7.67709,7.6771 0,4.2396 3.4366,7.6771 7.67709,7.6771 4.2405,0 7.6771,-3.4375 7.6771,-7.6771 C 21.6771,9.7596 18.2405,6.323 14,6.323 Z"
       fill="#ffffff"
       id="path1898" />
  </g>
  <defs
     id="defs1905">
    <clipPath
       id="clip0_1_1453">
      <rect
         width="28"
         height="28"
         fill="#ffffff"
         id="rect1902"
         x="0"
         y="0" />
    </clipPath>
  </defs>
</svg>
