<?xml version="1.0" encoding="UTF-8" standalone="no"?>
<svg
   width="28.000021"
   height="28.000021"
   viewBox="0 0 28.000021 28.000021"
   fill="none"
   version="1.1"
   id="svg2094"
   sodipodi:docname="sec_ic_settings_notifications.svg"
   xmlns:inkscape="http://www.inkscape.org/namespaces/inkscape"
   xmlns:sodipodi="http://sodipodi.sourceforge.net/DTD/sodipodi-0.dtd"
   xmlns="http://www.w3.org/2000/svg"
   xmlns:svg="http://www.w3.org/2000/svg">
  <sodipodi:namedview
     id="namedview2096"
     pagecolor="#ffffff"
     bordercolor="#666666"
     borderopacity="1.0"
     inkscape:showpageshadow="2"
     inkscape:pageopacity="0.0"
     inkscape:pagecheckerboard="0"
     inkscape:deskcolor="#d1d1d1" />
  <g
     clip-path="url(#clip0_1_1371)"
     id="g2087">
    <path
       d="M 24.856,3.14401 C 23.13,1.52161 20.7739,0.601214 18.1738,0.256914 15.6907,-0.072186 14,0.00881404 14,0.00881404 c 0,0 -1.691,-0.08100004 -4.17421,0.24809996 -2.6,0.3443 -4.956,1.264696 -6.6815,2.887096 -1.6228,1.7258 -2.543099,4.0819 -2.887599,6.6819 -0.3291004,2.48299 -0.2478004,4.17399 -0.2478004,4.17399 0,0 -0.0813,1.6908 0.2478004,4.174 0.3445,2.5998 1.264799,4.9561 2.887399,6.6819 1.7257,1.6226 4.0817,2.5428 6.6817,2.8875 C 12.309,28.0722 14,27.9912 14,27.9912 c 0,0 1.6907,0.081 4.1738,-0.2479 2.6001,-0.3447 4.9562,-1.2649 6.6818,-2.8875 1.623,-1.7258 2.5432,-4.0821 2.8877,-6.6819 0.3289,-2.4832 0.2479,-4.174 0.2479,-4.174 0,0 0.081,-1.691 -0.2479,-4.17399 -0.3445,-2.6 -1.2647,-4.9561 -2.8873,-6.6819 z"
       fill="#fc8e81"
       id="path2083" />
    <path
       d="m 15.6177,9.55099 c -0.0275,0.1137 -0.0513,0.2273 -0.0706,0.3447 -0.0183,0.11361 -0.0339,0.22821 -0.043,0.34371 -0.0074,0.1073 -0.0156,0.2127 -0.0156,0.3208 0,2.2798 1.8526,4.1342 4.1296,4.1342 0.0073,0 0.0128,-0.0018 0.0192,-0.0018 0.1164,0 0.2319,-0.0074 0.3447,-0.0174 0.1173,-0.0101 0.231,-0.0275 0.3447,-0.0468 v 1.2375 c 0,1.7105 -1.3906,3.1002 -3.1002,3.1002 H 8.9591 c -1.7087,0 -3.1002,-1.3897 -3.1002,-3.1002 v -3.2147 c 0,-1.7096 1.3915,-3.10021 3.1002,-3.10021 z m 4.0007,-1.5173 c 1.3943,0 2.5227,1.1312 2.5227,2.52641 0,1.1485 -0.7654,2.1165 -1.815,2.4236 -0.1109,0.0321 -0.2264,0.0559 -0.3438,0.0734 -0.1127,0.0165 -0.2273,0.0275 -0.3446,0.0284 -0.0064,0 -0.0129,9e-4 -0.0193,9e-4 -1.3933,0 -2.5226,-1.1312 -2.5226,-2.5263 0,-0.1091 0.0101,-0.2145 0.0229,-0.32 0.0137,-0.1173 0.0376,-0.2319 0.0678,-0.34461 0.033,-0.1164 0.0715,-0.2301 0.1183,-0.3401 0.3877,-0.8947 1.2769,-1.5217 2.3136,-1.5217 z"
       fill="#ffffff"
       id="path2085" />
  </g>
  <defs
     id="defs2092">
    <clipPath
       id="clip0_1_1371">
      <rect
         width="28"
         height="28"
         fill="#ffffff"
         id="rect2089"
         x="0"
         y="0" />
    </clipPath>
  </defs>
</svg>
