<?xml version="1.0" encoding="UTF-8" standalone="no"?>
<svg
   width="28.000021"
   height="28.000021"
   viewBox="0 0 28.000021 28.000021"
   fill="none"
   version="1.1"
   id="svg2048"
   sodipodi:docname="sec_ic_settings_general.svg"
   xmlns:inkscape="http://www.inkscape.org/namespaces/inkscape"
   xmlns:sodipodi="http://sodipodi.sourceforge.net/DTD/sodipodi-0.dtd"
   xmlns="http://www.w3.org/2000/svg"
   xmlns:svg="http://www.w3.org/2000/svg">
  <sodipodi:namedview
     id="namedview2050"
     pagecolor="#ffffff"
     bordercolor="#666666"
     borderopacity="1.0"
     inkscape:showpageshadow="2"
     inkscape:pageopacity="0.0"
     inkscape:pagecheckerboard="0"
     inkscape:deskcolor="#d1d1d1" />
  <g
     clip-path="url(#clip0_1_1401)"
     id="g2041">
    <path
       d="M 24.856,3.14401 C 23.13,1.52161 20.7739,0.601214 18.1738,0.256914 15.6907,-0.072186 14,0.00881404 14,0.00881404 c 0,0 -1.691,-0.08100004 -4.17421,0.24809996 -2.6,0.3443 -4.956,1.264696 -6.6815,2.887096 -1.6228,1.7258 -2.543099,4.0819 -2.887599,6.6819 -0.3291004,2.48299 -0.2478004,4.17399 -0.2478004,4.17399 0,0 -0.0813,1.6908 0.2478004,4.174 0.3445,2.5998 1.264799,4.9561 2.887399,6.6819 1.7257,1.6226 4.0817,2.5428 6.6817,2.8875 C 12.309,28.0722 14,27.9912 14,27.9912 c 0,0 1.6907,0.081 4.1738,-0.2479 2.6001,-0.3447 4.9562,-1.2649 6.6818,-2.8875 1.623,-1.7258 2.5432,-4.0821 2.8877,-6.6819 0.3289,-2.4832 0.2479,-4.174 0.2479,-4.174 0,0 0.081,-1.691 -0.2479,-4.17399 -0.3445,-2.6 -1.2647,-4.9561 -2.8873,-6.6819 z"
       fill="#6b8ea6"
       id="path2037" />
    <path
       d="m 11.6322,17.8214 c 0.7701,0 1.4291,0.4785 1.6995,1.1559 h 7.3141 c 0.3805,0 0.6875,0.3071 0.6875,0.6875 0,0.3795 -0.307,0.6875 -0.6875,0.6875 h -7.3141 c -0.2704,0.6774 -0.9294,1.155 -1.6995,1.155 -0.7709,0 -1.429,-0.4776 -1.7004,-1.155 H 7.3542 c -0.3795,0 -0.6875,-0.308 -0.6875,-0.6875 0,-0.3804 0.308,-0.6875 0.6875,-0.6875 h 2.5776 c 0.2714,-0.6774 0.9295,-1.1559 1.7004,-1.1559 z m 5.0032,-5.6643 c 0.7709,0 1.4291,0.4785 1.7004,1.156 h 2.31 c 0.3805,0 0.6875,0.308 0.6875,0.6875 0,0.3795 -0.307,0.6875 -0.6875,0.6875 h -2.31 c -0.2713,0.6774 -0.9295,1.155 -1.7004,1.155 -0.7709,0 -1.4291,-0.4776 -1.6995,-1.155 H 7.3542 c -0.3795,0 -0.6875,-0.308 -0.6875,-0.6875 0,-0.3795 0.308,-0.6875 0.6875,-0.6875 h 7.5817 c 0.2704,-0.6775 0.9286,-1.156 1.6995,-1.156 z M 11.6322,6.49292 c 0.7701,0 1.4291,0.4785 1.6995,1.1559 h 7.3141 c 0.3805,0 0.6875,0.308 0.6875,0.6875 0,0.3795 -0.307,0.6875 -0.6875,0.6875 h -7.3141 c -0.2704,0.6774 -0.9294,1.15588 -1.6995,1.15588 -0.7709,0 -1.429,-0.47848 -1.7004,-1.15588 H 7.3542 c -0.3795,0 -0.6875,-0.308 -0.6875,-0.6875 0,-0.3795 0.308,-0.6875 0.6875,-0.6875 h 2.5776 c 0.2714,-0.6774 0.9295,-1.1559 1.7004,-1.1559 z"
       fill="#ffffff"
       id="path2039" />
  </g>
  <defs
     id="defs2046">
    <clipPath
       id="clip0_1_1401">
      <rect
         width="28"
         height="28"
         fill="#ffffff"
         id="rect2043"
         x="0"
         y="0" />
    </clipPath>
  </defs>
</svg>
