<?xml version="1.0" encoding="UTF-8" standalone="no"?>
<svg
   width="28.000021"
   height="28.000021"
   viewBox="0 0 28.000021 28.000021"
   fill="none"
   version="1.1"
   id="svg2002"
   sodipodi:docname="sec_ic_settings_docomo_au.svg"
   xmlns:inkscape="http://www.inkscape.org/namespaces/inkscape"
   xmlns:sodipodi="http://sodipodi.sourceforge.net/DTD/sodipodi-0.dtd"
   xmlns="http://www.w3.org/2000/svg"
   xmlns:svg="http://www.w3.org/2000/svg">
  <sodipodi:namedview
     id="namedview2004"
     pagecolor="#ffffff"
     bordercolor="#666666"
     borderopacity="1.0"
     inkscape:showpageshadow="2"
     inkscape:pageopacity="0.0"
     inkscape:pagecheckerboard="0"
     inkscape:deskcolor="#d1d1d1" />
  <g
     clip-path="url(#clip0_1_1409)"
     id="g1995">
    <path
       d="M 24.856,3.14401 C 23.13,1.52161 20.7739,0.601214 18.1738,0.256914 15.6907,-0.072186 14,0.00881404 14,0.00881404 c 0,0 -1.691,-0.08100004 -4.17421,0.24809996 -2.6,0.3443 -4.956,1.264696 -6.6815,2.887096 -1.6228,1.7258 -2.543099,4.0819 -2.887599,6.6819 -0.3291004,2.48299 -0.2478004,4.17399 -0.2478004,4.17399 0,0 -0.0813,1.6908 0.2478004,4.174 0.3445,2.5998 1.264799,4.9561 2.887399,6.6819 1.7257,1.6226 4.0817,2.5428 6.6817,2.8875 C 12.309,28.0722 14,27.9912 14,27.9912 c 0,0 1.6907,0.081 4.1738,-0.2479 2.6001,-0.3447 4.9562,-1.2649 6.6818,-2.8875 1.623,-1.7258 2.5432,-4.0821 2.8877,-6.6819 0.3289,-2.4832 0.2479,-4.174 0.2479,-4.174 0,0 0.081,-1.691 -0.2479,-4.17399 -0.3445,-2.6 -1.2647,-4.9561 -2.8873,-6.6819 z"
       fill="#e17282"
       id="path1991" />
    <path
       d="m 14.958,5 -2e-4,2.5548 c 1.0845,0.159 2.0821,0.5851 2.9239,1.2094 l 1.8049,-1.8056 1.3548,1.3548 -1.8045,1.8046 c 0.6255,0.8416 1.0527,1.8392 1.2126,2.9239 L 23,13.042 v 1.916 l -2.5505,10e-5 c -0.1599,1.0847 -0.5871,2.0823 -1.2126,2.9239 l 1.8045,1.8046 -1.3548,1.3548 -1.8049,-1.8056 c -0.8418,0.6243 -1.8394,1.0504 -2.9239,1.2094 L 14.958,23 h -1.916 l 5e-4,-2.5563 c -1.083,-0.1604 -2.079,-0.5873 -2.9194,-1.2119 L 8.3134,21.0414 6.9586,19.6866 8.7687,17.8758 C 8.1457,17.0356 7.7202,16.0401 7.5607,14.9581 L 5,14.958 v -1.916 l 2.5607,-10e-5 c 0.1595,-1.082 0.585,-2.0775 1.208,-2.9177 L 6.9586,8.3134 8.3134,6.9586 10.1231,8.7682 C 10.9635,8.1436 11.9595,7.7167 13.0425,7.5563 L 13.042,5 Z m -0.9529,4.4017 c -2.5396,0 -4.5983,2.0587 -4.5983,4.5983 0,2.5396 2.0587,4.5983 4.5983,4.5983 2.5396,0 4.5983,-2.0587 4.5983,-4.5983 0,-2.5396 -2.0587,-4.5983 -4.5983,-4.5983 z"
       fill="#ffffff"
       id="path1993" />
  </g>
  <defs
     id="defs2000">
    <clipPath
       id="clip0_1_1409">
      <rect
         width="28"
         height="28"
         fill="#ffffff"
         id="rect1997"
         x="0"
         y="0" />
    </clipPath>
  </defs>
</svg>
