<?xml version="1.0" encoding="UTF-8" standalone="no"?>
<svg
   width="28.032007"
   height="28.032013"
   viewBox="0 0 28.032007 28.032013"
   fill="none"
   version="1.1"
   id="svg1955"
   sodipodi:docname="sec_ic_settings_coverscreen.svg"
   xmlns:inkscape="http://www.inkscape.org/namespaces/inkscape"
   xmlns:sodipodi="http://sodipodi.sourceforge.net/DTD/sodipodi-0.dtd"
   xmlns="http://www.w3.org/2000/svg"
   xmlns:svg="http://www.w3.org/2000/svg">
  <sodipodi:namedview
     id="namedview1957"
     pagecolor="#ffffff"
     bordercolor="#666666"
     borderopacity="1.0"
     inkscape:showpageshadow="2"
     inkscape:pageopacity="0.0"
     inkscape:pagecheckerboard="0"
     inkscape:deskcolor="#d1d1d1" />
  <g
     clip-path="url(#clip0_1_1423)"
     id="g1948"
     transform="translate(0.0160063,0.01611318)">
    <path
       d="m 27.7,9.79989 c -0.3,-2.6 -1.3,-5 -2.9,-6.7 -1.7,-1.6 -4.1,-2.500003 -6.7,-2.900003 -2.4,-0.3 -4.1,-0.200000279 -4.1,-0.200000279 0,0 -1.7,-0.099999721 -4.20001,0.200000279 -2.6,0.3 -5,1.300003 -6.7,2.900003 -1.6,1.8 -2.499996,4.1 -2.799996,6.7 -0.4,2.50001 -0.3000004671,4.20001 -0.3000004671,4.20001 0,0 -0.0999995329,1.7 0.2000004671,4.2 0.3,2.6 1.299996,5 2.899996,6.7 1.7,1.6 4.1,2.5 6.7,2.9 2.50001,0.3 4.20001,0.2 4.20001,0.2 0,0 1.7,0.1 4.2,-0.2 2.6,-0.3 5,-1.3 6.7,-2.9 1.6,-1.7 2.5,-4.1 2.9,-6.7 0.3,-2.5 0.2,-4.2 0.2,-4.2 0,0 0.1,-1.7 -0.3,-4.20001 z m -6.9,9.90001 c 0,1.3 -1.1,2.3 -2.4,2.3 H 9.59999 c -1.3,0 -2.4,-1 -2.4,-2.3 V 8.29989 c 0,-1.3 1.1,-2.3 2.4,-2.3 H 18.4 c 1.3,0 2.4,1 2.4,2.3 z"
       fill="#2badbd"
       id="path1942" />
    <path
       d="M 15.4,16.8999 H 9.7 c -0.4,0 -0.7,0.3 -0.7,0.7 v 1.9 c 0,0.4 0.3,0.7 0.7,0.7 h 5.7 c 0.4,0 0.7,-0.3 0.7,-0.7 v -1.9 c 0.1,-0.4 -0.3,-0.7 -0.7,-0.7 z"
       fill="#2badbd"
       id="path1944" />
    <path
       d="M 18.4,6 H 9.6 C 8.3,6 7.2,7 7.2,8.3 V 19.7 C 7.2,21 8.3,22 9.6,22 h 8.8 c 1.3,0 2.4,-1 2.4,-2.3 V 8.3 C 20.8,7 19.7,6 18.4,6 Z m -2.2,13.5 c 0,0.4 -0.3,0.7 -0.7,0.7 H 9.7 C 9.3,20.2 9,19.9 9,19.5 v -1.9 c 0,-0.4 0.3,-0.7 0.7,-0.7 h 5.7 c 0.4,0 0.7,0.3 0.7,0.7 v 1.9 z"
       fill="#ffffff"
       id="path1946" />
  </g>
  <defs
     id="defs1953">
    <clipPath
       id="clip0_1_1423">
      <rect
         width="28"
         height="28"
         fill="#ffffff"
         id="rect1950"
         x="0"
         y="0" />
    </clipPath>
  </defs>
</svg>
