<?xml version="1.0" encoding="UTF-8" standalone="no"?>
<svg
   width="28.000021"
   height="28.000021"
   viewBox="0 0 28.000021 28.000021"
   fill="none"
   version="1.1"
   id="svg2117"
   sodipodi:docname="sec_ic_settings_privacy.svg"
   xmlns:inkscape="http://www.inkscape.org/namespaces/inkscape"
   xmlns:sodipodi="http://sodipodi.sourceforge.net/DTD/sodipodi-0.dtd"
   xmlns="http://www.w3.org/2000/svg"
   xmlns:svg="http://www.w3.org/2000/svg">
  <sodipodi:namedview
     id="namedview2119"
     pagecolor="#ffffff"
     bordercolor="#666666"
     borderopacity="1.0"
     inkscape:showpageshadow="2"
     inkscape:pageopacity="0.0"
     inkscape:pagecheckerboard="0"
     inkscape:deskcolor="#d1d1d1" />
  <g
     clip-path="url(#clip0_1_1367)"
     id="g2110">
    <path
       d="M 24.856,3.14401 C 23.13,1.52161 20.7739,0.601214 18.1738,0.256914 15.6907,-0.072186 14,0.00881404 14,0.00881404 c 0,0 -1.691,-0.08100004 -4.17421,0.24809996 -2.6,0.3443 -4.956,1.264696 -6.6815,2.887096 -1.6228,1.7258 -2.543099,4.0819 -2.887599,6.6819 -0.3291004,2.48299 -0.2478004,4.17399 -0.2478004,4.17399 0,0 -0.0813,1.6908 0.2478004,4.174 0.3445,2.5998 1.264799,4.9561 2.887399,6.6819 1.7257,1.6226 4.0817,2.5428 6.6817,2.8875 C 12.309,28.0722 14,27.9912 14,27.9912 c 0,0 1.6907,0.081 4.1738,-0.2479 2.6001,-0.3447 4.9562,-1.2649 6.6818,-2.8875 1.623,-1.7258 2.5432,-4.0821 2.8877,-6.6819 0.3289,-2.4832 0.2479,-4.174 0.2479,-4.174 0,0 0.081,-1.691 -0.2479,-4.17399 -0.3445,-2.6 -1.2647,-4.9561 -2.8873,-6.6819 z"
       fill="#7ba2f1"
       id="path2106" />
    <path
       d="m 16.7566,16.6016 c -0.7925,0.5194 -1.7393,0.8232 -2.7561,0.8232 -1.0178,0 -1.9636,-0.3038 -2.7571,-0.8232 v -0.5683 c 0,-1.2343 1.2343,-2.3824 2.7571,-2.3824 1.5218,0 2.7571,1.1481 2.7561,2.3824 z M 14.0005,9.53967 c 0.8759,0 1.586,0.71013 1.586,1.58603 0,0.8759 -0.7101,1.586 -1.586,1.586 -0.8769,0 -1.5861,-0.7101 -1.5861,-1.586 0,-0.8759 0.7092,-1.58603 1.5861,-1.58603 z m 5.6168,-2.2061 c -1.8544,-0.2827 -3.3983,-0.8232 -5.0188,-1.5851 -0.3786,-0.1783 -0.8184,-0.1783 -1.197,0 -1.6196,0.7619 -3.1644,1.3024 -5.0188,1.5851 -0.6957,0.1063 -1.2142,0.6976 -1.2142,1.4011 v 5.15583 c 0,2.4648 1.0676,4.6201 3.1711,6.4084 1.2305,1.0445 2.5435,1.7077 3.2996,2.0153 0.2319,0.0949 0.4897,0.0949 0.7216,0 0.7571,-0.3076 2.07,-0.9708 3.3005,-2.0153 2.1036,-1.7883 3.1702,-3.9436 3.1702,-6.4084 V 8.73467 c 0,-0.7035 -0.5185,-1.2948 -1.2142,-1.4011 z"
       fill="#ffffff"
       id="path2108" />
  </g>
  <defs
     id="defs2115">
    <clipPath
       id="clip0_1_1367">
      <rect
         width="28"
         height="28"
         fill="#ffffff"
         id="rect2112"
         x="0"
         y="0" />
    </clipPath>
  </defs>
</svg>
