<?xml version="1.0" encoding="UTF-8" standalone="no"?>
<svg
   width="28.000021"
   height="28.000021"
   viewBox="0 0 28.000021 28.000021"
   fill="none"
   version="1.1"
   id="svg2209"
   sodipodi:docname="sec_ic_settings_sync.svg"
   xmlns:inkscape="http://www.inkscape.org/namespaces/inkscape"
   xmlns:sodipodi="http://sodipodi.sourceforge.net/DTD/sodipodi-0.dtd"
   xmlns="http://www.w3.org/2000/svg"
   xmlns:svg="http://www.w3.org/2000/svg">
  <sodipodi:namedview
     id="namedview2211"
     pagecolor="#ffffff"
     bordercolor="#666666"
     borderopacity="1.0"
     inkscape:showpageshadow="2"
     inkscape:pageopacity="0.0"
     inkscape:pagecheckerboard="0"
     inkscape:deskcolor="#d1d1d1" />
  <g
     clip-path="url(#clip0_1_1433)"
     id="g2202">
    <path
       d="M 24.856,3.14401 C 23.13,1.52161 20.7739,0.601214 18.1738,0.256914 15.6907,-0.072186 14,0.00881404 14,0.00881404 c 0,0 -1.691,-0.08100004 -4.17421,0.24809996 -2.6,0.3443 -4.956,1.264696 -6.6815,2.887096 -1.6228,1.7258 -2.543099,4.0819 -2.887599,6.6819 -0.3291004,2.48299 -0.2478004,4.17399 -0.2478004,4.17399 0,0 -0.0813,1.6908 0.2478004,4.174 0.3445,2.5998 1.264799,4.9561 2.887399,6.6819 1.7257,1.6226 4.0817,2.5428 6.6817,2.8875 C 12.309,28.0722 14,27.9912 14,27.9912 c 0,0 1.6907,0.081 4.1738,-0.2479 2.6001,-0.3447 4.9562,-1.2649 6.6818,-2.8875 1.623,-1.7258 2.5432,-4.0821 2.8877,-6.6819 0.3289,-2.4832 0.2479,-4.174 0.2479,-4.174 0,0 0.081,-1.691 -0.2479,-4.17399 -0.3445,-2.6 -1.2647,-4.9561 -2.8873,-6.6819 z"
       fill="#4772e6"
       id="path2198" />
    <path
       d="m 15.3346,7.45776 c 0.1594,-0.4429 0.6229,-0.6886 1.0714,-0.589 l 0.1116,0.0322 0.252,0.096 c 2.8279,1.1372 4.7073,3.91694 4.7073,7.00324 0,2.011 -0.8,3.9216 -2.1898,5.3259 l -0.2141,0.2069 0.6947,5e-4 c 0.4347,0 0.7996,0.3002 0.8985,0.7045 l 0.0203,0.1127 0.0062,0.1078 c 0,0.4216 -0.2839,0.783 -0.6954,0.8936 l -0.1153,0.0239 -0.1143,0.0075 h -2.9258 c -0.6334,0 -1.1713,-0.4477 -1.3005,-1.0654 L 15.52,20.1832 15.5135,20.0552 v -2.7433 c 0,-0.5109 0.4137,-0.925 0.925,-0.925 0.4216,0 0.783,0.2839 0.8936,0.6954 l 0.0239,0.1153 0.0075,0.1143 -5e-4,1.2411 0.1437,-0.1096 c 1.1919,-0.962 1.955,-2.3791 2.0963,-3.9217 l 0.0185,-0.2735 0.0054,-0.248 c 0,-2.3991 -1.5021,-4.55344 -3.7338,-5.35824 -0.4821,-0.1713 -0.7314,-0.7025 -0.5585,-1.1842 z m -4.1765,-0.8413 c 0.6341,0 1.1721,0.4478 1.3014,1.066 l 0.0213,0.135 0.0065,0.1281 v 2.74174 c 0,0.5109 -0.4137,0.925 -0.925,0.925 -0.4215,0 -0.7829,-0.2839 -0.8936,-0.6954 l -0.0238,-0.1153 -0.0076,-0.1143 -3e-4,-1.24334 -0.1433,0.1109 C 9.3012,10.5167 8.5383,11.9338 8.397,13.4778 l -0.0185,0.2737 -0.0054,0.2483 c 0,2.3996 1.5018,4.5524 3.7356,5.3576 0.4808,0.1727 0.7295,0.7019 0.5567,1.183 -0.1331,0.3703 -0.4831,0.6119 -0.8706,0.6119 -0.1058,0 -0.2114,-0.018 -0.3134,-0.0544 -2.9666,-1.0688 -4.9583,-3.9209 -4.9583,-7.0981 0,-2.0111 0.8,-3.9222 2.1893,-5.32624 L 8.9252,8.46675 8.2331,8.46646 c -0.5107,0 -0.925,-0.4144 -0.925,-0.925 0,-0.4216 0.2839,-0.783 0.6954,-0.8936 l 0.1153,-0.0239 0.1143,-0.0075 z"
       fill="#ffffff"
       id="path2200" />
  </g>
  <defs
     id="defs2207">
    <clipPath
       id="clip0_1_1433">
      <rect
         width="28"
         height="28"
         fill="#ffffff"
         id="rect2204"
         x="0"
         y="0" />
    </clipPath>
  </defs>
</svg>
