<?xml version="1.0" encoding="UTF-8" standalone="no"?>
<svg
   width="28.000021"
   height="28.000021"
   viewBox="0 0 28.000021 28.000021"
   fill="none"
   version="1.1"
   id="svg2186"
   sodipodi:docname="sec_ic_settings_software_update.svg"
   xmlns:inkscape="http://www.inkscape.org/namespaces/inkscape"
   xmlns:sodipodi="http://sodipodi.sourceforge.net/DTD/sodipodi-0.dtd"
   xmlns="http://www.w3.org/2000/svg"
   xmlns:svg="http://www.w3.org/2000/svg">
  <sodipodi:namedview
     id="namedview2188"
     pagecolor="#ffffff"
     bordercolor="#666666"
     borderopacity="1.0"
     inkscape:showpageshadow="2"
     inkscape:pageopacity="0.0"
     inkscape:pagecheckerboard="0"
     inkscape:deskcolor="#d1d1d1" />
  <g
     clip-path="url(#clip0_1_1355)"
     id="g2179">
    <path
       d="M 24.856,3.14401 C 23.13,1.52161 20.7739,0.601214 18.1738,0.256914 15.6907,-0.072186 14,0.00881404 14,0.00881404 c 0,0 -1.691,-0.08100004 -4.17421,0.24809996 -2.6,0.3443 -4.956,1.264696 -6.6815,2.887096 -1.6228,1.7258 -2.543099,4.0819 -2.887599,6.6819 -0.3291004,2.48299 -0.2478004,4.17399 -0.2478004,4.17399 0,0 -0.0813,1.6908 0.2478004,4.174 0.3445,2.5998 1.264799,4.9561 2.887399,6.6819 1.7257,1.6226 4.0817,2.5428 6.6817,2.8875 C 12.309,28.0722 14,27.9912 14,27.9912 c 0,0 1.6907,0.081 4.1738,-0.2479 2.6001,-0.3447 4.9562,-1.2649 6.6818,-2.8875 1.623,-1.7258 2.5432,-4.0821 2.8877,-6.6819 0.3289,-2.4832 0.2479,-4.174 0.2479,-4.174 0,0 0.081,-1.691 -0.2479,-4.17399 -0.3445,-2.6 -1.2647,-4.9561 -2.8873,-6.6819 z"
       fill="#818afe"
       id="path2175" />
    <path
       d="m 16.6473,11.4215 c 1.4685,1.4685 1.4685,3.8574 0,5.3258 -0.7342,0.7343 -1.6986,1.101 -2.6629,1.101 -0.9643,0 -1.9287,-0.3667 -2.6629,-1.101 -1.4685,-1.4684 -1.4685,-3.8573 0,-5.3258 0.2686,-0.2676 0.704,-0.2676 0.9726,0 0.2686,0.2686 0.2686,0.704 0,0.9726 -0.9323,0.9323 -0.9323,2.4484 0,3.3816 0.9322,0.9313 2.4484,0.9313 3.3807,0 0.9322,-0.9332 0.9322,-2.4493 0,-3.3816 l -0.2952,-0.2952 v 0.8984 c 0,0.3804 -0.308,0.6875 -0.6875,0.6875 -0.3795,0 -0.6875,-0.3071 -0.6875,-0.6875 v -1.9644 c 0,-0.6179 0.5032,-1.1211 1.1211,-1.1211 h 1.9681 c 0.3795,0 0.6875,0.308 0.6875,0.6875 0,0.3795 -0.308,0.6875 -0.6875,0.6875 H 16.5126 Z M 9.7989,6.323 c -1.287,0 -2.3301,0.9964 -2.3301,2.2248 v 10.9056 c 0,1.2283 1.0431,2.2238 2.3301,2.2238 h 8.4022 c 1.287,0 2.3302,-0.9955 2.3302,-2.2238 V 8.5478 c 0,-1.2284 -1.0432,-2.2248 -2.3302,-2.2248 z"
       fill="#ffffff"
       id="path2177" />
  </g>
  <defs
     id="defs2184">
    <clipPath
       id="clip0_1_1355">
      <rect
         width="28"
         height="28"
         fill="#ffffff"
         id="rect2181"
         x="0"
         y="0" />
    </clipPath>
  </defs>
</svg>
