<svg width="14" height="14" viewBox="0 0 14 14" fill="none" xmlns="http://www.w3.org/2000/svg">
<path fill-rule="evenodd" clip-rule="evenodd" d="M11.3299 0.274914C12.0454 -0.0161826 12.8723 0.068053 13.4265 0.621841C13.9843 1.17821 14.0646 2.00615 13.7756 2.71855L13.7721 2.72704L9.92113 11.8965C9.65802 12.5344 9.10551 13.2109 8.2655 13.1883L8.26344 13.1883C8.04193 13.1817 7.74133 13.1194 7.4476 12.9016C7.15503 12.6848 6.92831 12.3575 6.77719 11.9229L6.77426 11.9145L5.61158 8.43714L2.12761 7.27318C1.69214 7.122 1.36456 6.89475 1.14783 6.60169C0.931206 6.30877 0.868841 6.00885 0.862893 5.78687C0.837363 4.94316 1.51922 4.39085 2.15377 4.12745C2.15435 4.12721 2.15494 4.12697 2.15552 4.12673L11.3299 0.274914ZM7.06281 8.04717L8.19532 11.4341C8.24137 11.5654 8.28609 11.6347 8.31353 11.6684C8.31549 11.6668 8.31753 11.665 8.31965 11.6632C8.37472 11.6147 8.45817 11.5101 8.53498 11.3233L8.53708 11.3182L12.3871 2.15103C12.4958 1.87991 12.4127 1.72924 12.3671 1.68382L12.3663 1.68294C12.3206 1.63731 12.1689 1.55416 11.8986 1.66297L2.72967 5.5125C2.54131 5.59054 2.43593 5.67467 2.38727 5.73003C2.38523 5.73236 2.38332 5.73458 2.38154 5.73671C2.38815 5.74208 2.39616 5.74813 2.4058 5.75476C2.44377 5.78088 2.5093 5.81749 2.61584 5.85479L6.00243 6.98623L8.68235 4.30719C8.9753 4.01435 9.45017 4.01443 9.74301 4.30737C10.0359 4.60031 10.0358 5.07518 9.74284 5.36803L7.06281 8.04717Z" fill="#FFFAFA" fill-opacity="0.980392"/>
</svg>
