<?xml version="1.0" encoding="UTF-8" standalone="no"?>
<svg
   width="17.253443"
   height="17.249897"
   viewBox="0 0 17.253443 17.249897"
   fill="none"
   version="1.1"
   id="svg2293"
   sodipodi:docname="send-airplane.svg"
   xmlns:inkscape="http://www.inkscape.org/namespaces/inkscape"
   xmlns:sodipodi="http://sodipodi.sourceforge.net/DTD/sodipodi-0.dtd"
   xmlns="http://www.w3.org/2000/svg"
   xmlns:svg="http://www.w3.org/2000/svg">
  <defs
     id="defs2297" />
  <sodipodi:namedview
     id="namedview2295"
     pagecolor="#ffffff"
     bordercolor="#666666"
     borderopacity="1.0"
     inkscape:showpageshadow="2"
     inkscape:pageopacity="0.0"
     inkscape:pagecheckerboard="0"
     inkscape:deskcolor="#d1d1d1" />
  <path
     d="m 16.992354,0.64592704 c -0.415,-0.614 -1.247,-0.824 -2.087,-0.483 L 1.2383536,5.902927 c -0.78999998,0.325 -1.25299998,0.85097 -1.23799998107,1.40697 0.009000001,0.301 0.16600000107,0.855 1.13599998107,1.192 l 4.915,1.641 4.2160004,-4.21597 c 0.292,-0.293 0.767,-0.293 1.06,0 0.293,0.293 0.293,0.76797 0,1.06097 l -4.2150004,4.216 1.647,4.91 c 0.352,1.025 0.966,1.136 1.214,1.136 0.5520004,0 1.0550004,-0.45 1.3780004,-1.234 l 5.738,-13.67697 c 0.249,-0.615 0.213,-1.232 -0.097,-1.69299996 z"
     fill="#252525"
     id="path2291" />
</svg>
