<svg width="22" height="17" viewBox="0 0 22 17" fill="none" xmlns="http://www.w3.org/2000/svg">
<path d="M10.758 1.53894C14.287 1.53894 17.454 3.28594 19.607 6.04894C20.87 7.66894 20.87 10.1049 19.607 11.7249C17.454 14.4879 14.287 16.2349 10.757 16.2349C7.229 16.2349 4.062 14.4879 1.907 11.7249C0.645003 10.1049 0.645003 7.66994 1.907 6.04994C4.062 3.28594 7.229 1.53994 10.757 1.53994L10.758 1.53894ZM10.758 4.76194C8.478 4.76194 6.633 6.60894 6.633 8.88694C6.633 11.1649 8.479 13.0119 10.758 13.0119C13.036 13.0119 14.883 11.1649 14.883 8.88694C14.883 6.60894 13.036 4.76194 10.758 4.76194Z" stroke="black" stroke-width="1.5" stroke-linecap="round" stroke-linejoin="round"/>
</svg>
