<svg width="20" height="17" viewBox="0 0 20 17" fill="none" xmlns="http://www.w3.org/2000/svg">
<path d="M6.50215 8.4995C7.05562 8.4995 7.5043 8.9482 7.5043 9.5017C7.5043 10.0552 7.05562 10.5038 6.50215 10.5038C5.94868 10.5038 5.5 10.0552 5.5 9.5017C5.5 8.9482 5.94868 8.4995 6.50215 8.4995ZM10 1.3537V7.4995L10.0005 8.0045L17.442 8.0035L15.7196 6.27977C15.4534 6.01346 15.4292 5.59679 15.6471 5.30321L15.7198 5.21911C15.9861 4.95289 16.4027 4.92875 16.6963 5.14666L16.7804 5.21929L19.777 8.2169C20.043 8.483 20.0674 8.8992 19.85 9.1928L19.7775 9.2769L16.7809 12.2803C16.4884 12.5736 16.0135 12.5741 15.7203 12.2816C15.4537 12.0156 15.429 11.599 15.6465 11.3051L15.7191 11.2209L17.432 9.5035L10.0005 9.5045L10 16.2495C10 16.7159 9.5788 17.0692 9.1196 16.9881L0.61955 15.4868C0.26121 15.4235 0 15.1121 0 14.7482V2.74953C0 2.38222 0.26601 2.06896 0.62847 2.00944L9.1285 0.613608C9.5851 0.538628 10 0.890968 10 1.3537ZM8.5 2.2369L1.5 3.38641V14.1191L8.5 15.3555V2.2369ZM11 15.5008L11.7652 15.501L11.867 15.4941C12.2335 15.4443 12.5158 15.1299 12.5152 14.7497L12.508 10.4995H11V15.5008ZM11.002 6.99953L11 5.72487V1.99952L11.7453 1.99953C12.1245 1.99953 12.4381 2.28105 12.4883 2.64664L12.4953 2.74829L12.502 6.99953H11.002Z" fill="black"/>
</svg>
