<svg width="9" height="10" viewBox="0 0 9 10" fill="none" xmlns="http://www.w3.org/2000/svg">
<path d="M4.50001 3.538C4.86801 3.538 5.16701 3.837 5.16701 4.205V8.503C5.16701 8.871 4.86801 9.17 4.50001 9.17C4.13101 9.17 3.83301 8.871 3.83301 8.503V4.205C3.83301 3.837 4.13101 3.538 4.50001 3.538Z        M1.50001 6.538C1.86801 6.538 2.16701 6.837 2.16701 7.205V8.503C2.16701 8.871 1.86801 9.17 1.50001 9.17C1.13101 9.17 0.833008 8.871 0.833008 8.503V7.205C0.833008 6.837 1.13101 6.538 1.50001 6.538Z      M7.50001 0.539001C7.86701 0.539001 8.16701 0.837001 8.16701 1.205V8.503C8.16701 8.871 7.86701 9.17 7.50001 9.17C7.13201 9.17 6.83301 8.871 6.83301 8.504V1.206C6.83301 0.837001 7.13201 0.539001 7.50001 0.539001Z" fill="black"/>
</svg>
