<?xml version="1.0" encoding="UTF-8" standalone="no"?>
<svg
   width="19.035999"
   height="19.033991"
   viewBox="0 0 19.035999 19.033991"
   fill="none"
   version="1.1"
   id="svg2340"
   sodipodi:docname="smile.svg"
   xmlns:inkscape="http://www.inkscape.org/namespaces/inkscape"
   xmlns:sodipodi="http://sodipodi.sourceforge.net/DTD/sodipodi-0.dtd"
   xmlns="http://www.w3.org/2000/svg"
   xmlns:svg="http://www.w3.org/2000/svg">
  <defs
     id="defs2344" />
  <sodipodi:namedview
     id="namedview2342"
     pagecolor="#ffffff"
     bordercolor="#666666"
     borderopacity="1.0"
     inkscape:showpageshadow="2"
     inkscape:pageopacity="0.0"
     inkscape:pagecheckerboard="0"
     inkscape:deskcolor="#d1d1d1" />
  <path
     d="m 9.519,17.47099 c 4.385,0 7.952,-3.568 7.952,-7.954 C 17.471,5.132 13.904,1.565 9.519,1.565 c -4.386,0 -7.954,3.567 -7.954,7.95199 0,4.386 3.568,7.954 7.954,7.954 z M 9.519,0 c 5.247,0 9.517,4.27 9.517,9.51699 0,5.248 -4.27,9.517 -9.517,9.517 C 4.27,19.03399 0,14.76499 0,9.51699 0,4.27 4.27,0 9.519,0 Z M 6.401,8.54799 c -0.592,0 -1.07,-0.48 -1.07,-1.07199 0,-0.594 0.478,-1.074 1.07,-1.074 0.593,0 1.074,0.48 1.074,1.074 0,0.59199 -0.481,1.07199 -1.074,1.07199 z m 7.206,1.813 c 0.401,0.16 0.598,0.614 0.439,1.016 -0.741,1.871 -2.518,3.079 -4.527,3.079 -2.009,0 -3.786,-1.208 -4.527,-3.079 -0.159,-0.401 0.036,-0.856 0.438,-1.016 0.403,-0.158 0.857,0.037 1.016,0.439 0.504,1.27 1.71,2.091 3.073,2.091 1.363,0 2.569,-0.821 3.072,-2.091 0.16,-0.401 0.615,-0.597 1.016,-0.439 z M 12.762,6.396 c 0.445,-0.012 1.29,0.148 1.978,1.39799 0.173,0.315 0.059,0.711 -0.256,0.885 -0.316,0.174 -0.712,0.06 -0.886,-0.256 -0.299,-0.543 -0.599,-0.726 -0.794,-0.723 -0.217,0.007 -0.473,0.269 -0.669,0.686 -0.111,0.237 -0.346,0.374 -0.591,0.374 -0.093,0 -0.187,-0.019 -0.277,-0.061 -0.325,-0.154 -0.465,-0.542 -0.313,-0.867 C 11.527,6.615 12.333,6.41 12.762,6.396 Z"
     fill="#000000"
     id="path2338" />
</svg>
