<?xml version="1.0" encoding="UTF-8" standalone="no"?>
<svg
   width="28.000011"
   height="28.000021"
   viewBox="0 0 28.000011 28.000021"
   fill="none"
   version="1.1"
   id="svg2386"
   sodipodi:docname="sounds-squircle.svg"
   xmlns:inkscape="http://www.inkscape.org/namespaces/inkscape"
   xmlns:sodipodi="http://sodipodi.sourceforge.net/DTD/sodipodi-0.dtd"
   xmlns="http://www.w3.org/2000/svg"
   xmlns:svg="http://www.w3.org/2000/svg">
  <sodipodi:namedview
     id="namedview2388"
     pagecolor="#ffffff"
     bordercolor="#666666"
     borderopacity="1.0"
     inkscape:showpageshadow="2"
     inkscape:pageopacity="0.0"
     inkscape:pagecheckerboard="0"
     inkscape:deskcolor="#d1d1d1" />
  <g
     clip-path="url(#clip0_1_8414)"
     id="g2379">
    <path
       d="M 24.856,3.14401 C 23.13,1.52161 20.7739,0.601214 18.1738,0.256914 15.6907,-0.072186 14,0.00881404 14,0.00881404 c 0,0 -1.691,-0.08100004 -4.1742,0.24809996 -2.6,0.3443 -4.956,1.264696 -6.6815,2.887096 -1.6228,1.7258 -2.5431,4.0819 -2.8876,6.6819 -0.3290999,2.48299 -0.24779986,4.17399 -0.24779986,4.17399 0,0 -0.08130004,1.6908 0.24779986,4.174 0.3445,2.5998 1.2648,4.9561 2.8874,6.6819 1.7257,1.6226 4.0817,2.5428 6.6817,2.8875 C 12.309,28.0722 14,27.9912 14,27.9912 c 0,0 1.6907,0.081 4.1738,-0.2479 2.6001,-0.3447 4.9562,-1.2649 6.6818,-2.8875 1.623,-1.7258 2.5432,-4.0821 2.8877,-6.6819 0.3289,-2.4832 0.2479,-4.174 0.2479,-4.174 0,0 0.081,-1.691 -0.2479,-4.17399 -0.3445,-2.6 -1.2647,-4.9561 -2.8873,-6.6819 z"
       fill="#000000"
       id="path2375" />
    <path
       d="m 13.6894,7.70122 c 0.5629,-0.506 1.023,-0.2997 1.023,0.4556 V 19.8443 c 0,0.7563 -0.4601,0.9616 -1.023,0.4565 L 9.492,16.7588 V 16.724 C 9.4031,16.7387 9.3133,16.7487 9.2207,16.7487 H 7.3012 c -0.8828,0 -1.6042,-0.7223 -1.6042,-1.6041 v -2.2917 c 0,-0.8828 0.7214,-1.6042 1.6042,-1.6042 h 1.9195 c 0.0926,0 0.1824,0.0101 0.2713,0.0248 v -0.0312 z m 4.9662,0.332 c 0.2585,-0.2786 0.6939,-0.2942 0.9716,-0.0366 1.7261,1.6014 2.6758,3.73358 2.6758,6.00508 0,2.2706 -0.9506,4.4027 -2.6758,6.0032 -0.1329,0.1228 -0.2997,0.1834 -0.4675,0.1834 -0.1842,0 -0.3685,-0.0734 -0.5041,-0.2191 -0.2585,-0.2787 -0.2411,-0.7141 0.0366,-0.9726 1.4419,-1.3365 2.2358,-3.1112 2.2358,-4.9949 0,-1.8847 -0.7939,-3.6584 -2.2358,-4.99678 -0.2777,-0.2585 -0.2951,-0.693 -0.0366,-0.9717 z m -1.9534,2.62988 c 0.2613,-0.2741 0.6958,-0.2869 0.9726,-0.0257 0.946,0.8965 1.4676,2.09 1.4685,3.3633 0,1.2732 -0.5225,2.4676 -1.4685,3.3641 -0.1338,0.1265 -0.3034,0.1879 -0.473,0.1879 -0.1824,0 -0.3639,-0.0715 -0.4996,-0.2135 -0.2612,-0.276 -0.2484,-0.7123 0.0275,-0.9726 0.6692,-0.6344 1.0386,-1.474 1.0386,-2.3659 -9e-4,-0.891 -0.3694,-1.7316 -1.0386,-2.365 -0.2759,-0.2613 -0.2887,-0.6967 -0.0275,-0.9726 z"
       fill="#ffffff"
       id="path2377" />
  </g>
  <defs
     id="defs2384">
    <clipPath
       id="clip0_1_8414">
      <rect
         width="28"
         height="28"
         fill="#ffffff"
         id="rect2381"
         x="0"
         y="0" />
    </clipPath>
  </defs>
</svg>
