<?xml version="1.0" encoding="UTF-8" standalone="no"?>
<svg
   height="185.99966"
   width="186.00084"
   version="1.1"
   id="svg2400"
   sodipodi:docname="squircle-mask.svg"
   xmlns:inkscape="http://www.inkscape.org/namespaces/inkscape"
   xmlns:sodipodi="http://sodipodi.sourceforge.net/DTD/sodipodi-0.dtd"
   xmlns="http://www.w3.org/2000/svg"
   xmlns:svg="http://www.w3.org/2000/svg">
  <defs
     id="defs2404" />
  <sodipodi:namedview
     id="namedview2402"
     pagecolor="#ffffff"
     bordercolor="#666666"
     borderopacity="1.0"
     inkscape:showpageshadow="2"
     inkscape:pageopacity="0.0"
     inkscape:pagecheckerboard="0"
     inkscape:deskcolor="#d1d1d1" />
  <path
     d="m 184.29383,65.271829 c -2.286,-17.273 -8.4,-32.923 -19.179,-44.386 l -0.002,-0.002 c -11.463,-10.778 -27.115,-16.8909999 -44.386,-19.1789999 -16.495,-2.18500001 -27.727001,-1.64600001 -27.727001,-1.64600001 0,0 -11.232,-0.539 -27.728,1.64600001 -17.272,2.289 -32.923,8.4009999 -44.386,19.1789999 l -0.001,0.002 c -10.779,11.463 -16.8919999,27.114 -19.1799999,44.386 -2.18500001,16.494 -1.64600001,27.727 -1.64600001,27.727 0,0 -0.539,11.232001 1.64600001,27.727001 2.288,17.271 8.4009999,32.924 19.1799999,44.386 l 0.001,0.003 c 11.463,10.778 27.114,16.891 44.385,19.18 16.496,2.185 27.729,1.646 27.729,1.646 0,0 11.233001,0.539 27.728001,-1.647 17.271,-2.289 32.923,-8.401 44.386,-19.18 l 0.002,-0.003 c 10.778,-11.462 16.893,-27.114 19.179,-44.386 2.187,-16.494 1.647,-27.727001 1.647,-27.727001 0,0 0.538,-11.231 -1.648,-27.726 z"
     fill="#ff00ff"
     fill-opacity="1"
     id="path2398" />
</svg>
