<?xml version="1.0" encoding="UTF-8" standalone="no"?>
<svg
   width="19.00705"
   height="18.502354"
   viewBox="0 0 19.00705 18.502354"
   fill="none"
   version="1.1"
   id="svg2424"
   sodipodi:docname="star-outline.svg"
   xmlns:inkscape="http://www.inkscape.org/namespaces/inkscape"
   xmlns:sodipodi="http://sodipodi.sourceforge.net/DTD/sodipodi-0.dtd"
   xmlns="http://www.w3.org/2000/svg"
   xmlns:svg="http://www.w3.org/2000/svg">
  <defs
     id="defs2428" />
  <sodipodi:namedview
     id="namedview2426"
     pagecolor="#ffffff"
     bordercolor="#666666"
     borderopacity="1.0"
     inkscape:showpageshadow="2"
     inkscape:pageopacity="0.0"
     inkscape:pagecheckerboard="0"
     inkscape:deskcolor="#d1d1d1" />
  <path
     d="m 1.5065195,7.58298 c 0.016,-0.047 0.04,-0.047 0.064,-0.047 h 0.071 l 4.338,-0.81898 c 0.626,-0.032 1.17001,-0.432 1.38801,-1.02 l 2.03,-4.046 0.042,-0.104 c 0.007,-0.024 0.015,-0.047 0.064,-0.047 0.049,0 0.057,0.023 0.065,0.047 l 2.0719995,4.15 c 0.218,0.588 0.762,0.988 1.387,1.02 l 4.338,0.81898 h 0.071 c 0.024,0 0.049,0 0.064,0.047 0.015,0.046 -0.005,0.061 -0.024,0.075 l -3.18,3.178 c -0.493,0.393 -0.703,1.038 -0.534,1.645 l 0.681,4.312 0.027,0.115 c 0.008,0.023 0.015,0.047 -0.025,0.075 -0.039,0.03 -0.059,0.015 -0.079,0 l -3.976,-2.342 c -0.5349995,-0.369 -1.2379995,-0.369 -1.7739995,0 l -3.91601,2.302 -0.06,0.04 c -0.02,0.015 -0.039,0.03 -0.079,0 -0.039,-0.028 -0.033,-0.052 -0.025,-0.075 l 0.708,-4.427 c 0.169,-0.607 -0.041,-1.252 -0.534,-1.645 l -3.089,-3.101 -0.091,-0.077 c -0.019,-0.014 -0.039,-0.029 -0.024,-0.075 z m -0.91100005,1.247 3.08800005,3.101 0.091,0.077 c 0.023,0.017 0.033,0.048 0.024,0.075 l -0.708,4.427 c -0.179,0.637 0.048,1.294 0.589,1.687 0.28,0.203 0.6,0.305 0.922,0.305 0.307,0 0.615,-0.094 0.886,-0.281 l 3.91501,-2.303 0.061,-0.04 c 0.024,-0.018 0.056,-0.018 0.08,0 l 3.9759995,2.343 c 0.554,0.383 1.259,0.375 1.808,-0.024 0.541,-0.393 0.768,-1.05 0.589,-1.687 l -0.681,-4.312 -0.027,-0.115 c -0.009,-0.027 10e-4,-0.058 0.025,-0.075 l 3.178,-3.178 c 0.52,-0.411 0.722,-1.075 0.516,-1.71098 -0.206,-0.632 -0.754,-1.05 -1.41,-1.081 l -4.338,-0.819 h -0.07 c -0.03,0 -0.055,-0.019 -0.065,-0.047 l -2.071,-4.151 C 10.743529,0.398 10.173529,0 9.5035295,0 c -0.67,0 -1.24,0.399 -1.47,1.021 l -2.02801,4.046 -0.043,0.105 c -0.01,0.028 -0.03499,0.047 -0.06399,0.047 h -0.071 l -4.33701,0.819 C 0.83351945,6.069 0.28551945,6.487 0.07951945,7.119 c -0.206,0.63598 -0.004,1.29998 0.516,1.71098 z"
     fill="#252525"
     id="path2422" />
</svg>
