<?xml version="1.0" encoding="UTF-8" standalone="no"?>
<svg
   width="17.503241"
   height="16.99931"
   viewBox="0 0 17.503241 16.99931"
   fill="none"
   version="1.1"
   id="svg2412"
   sodipodi:docname="star-filled.svg"
   xmlns:inkscape="http://www.inkscape.org/namespaces/inkscape"
   xmlns:sodipodi="http://sodipodi.sourceforge.net/DTD/sodipodi-0.dtd"
   xmlns="http://www.w3.org/2000/svg"
   xmlns:svg="http://www.w3.org/2000/svg">
  <defs
     id="defs2416" />
  <sodipodi:namedview
     id="namedview2414"
     pagecolor="#ffffff"
     bordercolor="#666666"
     borderopacity="1.0"
     inkscape:showpageshadow="2"
     inkscape:pageopacity="0.0"
     inkscape:pagecheckerboard="0"
     inkscape:deskcolor="#d1d1d1" />
  <path
     d="m 12.35712,5.21775 c -0.354,0 -0.668,-0.228 -0.777,-0.564 l -2.0509997,-4.089 c -0.244,-0.753 -1.31,-0.753 -1.555,0 l -2.051,4.089 c -0.109,0.336 -0.422,0.564 -0.777,0.564 l -4.32700005,0.817 c -0.792,0 -1.121,1.01405 -0.481,1.47905 l 3.12400005,3.137 c 0.288,0.208 0.407,0.5769 0.297,0.9139 l -0.687,4.361 c -0.245,0.753 0.617,1.379 1.258,0.914 l 3.941,-2.319 c 0.286,-0.208 0.675,-0.208 0.961,0 l 3.9409997,2.319 c 0.641,0.465 1.503,-0.161 1.259,-0.914 l -0.688,-4.361 c -0.11,-0.337 0.01,-0.7059 0.297,-0.9139 l 3.124,-3.137 c 0.64,-0.465 0.311,-1.47905 -0.481,-1.47905 z"
     fill="#252525"
     id="path2410" />
</svg>
