<?xml version="1.0" encoding="UTF-8" standalone="no"?>
<svg
   width="25.625999"
   height="25.625877"
   viewBox="0 0 25.625999 25.625877"
   fill="none"
   version="1.1"
   id="svg2451"
   sodipodi:docname="sticker.svg"
   xmlns:inkscape="http://www.inkscape.org/namespaces/inkscape"
   xmlns:sodipodi="http://sodipodi.sourceforge.net/DTD/sodipodi-0.dtd"
   xmlns="http://www.w3.org/2000/svg"
   xmlns:svg="http://www.w3.org/2000/svg">
  <sodipodi:namedview
     id="namedview2453"
     pagecolor="#ffffff"
     bordercolor="#666666"
     borderopacity="1.0"
     inkscape:showpageshadow="2"
     inkscape:pageopacity="0.0"
     inkscape:pagecheckerboard="0"
     inkscape:deskcolor="#d1d1d1" />
  <g
     clip-path="url(#clip0_1_772)"
     id="g2444"
     transform="translate(-0.171101,-0.232422)">
    <path
       d="M 14.2439,25.1083 H 4.5766 c -2.0105,0 -3.655499,-1.6449 -3.655499,-3.6554 V 4.63782 c 0,-2.0105 1.644999,-3.655398 3.655499,-3.655398 h 16.815 c 2.0105,0 3.6555,1.644898 3.6555,3.655398 v 9.66868"
       stroke="#000000"
       stroke-width="1.5"
       id="path2434" />
    <path
       d="m 17.1454,10.9653 c 0.6878,0 1.2462,-0.5593 1.2462,-1.24792 0,-0.6908 -0.5584,-1.2479 -1.2462,-1.2479 -0.6911,0 -1.2496,0.5571 -1.2496,1.2479 0,0.68862 0.5585,1.24792 1.2496,1.24792 z"
       fill="#000000"
       id="path2436" />
    <path
       d="m 8.8228,10.9653 c 0.69,0 1.2495,-0.5593 1.2495,-1.24792 0,-0.6908 -0.5595,-1.249 -1.2495,-1.2479 -0.6889,-0.0011 -1.2474,0.5571 -1.2463,1.2479 0,0.68862 0.5563,1.24792 1.2463,1.24792 z"
       fill="#000000"
       id="path2438" />
    <path
       d="m 25.0471,14.2932 c 0,0 -1.1662,0.6431 -4.1972,0.7435 -2.0272,0.0673 -3.2766,0.4292 -4.3609,1.5146 -1.0843,1.0842 -1.4474,2.336 -1.5161,4.3604 -0.0977,3.0319 -0.7409,4.1966 -0.7409,4.1966 z"
       fill="#000000"
       stroke="#000000"
       stroke-width="1.5"
       stroke-linecap="round"
       stroke-linejoin="round"
       id="path2440" />
    <path
       d="m 6.7446,15.125 c 1.3204,2.7393 5.1517,3.9785 8.3193,2.9907"
       stroke="#000000"
       stroke-width="1.5"
       stroke-linecap="round"
       stroke-linejoin="round"
       id="path2442" />
  </g>
  <defs
     id="defs2449">
    <clipPath
       id="clip0_1_772">
      <rect
         width="26"
         height="26"
         fill="#ffffff"
         id="rect2446"
         x="0"
         y="0" />
    </clipPath>
  </defs>
</svg>
