<?xml version="1.0" encoding="UTF-8" standalone="no"?>
<svg
   width="23.802999"
   height="22.290039"
   viewBox="0 0 23.802999 22.290039"
   fill="none"
   version="1.1"
   id="svg2468"
   sodipodi:docname="store.svg"
   xmlns:inkscape="http://www.inkscape.org/namespaces/inkscape"
   xmlns:sodipodi="http://sodipodi.sourceforge.net/DTD/sodipodi-0.dtd"
   xmlns="http://www.w3.org/2000/svg"
   xmlns:svg="http://www.w3.org/2000/svg">
  <defs
     id="defs2472" />
  <sodipodi:namedview
     id="namedview2470"
     pagecolor="#ffffff"
     bordercolor="#666666"
     borderopacity="1.0"
     inkscape:showpageshadow="2"
     inkscape:pageopacity="0.0"
     inkscape:pagecheckerboard="0"
     inkscape:deskcolor="#d1d1d1" />
  <path
     d="m 2.057,8.17504 c 0,-0.756 0.614,-1.37 1.371,-1.37 h 2.008 v 3.4 l 0.001,0.032 c -0.002,0.163 -0.034,0.316 -0.08,0.463 -0.212,0.691 -0.848,1.197 -1.609,1.197 -0.623,0 -1.159,-0.34 -1.454,-0.84 -0.146,-0.251 -0.237,-0.54 -0.237,-0.852 z m 5.436,-1.37 h 3.379 v 3.4 l 10e-4,0.032 c -0.004,0.163 -0.034,0.316 -0.08,0.463 -0.212,0.691 -0.848,1.197 -1.61,1.197 -0.759,0 -1.395,-0.506 -1.61,-1.197 -0.044,-0.147 -0.075,-0.3 -0.077,-0.463 0,-0.01 -0.003,-0.021 -0.003,-0.032 z m 5.436,0 h 3.377 v 3.4 l 0.002,0.033 c -0.003,0.162 -0.035,0.315 -0.08,0.462 -0.211,0.691 -0.847,1.197 -1.608,1.197 -0.761,0 -1.396,-0.506 -1.61,-1.197 -0.046,-0.147 -0.076,-0.3 -0.078,-0.463 0,-0.01 -0.003,-0.021 -0.003,-0.032 z m 5.434,0 h 2.011 c 0.758,0 1.37,0.614 1.37,1.37 v 2.03 c 0,0.313 -0.088,0.6 -0.235,0.852 -0.293,0.5 -0.832,0.84 -1.455,0.84 -0.761,0 -1.397,-0.506 -1.608,-1.197 -0.046,-0.147 -0.076,-0.3 -0.079,-0.462 -0.001,-0.011 -0.004,-0.02 -0.004,-0.033 z m -18.362,1.37 v 2.03 c 0,1.552 0.948,2.887 2.294,3.456 v 5.201 c 0,1.885 1.543,3.428 3.429,3.428 H 7.96 v -4.008 c 0,-1.32 1.08,-2.4 2.4,-2.4 1.32,0 2.4,1.08 2.4,2.4 v 4.008 h 5.322 c 1.885,0 3.428,-1.543 3.428,-3.428 v -5.201 c 1.347,-0.57 2.293,-1.904 2.293,-3.456 v -2.03 c 0,-0.714 -0.22,-1.376 -0.594,-1.926 L 20.999,1.736 C 20.48,0.673 19.399,0 18.216,0 H 5.588 C 4.405,0 3.324,0.673 2.805,1.736 L 0.597,6.24904 C 0.221,6.79904 0,7.46104 0,8.17504 Z"
     fill="#000000"
     id="path2466" />
</svg>
