<?xml version="1.0" encoding="UTF-8" standalone="no"?>
<svg
   width="71.998001"
   height="71.999199"
   viewBox="0 0 71.998001 71.999199"
   fill="none"
   version="1.1"
   id="svg2502"
   sodipodi:docname="translation.svg"
   xmlns:inkscape="http://www.inkscape.org/namespaces/inkscape"
   xmlns:sodipodi="http://sodipodi.sourceforge.net/DTD/sodipodi-0.dtd"
   xmlns="http://www.w3.org/2000/svg"
   xmlns:svg="http://www.w3.org/2000/svg">
  <defs
     id="defs2506" />
  <sodipodi:namedview
     id="namedview2504"
     pagecolor="#ffffff"
     bordercolor="#666666"
     borderopacity="1.0"
     inkscape:showpageshadow="2"
     inkscape:pageopacity="0.0"
     inkscape:pagecheckerboard="0"
     inkscape:deskcolor="#d1d1d1" />
  <path
     d="M 47.708,23.328 V 11 c 0,-4.42 -3.584,-8 -8,-8 H 13 C 7.476,3 3,7.476 3,13 v 26.712 c 0,4.416 3.58,8 8,8 h 2.076"
     stroke="#000000"
     stroke-width="6"
     stroke-linecap="round"
     stroke-linejoin="round"
     id="path2490" />
  <path
     d="m 24.29,21.1992 v 37.8 c 0,5.524 4.476,10 10,10 h 24.708 c 5.524,0 10,-4.476 10,-10 v -22.58 c 0,-4.42 -3.58,-8 -8,-8 H 59.29"
     stroke="#000000"
     stroke-width="6"
     stroke-linecap="round"
     stroke-linejoin="round"
     id="path2492" />
  <path
     d="m 15.009,26.9022 7.868,-7.868 c 0.78,-0.78 2.048,-0.78 2.828,0 l 7.868,7.868"
     stroke="#000000"
     stroke-width="6"
     stroke-linecap="round"
     stroke-linejoin="round"
     id="path2494" />
  <path
     d="m 56.989,14.3428 -7.868,7.868 c -0.78,0.776 -2.048,0.776 -2.828,0 l -7.868,-7.868"
     stroke="#000000"
     stroke-width="6"
     stroke-linecap="round"
     stroke-linejoin="round"
     id="path2496" />
  <path
     d="M 36.464,57.4772 46,36.7612 c 0.356,-0.776 1.46,-0.776 1.816,0 l 9.544,20.716"
     stroke="#000000"
     stroke-width="6"
     stroke-linecap="round"
     stroke-linejoin="round"
     id="path2498" />
  <path
     d="m 41.413,48.961 h 11"
     stroke="#000000"
     stroke-width="6"
     stroke-linecap="round"
     stroke-linejoin="round"
     id="path2500" />
</svg>
