<svg width="32" height="25" viewBox="0 0 32 25" fill="none" xmlns="http://www.w3.org/2000/svg">
<path d="M3.33372 9.2088C2.4431 9.2088 1.71263 8.9295 1.14232 8.37091C0.572006 7.80841 0.28685 7.07208 0.28685 6.16193V0.331848H1.43529V6.2381C1.43529 6.75372 1.61888 7.19708 1.98607 7.56818C2.35716 7.93536 2.80638 8.11896 3.33372 8.11896C3.85716 8.11896 4.30638 7.93341 4.68138 7.56232C5.05638 7.19122 5.24388 6.74982 5.24388 6.2381V0.331848H6.39232V6.16193C6.39232 7.06818 6.10326 7.80255 5.52513 8.36505C4.95091 8.92755 4.22044 9.2088 3.33372 9.2088Z" fill="white"/>
<path d="M7.31055 13.9492V5.18946H8.62891L13.3457 12.0801V5.18946H14.5V13.9492H13.2637L8.45898 6.96485V13.9492H7.31055Z" fill="white"/>
<path d="M16.2539 17.7598V9H17.4199V17.7598H16.2539Z" fill="white"/>
<path d="M21.252 21.5V13.8301H18.709V12.7402H24.9492V13.8301H22.4063V21.5H21.252Z" fill="white"/>
<path d="M27.9805 24.2598V20.1055L25.1094 15.5H26.3926L28.5547 18.9922L30.7168 15.5H32L29.1289 20.1055V24.2598H27.9805Z" fill="white"/>
</svg>
