<?xml version="1.0" encoding="UTF-8" standalone="no"?>
<svg
   width="20"
   height="16"
   viewBox="0 0 20 16"
   fill="none"
   version="1.1"
   id="svg2644"
   sodipodi:docname="video-camera.svg"
   xmlns:inkscape="http://www.inkscape.org/namespaces/inkscape"
   xmlns:sodipodi="http://sodipodi.sourceforge.net/DTD/sodipodi-0.dtd"
   xmlns="http://www.w3.org/2000/svg"
   xmlns:svg="http://www.w3.org/2000/svg">
  <defs
     id="defs2648" />
  <sodipodi:namedview
     id="namedview2646"
     pagecolor="#ffffff"
     bordercolor="#666666"
     borderopacity="1.0"
     inkscape:showpageshadow="2"
     inkscape:pageopacity="0.0"
     inkscape:pagecheckerboard="0"
     inkscape:deskcolor="#d1d1d1" />
  <path
     d="M 14,14 V 5.69 2 H 2 V 14 Z M 16,2 V 6.48 L 20,2.5 v 11 L 16,9.52 V 14 c 0,0.53 -0.21,1.04 -0.59,1.41 C 15.04,15.79 14.53,16 14,16 H 2 C 1.47,16 0.96,15.79 0.59,15.41 0.21,15.04 0,14.53 0,14 V 2 C 0,1.47 0.21,0.96 0.59,0.59 0.96,0.21 1.47,0 2,0 h 12 c 0.53,0 1.04,0.21 1.41,0.59 C 15.79,0.96 16,1.47 16,2 Z"
     fill="#000000"
     id="path2640" />
  <path
     d="M 16,2 V 6.48 L 20,2.5 v 11 L 16,9.52 V 14 c 0,0.53 -0.21,1.04 -0.59,1.41 C 15.04,15.79 14.53,16 14,16 H 2 C 1.47,16 0.96,15.79 0.59,15.41 0.21,15.04 0,14.53 0,14 V 2 C 0,1.47 0.21,0.96 0.59,0.59 0.96,0.21 1.47,0 2,0 h 12 c 0.53,0 1.04,0.21 1.41,0.59 C 15.79,0.96 16,1.47 16,2 Z"
     fill="#000000"
     id="path2642" />
</svg>
