<svg width="33" height="31" viewBox="0 0 33 31" fill="none" xmlns="http://www.w3.org/2000/svg">
<path d="M5.4251 1.91141C6.0604 1.93941 6.7394 2.19311 7.6354 3.09261L9.9033 5.35881C10.8028 6.26011 11.0566 6.93741 11.0881 7.57261C11.1161 8.20261 10.9271 8.86061 10.1151 9.67441L9.2034 10.5879C8.3826 11.4069 8.1901 12.0648 8.2216 12.7001C8.2496 13.2199 8.5086 13.7396 8.5401 13.7973C9.0108 14.7091 11.4171 18.9686 16.5306 21.8946C16.6846 21.9961 17.3724 22.3636 17.8939 22.3724C18.5308 22.3811 19.1871 22.2113 20.0044 21.3906L20.9196 20.4788C21.7334 19.6686 22.3896 19.4778 23.0214 19.5076C23.6583 19.5356 24.3356 19.7911 25.2351 20.6906L27.4996 22.9586C28.4008 23.8563 28.6546 24.5336 28.6843 25.1706C28.7141 25.8023 28.5251 26.4586 27.7149 27.2706L27.7079 27.2776C25.1161 29.8658 22.6504 30.4504 20.0954 30.3296C18.4993 30.2543 16.8368 29.8291 14.9328 28.6409C14.9276 28.6443 14.6301 28.4483 14.4848 28.3486C14.3921 28.2856 14.2959 28.2191 14.1996 28.1526C6.1234 22.4844 1.9426 15.6453 1.9426 15.6453C0.7631 13.7484 0.3396 12.0911 0.2643 10.5004C0.1436 7.94361 0.7281 5.47781 3.3128 2.88961L3.3163 2.88781C4.1354 2.06881 4.7916 1.87991 5.4251 1.91141ZM23.7595 10.5523C24.7255 10.5523 25.5095 11.3363 25.5095 12.3023C25.5095 13.2683 24.7255 14.0523 23.7595 14.0523C22.7935 14.0523 22.0095 13.2683 22.0095 12.3023C22.0095 11.3363 22.7935 10.5523 23.7595 10.5523ZM18.7316 7.41631C21.5036 4.64431 26.0151 4.64431 28.7871 7.41631C29.2998 7.92911 29.2998 8.76031 28.7871 9.27311C28.5298 9.52861 28.1938 9.65631 27.8578 9.65631C27.5218 9.65631 27.1876 9.52861 26.9303 9.27311C25.1821 7.52481 22.3366 7.52481 20.5883 9.27311C20.0756 9.78581 19.2443 9.78581 18.7316 9.27311C18.2188 8.76031 18.2188 7.92911 18.7316 7.41631ZM14.9558 3.64021C19.8103 -1.21259 27.708 -1.21259 32.5625 3.64021C33.0753 4.15291 33.0753 4.98421 32.5625 5.49691C32.307 5.75241 31.971 5.88021 31.635 5.88021C31.299 5.88021 30.963 5.75241 30.7058 5.49691C26.875 1.66621 20.6433 1.66621 16.8125 5.49691C16.2998 6.00971 15.4685 6.00971 14.9558 5.49691C14.443 4.98421 14.443 4.15291 14.9558 3.64021Z" fill="black"/>
</svg>
