<?xml version="1.0" encoding="UTF-8" standalone="no"?>
<svg
   width="53.285435"
   height="53.230953"
   viewBox="0 0 53.285435 53.230953"
   fill="none"
   version="1.1"
   id="svg2735"
   sodipodi:docname="wrench-outline.svg"
   xmlns:inkscape="http://www.inkscape.org/namespaces/inkscape"
   xmlns:sodipodi="http://sodipodi.sourceforge.net/DTD/sodipodi-0.dtd"
   xmlns="http://www.w3.org/2000/svg"
   xmlns:svg="http://www.w3.org/2000/svg">
  <defs
     id="defs2739" />
  <sodipodi:namedview
     id="namedview2737"
     pagecolor="#ffffff"
     bordercolor="#666666"
     borderopacity="1.0"
     inkscape:showpageshadow="2"
     inkscape:pageopacity="0.0"
     inkscape:pagecheckerboard="0"
     inkscape:deskcolor="#d1d1d1" />
  <path
     d="m 7.8878915,53.230806 c -2.0083,0.0123 -3.9448,-0.7465 -5.41,-2.12 -0.7703,-0.7349 -1.3862,-1.6161 -1.81159996,-2.592 -0.4253,-0.9759 -0.6516,-2.027 -0.66560000457,-3.0915 -0.0139999954,-1.0645 0.18470000457,-2.1211 0.58430000457,-3.1078 0.3996,-0.9868 0.99209996,-1.8839 1.74289996,-2.6387 l 18.8900005,-18.89 c -0.8094,-2.868 -0.8196,-5.9027 -0.0294,-8.776 0.7901,-2.8734 2.3506,-5.4761 4.5126,-7.527 2.1621,-2.0508 4.8435,-3.4718 7.7546,-4.10930001 2.911,-0.6375 5.9409,-0.4673 8.7622,0.4923 0.5633,0.19100001 1.0684,0.52270001 1.4674,0.96370001 0.3991,0.4411 0.6788,0.9768 0.8126,1.5563 0.1406,0.5649 0.1365,1.1561 -0.0121,1.719 -0.1486,0.5628 -0.4368,1.0791 -0.8379,1.501 l -7.64,7.64 2.79,3.05 7.85,-7.63 c 0.4133,-0.4192 0.9276,-0.7249 1.4933,-0.8878 0.5657,-0.1628 1.1638,-0.1774 1.7367,-0.0422 0.5787,0.1356 1.1135,0.4159 1.5543,0.8147 0.4408,0.3988 0.7731,0.903 0.9657,1.4653 0.9698,2.8221 1.1488,5.8559 0.5175,8.7725 -0.6313,2.9166 -2.0487,5.6048 -4.0988,7.7733 -2.05,2.1685 -4.6544,3.7346 -7.531,4.5286 -2.8766,0.794 -5.9156,0.7855 -8.7877,-0.0244 l -18.7,18.7 c -0.7752,0.7782 -1.6962,1.396 -2.7102,1.8181 -1.0141,0.4221 -2.1014005,0.6402 -3.1998005,0.6419 z m 29.0000005,-48.76 c -1.9217,0.0098 -3.8122,0.4865 -5.5088,1.3889 -1.6966,0.9025 -3.1486,2.2037 -4.2308,3.7917 -1.0823,1.5879 -1.7625,3.4151 -1.982,5.3242 -0.2196,1.9091 0.0281,3.843 0.7216,5.6352 0.1564,0.4065 0.1914,0.8496 0.1009,1.2756 -0.0905,0.4261 -0.3027,0.8166 -0.6109,1.1244 l -19.8700005,19.85 c -0.3261,0.3302 -0.5826,0.7225 -0.7543,1.1537 -0.1718,0.4311 -0.2553,0.8923 -0.2457,1.3563 0.0051,0.464 0.1044,0.9222 0.2918,1.3468 0.1873,0.4245 0.4589,0.8066 0.7982,1.1232 0.7087,0.6209 1.63,0.9436 2.5713,0.9008 0.9412,-0.0429 1.8294,-0.4481 2.4787005,-1.1308 l 19.65,-19.7 c 0.3091,-0.306 0.6997,-0.5168 1.1252,-0.6072 0.4254,-0.0904 0.8679,-0.0567 1.2748,0.0972 2.1408,0.8206 4.4734,1.0042 6.7162,0.5287 2.2429,-0.4756 4.3002,-1.5899 5.9238,-3.2087 1.3808,-1.3606 2.4051,-3.0404 2.9824,-4.8909 0.5773,-1.8505 0.6898,-3.8148 0.3276,-5.7191 l -6.39,6.38 c -0.4322,0.4386 -0.9476,0.7865 -1.516,1.0235 -0.5683,0.2369 -1.1782,0.3581 -1.794,0.3565 -1.2426,-0.0034 -2.433,-0.4997 -3.31,-1.38 l -2.84,-2.78 c -0.8787,-0.8794 -1.3723,-2.0718 -1.3723,-3.315 0,-1.2432 0.4936,-2.4356 1.3723,-3.315 l 6.38,-6.39 c -0.745,-0.1425 -1.5015,-0.2162 -2.26,-0.22 z"
     fill="#000000"
     id="path2733" />
</svg>
